<?xml version="1.0" encoding="UTF-8" standalone="no"?>
<svg
   xmlns:dc="http://purl.org/dc/elements/1.1/"
   xmlns:cc="http://creativecommons.org/ns#"
   xmlns:rdf="http://www.w3.org/1999/02/22-rdf-syntax-ns#"
   xmlns:svg="http://www.w3.org/2000/svg"
   xmlns="http://www.w3.org/2000/svg"
   viewBox="0 0 1365.3333 1534.6667"
   height="1534.6667"
   width="1365.3333"
   xml:space="preserve"
   id="svg2"
   version="1.1"><metadata
     id="metadata8"><rdf:RDF><cc:Work
         rdf:about=""><dc:format>image/svg+xml</dc:format><dc:type
           rdf:resource="http://purl.org/dc/dcmitype/StillImage" /></cc:Work></rdf:RDF></metadata><defs
     id="defs6" /><g
     transform="matrix(1.3333333,0,0,-1.3333333,0,1534.6667)"
     id="g10"><path
       id="path12"
       style="fill:#000000;fill-opacity:1;fill-rule:nonzero;stroke:none"
       d="m 368.298,1.549 c -0.966,0.975 -1.756,5.391 -1.756,9.814 0,6.199 2.817,11.097 12.296,21.384 13.003,14.109 15.081,20.291 8.141,24.212 -4.668,2.637 -13.641,-1.03 -26.772,-10.942 -4.163,-3.142 -12.783,-6.503 -19.156,-7.467 -6.372,-0.965 -14.384,-3.976 -17.803,-6.691 -5.032,-3.995 -6.916,-4.351 -9.882,-1.866 -2.457,2.058 -8.875,2.647 -19.474,1.789 -9.308,-0.754 -16.852,-0.227 -18.347,1.282 -1.396,1.409 -9.501,5.674 -18.013,9.476 -11.67,5.215 -16.097,8.643 -18.015,13.952 -6.639,18.378 -7.583,19 -26.733,17.616 -15.35,-1.108 -18.175,-2.104 -22.88,-8.06 -3.412,-4.319 -5.984,-5.789 -7.059,-4.034 -2.2,3.593 -34.107,3.626 -37.661,0.038 -1.951,-1.97 -4.413,-1.589 -8.901,1.38 -4.1,2.712 -12.347,4.268 -24.326,4.591 C 97.958,68.401 93.1,69.504 90.609,72.872 85.171,80.224 78.5,78.226 75.245,68.27 72.363,59.454 72.146,59.334 61.861,60.891 50.405,62.625 44.375,58.727 47.165,51.388 c 2.545,-6.697 -7.029,-4.722 -12.266,2.53 -3.836,5.312 -4.05,6.803 -1.234,8.603 1.874,1.198 4.676,2.195 6.227,2.216 4.994,0.068 6.092,8.058 1.77,12.879 -3.598,4.014 -3.717,5.492 -0.876,10.851 1.809,3.412 3.934,6.21 4.723,6.217 0.789,0.006 4.766,2.79 8.838,6.185 l 7.404,6.173 -5.923,4.695 c -5.647,4.477 -5.733,4.967 -1.851,10.563 2.24,3.227 4.072,10.648 4.072,16.491 0,9.578 0.789,10.981 8.021,14.261 9.715,4.407 16.658,9.845 16.658,13.047 0,4.944 -15.568,18.261 -21.348,18.261 -3.408,0 -6.647,1.864 -7.575,4.36 -2.072,5.576 -7.274,9.92 -17.351,14.491 -5.391,2.445 -8.021,5.368 -8.021,8.916 0,2.903 -3.995,9.082 -8.878,13.731 -5.351,5.094 -8.325,9.908 -7.485,12.116 0.766,2.016 0.244,9.937 -1.16,17.604 -2.103,11.483 -1.915,14.447 1.066,16.827 1.991,1.589 4.346,5.362 5.234,8.385 1.299,4.418 -0.093,6.615 -7.1,11.211 -11.317,7.421 -12.616,11.403 -6.464,19.804 6,8.191 6.346,11.722 1.342,13.661 -5.581,2.162 -4.458,7.302 2.618,11.982 8.289,5.483 12.19,3.86 12.19,-5.071 0,-6.214 1.063,-7.377 7.403,-8.099 9.946,-1.133 13.574,-4.612 13.574,-13.017 0,-8.246 0.947,-9.033 12.236,-10.184 7.764,-0.791 8.671,-0.195 10.06,6.605 0.84,4.11 2.835,9.933 4.435,12.939 2.624,4.928 2.381,5.362 -2.475,4.418 -2.961,-0.576 -6.186,-2.357 -7.167,-3.959 -3.286,-5.368 -9.685,-0.202 -9.685,7.819 0,9.947 9.536,18.974 22.353,21.16 5.337,0.91 10.331,2.679 11.097,3.93 2.81,4.59 10.973,2.426 10.973,-2.909 0,-3.734 -2.761,-6.278 -9.872,-9.098 -7.613,-3.019 -9.872,-5.252 -9.872,-9.765 0,-7.663 2.348,-7.382 13.574,1.624 5.452,4.373 12.247,7.474 16.381,7.474 6.47,0 7.065,-0.757 7.065,-8.997 v -8.997 l 9.254,1.69 c 5.091,0.93 13.396,4.418 18.457,7.752 10.645,7.011 18.297,7.653 26.034,2.182 6.433,-4.548 7.105,-11.593 1.551,-16.247 -3.354,-2.81 -4.579,-2.435 -8.299,2.544 -6.643,8.891 -10.844,4.187 -4.961,-5.554 2.66,-4.403 4.84,-10.327 4.845,-13.163 0.005,-2.837 3.702,-9.563 8.216,-14.948 4.513,-5.385 10.826,-14.556 14.028,-20.38 3.202,-5.823 6.45,-10.583 7.218,-10.577 4.197,0.032 23.379,15.567 34.68,28.085 14.827,16.426 18.62,16.807 30.884,3.105 4.072,-4.55 10.735,-9.962 14.807,-12.027 4.072,-2.066 13.512,-11.084 20.978,-20.041 7.465,-8.957 14.828,-16.35 16.361,-16.429 1.533,-0.079 6.794,4.792 11.691,10.825 7.928,9.767 10.327,11.139 21.892,12.524 23.959,2.869 37.035,2.812 45.711,-0.199 9.605,-3.333 23.097,-15.483 30.41,-27.385 10.947,-17.816 61.73,-43.307 90.001,-45.176 15.345,-1.015 18.964,-0.349 30.684,5.646 18.349,9.387 28.518,7.915 49.952,-7.229 18.473,-13.052 29.11,-15.663 31.361,-7.696 1.895,6.708 18.875,33.16 26.969,42.012 10.711,11.716 24.477,19.2 38.154,20.744 13.321,1.503 23.613,9.55 23.808,18.613 0.051,2.393 4.769,6.425 11.186,9.561 l 11.098,5.423 12.348,-9.15 c 6.791,-5.032 12.308,-9.895 12.26,-10.807 -0.048,-0.91 -1.675,-4.458 -3.614,-7.884 -1.94,-3.426 -3.567,-9.296 -3.615,-13.046 -0.068,-5.298 -1.876,-7.573 -8.108,-10.205 -7.329,-3.095 -8.287,-4.811 -11.106,-19.899 -1.697,-9.081 -3.085,-19.775 -3.085,-23.764 0,-4.909 -1.916,-8.521 -5.927,-11.174 -3.26,-2.156 -9.537,-9.544 -13.949,-16.417 -8.043,-12.531 -22.095,-22.225 -37.799,-26.078 -7.364,-1.807 -26.235,-15.725 -26.235,-19.35 0,-3.476 10.902,-2.314 16.692,1.78 2.998,2.12 6.855,3.619 8.57,3.331 6.157,-1.032 16.876,3.447 20.398,8.524 2.044,2.946 6.73,5.394 10.881,5.684 4.009,0.279 9.834,2.307 12.943,4.506 3.109,2.199 7.904,4.014 10.656,4.035 5.098,0.038 22.408,5.489 24.664,7.767 0.683,0.69 2.438,9.935 3.9,20.545 1.462,10.609 4.91,24.547 7.663,30.972 2.753,6.425 5.39,13.607 5.86,15.96 1.194,5.973 25.286,34.763 33.029,39.471 12.708,7.725 42.641,17.288 54.044,17.264 7.118,-0.014 16.669,-2.415 24.783,-6.228 15.157,-7.123 20.199,-7.585 29.493,-2.704 15.283,8.028 21.861,21.414 10.522,21.414 -7.526,0 -10.664,6.262 -8.78,17.521 1.512,9.038 1.111,10.379 -3.471,11.588 -2.849,0.752 -5.181,2.185 -5.181,3.183 0,2.219 9.662,11.268 10.504,9.838 0.331,-0.563 1.853,-3.265 3.383,-6.006 1.89,-3.387 5.051,-4.844 9.872,-4.549 12.003,0.734 17.233,-1.3 20.189,-7.85 l 2.84,-6.291 13.507,8.722 c 7.428,4.797 15.226,8.722 17.327,8.722 2.618,0 3.821,2.405 3.821,7.638 0,13.463 3.909,17.676 15.59,16.803 l 10.325,-0.773 -0.73,9.343 c -0.83,10.805 0.01,11.08 13.16,4.311 10.94,-5.63 12.68,-10.747 4.08,-11.978 -7.79,-1.115 -9.45,-7.035 -4.38,-15.688 4.19,-7.163 4.16,-7.3 -3.7,-15.229 -7.7,-7.775 -7.84,-8.307 -5.05,-18.85 6.01,-22.673 -7.459,-43.833 -36.559,-57.451 -11.345,-5.31 -18.618,-6.654 -42.095,-7.782 -29.135,-1.401 -34.552,-2.773 -34.552,-8.757 0,-1.896 -6.009,-10 -13.353,-18.008 -13.796,-15.042 -21.131,-19.221 -56.537,-32.209 -19.937,-7.314 -36.231,-18.446 -36.231,-24.753 0,-1.985 2.753,-4.875 6.117,-6.423 6.732,-3.096 40.705,2.108 64.219,9.838 16.562,5.444 48.411,5.404 63.483,-0.08 6.411,-2.333 13.343,-3.588 15.404,-2.789 2.297,0.889 4.399,-0.336 5.43,-3.167 0.925,-2.54 6.494,-11.63 12.375,-20.199 8.038,-11.712 10.149,-16.661 8.502,-19.931 -1.205,-2.393 -3.496,-9.956 -5.091,-16.807 -1.595,-6.851 -3.892,-12.811 -5.104,-13.245 -1.212,-0.434 -5.185,-3.157 -8.83,-6.051 -4.31,-3.423 -10.876,-5.479 -18.783,-5.883 -6.686,-0.341 -13.793,-1.991 -15.793,-3.667 -2.871,-2.406 -4.869,-2.38 -9.496,0.119 -3.236,1.749 -10.106,2.645 -15.341,2.003 -7.384,-0.907 -11.001,0.11 -16.361,4.602 -5.145,4.312 -8.724,5.394 -14.191,4.29 -6.235,-1.259 -7.31,-0.711 -7.31,3.731 0,5.728 -6.629,10.364 -14.821,10.364 -2.901,0 -7.001,1.743 -9.111,3.872 -6.014,6.072 -16.191,3.527 -20.482,-5.12 -9.284,-18.708 -15.514,-24.909 -33.06,-32.899 -38.934,-17.73 -47.388,-17.698 -112.222,0.418 -7.281,2.034 -19.497,3.885 -27.147,4.112 -13.117,0.39 -14.472,-0.147 -23.781,-9.427 -5.43,-5.411 -12.648,-11.776 -16.042,-14.142 l -6.17,-4.303 6.17,-4.834 c 3.394,-2.659 9.779,-5.545 14.191,-6.412 9.996,-1.966 10.172,-4.501 0.588,-8.509 -9.926,-4.15 -29.108,-2.041 -41.703,4.586 l -10.18,5.357 1.544,-6.211 C 554.507,0.54 553.94,0 546.577,0 c -6.705,0 -10.649,2.728 -23.41,16.194 -9.703,10.238 -17.325,16.194 -20.725,16.194 -5.065,0 -5.155,-0.324 -1.537,-5.537 2.113,-3.046 3.842,-6.565 3.842,-7.821 0,-4.659 -28.533,0.768 -43.189,8.214 -8.144,4.138 -15.549,7.548 -16.455,7.579 -2.503,0.085 -9.451,-20.451 -8.798,-26.008 0.932,-7.942 -7.342,-7.437 -15.656,0.957 -5.676,5.729 -8.615,7.088 -11.715,5.416 C 406.658,13.961 398.7,12.294 391.25,11.485 381.629,10.439 376.596,8.53 373.88,4.894 371.776,2.079 369.265,0.573 368.298,1.549 Z m 201.023,17.378 c -3.006,2.125 -10.521,8.281 -16.701,13.681 -13.048,11.399 -20.133,15.271 -35.734,19.529 -15.549,4.243 -25.515,2.825 -26.448,-3.763 -0.594,-4.2 0.584,-5.191 6.17,-5.192 11.047,-0.002 25.345,-8.305 32.133,-18.658 7.533,-11.492 11.564,-12.401 9.323,-2.102 -0.894,4.111 -0.705,7.452 0.421,7.424 1.126,-0.027 9.266,-3.832 18.089,-8.454 16.031,-8.4 23.063,-9.76 12.747,-2.465 z M 434.872,42.368 c 2.005,17.087 -2.427,22.751 -27.624,35.301 -15.176,7.559 -22.477,12.839 -26.738,19.338 -11.6,17.696 -10.491,28.8 1.198,11.99 8.038,-11.56 10.617,-13.403 35.906,-25.659 12.48,-6.048 26.731,-14.578 31.67,-18.955 9.342,-8.281 14.307,-6.968 11.701,3.093 -2.795,10.787 -23.669,23.608 -35.855,22.021 -7.28,-0.948 -11.697,0.435 -11.697,3.662 0,7.497 18.889,8.794 34.753,2.386 11.968,-4.834 24.478,-20.706 24.478,-31.057 0,-4.306 -2.985,-10.445 -7.733,-15.904 -9.186,-10.561 -7.89,-13.613 3.037,-7.152 8.606,5.089 11.076,8.624 13.216,18.915 1.246,5.989 2.264,6.611 8.694,5.312 8.733,-1.763 20.575,0.825 18.593,4.063 -0.778,1.27 -3.061,1.672 -5.074,0.892 -2.358,-0.914 -9.211,4.44 -19.272,15.057 -10.059,10.614 -17.728,16.606 -21.558,16.844 -3.27,0.203 -18.717,0.483 -34.326,0.622 -32.874,0.294 -42.557,3.857 -48.32,17.779 -4.867,11.759 -4.402,17.328 2.046,24.488 8.562,9.507 14.908,10.225 23.781,2.688 7.014,-5.958 7.685,-6.107 7.685,-1.71 0,11.967 -18.571,17.678 -30.922,9.508 -6.872,-4.545 -15.823,-21.558 -15.915,-30.247 -0.123,-11.756 8.174,-30.843 20.924,-48.131 16.381,-22.213 17.618,-31.39 6.069,-45.031 -8.63,-10.192 -9.052,-12.55 -2.245,-12.55 14.487,0 24.557,12.306 24.557,30.013 0,5.417 1.138,9.848 2.529,9.848 4.53,0 7.791,-13.429 6.22,-25.617 -0.845,-6.554 -0.775,-13.16 0.156,-14.681 2.618,-4.275 8.431,8.935 10.066,22.874 z m 48.72,-8.296 c -4.759,3.513 -9.694,3.221 -9.694,-0.573 0,-1.215 2.776,-3.611 6.169,-5.324 7.656,-3.865 10.44,0.793 3.525,5.897 z m 100.908,3.61 c 12.255,6.371 16.042,12.034 14.717,22.008 -0.694,5.217 0.079,13.584 1.716,18.592 3.831,11.718 -0.909,19.797 -15.553,26.509 -17.1,7.837 -26.942,6.322 -56.953,-8.772 l -26.913,-13.536 10.303,-4.161 c 8.81,-3.559 10.206,-5.112 9.636,-10.723 -0.638,-6.294 -0.167,-6.561 11.553,-6.561 10.54,0 12.403,-0.754 13.573,-5.493 1.728,-6.997 19.316,-20.506 26.816,-20.597 3.143,-0.038 8.141,1.192 11.105,2.734 z m -10.651,18.107 c 0,1.909 1.666,4.116 3.702,4.904 2.518,0.976 3.702,-0.134 3.702,-3.47 0,-2.699 -1.665,-4.905 -3.702,-4.905 -2.036,0 -3.702,1.562 -3.702,3.471 z m -7.403,15.067 c 0,4.342 4.046,7.225 7.296,5.197 3.284,-2.049 0.326,-8.787 -3.859,-8.787 -1.89,0 -3.437,1.616 -3.437,3.59 z m -20.894,23.677 c -2.382,3.891 0.753,7.612 6.413,7.612 3.393,0 4.708,-1.374 4.144,-4.331 -0.947,-4.964 -8.155,-7.204 -10.557,-3.281 z M 343.369,51.173 c 17.75,7.062 33.045,16.986 33.045,21.441 0,1.432 -2.27,5.821 -5.044,9.754 -2.774,3.932 -6.659,12.641 -8.633,19.352 -3.861,13.123 -3.963,13.19 -36.134,23.834 -14.131,4.675 -52.363,5.67 -62.476,1.626 -27.795,-11.116 -31.867,-46.876 -7.908,-69.445 17.154,-16.158 55.73,-19.063 87.15,-6.562 z m -39.196,7.635 c -2.688,2.714 0.56,5.967 5.958,5.967 2.899,0 4.564,-1.307 3.968,-3.114 -1.173,-3.558 -7.443,-5.36 -9.926,-2.853 z m -37.716,8.676 c -2.118,3.459 2.577,8.336 5.98,6.212 2.835,-1.768 1.02,-8.921 -2.263,-8.921 -1.132,0 -2.805,1.219 -3.717,2.709 z m 34.792,15.589 c -4.91,3.624 -3.354,9.107 2.583,9.107 4.488,0 7.436,-6.968 4.291,-10.142 -1.436,-1.45 -4.038,-1.058 -6.874,1.035 z m 38.615,5.993 c 0.458,2.398 2.468,4.36 4.466,4.36 1.999,0 4.009,-1.962 4.467,-4.36 0.583,-3.059 -0.749,-4.36 -4.467,-4.36 -3.717,0 -5.049,1.301 -4.466,4.36 z m -30.907,12.249 c -2.666,2.691 -1.903,5.18 2.056,6.714 2.518,0.975 3.702,-0.134 3.702,-3.47 0,-4.896 -2.646,-6.386 -5.758,-3.244 z m -41.934,4.961 c -2.232,2.253 3.299,8.601 6.017,6.906 3.402,-2.123 2.574,-8.545 -1.103,-8.545 -1.809,0 -4.021,0.737 -4.914,1.639 z M 751.781,48.667 c 14.33,5.103 32.568,19.279 38.067,29.587 2.566,4.811 4.159,9.071 3.54,9.468 -0.619,0.396 -4.387,2.406 -8.374,4.466 -8.938,4.617 -12.787,16.903 -8.858,28.279 2.254,6.529 2.002,8.296 -1.562,10.927 -8.736,6.449 -30.474,2.227 -63.774,-12.385 -54.541,-23.933 -52.032,-22.585 -51.166,-27.499 1.068,-6.054 -7.064,-7.686 -8.608,-1.727 -1.171,4.522 -2.609,4.918 -12.728,3.5 -17.942,-2.513 -28.239,-8.524 -30.88,-18.027 -3.178,-11.435 0.238,-13.873 21.103,-15.063 14.342,-0.818 17.995,-0.259 19.821,3.035 1.232,2.22 5.096,4.038 8.588,4.038 5.28,0 5.847,-0.611 3.367,-3.627 -1.64,-1.996 -2.321,-4.708 -1.513,-6.029 1.415,-2.31 28.179,-11.266 40.911,-13.69 10.212,-1.944 41.217,0.883 52.066,4.747 z m -38.412,3.52 c -2.17,3.544 0.597,7.605 5.182,7.605 2.162,0 3.401,-1.75 2.939,-4.153 -0.961,-5.004 -5.889,-7.098 -8.121,-3.452 z m -38.334,16.092 c 0,2.271 1.728,3.048 4.908,2.208 2.7,-0.713 4.3,-2.289 3.557,-3.504 -2.155,-3.52 -8.465,-2.554 -8.465,1.296 z m 72.064,4.468 c -3.353,3.385 0.488,9.468 5.979,9.468 4.328,0 4.411,-6.017 0.132,-9.602 -2.382,-1.995 -4.037,-1.959 -6.111,0.134 z m -43.929,2.99 c -0.904,2.377 -0.421,5.554 1.072,7.062 1.974,1.993 3.163,1.562 4.357,-1.581 0.904,-2.377 0.421,-5.554 -1.072,-7.062 -1.974,-1.993 -3.163,-1.562 -4.357,1.581 z m -9.727,24.083 c -0.894,1.461 -1.008,3.281 -0.252,4.045 2.03,2.049 8.992,-1.15 8.992,-4.133 0,-3.381 -6.657,-3.314 -8.74,0.088 z m 39.694,7.136 c -0.781,1.275 -0.291,3.023 1.089,3.884 2.945,1.837 7.444,-0.495 7.444,-3.859 0,-3.031 -6.68,-3.051 -8.533,-0.025 z M 938.313,73.745 c 3.829,2.878 7.317,7.642 7.751,10.588 0.434,2.946 1.968,5.356 3.41,5.356 4.534,0 0.468,18.565 -6.341,28.953 -8.135,12.408 -16.325,17.254 -34.888,20.642 -16.989,3.101 -46.353,-0.694 -71.559,-9.249 -8.145,-2.762 -21.472,-5.803 -29.616,-6.755 -18.047,-2.11 -26.509,-6.912 -25.447,-14.441 0.584,-4.141 3.136,-5.93 10.64,-7.458 29.46,-5.998 36.157,-8.149 53.612,-17.221 27.948,-14.525 37.023,-16.868 62.823,-16.218 18.591,0.468 23.902,1.509 29.615,5.803 z m -16.057,12.603 c 1.04,5.452 8.212,6.224 8.212,0.883 0,-2.036 -2.045,-4.1 -4.543,-4.586 -3.299,-0.641 -4.304,0.374 -3.669,3.703 z m -45.621,9.932 c -3.218,3.249 -1.681,5.865 3.445,5.865 2.872,0 4.711,-1.306 4.165,-2.958 -1.202,-3.641 -5.323,-5.215 -7.61,-2.907 z m -31.312,10.848 c 0,3.211 1.25,4.977 3.085,4.36 1.697,-0.571 3.085,-2.533 3.085,-4.36 0,-1.827 -1.388,-3.789 -3.085,-4.36 -1.835,-0.617 -3.085,1.149 -3.085,4.36 z m 54.707,2.491 c 1.242,3.762 5.21,4.15 6.375,0.623 0.566,-1.713 -0.823,-3.114 -3.085,-3.114 -2.262,0 -3.743,1.121 -3.29,2.491 z m -81.433,6.597 c 0.478,2.506 2.901,4.952 5.384,5.435 3.261,0.634 4.273,-0.389 3.646,-3.68 -0.479,-2.506 -2.901,-4.952 -5.385,-5.435 -3.26,-0.634 -4.273,0.388 -3.645,3.68 z m 61.278,10.843 c 0,1.37 1.731,2.491 3.847,2.491 2.116,0 3.161,-1.121 2.323,-2.491 -0.839,-1.37 -2.571,-2.491 -3.848,-2.491 -1.277,0 -2.322,1.121 -2.322,2.491 z M 192.552,80.807 c 9.501,2.167 21.44,3.931 26.53,3.92 7.411,-0.017 9.255,0.909 9.255,4.65 0,2.569 0.662,8.01 1.47,12.091 1.345,6.788 0.661,7.746 -8.031,11.258 -8.876,3.585 -31.372,24.902 -36.961,35.024 -3.17,5.741 -20.399,11.823 -38.287,13.515 -12.1,1.145 -14.535,0.618 -18.441,-3.987 -2.475,-2.918 -5.364,-5.306 -6.42,-5.306 -1.056,0 -1.92,7.112 -1.92,15.804 0,23.44 -15.423,63.437 -38.12,98.856 -8.809,13.746 -12.42,17.16 -22.09,20.889 -14.313,5.518 -21.696,3.836 -29.089,-6.627 -4.507,-6.379 -5.707,-11.336 -5.673,-23.423 0.039,-13.691 1.065,-16.829 9.588,-29.321 6.271,-9.192 16.957,-19.482 31.165,-30.009 C 99.117,173.254 104.685,162.71 88.971,153.748 67.197,141.33 61.202,117.517 75.663,100.891 89.545,84.93 102.325,79.301 131.701,76.207 c 26.497,-2.791 29.423,-2.57 60.851,4.6 z m -39.24,10.97 c -0.785,1.281 0.128,3.632 2.028,5.224 2.043,1.712 4.038,1.943 4.882,0.565 0.784,-1.282 -0.129,-3.633 -2.029,-5.225 -2.043,-1.712 -4.038,-1.942 -4.881,-0.564 z m -34.32,6.979 c -2.303,2.325 0.48,5.881 4.603,5.881 1.956,0 3.556,-1.682 3.556,-3.737 0,-3.753 -5.21,-5.122 -8.159,-2.144 z m -26.21,6.905 c -2.072,2.521 -2.124,3.992 -0.184,5.203 4.285,2.673 9.946,-0.647 8.334,-4.887 -1.812,-4.769 -4.407,-4.869 -8.15,-0.316 z m 101.004,0.221 c 0,2.056 1.666,3.737 3.702,3.737 2.036,0 3.702,-1.681 3.702,-3.737 0,-2.055 -1.666,-3.737 -3.702,-3.737 -2.036,0 -3.702,1.682 -3.702,3.737 z m -26.878,14.621 c -2.201,2.676 -2.246,4.077 -0.174,5.37 4.025,2.511 9.018,-3.067 5.723,-6.394 -1.785,-1.801 -3.484,-1.488 -5.549,1.024 z m -40.557,7.558 c -1.548,4.074 0.272,6.472 4.914,6.472 1.809,0 3.29,-2.242 3.29,-4.983 0,-5.665 -6.189,-6.788 -8.204,-1.489 z m -38.687,2.32 c 0,5.17 2.921,6.874 6.56,3.825 4.784,-4.008 4.07,-7.147 -1.624,-7.147 -2.715,0 -4.936,1.495 -4.936,3.322 z m 67.747,14.316 c -0.933,1.524 0.101,4.585 2.298,6.803 3.68,3.714 3.994,3.609 3.994,-1.338 0,-6.213 -3.809,-9.521 -6.292,-5.465 z m -57.875,61.022 c 0,2.32 1.679,3.591 4.114,3.114 6.192,-1.212 7.042,-7.034 1.027,-7.034 -3.031,0 -5.141,1.609 -5.141,3.92 z m -22.212,0.797 c 0,2.8 6.42,5.412 8.397,3.416 2.971,-2.999 1.35,-5.641 -3.461,-5.641 -2.714,0 -4.936,1.001 -4.936,2.225 z M 46.932,226.73 c -0.845,1.38 0.248,3.201 2.429,4.045 4.725,1.831 7.359,-0.186 5.087,-3.896 -2.049,-3.348 -5.515,-3.416 -7.516,-0.149 z m 22.09,7.674 c -2.154,3.518 2.603,8.32 6.087,6.145 1.476,-0.92 2.683,-3.289 2.683,-5.263 0,-4.195 -6.351,-4.833 -8.77,-0.882 z m -30.717,26.124 c 0,2.321 1.679,3.592 4.115,3.115 6.191,-1.212 7.041,-7.034 1.027,-7.034 -3.032,0 -5.142,1.608 -5.142,3.919 z m 20.045,9.417 c -3,3.649 -1.297,6.595 3.812,6.595 3.677,0 4.505,-6.422 1.102,-8.545 -1.203,-0.751 -3.415,0.127 -4.914,1.95 z M 69.896,82.62 c 0.408,3.437 -0.974,7.687 -3.072,9.445 -3.144,2.634 -4.982,2.423 -10.457,-1.198 l -6.643,-4.394 7.247,-5.853 c 8.618,-6.96 11.923,-6.448 12.925,2 z m 461.998,26.999 c 21.78,10.291 37.211,12.611 50.349,7.568 4.833,-1.855 7.186,-1.449 10.396,1.791 9.895,9.988 20.337,42.96 13.605,42.96 -1.185,0 -10.903,5.971 -21.594,13.27 -10.691,7.298 -21.524,14.044 -24.072,14.992 -2.791,1.037 -11.047,-0.868 -20.757,-4.79 -14.143,-5.712 -18.574,-6.356 -36.087,-5.249 -10.981,0.694 -23.142,2.077 -27.026,3.074 -6.48,1.663 -6.917,1.355 -5.314,-3.743 3.014,-9.588 -6.718,-5.025 -12.3,5.766 -3.385,6.544 -8.829,11.631 -17.296,16.16 -19.395,10.376 -31.016,19.842 -45.298,36.898 -10.715,12.797 -14.704,15.874 -20.978,16.18 -13.522,0.66 -22.188,0.178 -35.923,-1.998 -12.511,-1.981 -13.838,-2.886 -20.647,-14.078 -7.938,-13.047 -7.938,-12.814 0.054,-15.294 4.161,-1.291 7.044,-0.059 11.68,4.991 5.688,6.195 6.279,6.349 7.799,2.027 2.351,-6.685 11.117,-15.973 13.608,-14.418 1.16,0.723 2.109,4.547 2.109,8.496 0,7.439 3.495,11.844 6.065,7.645 0.809,-1.321 1.887,-7.742 2.397,-14.27 1.066,-13.663 4.423,-17.213 27.291,-28.867 36.737,-18.72 84.605,-55.098 98.75,-75.047 12.155,-17.141 14.955,-17.404 43.189,-4.064 z m 22.281,18.601 c -4.67,5.68 -1.904,10.3 3.126,5.223 4.543,-4.587 5.53,-8.875 2.043,-8.875 -1.191,0 -3.517,1.643 -5.169,3.652 z m 17.324,4.94 c -3.789,4.073 -5.103,7.594 -3.951,10.589 1.552,4.031 2.335,3.777 7.716,-2.504 10.355,-12.086 6.888,-19.531 -3.765,-8.085 z m -93.406,4.363 c -3.347,3.379 -3.982,9.467 -0.987,9.467 3.076,0 7.897,-5.628 7.897,-9.218 0,-4.052 -3.034,-4.162 -6.91,-0.249 z m 19.418,11.72 c -5.935,8.415 -6.504,12.695 -1.686,12.695 3.963,0 11.39,-10.502 11.39,-16.106 0,-5.964 -4.11,-4.52 -9.704,3.411 z m 86.411,1.155 c -5.143,8.401 -6.763,16.537 -3.286,16.505 2.928,-0.026 12.957,-16.041 12.957,-20.69 0,-6.685 -4.102,-4.91 -9.671,4.185 z m -67.703,2.604 c -4.524,6.971 -5.355,13.918 -1.664,13.918 1.323,0 4.194,-3.492 6.38,-7.76 5.085,-9.926 1.104,-15.124 -4.716,-6.158 z m 22.28,3.468 c -4.863,5.425 -5.639,16.35 -1.052,14.818 5.193,-1.734 10.79,-13.78 7.803,-16.795 -1.839,-1.857 -3.839,-1.271 -6.751,1.977 z m 14.579,12.053 c -2.066,5.435 0.677,7.961 3.592,3.308 2.919,-4.658 2.981,-7.402 0.168,-7.402 -1.212,0 -2.904,1.842 -3.76,4.094 z m -128.37,5.683 c -5.207,5.808 -0.94,9.331 4.568,3.77 4.497,-4.539 4.683,-5.291 1.762,-7.113 -1.176,-0.733 -4.024,0.771 -6.33,3.343 z m 17.489,2.253 c -4.322,4.821 -5.438,10.392 -2.082,10.392 3.638,0 12.943,-10.216 11.48,-12.605 -2.141,-3.498 -4.85,-2.86 -9.398,2.213 z m -65.696,35.142 c -3.587,6.766 -3.178,12.621 0.883,12.621 3.773,0 6.434,-5.236 6.434,-12.661 0,-6.165 -4.039,-6.143 -7.317,0.04 z m 19.553,2.85 c -1.51,2.847 -2.025,7.052 -1.144,9.342 1.447,3.768 1.937,3.703 5.126,-0.67 4.015,-5.509 4.704,-13.85 1.144,-13.85 -1.31,0 -3.616,2.33 -5.126,5.178 z M 628.311,113.584 c 8.69,11.875 13.161,15.315 30.31,23.32 15.231,7.11 23.487,12.981 33.998,24.175 22.067,23.5 30.086,44.407 20.052,52.279 -4.013,3.149 -3.794,3.785 3.085,8.985 23.552,17.799 28.109,36.855 9.271,38.764 -6.04,0.612 -8.583,-0.766 -13.018,-7.053 -4.825,-6.841 -5.114,-8.563 -2.318,-13.836 1.757,-3.313 2.729,-6.365 2.161,-6.781 -0.567,-0.417 -4.068,-2.675 -7.778,-5.018 -6.472,-4.086 -6.874,-4.055 -9.849,0.754 -2.323,3.756 -5.753,5.014 -13.669,5.014 -8.99,0 -12.277,-1.58 -22.021,-10.588 -16.64,-15.382 -29.633,-37.133 -36.763,-61.544 -3.421,-11.712 -9.736,-28.224 -14.033,-36.694 -7.674,-15.126 -7.731,-15.492 -3.193,-20.554 7.385,-8.238 12.768,-6.25 23.765,8.777 z m -1.295,20.777 c -1.826,2.981 2.817,5.935 6.104,3.884 2.76,-1.722 0.948,-6.203 -2.508,-6.203 -1.197,0 -2.815,1.043 -3.596,2.319 z m 40.615,23.84 c 0,2.055 1.802,3.737 4.004,3.737 3.28,0 3.448,-0.677 0.932,-3.737 -1.69,-2.056 -3.491,-3.737 -4.004,-3.737 -0.512,0 -0.932,1.681 -0.932,3.737 z m -31.724,12.02 c -2.241,2.726 -2.059,4.207 0.815,6.615 3.022,2.531 3.996,2.332 5.294,-1.083 2.214,-5.824 -2.42,-10.02 -6.109,-5.532 z m 25.554,4.174 c -1.799,2.939 0.535,7.474 3.848,7.474 1.277,0 2.322,-2.243 2.322,-4.983 0,-5.255 -3.59,-6.704 -6.17,-2.491 z m 31.415,5.449 c 1.526,4.62 6.839,5.386 6.839,0.987 0,-2.17 -1.759,-3.945 -3.908,-3.945 -2.149,0 -3.468,1.331 -2.931,2.958 z m -39.082,15.931 c 0.824,2.167 1.498,4.409 1.498,4.982 0,0.574 1.11,1.042 2.468,1.042 1.357,0 2.467,-2.242 2.467,-4.982 0,-2.916 -1.645,-4.983 -3.965,-4.983 -2.603,0 -3.451,1.355 -2.468,3.941 z m 24.124,7.606 c 0.488,2.556 1.982,4.366 3.321,4.024 3.587,-0.918 2.96,-6.259 -0.887,-7.553 -2.162,-0.728 -3.011,0.503 -2.434,3.529 z m 21.797,-1.729 c 0,1.29 1.11,3.038 2.468,3.884 1.357,0.847 2.468,-0.208 2.468,-2.344 0,-2.136 -1.111,-3.884 -2.468,-3.884 -1.358,0 -2.468,1.055 -2.468,2.344 z m -31.518,20.545 c 1.525,4.62 6.838,5.386 6.838,0.986 0,-2.169 -1.758,-3.944 -3.907,-3.944 -2.15,0 -3.468,1.331 -2.931,2.958 z m 52.975,29.582 c -0.833,3.215 0.043,5.667 2.346,6.559 4.826,1.87 9.332,-2.841 7.451,-7.79 -2.124,-5.587 -8.23,-4.82 -9.797,1.231 z M 463.949,124.676 c -12.584,12.862 -32.025,27.296 -36.765,27.296 -0.776,0 -1.411,-2.316 -1.411,-5.146 0,-17.845 -21.443,-26.194 -27.304,-10.632 -3.428,9.101 -8.482,5.781 -8.482,-5.573 0,-14.52 7.418,-17.435 42.329,-16.631 15.136,0.349 30.129,-0.421 33.317,-1.71 12.801,-5.177 12.365,-1.964 -1.684,12.396 z m -223.265,-0.731 c 0.004,1.027 3.292,4.09 7.307,6.806 5.48,3.706 6.964,6.288 5.953,10.356 -1.564,6.291 3.153,16.675 6.6,14.525 1.289,-0.804 2.344,-4.887 2.344,-9.072 v -7.61 l 11.723,1.771 c 14.311,2.162 15.425,2.805 15.425,8.907 0,2.66 1.666,4.836 3.702,4.836 2.036,0 3.702,-1.616 3.702,-3.59 0,-4.175 1.334,-5.116 10.331,-7.285 6.066,-1.461 6.696,-0.907 7.404,6.507 1.047,10.962 4.174,10.195 11.749,-2.881 4.567,-7.883 9.341,-12.262 16.905,-15.504 l 10.539,-4.519 2.663,6.785 c 8.692,22.142 14.774,29.604 27.188,33.359 5.209,1.576 9.47,3.634 9.47,4.575 0,2.808 -7.789,8.703 -22.539,17.061 -7.646,4.332 -15.339,9.625 -17.096,11.762 -5.245,6.38 -15.185,10.473 -29.279,12.057 -14.526,1.633 -17.971,3.692 -25.812,15.427 -16.162,24.188 -26.411,35.408 -35.811,39.205 -6.084,2.457 -11.389,6.828 -13.653,11.249 -5.771,11.264 -10.454,11.493 -19.382,0.945 -4.332,-5.118 -11.655,-12.669 -16.272,-16.78 -19.739,-17.57 -25.914,-23.851 -21.16,-21.519 3.221,1.58 6.37,1.625 8.638,0.124 2.935,-1.942 2.339,-3.46 -3.356,-8.546 -8.608,-7.686 -15.162,-8.242 -13.32,-1.13 1.284,4.955 1.133,4.946 -7.733,-0.447 -29.862,-18.165 -49.627,-35.147 -48.39,-41.575 4.058,-21.071 4.659,-21.462 15.903,-10.367 9.337,9.214 12.741,9.469 11.816,0.884 -0.945,-8.766 10.651,-13.643 17.519,-7.368 6.015,5.495 7.684,5.021 7.684,-2.178 0,-3.85 2.345,-7.722 6.233,-10.294 5.838,-3.862 6.543,-3.84 11.121,0.343 6.67,6.093 8.71,3.005 5.339,-8.084 -2.523,-8.3 -2.248,-9.863 2.672,-15.184 9.835,-10.635 33.847,-20.242 33.873,-13.551 z m -17.934,9.584 c -2.355,2.378 0.799,16.679 4.577,20.754 2.85,3.075 3.496,3.031 4.77,-0.319 3.211,-8.449 -4.506,-25.321 -9.347,-20.435 z m 122.611,14.815 c -5.007,12.095 -1.185,16.499 6.15,7.087 5.656,-7.26 5.988,-13.563 0.805,-15.306 -1.785,-0.599 -4.761,2.918 -6.955,8.219 z m -102.276,18.992 c -0.033,0.456 -0.726,6.825 -1.539,14.152 -1.343,12.09 -1.052,13.238 3.144,12.422 3.771,-0.733 4.625,-3.154 4.625,-13.114 0,-7.557 -1.177,-12.61 -3.085,-13.253 -1.697,-0.571 -3.112,-0.664 -3.145,-0.207 z m 26.436,1.193 c -2.692,2.718 -1.968,20.814 0.832,20.814 3.069,0 7.821,-11.861 6.826,-17.037 -0.813,-4.225 -5.113,-6.346 -7.658,-3.777 z m 24.357,3.929 c -4.303,6.2 -5.084,15.816 -1.469,18.071 2.894,1.806 13.216,-17.825 11.148,-21.203 -2.357,-3.849 -5.553,-2.815 -9.679,3.132 z m 23.38,4.881 c -5.863,9.709 -6.368,14.495 -1.528,14.495 4.402,0 16.776,-14.631 15.541,-18.376 -2.021,-6.13 -9.161,-4.153 -14.013,3.881 z m 27.252,3.852 c -7.785,9.533 -9.29,14.267 -5.323,16.742 2.688,1.677 19.951,-18.001 19.951,-22.741 0,-6.183 -7.038,-3.297 -14.628,5.999 z m -126.045,-0.772 c 0,7.628 2.348,13.906 5.2,13.906 2.509,0 2.954,-10.077 0.706,-15.99 -2.276,-5.987 -5.906,-4.707 -5.906,2.084 z m -24.679,6.997 c 0,3.83 4.781,9.401 8.069,9.401 1.18,0 1.791,-2.511 1.357,-5.58 -0.851,-6.025 -9.426,-9.501 -9.426,-3.821 z m -20.389,5.947 c -2.061,3.366 6.723,14.28 10.477,13.017 2.199,-0.74 1.31,-3.217 -2.945,-8.212 -3.352,-3.933 -6.741,-6.096 -7.532,-4.805 z m 93.234,19.933 c -4.072,9.837 -3.319,17.011 1.611,15.352 1.586,-0.533 4.28,-5.042 5.987,-10.019 2.566,-7.483 2.515,-9.543 -0.298,-11.9 -2.728,-2.285 -4.174,-0.985 -7.3,6.567 z m -110.666,-4.875 c -2.224,2.246 3.088,8.326 7.274,8.326 4.187,0 4.376,-3 0.438,-6.975 -3.347,-3.379 -5.354,-3.73 -7.712,-1.351 z m 91.293,2.513 c -2.655,2.68 -1.885,20.762 0.884,20.762 2.932,0 7.342,-10.572 7.342,-17.602 0,-4.669 -4.876,-6.542 -8.226,-3.16 z m 38.567,7.084 c -3.057,6.471 -3.41,9.473 -1.358,11.544 2.051,2.071 4.096,0.607 7.863,-5.631 6.048,-10.014 6.481,-14.658 1.368,-14.658 -2.058,0 -5.601,3.936 -7.873,8.745 z m -67.36,-3.846 c 0,6.652 8.722,20.015 13.065,20.015 3.943,0 4.459,-1.159 3.052,-6.851 -0.931,-3.768 -3.445,-8.813 -5.586,-11.211 -4.195,-4.699 -10.531,-5.874 -10.531,-1.953 z m -14.807,10.909 c 0,4.509 8.038,11.597 13.151,11.597 5.684,0 5.163,-3.129 -1.588,-9.531 -6.465,-6.131 -11.563,-7.042 -11.563,-2.066 z m 580.213,-68.352 c 10.031,9.968 18.491,14.899 45.733,26.661 23.614,10.196 36.26,17.208 43.082,23.892 11.06,10.835 11.941,14.746 4.104,18.217 -4.588,2.032 -5.684,4.753 -6.303,15.652 -0.665,11.702 -1.501,13.487 -7.404,15.803 -17.23,6.764 -53.223,-4.688 -73.482,-23.379 -14.232,-13.131 -23.445,-29.872 -29.428,-53.476 -6.235,-24.598 -6.292,-30.705 -0.309,-33.144 9.083,-3.703 11.39,-2.764 24.007,9.774 z m -10.118,16.42 c 0,2.055 1.666,3.737 3.702,3.737 2.036,0 3.702,-1.682 3.702,-3.737 0,-2.056 -1.666,-3.737 -3.702,-3.737 -2.036,0 -3.702,1.681 -3.702,3.737 z m 22.481,17.112 c -2.201,2.676 -2.246,4.077 -0.174,5.369 4.025,2.512 9.018,-3.067 5.723,-6.393 -1.785,-1.802 -3.484,-1.488 -5.549,1.024 z m 33.438,5.747 c -0.893,0.901 -1.624,2.453 -1.624,3.449 0,2.793 7.083,4.882 8.531,2.516 1.634,-2.668 -4.73,-8.164 -6.907,-5.965 z m -48.515,14.511 c 0,2.055 1.666,3.737 3.702,3.737 2.036,0 3.702,-1.682 3.702,-3.737 0,-2.055 -1.666,-3.737 -3.702,-3.737 -2.036,0 -3.702,1.682 -3.702,3.737 z m 67.831,1.307 c -1.006,1.643 -0.299,3.947 1.572,5.12 4.104,2.574 6.317,-1.989 2.723,-5.616 -1.644,-1.66 -3.077,-1.494 -4.295,0.496 z m -25.876,8.206 c 0,4.652 4.025,7.693 5.972,4.512 0.758,-1.237 -0.276,-3.635 -2.297,-5.328 -2.988,-2.503 -3.675,-2.351 -3.675,0.816 z m 14.808,14.985 c 0,4.252 2.578,6.869 5.172,5.251 2.49,-1.554 0.059,-8.572 -2.969,-8.572 -1.212,0 -2.203,1.494 -2.203,3.321 z m -20.978,1.661 c -2.066,3.374 0.722,7.474 5.082,7.474 4.002,0 4.166,-0.479 2.058,-6.024 -1.703,-4.48 -4.889,-5.127 -7.14,-1.45 z m -661.963,-7.995 26.593,18.404 -7.658,8.805 c -4.212,4.842 -8.762,11.249 -10.11,14.238 -3.299,7.308 -11.973,12.933 -11.973,7.764 0,-4.853 -7.72,-8.828 -17.144,-8.828 -6.521,0 -8.841,-1.963 -16.379,-13.858 -7.482,-11.807 -8.299,-14.445 -5.522,-17.822 1.793,-2.181 2.928,-5.94 2.522,-8.355 -1.21,-7.213 6.33,-22.899 9.941,-20.68 1.725,1.06 15.103,10.209 29.73,20.332 z m -15.093,13.576 c -3.871,3.907 -3.621,13.105 0.449,16.514 4.505,3.775 6.56,1.063 6.56,-8.66 0,-9.14 -2.718,-12.186 -7.009,-7.854 z m 16.503,5.471 c -1.506,3.339 -2.025,7.949 -1.152,10.246 2.428,6.386 8.933,-0.276 8.933,-9.146 0,-8.757 -4.065,-9.332 -7.781,-1.1 z m -34.898,-2.016 c -0.851,0.859 0.175,4.922 2.279,9.029 3.398,6.633 4.239,7.051 7.521,3.737 3.122,-3.151 3.187,-4.555 0.419,-9.029 -3.257,-5.264 -7.257,-6.727 -10.219,-3.737 z m 835.518,-4.786 c 28.166,10.023 42.734,26.331 40.897,45.781 -0.66,6.996 -2.432,9.319 -9.921,13.015 -14.783,7.294 -23.544,4.022 -47.814,-17.86 -30.764,-27.737 -38.349,-32.91 -50.632,-34.53 -11.562,-1.525 -14.996,-4.223 -12.784,-10.043 2.167,-5.7 61.581,-3.008 80.254,3.637 z m -39.498,8.83 c 0.565,1.713 2.509,3.114 4.319,3.114 1.81,0 3.753,-1.401 4.319,-3.114 0.611,-1.853 -1.138,-3.114 -4.319,-3.114 -3.181,0 -4.931,1.261 -4.319,3.114 z m 18.134,-1.282 c -2.648,2.674 -1.554,5.642 2.081,5.642 1.956,0 4.17,-1.004 4.921,-2.231 1.571,-2.564 -4.778,-5.657 -7.002,-3.411 z m 29.785,9.793 c -3.113,3.142 -1.636,5.814 3.213,5.814 3.305,0 4.404,-1.195 3.438,-3.737 -1.519,-3.997 -3.986,-4.767 -6.651,-2.077 z m -21.389,10.797 c 0,1.37 1.732,2.491 3.848,2.491 2.116,0 3.161,-1.121 2.322,-2.491 -0.839,-1.37 -2.57,-2.492 -3.847,-2.492 -1.278,0 -2.323,1.122 -2.323,2.492 z m 35.521,13.906 c 0.824,2.167 1.498,4.41 1.498,4.983 0,0.573 1.666,1.042 3.702,1.042 2.057,0 3.702,-2.215 3.702,-4.983 0,-3.406 -1.645,-4.983 -5.2,-4.983 -3.727,0 -4.776,1.116 -3.702,3.941 z m -21.947,1.042 c -2.066,3.374 0.722,7.474 5.081,7.474 4.003,0 4.167,-0.479 2.059,-6.025 -1.703,-4.48 -4.889,-5.126 -7.14,-1.449 z M 119.606,273.339 c 10.696,14.34 11.984,17.227 9.022,20.217 -2.962,2.99 -6.328,2.523 -23.568,-3.273 l -20.112,-6.762 4.246,-6.605 c 2.335,-3.632 6.278,-8.069 8.762,-9.86 2.484,-1.79 4.516,-4.873 4.516,-6.852 0,-7.06 4.839,-3.351 17.134,13.135 z m 24.309,14.448 c 4.017,15.161 3.796,17.825 -1.956,23.632 -5.568,5.62 -16.16,6.426 -26.414,2.009 -13.52,-5.822 -22.033,-16.834 -9.211,-11.913 9.726,3.733 27.162,2.983 30.7,-1.321 2.001,-2.434 2.53,-7.244 1.507,-13.702 -2.145,-13.541 1.688,-12.618 5.374,1.295 z m 787.787,3.225 c 0,2.478 -1.532,6.62 -3.403,9.204 -3.244,4.478 -3.705,4.498 -9.872,0.419 -8.238,-5.449 -8.163,-8.107 0.318,-11.234 10.118,-3.731 12.957,-3.378 12.957,1.611 z M 88.898,306.438 c -0.153,11.58 -1.838,13.788 -7.836,10.268 -4.222,-2.479 -4.231,-2.649 -0.138,-2.72 3.512,-0.061 4.041,-1.416 2.703,-6.927 -0.914,-3.768 -2.608,-7.227 -3.764,-7.687 -3.914,-1.556 0.371,-4.933 4.783,-3.769 3.277,0.866 4.348,3.593 4.252,10.835 z m -59.231,-2.493 c 0,7.394 -5.583,9.111 -12.387,3.809 -4.872,-3.797 -4.872,-3.822 0,-7.618 6.804,-5.302 12.387,-3.586 12.387,3.809 z m 973.763,10.053 c 2.63,1.418 4.78,3.632 4.78,4.919 0,2.856 -13.107,9.941 -18.389,9.941 -5.337,0 -4.95,-11.548 0.494,-14.748 5.524,-3.248 7.287,-3.263 13.115,-0.112 z M 494.875,231.092 c -8.89,2.847 -49.404,24.574 -62.932,33.75 -86.405,58.601 -149.276,159.625 -155.66,250.119 -2.277,32.286 -2.645,32.91 -10.471,17.787 -8.056,-15.566 -18.673,-22.706 -34.247,-23.034 -9.56,-0.202 -12.029,0.891 -18.482,8.181 -6.1,6.89 -7.17,9.821 -5.909,16.185 2.858,14.428 11.099,18.861 29.763,16.011 3.824,-0.584 5.399,1.269 7.189,8.458 1.838,7.387 0.268,19.215 -7.945,59.844 -9.212,45.571 -10.267,54.496 -10.546,89.202 -0.453,56.416 7.136,85.502 28.187,108.035 10.775,11.532 16.47,11.844 16.47,0.902 0,-5.807 -2.134,-10.139 -7.527,-15.277 -10.311,-9.824 -18.67,-27.383 -22.151,-46.533 -5.018,-27.601 1.526,-82.551 15.094,-126.736 12.619,-41.094 14.576,-47.96 14.868,-52.147 0.156,-2.241 1.18,0.41 2.275,5.891 1.094,5.481 2.202,64.059 2.46,130.173 l 0.47,120.208 h 192.19 l 39.464,32.165 24.584,-16.052 24.583,-16.053 93.151,-0.653 93.151,-0.653 -0.702,-139.515 C 741.462,544.342 739.89,513.768 731.504,483.366 724.9,459.419 703.682,417.081 681.54,383.668 c -16.664,-25.146 -55.738,-67.79 -79.309,-86.555 -5.43,-4.323 -15.98,-12.761 -23.446,-18.751 -25.902,-20.787 -76.901,-49.515 -83.91,-47.27 z m 26.417,19.35 c 54.933,29.984 110.591,78.514 149.126,130.027 20.262,27.088 34.946,53.625 47.26,85.414 13.855,35.766 16.442,48.159 17.91,85.805 2.038,52.234 3.156,267.175 1.405,270.035 -1.16,1.894 -30.753,2.959 -95.88,3.45 -83.312,0.628 -94.571,1.176 -97.392,4.743 -3.38,4.275 -32.632,24.617 -35.399,24.617 -2.07,0 -19.778,-13.659 -29.513,-22.766 l -7.429,-6.949 -59.206,-0.285 c -32.563,-0.157 -74.316,0.517 -92.784,1.498 -19.129,1.017 -34.163,0.83 -34.936,-0.434 -0.747,-1.22 -1.638,-72.285 -1.978,-157.922 -0.683,-171.496 -1.147,-164.925 15.281,-216.225 16.683,-52.095 49.443,-103.723 91.317,-143.907 28.238,-27.099 92.437,-68.373 106.348,-68.373 2.87,0 14.511,5.072 25.87,11.272 z M 472.227,355.64 c -13.637,28.433 -50.092,104.948 -81.01,170.035 -30.918,65.086 -66.332,139.492 -78.698,165.346 -12.366,25.854 -22.483,47.996 -22.483,49.204 0,1.214 29.64,2.197 66.238,2.197 h 66.238 l 2.554,5.606 c 7.248,15.91 40.177,53.581 53.246,60.914 3.002,1.684 13.689,3.101 23.751,3.15 16.289,0.079 19.587,-0.75 30.102,-7.561 16.386,-10.615 27.247,-23.512 36.564,-43.417 l 7.954,-16.995 74.935,1.657 c 50.089,1.108 75.452,0.813 76.494,-0.888 0.857,-1.4 -17.04,-38.122 -39.771,-81.606 C 665.61,619.799 631.871,555.073 613.365,519.447 526.912,353.017 500.895,303.983 499.033,303.964 c -1.106,-0.01 -13.169,23.244 -26.806,51.676 z m 35.604,-24.255 c 3.733,6.832 5.676,12.421 4.319,12.421 -3.115,0 -3.206,12.661 -0.15,20.775 2.984,7.923 12.222,16.596 17.679,16.596 2.961,0 9.583,10.274 21.746,33.74 9.619,18.558 17.489,34.253 17.489,34.879 0,2.515 -8.495,0.923 -12.146,-2.275 -7.337,-6.428 -44.578,-31.465 -46.803,-31.465 -1.222,0 -2.827,-1.592 -3.566,-3.536 -1.274,-3.352 -31.456,-27.67 -36.411,-29.337 -2.29,-0.771 27.104,-64.324 29.719,-64.254 0.736,0.019 4.392,5.625 8.124,12.456 z m -3.084,35.303 c 0,1.622 2.288,7.721 5.084,13.552 6.69,13.951 24.531,25.519 24.531,15.906 0,-1.197 -2.298,-2.913 -5.108,-3.813 -2.809,-0.901 -8.952,-7.703 -13.65,-15.116 -8.681,-13.701 -10.857,-15.811 -10.857,-10.529 z m 19.815,-2.328 5.108,10.588 -6.292,-6.99 c -3.46,-3.844 -6.292,-8.609 -6.292,-10.588 0,-6.069 2.142,-4.067 7.476,6.99 z m -35.857,42.18 c 18.097,16.308 32.134,26.955 35.535,26.955 1.401,0 6.195,3.187 10.653,7.082 10.51,9.181 29.618,20.323 34.854,20.323 7.999,0 3.95,4.832 -6.386,7.621 -13.227,3.57 -16.659,6.426 -16.659,13.86 0,5.268 -1.113,5.924 -10.058,5.924 -19.215,0 -55.91,27.311 -70.735,52.647 -2.3,3.93 -4.907,7.145 -5.794,7.145 -2.674,0 -4.669,-17.353 -4.727,-41.107 -0.03,-12.332 -0.735,-26.579 -1.567,-31.659 -1.421,-8.675 -2.169,-9.335 -12.312,-10.871 -5.94,-0.899 -10.8,-2.056 -10.8,-2.571 0,-0.515 7.725,-17.271 17.166,-37.234 19.581,-41.401 16.504,-40.036 40.83,-18.115 z m -20.36,37.771 c -5.769,1.429 -10.489,3.503 -10.489,4.611 0,2.348 15.069,2.711 20.776,0.5 3.827,-1.483 5.689,-8.812 2.052,-8.081 -1.018,0.205 -6.57,1.541 -12.339,2.97 z m 86.597,59.565 c 3.313,4.453 9.493,14.822 13.733,23.045 4.241,8.221 11.582,22.049 16.314,30.729 4.732,8.68 8.604,18.49 8.604,21.8 0,5.187 -1.162,6.017 -8.427,6.017 h -8.428 l -1.59,-19.308 c -2.255,-27.38 -2.065,-26.707 -7.747,-27.53 -5.493,-0.795 -27.924,10.128 -30.952,15.073 -2.164,3.536 2.095,9.343 6.853,9.343 1.87,0 3.4,-1.571 3.4,-3.491 0,-3.025 16.975,-15.386 18.438,-13.427 0.298,0.399 1.765,12.496 3.261,26.884 2.428,23.355 3.409,26.759 9.157,31.764 4.327,3.767 9.631,5.606 16.173,5.606 5.353,0 9.717,0.841 9.696,1.868 -0.144,7.126 -12.734,12.659 -38.441,16.895 -21.514,3.546 -38.818,2.456 -46.598,-2.934 -2.677,-1.855 -6.587,-3.372 -8.689,-3.372 -3.927,0 -6.198,-2.059 -26.462,-23.989 -6.494,-7.027 -14.337,-14.091 -17.429,-15.696 -3.092,-1.605 -5.069,-3.822 -4.393,-4.927 0.676,-1.104 1.834,-6.86 2.572,-12.79 3.556,-28.572 47.004,-69.064 74.569,-69.495 8.901,-0.139 11.213,0.98 16.386,7.935 z M 541.149,518.4 c -2.375,1.397 -4.319,4.087 -4.319,5.98 0,1.892 -2.412,3.798 -5.359,4.236 -2.948,0.438 -5.825,2.221 -6.393,3.962 -0.784,2.402 3.501,3.048 17.757,2.676 21.982,-0.572 25.981,-3.374 18.508,-12.965 -5.321,-6.828 -12.758,-8.261 -20.194,-3.889 z m 16.659,7.275 c 0.909,1.485 -2.08,2.491 -7.404,2.491 -5.324,0 -8.313,-1.006 -7.404,-2.491 0.839,-1.37 4.171,-2.491 7.404,-2.491 3.233,0 6.565,1.121 7.404,2.491 z m -40.172,71.145 c -3.017,2.133 -5.485,5.658 -5.485,7.834 0,3.374 2.425,3.727 16.483,2.402 18.714,-1.764 22.673,-4.127 16.816,-10.039 -5.132,-5.182 -20.61,-5.291 -27.814,-0.197 z m 30.981,11.233 c -2.34,1.377 -11.541,3.19 -20.445,4.029 -20.847,1.966 -20.613,7.397 0.265,6.146 15.607,-0.935 30.605,-5.939 30.605,-10.211 0,-3.271 -4.832,-3.254 -10.425,0.036 z M 447.984,526.921 c 0,2.325 -2.331,3.737 -6.17,3.737 -5.992,0 -7.88,-2.426 -4.524,-5.814 3.104,-3.134 10.694,-1.66 10.694,2.077 z m 1.234,13.702 c -0.839,1.37 -4.236,2.491 -7.549,2.491 -3.314,0 -6.025,-1.121 -6.025,-2.491 0,-1.37 3.398,-2.491 7.55,-2.491 4.404,0 6.914,1.038 6.024,2.491 z m 1.234,11.963 c 0,1.099 -4.06,2.114 -9.023,2.256 -6.155,0.176 -7.92,-0.447 -5.553,-1.96 4.338,-2.772 14.576,-2.98 14.576,-0.296 z m -4.936,9.301 c 0,3.59 -8.386,13.615 -11.389,13.615 -5.523,0 -3.916,-8.962 2.134,-11.908 6.348,-3.09 9.255,-3.626 9.255,-1.707 z m 10.056,18.94 c -0.78,0.874 -4.026,2.386 -7.214,3.361 -5.206,1.591 -5.616,1.174 -4.027,-4.08 0.973,-3.219 3.581,-7.937 5.796,-10.487 3.869,-4.452 4.083,-4.354 5.445,2.492 0.78,3.919 0.78,7.841 0,8.714 z m -19.928,4.64 c 0,1.371 -1.176,2.492 -2.613,2.492 -1.438,0 -1.927,-1.121 -1.088,-2.492 0.838,-1.37 2.015,-2.491 2.613,-2.491 0.599,0 1.088,1.121 1.088,2.491 z m 28.382,4.983 c 0.839,1.37 -0.868,2.491 -3.792,2.491 -2.925,0 -8.427,2.235 -12.226,4.966 -8.179,5.879 -17.559,7.466 -19.054,3.223 -0.606,-1.722 1.932,-3.694 5.898,-4.584 3.829,-0.86 10.294,-3.118 14.366,-5.018 8.865,-4.138 12.761,-4.421 14.808,-1.078 z m 2.468,14.948 c -2.457,2.741 -7.349,5.018 -10.871,5.062 -3.523,0.044 -8.512,1.689 -11.087,3.657 -2.576,1.968 -5.648,2.976 -6.827,2.24 -3.203,-1.998 0.083,-5.976 4.936,-5.976 2.333,0 6.144,-2.242 8.468,-4.983 2.574,-3.034 7.281,-4.983 12.037,-4.983 7.654,0 7.721,0.1 3.344,4.983 z m 128.903,-3.256 c -2.401,0.632 -5.733,0.59 -7.404,-0.092 -1.671,-0.683 0.294,-1.2 4.366,-1.149 4.072,0.051 5.439,0.609 3.038,1.241 z m -110.394,10.73 c 0,5.412 -6.058,6.616 -12.339,2.453 -3.291,-2.18 -3.291,-2.725 0,-4.906 6.281,-4.163 12.339,-2.958 12.339,2.453 z m -16.242,10.012 c 1.584,1.599 -2.124,2.445 -10.714,2.445 -11.713,0 -12.783,-0.428 -9.886,-3.952 3.434,-4.177 15.87,-3.267 20.6,1.507 z m 148.498,3.691 c 3.705,14.903 -5.25,22.928 -32.304,28.95 -25.299,5.63 -38.556,5.428 -52.463,-0.8 -12.764,-5.717 -12.911,-5.904 -9.016,-11.517 5.765,-8.309 14.588,-6.453 14.588,3.069 0,10.045 5.675,11.125 8.93,1.699 1.462,-4.235 3.661,-7.699 4.885,-7.699 4.57,0 5.93,1.373 5.982,6.039 0.088,7.837 5.353,7.23 8.176,-0.943 3.03,-8.775 9.57,-10.102 10.726,-2.177 1.432,9.828 6.931,8.251 7.283,-2.089 l 0.325,-9.55 1.526,8.692 c 0.945,5.381 3.122,8.999 5.715,9.5 3.485,0.672 3.958,-0.631 2.813,-7.752 -0.813,-5.058 -0.255,-9.26 1.364,-10.27 1.816,-1.133 2.74,1.349 2.74,7.365 0,12.429 5.915,10.126 6.971,-2.713 1.259,-15.32 8.82,-21.624 11.759,-9.804 z m -122.384,-1.744 c 0,3.347 -5.695,7.972 -9.816,7.972 -2.141,0 -6.628,1.933 -9.97,4.297 -3.342,2.363 -8.445,3.983 -11.339,3.6 -3.215,-0.425 -5.917,1.026 -6.945,3.731 -1.434,3.772 -2.022,3.885 -3.98,0.759 -5.119,-8.171 -2.791,-12.384 6.882,-12.452 5.09,-0.036 13.697,-2.188 19.127,-4.781 10.834,-5.176 16.041,-6.191 16.041,-3.126 z m -51.668,17.264 c 2.846,10.26 18.639,38.704 39.799,71.677 11.307,17.62 22.522,26.579 35.054,28.005 8.145,0.927 13.051,0.104 17.693,-2.966 6.06,-4.008 6.599,-4.006 9.536,0.049 3.598,4.967 14.539,3.336 21.774,-3.246 2.463,-2.241 4.318,-2.743 4.318,-1.169 0,6.431 -7.139,15.481 -28.637,36.296 l -22.814,22.091 -6.188,-12.327 c -6.073,-12.1 -30.525,-46.83 -47.161,-66.988 -4.639,-5.621 -10.865,-15.711 -13.835,-22.422 -2.97,-6.711 -6.381,-13.884 -7.58,-15.939 -8.499,-14.57 -11.884,-25.946 -10.437,-35.079 0.85,-5.371 2.371,-9.765 3.378,-9.765 1.008,0 3.303,5.302 5.1,11.783 z m 70.891,-8.669 c 3.17,3.87 0.953,16.856 -2.852,16.706 -5.121,-0.201 -25.977,-6.265 -27.768,-8.073 -0.971,-0.98 0.929,-1.782 4.222,-1.782 3.315,0 7.364,-2.224 9.07,-4.983 3.446,-5.569 13.415,-6.644 17.328,-1.868 z m -22.925,19.817 c 5.43,1.344 13.759,3.028 18.51,3.743 9.205,1.387 17.275,7.006 17.275,12.032 0,1.68 3.967,6.11 8.815,9.843 8.059,6.205 10.336,6.709 26.542,5.883 13.595,-0.693 19.593,-2.245 25.736,-6.661 9.012,-6.478 11.281,-2.558 3.691,6.378 -2.375,2.796 -7.095,9.823 -10.489,15.616 -3.393,5.792 -7.96,12.49 -10.148,14.883 -2.188,2.394 -6.036,7.87 -8.553,12.17 -4.285,7.323 -8.446,10.235 -8.446,5.91 0,-1.049 4.48,-9.648 9.956,-19.108 10.824,-18.697 10.337,-21.227 -4.101,-21.298 -7.42,-0.037 -14.789,5.06 -11.751,8.127 2.188,2.209 -9.191,24.822 -14.982,29.772 -2.77,2.368 -8.645,4.329 -13.056,4.36 -10.766,0.074 -22.364,-11.871 -41.078,-42.307 -8.001,-13.012 -15.945,-25.901 -17.653,-28.641 -2.006,-3.218 -2.363,-6.92 -1.007,-10.453 2.253,-5.87 7.84,-5.915 30.739,-0.249 z m -62.932,-0.382 c 0,8.539 21.636,52.213 32.236,65.072 6.646,8.062 13.399,17.151 15.007,20.197 1.607,3.046 4.185,6.659 5.73,8.029 11.571,10.267 28.568,37.839 31.867,51.696 1.625,6.828 1.586,6.851 -11.619,6.851 -15.32,0 -25.301,-6.06 -45.009,-27.329 -22.894,-24.708 -26.984,-32.698 -36.685,-71.664 -2.127,-8.544 -3.867,-17.81 -3.867,-20.592 0,-7.845 7.965,-34.879 10.276,-34.879 1.135,0 2.064,1.179 2.064,2.619 z m 161.421,12.585 c -4.672,5.212 -18.281,13.461 -18.281,11.081 0,-0.686 -2.936,-0.121 -6.525,1.257 -7.679,2.947 -20.412,-0.495 -26.355,-7.123 -3.631,-4.05 -2.802,-4.258 13.893,-3.476 11.586,0.543 21.183,-0.464 27.625,-2.897 13.529,-5.11 15.094,-4.923 9.643,1.158 z m -30.62,40.852 c 0,2.055 -1.076,3.737 -2.391,3.737 -1.315,0 -1.751,-1.682 -0.97,-3.737 0.782,-2.056 1.857,-3.737 2.391,-3.737 0.533,0 0.97,1.681 0.97,3.737 z m -8.288,72.007 c -5.704,7.55 -18.885,18.927 -21.927,18.927 -0.589,0 5.038,-6.732 12.504,-14.96 14.423,-15.894 20.307,-18.371 9.423,-3.967 z M 271.783,557.388 c -0.82,0.828 -1.403,-0.644 -1.296,-3.27 0.118,-2.902 0.703,-3.493 1.491,-1.505 0.713,1.798 0.625,3.947 -0.195,4.775 z M 645.5,300.11 c -1.645,2.002 -3.559,7.905 -4.251,13.118 -0.965,7.26 -0.047,10.928 3.922,15.669 5.022,5.999 5.293,6.045 8.796,1.476 1.988,-2.592 4.125,-5.955 4.75,-7.474 0.76,-1.849 1.92,-1.627 3.515,0.673 1.309,1.888 3.555,2.7 4.992,1.803 1.682,-1.049 2.879,3.055 3.361,11.515 0.727,12.777 0.956,13.145 8.152,13.145 h 7.404 l 2.187,-20.513 c 2.601,-24.395 1.434,-26.605 -16.043,-30.388 -16.599,-3.594 -23.226,-3.352 -26.785,0.976 z m 63.279,5.85 c -2.473,2.758 -5.761,12.469 -7.307,21.578 -2.352,13.867 -2.235,16.922 0.718,18.765 5.011,3.126 9.369,-1.353 12.41,-12.752 4.022,-15.079 13.541,-11.771 15.145,5.262 0.987,10.478 8.327,13.494 11.535,4.739 l 2.054,-5.607 1.405,5.422 c 2.139,8.258 10.716,6.986 13.837,-2.052 1.419,-4.111 3.159,-7.474 3.865,-7.474 0.707,0 0.646,1.682 -0.135,3.737 -0.782,2.055 -0.667,5.699 0.253,8.097 1.561,4.063 1.915,4.031 5.2,-0.476 1.94,-2.66 3.526,-8.052 3.526,-11.981 0,-3.93 1.055,-6.487 2.344,-5.683 1.289,0.804 1.709,6.864 0.935,13.467 -1.158,9.865 -0.656,12.297 2.815,13.641 2.323,0.9 5.144,1.062 6.269,0.36 2.635,-1.644 7.381,-23.941 7.381,-34.682 0,-10.611 -4.636,-14.348 -19.6,-15.799 -13.843,-1.343 -18.95,2.665 -23.907,18.764 l -2.867,9.309 -0.259,-10.202 c -0.323,-12.766 -6.259,-18.62 -20.525,-20.243 -8.458,-0.962 -11.502,-0.194 -15.092,3.81 z m -378.022,-0.352 c -15.554,3.419 -22.181,14.529 -20.556,34.461 0.713,8.75 1.565,9.966 6.982,9.966 5.423,0 6.265,-1.207 6.952,-9.966 0.905,-11.531 5.388,-18.287 5.388,-8.119 0,3.619 1.11,7.272 2.468,8.119 1.44,0.899 2.468,-1.635 2.468,-6.081 0,-8.59 3.789,-10.21 6.17,-2.638 1.723,5.481 10.086,6.813 11.728,1.868 1.8,-5.425 -3.124,-22.92 -7.363,-26.159 -4.171,-3.188 -5.652,-3.338 -14.237,-1.451 z m -63.834,10.974 c -5.874,4.665 -6.499,6.773 -6.465,21.8 0.042,18.611 2.086,23.772 8.896,22.461 3.857,-0.742 4.765,-3.539 5.378,-16.564 0.515,-10.938 1.829,-16.093 4.35,-17.07 5.856,-2.268 10.595,3.765 12.376,15.754 1.795,12.079 6.184,15.808 12.438,10.569 5.877,-4.924 3.756,-33.217 -2.87,-38.275 -7.332,-5.597 -26.314,-4.859 -34.103,1.325 z m -42.794,2.466 c -12.016,3.677 -15.709,10.778 -14.109,27.128 2.263,23.121 2.999,25.035 9.618,25.035 5.755,0 6.046,-0.781 6.74,-18.062 0.693,-17.254 0.993,-18.062 6.708,-18.062 5.213,0 6.365,1.708 8.943,13.262 3.413,15.3 5.948,18.719 12.109,16.333 3.848,-1.491 4.264,-4.084 3.239,-20.183 -0.731,-11.522 -2.533,-19.847 -4.789,-22.123 -4.721,-4.766 -18.495,-6.377 -28.459,-3.328 z m 494.558,11.419 c -2.474,2.498 -2.079,15.831 0.469,15.831 3.703,0 8.154,-7.025 7.293,-11.508 -0.9,-4.687 -5.09,-7.02 -7.762,-4.323 z m -438.523,9.455 c 0,8.855 3.475,13.813 5.657,8.072 1.715,-4.512 -0.819,-16.644 -3.477,-16.644 -1.199,0 -2.18,3.857 -2.18,8.572 z m -49.359,3.473 c 0,6.833 2.512,12.868 5.356,12.868 3.464,0 1.355,-15.631 -2.271,-16.832 -1.778,-0.589 -3.085,1.09 -3.085,3.964 z m 698.429,1.828 c 0,2.15 2.696,14.762 5.992,28.028 8.785,35.355 11.033,49.058 16.423,100.106 8.662,82.043 10.228,105.046 10.554,155.086 0.285,43.725 0.77,49.204 4.351,49.204 9.338,0 10.718,-6.497 9.987,-47.025 -0.387,-21.41 -1.74,-48.456 -3.007,-60.103 -1.268,-11.647 -2.314,-26.991 -2.325,-34.098 -0.011,-7.107 -2.234,-22.242 -4.939,-33.633 -5.171,-21.775 -6.477,-37.099 -2.816,-33.044 2.466,2.733 11.836,37.23 16.543,60.914 5.439,27.358 9.802,109.322 6.716,126.156 -2.61,14.237 -2.513,14.744 3.856,20.121 16.341,13.796 19.071,5.224 16.781,-52.7 -2.3,-58.155 -11.819,-113.635 -30.17,-175.792 -15.887,-53.81 -27.698,-85.745 -35.976,-97.283 -7.388,-10.294 -11.97,-12.567 -11.97,-5.937 z m -868.46,15.012 c -9.211,11.822 -28.47,81.218 -36.925,133.052 -10.08,61.8 -12.934,94.481 -12.184,139.516 0.711,42.654 0.843,43.615 6.113,44.373 3.343,0.48 6.347,-1.04 7.921,-4.009 1.502,-2.832 2.636,-28.047 2.782,-61.812 0.32,-74.28 8.343,-148.303 14.935,-137.804 1.223,1.949 1.701,10.269 1.062,18.491 -0.639,8.221 -1.722,30.643 -2.407,49.827 -0.685,19.183 -1.977,54.542 -2.871,78.574 -1.72,46.223 -0.35,54.713 8.834,54.713 5.246,0 5.684,-4.272 10.075,-98.408 3.903,-83.669 4.93,-99.906 8.905,-140.762 6.586,-67.69 6.859,-75.77 2.679,-79.272 -3.107,-2.603 -4.609,-2.009 -8.919,3.521 z m 652.541,6.616 c -1.511,4.748 -1.96,4.938 -2.937,1.246 -0.635,-2.398 -3.293,-4.36 -5.908,-4.36 -4.153,0 -4.755,1.846 -4.755,14.562 0,16.388 3.621,21.671 16.657,24.303 6.185,1.249 8.937,0.299 14.028,-4.84 3.484,-3.516 6.377,-8.406 6.43,-10.867 0.059,-2.705 1.478,-1.266 3.591,3.643 8.738,20.296 31.992,14.222 35.1,-9.168 1.102,-8.29 0.609,-10.159 -2.677,-10.159 -2.343,0 -4.027,2.026 -4.027,4.844 0,2.664 -2.709,7.989 -6.02,11.834 -4.987,5.79 -6.787,6.508 -10.489,4.183 -3.396,-2.133 -4.443,-5.868 -4.363,-15.57 0.111,-13.48 -4.393,-17.695 -7.692,-7.2 l -1.75,5.564 -2.039,-5.564 c -3.086,-8.422 -9.315,-7.085 -9.06,1.944 0.116,4.13 -0.622,8.334 -1.641,9.343 -1.018,1.008 -1.53,-0.409 -1.137,-3.149 1.025,-7.154 -2.481,-16.194 -6.28,-16.194 -1.787,0 -4.051,2.522 -5.031,5.605 z m 2.282,24.037 c -1.55,1.564 -5.955,-4.764 -5.894,-8.466 0.022,-1.37 1.659,-0.331 3.638,2.31 1.979,2.64 2.994,5.411 2.256,6.156 z m 10.278,-0.743 c -0.878,2.311 -2.152,3.641 -2.831,2.956 -0.679,-0.685 -0.515,-3.136 0.363,-5.447 0.878,-2.31 2.152,-3.64 2.831,-2.955 0.679,0.685 0.515,3.136 -0.363,5.446 z m 31.459,-22.01 c -1.565,1.007 -3.231,5.754 -3.702,10.55 -0.722,7.347 -0.08,8.72 4.079,8.72 4.043,0 5.074,-1.916 5.695,-10.588 0.75,-10.457 -0.511,-12.259 -6.072,-8.682 z m 68.348,3.612 c -15.378,10.565 -18.482,17.245 -18.027,38.799 l 0.407,19.279 -21.111,23.634 c -11.61,12.999 -22.096,24.005 -23.302,24.458 -1.216,0.456 -1.415,-2.871 -0.447,-7.474 0.96,-4.564 1.783,-11.606 1.829,-15.65 0.074,-6.445 -1.043,-7.624 -9.055,-9.562 -8.255,-1.997 -8.853,-2.679 -6.17,-7.049 2.395,-3.903 2.27,-5.279 -0.65,-7.112 -4.936,-3.1 -10.459,1.877 -8.61,7.759 0.987,3.139 0.237,4.631 -2.325,4.631 -4.934,0 -8.891,7.689 -8.891,17.276 0,7.543 5.254,10.674 8.638,5.147 4.999,-8.166 13.573,4.659 13.573,20.302 0,4.652 1.278,7.102 3.702,7.102 2.036,0 3.702,-1.06 3.702,-2.356 0,-1.332 6.118,-1.882 14.084,-1.264 13.931,1.079 14.346,0.912 38.033,-15.263 23.379,-15.964 24.174,-16.29 33.424,-13.697 13.64,3.824 22.846,3.233 34.772,-2.231 7.645,-3.504 10.488,-6.269 10.488,-10.202 0,-4.511 -1.086,-5.185 -6.63,-4.115 -12.141,2.343 -13.773,-0.528 -5.625,-9.896 5.521,-6.347 7.086,-10.089 5.881,-14.052 -2.422,-7.964 -2.881,-8.044 -11.072,-1.93 -9.152,6.83 -22.021,9.259 -29.019,5.478 -2.853,-1.541 -6.492,-7.197 -8.086,-12.569 -2.418,-8.146 -2.196,-11.759 1.337,-21.759 8.051,-22.79 4.651,-28.332 -10.85,-17.684 z m -519.738,4.664 c -2.543,4.154 3.177,8.918 6.582,5.481 2.848,-2.875 1.065,-8.189 -2.747,-8.189 -1.197,0 -2.923,1.218 -3.835,2.708 z m -135.538,4.658 c -0.972,1.588 1.115,7.282 4.637,12.655 8.704,13.277 8.473,24.897 -0.7,35.261 -6.837,7.724 -7.858,8.038 -27.153,8.349 -11.027,0.178 -20.643,0.923 -21.37,1.657 -2.995,3.024 5.053,14.468 12.779,18.169 4.563,2.185 8.296,4.375 8.296,4.865 0,0.491 -4.442,0.291 -9.872,-0.445 -8.751,-1.184 -9.872,-0.753 -9.872,3.794 0,2.821 3.054,7.563 6.787,10.536 9.182,7.315 30.447,6.102 41.817,-2.384 l 7.806,-5.826 16.376,13.722 c 16.133,13.519 16.657,13.741 35.345,14.993 10.433,0.699 19.505,0.767 20.161,0.152 0.656,-0.616 -3.786,-5.225 -9.872,-10.242 -6.085,-5.017 -17.876,-15.646 -26.203,-23.62 -14.797,-14.17 -15.09,-14.705 -13.015,-23.722 5.62,-24.423 0.645,-44.743 -13.195,-53.898 -8.106,-5.361 -20.58,-7.563 -22.752,-4.016 z m 105.923,0.325 c -2.543,4.154 3.177,8.917 6.581,5.481 2.848,-2.875 1.066,-8.19 -2.746,-8.19 -1.197,0 -2.923,1.219 -3.835,2.709 z m -23.313,4.765 c 0,3.753 1.289,5.098 4.318,4.509 2.377,-0.462 4.319,-2.491 4.319,-4.509 0,-2.018 -1.942,-4.046 -4.319,-4.508 -3.029,-0.589 -4.318,0.756 -4.318,4.508 z m -28.786,1.413 c -2.057,5.412 3.165,10.5 6.903,6.727 3.159,-3.189 1.202,-10.631 -2.796,-10.631 -1.443,0 -3.291,1.757 -4.107,3.904 z m 46.062,8.592 c -3.393,1.175 -12.441,3.384 -20.104,4.909 -10.564,2.101 -14.249,3.984 -15.234,7.784 -1.97,7.608 3.995,8.42 26.344,3.587 25.16,-5.441 36.142,-9.982 36.142,-14.946 0,-2.917 -2.574,-3.816 -10.489,-3.668 -5.769,0.108 -13.265,1.158 -16.659,2.334 z m 442.702,13.539 c -0.746,1.963 -0.974,5.598 -0.506,8.076 0.742,3.927 4.331,4.665 27.973,5.751 26.664,1.224 30.7,0.318 30.786,-6.913 0.058,-4.833 -8.814,-7.156 -33.982,-8.898 -18.66,-1.292 -23.166,-0.924 -24.271,1.984 z m -456.277,9.742 -22.21,5.374 -0.644,8.698 c -0.907,12.247 1.897,15.743 10.103,12.593 4.14,-1.589 6.583,-4.398 6.583,-7.571 0,-5.305 3.578,-6.786 6.168,-2.553 2.248,3.669 10.06,3.03 13.457,-1.101 1.624,-1.977 6.48,-3.938 10.791,-4.36 6.848,-0.67 7.934,-1.789 8.61,-8.864 0.943,-9.87 -0.748,-9.984 -32.858,-2.216 z m 659.017,8.946 c -0.88,1.437 -0.724,4.014 0.345,5.727 1.069,1.713 2.082,33.384 2.25,70.38 0.204,44.678 1.632,78.143 4.254,99.654 2.171,17.814 4.614,38.554 5.431,46.09 2.759,25.485 3.841,30.095 6.65,28.342 2.66,-1.659 1.037,-117.02 -2.052,-145.927 -1.271,-11.886 1.759,-16.265 5.26,-7.605 2.041,5.051 6.37,95.748 6.168,129.257 -0.114,18.953 0.545,23.016 3.947,24.334 2.246,0.87 5.767,0.171 7.824,-1.552 3.223,-2.7 3.515,-10.383 2.114,-55.476 -0.895,-28.788 -2.662,-60.189 -3.926,-69.781 -1.264,-9.592 -3.598,-27.529 -5.187,-39.862 -1.589,-12.332 -5.104,-30.269 -7.812,-39.861 -7.945,-28.142 -20.987,-50.709 -25.266,-43.72 z m -194.585,3.555 c -0.718,1.888 -0.146,4.603 1.271,6.033 3.194,3.225 9.378,1.089 9.378,-3.238 0,-1.763 -1.757,-3.885 -3.904,-4.717 -5.222,-2.022 -5.248,-2.015 -6.745,1.922 z m 38.695,2.778 c -0.855,2.249 -0.371,5.283 1.076,6.743 3.76,3.796 10.884,0.327 9.902,-4.822 -1.094,-5.734 -9.002,-7.119 -10.978,-1.921 z M 97.526,453.445 c -6.506,12.875 -15.872,39.407 -20.831,59.013 -4.923,19.465 -10.823,88.071 -11.634,135.281 -0.547,31.905 -0.144,36.204 3.459,36.905 2.243,0.436 6.357,-0.439 9.143,-1.944 4.833,-2.611 5.065,-4.887 5.065,-49.664 0,-46.088 5.44,-112.544 10.08,-123.152 1.621,-3.706 1.854,-0.334 0.746,10.808 -0.885,8.907 -2.084,21.239 -2.663,27.405 -0.579,6.166 -1.686,37.64 -2.46,69.942 -1.05,43.838 -0.641,60.173 1.61,64.419 1.661,3.133 3.952,4.73 5.098,3.554 1.856,-1.904 4.256,-35.357 8.735,-121.721 0.781,-15.073 2.435,-43.101 3.675,-62.284 3.245,-50.226 3.057,-58.547 -1.325,-58.547 -2.009,0 -5.923,4.494 -8.698,9.985 z m 164.198,3.421 c -4.288,4.328 -6.24,9.015 -6.24,14.985 0,10.12 2.869,12.763 9.792,9.023 5.086,-2.748 7.242,-8.277 8.182,-20.99 0.709,-9.576 -4.03,-10.795 -11.734,-3.018 z m 600.875,24.688 c 0,1.865 2.68,11.154 5.956,20.642 8.388,24.294 14.33,48.521 13.082,53.34 -0.583,2.251 -0.135,10.747 0.996,18.88 1.131,8.134 3.197,23.757 4.592,34.719 1.395,10.962 3.088,22.734 3.763,26.159 0.674,3.426 2.481,16.038 4.017,28.028 1.974,15.419 3.78,21.799 6.17,21.799 4.025,0 4.195,-5.988 0.989,-34.879 -1.293,-11.647 -2.556,-28.463 -2.807,-37.37 -0.252,-8.906 -1.838,-25.723 -3.525,-37.37 -3.309,-22.838 -2.893,-27.267 1.493,-15.917 4.592,11.881 9.117,42.379 12.087,81.45 3.082,40.553 3.823,44.086 9.236,44.086 7.78,0 -3.275,-121.348 -11.903,-130.671 -1.205,-1.302 -2.191,-3.972 -2.191,-5.934 0,-6.033 -22.228,-53.627 -27.937,-59.817 -7.531,-8.167 -14.018,-11.473 -14.018,-7.145 z m -726.716,22.673 c -14.934,15.984 -26.186,71.936 -29.613,147.261 -1.589,34.907 0.375,44.26 7.354,35.026 2.625,-3.473 3.722,-11.901 3.892,-29.897 0.366,-38.77 2.054,-76.784 3.474,-78.218 0.707,-0.713 1.169,24.068 1.027,55.07 -0.142,31.001 0.466,57.548 1.35,58.992 0.884,1.444 3.763,2.626 6.398,2.626 4.372,0 4.796,-1.905 4.856,-21.8 0.132,-43.316 5.524,-113.919 11.178,-146.366 5.936,-34.069 4.271,-37.88 -9.916,-22.694 z m 628.987,-2.4 c -11.551,5.076 -18.754,18.848 -20.088,38.41 -1.486,21.791 3.238,41.369 21.322,88.356 25.42,66.047 30.564,93.157 24.035,126.661 -4.603,23.621 -13.915,42.595 -26.502,54.001 -6.805,6.168 -9.628,10.753 -9.628,15.644 0,9.624 3.635,10.922 13.447,4.8 12.275,-7.658 23.3,-21.354 31.595,-39.248 6.373,-13.748 7.555,-19.902 9.352,-48.699 1.866,-29.894 1.508,-35.666 -3.841,-61.999 -3.244,-15.969 -8.825,-36.149 -12.401,-44.844 -16.91,-41.11 -27.295,-87.65 -21.463,-96.184 1.642,-2.403 3.961,-2.507 9.831,-0.441 13.804,4.858 24.644,-5.855 21.739,-21.483 -2.966,-15.965 -19.804,-22.706 -37.398,-14.974 z m 58.242,13.329 c 0,2.438 3.953,12.758 8.784,22.935 14.847,31.274 22.749,67.676 27.816,128.144 1.03,12.29 2.816,20.119 4.738,20.761 2.359,0.789 3.124,-6.78 3.25,-32.186 0.162,-32.577 0.234,-33.002 3.729,-22.007 1.96,6.166 4.259,20.18 5.108,31.142 1.543,19.908 3.784,26.159 9.378,26.159 9.243,0 -2.804,-80.95 -18.207,-122.338 -6.055,-16.272 -17.295,-34.117 -29.945,-47.542 -9.719,-10.313 -14.651,-12.019 -14.651,-5.068 z M 176.15,526.189 c -10.67,13.373 -16.82,24.198 -24.073,42.368 -6.463,16.194 -6.795,18.914 -8.748,71.72 -0.785,21.239 -1.972,42.752 -2.638,47.808 -1.273,9.664 0.68,12.94 5.807,9.741 1.936,-1.208 4.001,-13.342 5.591,-32.846 3.979,-48.807 4.991,-57.604 6.456,-56.125 2.014,2.033 0.789,45.029 -1.821,63.876 -1.238,8.944 -1.594,18.799 -0.79,21.902 3.385,13.066 7.277,1.756 12.344,-35.867 2.938,-21.816 6.621,-44.71 8.184,-50.877 1.563,-6.166 3.264,-20.868 3.781,-32.671 0.517,-11.803 2.694,-29.095 4.837,-38.427 2.209,-9.616 2.968,-17.905 1.752,-19.133 -1.217,-1.228 -5.844,2.467 -10.682,8.531 z m 623.812,33.882 c -0.677,1.105 2.995,12.609 8.16,25.565 11.061,27.748 17.096,52.863 19.144,79.678 1.782,23.319 3.151,26.352 10.184,22.552 6.084,-3.287 5.429,-11.024 -3.395,-40.115 -3.118,-10.277 -6.242,-22.048 -6.943,-26.159 -0.701,-4.111 -2.033,-11.678 -2.96,-16.817 -2.21,-12.249 0.071,-11.824 6.69,1.246 8.429,16.643 12.484,33.584 14.162,59.17 1.226,18.68 2.333,23.667 5.255,23.667 3.029,0 3.639,-3.871 3.353,-21.304 -0.64,-39.1 -15.596,-79.65 -36.577,-99.174 -11.074,-10.304 -14.755,-12.096 -17.073,-8.309 z m -596.811,7.334 c -8.139,8.758 -17.661,28.298 -21.506,44.132 -2.612,10.753 -12.349,79.297 -12.488,87.91 -0.088,5.424 7.383,3.36 9.653,-2.668 1.198,-3.181 2.988,-17.475 3.977,-31.765 0.99,-14.291 2.714,-28.225 3.832,-30.965 1.904,-4.668 1.418,12.489 -1.529,54.037 -0.695,9.786 -0.162,17.304 1.288,18.21 1.36,0.848 2.494,0.074 2.522,-1.72 0.027,-1.793 1.147,-10.548 2.489,-19.455 1.341,-8.906 4.037,-27.965 5.99,-42.353 1.953,-14.387 6.383,-36.809 9.844,-49.827 9.049,-34.03 8.283,-38.833 -4.072,-25.536 z M 801.9,617.232 c 0.902,6.509 2.2,19.682 2.883,29.273 1.754,24.636 3.386,33.634 6.101,33.634 1.296,0 2.517,-7.007 2.714,-15.571 l 0.358,-15.571 2.452,18.062 c 1.349,9.934 3.409,18.062 4.578,18.062 3.448,0 2.433,-28.797 -1.655,-46.938 -6.424,-28.511 -20.891,-45.9 -17.431,-20.951 z m -589.347,-1.246 c -4.772,7.518 -8.489,22.409 -12.753,51.084 -4.574,30.755 -4.604,42.965 -0.108,42.965 4.453,0 6.434,-5.477 6.434,-17.79 0,-5.45 0.928,-9.33 2.062,-8.622 1.135,0.708 1.552,7.5 0.929,15.095 -1.05,12.775 -0.743,13.808 4.107,13.808 5.752,0 5.368,2.399 6.167,-38.616 0.241,-12.332 1.389,-31.671 2.553,-42.976 1.866,-18.119 1.645,-20.553 -1.858,-20.553 -2.186,0 -5.576,2.522 -7.533,5.605 z m -1.665,56.056 c -0.132,7.116 -0.629,8.164 -2.086,4.399 -1.763,-4.557 -0.885,-13.742 1.313,-13.742 0.521,0 0.868,4.204 0.773,9.343 z m 49.84,-44.801 c -1.44,2.716 -3.347,9.538 -4.239,15.159 -1.508,9.532 -1.153,10.4 5.261,12.862 9.257,3.553 10.758,1.064 8.695,-14.421 -2.079,-15.601 -5.855,-20.886 -9.717,-13.6 z m 495.351,-0.449 c -1.612,8.387 0.917,25.941 3.732,25.904 7.844,-0.106 8.94,-3.852 4.547,-15.536 -5.177,-13.767 -7.151,-16.239 -8.279,-10.368 z m 0.56,43.668 c 0.222,6.008 -0.405,16.567 -1.393,23.464 -1.957,13.656 2.1,20.711 10.123,17.603 3.284,-1.272 3.837,-4.446 3.023,-17.354 -0.825,-13.065 -0.341,-15.751 2.798,-15.538 4.2,0.286 6.183,-7.968 3.071,-12.784 -1.093,-1.692 -5.596,-3.805 -10.007,-4.696 l -8.019,-1.619 z m -493.627,11.936 c -1.425,2.689 -2.592,8.392 -2.592,12.674 0,4.555 -1.023,7.146 -2.468,6.245 -1.357,-0.847 -2.468,-5.958 -2.468,-11.358 0,-7.067 -1.037,-9.818 -3.701,-9.818 -2.933,0 -3.702,3.568 -3.702,17.167 v 17.166 l 8.639,1.019 c 4.751,0.56 9.75,-0.103 11.106,-1.472 3.14,-3.17 3.245,-33.101 0.122,-35.049 -1.289,-0.804 -3.51,0.738 -4.936,3.426 z m 509.274,6.177 c -0.722,1.899 -0.965,8.345 -0.54,14.326 0.647,9.093 1.682,11.003 6.326,11.669 4.99,0.715 5.553,-0.247 5.553,-9.506 0,-15.334 -7.585,-26.364 -11.339,-16.489 z m 200.754,-0.761 c -9.259,5.444 -11.498,14.989 -10.234,43.617 1.668,37.743 2.798,43.871 7.906,42.887 3.589,-0.692 4.389,-5.543 5.669,-34.412 0.82,-18.483 1.652,-33.886 1.851,-34.229 0.198,-0.343 2.543,-0.623 5.21,-0.623 7.939,0 9.958,8.031 9.958,39.61 0,27.209 0.446,30.213 4.832,32.583 3.878,2.097 5.338,1.657 7.408,-2.24 3.37,-6.367 3.3,-46.341 -0.12,-62.429 -4.7,-22.11 -18.76,-32.831 -32.48,-24.764 z M 23.56,700.006 c -2.68,2.706 -5.609,7.881 -6.509,11.502 -1.471,5.914 -0.251,40.855 2.339,67.039 4.706,47.556 5.432,50.074 13.671,47.434 6.412,-2.054 6.588,-7.093 1.57,-44.943 -5.652,-42.633 -4.655,-68.512 2.641,-68.512 6.158,0 8.245,9.118 12.009,52.445 2.06,23.725 4.69,44.09 5.844,45.255 1.154,1.164 4.08,1.35 6.502,0.412 4.426,-1.715 4.457,-12.445 0.158,-55.759 -0.476,-4.796 -1.624,-16.512 -2.55,-26.036 -1.832,-18.829 -4.786,-28.862 -9.361,-31.799 -5.903,-3.789 -21.349,-2.05 -26.314,2.962 z m 905.468,3.178 c -4.55,7.266 -4.913,10.606 -3.542,32.556 2.703,43.26 11.151,50.33 11.151,9.332 0,-18.583 0.88,-25.199 3.661,-27.529 5.576,-4.671 8.679,6.399 8.679,30.965 0,15.622 0.935,21.493 3.807,23.898 2.263,1.897 4.676,2.273 5.951,0.928 2.869,-3.024 -3.088,-65.467 -6.93,-72.642 -4.76,-8.889 -16.453,-7.61 -22.777,2.492 z M 70.045,702.357 c -5.259,4.314 -5.78,6.556 -5.352,23.045 0.644,24.839 5.74,69.596 8.53,74.944 3.743,7.173 9.551,5.43 8.301,-2.491 -0.594,-3.768 -2.328,-20.305 -3.854,-36.747 -1.525,-16.443 -3.17,-32.479 -3.654,-35.635 -0.997,-6.498 4.987,-10.229 9.347,-5.828 1.524,1.538 3.585,10.479 4.578,19.869 4.197,39.653 7.676,57.718 11.113,57.718 4.411,0 4.37,-14.282 -0.153,-52.658 -3.47,-29.444 -7.845,-42.658 -15.049,-45.448 -5.99,-2.321 -7.457,-1.978 -13.807,3.231 z m 827.232,4.345 c -4.353,5.586 -5.112,9.766 -4.811,26.504 0.433,24.026 2.461,32.623 7.947,33.69 3.622,0.704 4.141,-1.933 4.141,-21.052 0,-26.583 4.129,-25.6 6.082,1.447 1.331,18.435 3.832,23.319 10.602,20.697 3.591,-1.391 3.42,-9.591 -0.969,-46.39 -1.458,-12.219 -7.642,-21.529 -14.302,-21.529 -1.937,0 -5.848,2.985 -8.69,6.633 z m -28.332,2.265 c -6.766,6.831 -4.471,55.878 2.615,55.878 2.51,0 3.379,-4.126 3.379,-16.047 0,-22.021 4.231,-22.985 6.334,-1.444 1.271,13.017 2.643,17.491 5.365,17.491 3.075,0 3.47,-4.168 2.477,-26.129 -0.706,-15.606 -2.429,-27.646 -4.279,-29.896 -4.005,-4.872 -10.983,-4.807 -15.891,0.147 z m -764.079,2.403 c -2.383,2.899 -2.752,11.505 -1.524,35.502 1.713,33.44 4.163,47.435 7.945,45.377 2.479,-1.348 2.48,-1.607 0.126,-31.141 -0.972,-12.2 -0.721,-18.588 0.648,-16.468 1.229,1.905 3.001,11.707 3.936,21.783 1.826,19.67 6.048,27.256 6.483,11.648 l 0.264,-9.489 2.349,10.588 c 2.274,10.251 7.597,14.105 10.162,7.358 1.815,-4.776 -5.039,-64.038 -8.335,-72.073 -2.278,-5.553 -4.415,-6.912 -10.872,-6.912 -4.42,0 -9.452,1.722 -11.182,3.827 z m 14.09,22.525 c 0.243,4.005 -0.131,5.239 -0.832,2.743 -1.233,-4.391 -1.386,-4.391 -4.683,0 -3.182,4.237 -3.414,4.111 -3.487,-1.897 -0.149,-12.232 8.262,-13.022 9.002,-0.846 z m 3.682,23.476 c 0.518,5.48 0.08,9.965 -0.974,9.965 -1.054,0 -1.917,-4.485 -1.917,-9.965 0,-5.481 0.439,-9.966 0.975,-9.966 0.536,0 1.399,4.485 1.916,9.966 z m 719.366,-42.78 c -3.085,3.441 -4.084,9.438 -4.084,24.498 0,21.014 0.812,23.749 6.411,21.58 2.377,-0.92 3.46,-5.548 3.46,-14.776 0,-7.39 1.111,-13.436 2.468,-13.436 1.371,0 2.468,6.644 2.468,14.948 0,11.626 0.823,14.948 3.702,14.948 3,0 3.702,-4.014 3.702,-21.176 0,-17.855 -0.774,-21.958 -4.936,-26.159 -6.088,-6.147 -8.008,-6.209 -13.191,-0.427 z m -701.457,4.117 c -6.79,6.854 -6.95,8.484 -3.468,35.368 3.408,26.317 4.509,30.699 7.712,30.699 1.948,0 2.227,-7.975 0.965,-27.63 -1.666,-25.944 -1.499,-27.578 2.739,-26.754 2.482,0.483 4.91,2.959 5.396,5.504 0.55,2.886 -0.142,3.987 -1.84,2.928 -4.511,-2.814 -5.414,4.108 -2.887,22.119 3.719,26.513 8.534,27.498 6.896,1.411 -1.309,-20.857 -0.702,-19.577 4.429,9.343 0.845,4.759 2.917,8.097 5.027,8.097 2.719,0 3.68,-3.778 3.96,-15.571 0.203,-8.564 0.786,-12.208 1.294,-8.097 3.231,26.14 8.964,24.697 10.676,-2.688 0.958,-15.327 2.061,-19.734 4.936,-19.734 2.789,0 4.233,4.785 5.858,19.412 1.391,12.521 3.144,19.073 4.936,18.456 3.475,-1.197 2.152,-43.895 -1.501,-48.457 -7.58,-9.466 -24.101,1.207 -24.101,15.571 0,4.796 -1.11,8.72 -2.468,8.72 -1.357,0 -2.474,-2.522 -2.481,-5.605 -0.033,-13.498 -4.919,-23.802 -12.559,-26.491 -6.599,-2.322 -8.268,-1.903 -13.519,3.399 z m 675.655,-3.192 c -4.185,4.224 -4.071,40.146 0.123,38.754 1.697,-0.563 3.426,-5.701 3.844,-11.418 1.063,-14.56 5.411,-13.021 5.411,1.915 0,11.544 3.116,17.77 6.951,13.885 3.066,-3.106 1.666,-32.954 -1.858,-39.601 -3.692,-6.964 -9.636,-8.416 -14.471,-3.535 z m 166.37,-0.951 c -1.97,3.217 -1.679,47.698 0.335,51.168 2.997,5.166 5.471,-6.197 5.346,-24.556 -0.143,-20.94 -2.472,-31.854 -5.681,-26.612 z m -224.461,4.812 c -0.618,1.028 -1.517,9.717 -1.996,19.308 -0.798,15.967 -0.463,17.44 3.972,17.44 3.347,0 5.554,-2.501 7.144,-8.097 3.062,-10.778 6.048,-10.246 6.99,1.246 0.609,7.424 1.78,9.342 5.702,9.342 4.379,0 5.018,-1.907 5.667,-16.895 l 0.732,-16.896 -8.673,-3.658 c -9.435,-3.979 -17.76,-4.742 -19.538,-1.79 z M 36.799,753.583 c 1.806,33.836 6.134,61.089 9.703,61.089 2.287,0 0.977,-33.259 -1.847,-46.887 -0.658,-3.179 -1.895,-13.269 -2.747,-22.423 -0.853,-9.153 -2.709,-17.763 -4.126,-19.133 -1.786,-1.728 -2.087,6.655 -0.983,27.354 z m 169.848,-26.486 c -3.516,2.251 -4.112,7.169 -3.442,28.405 0.599,18.979 5.388,18.556 5.388,-0.476 0,-8.14 0.943,-15.389 2.095,-16.108 1.152,-0.718 3.452,4.821 5.113,12.31 1.66,7.489 4.049,13.617 5.309,13.617 1.26,0 2.291,-6.478 2.291,-14.394 0,-19.759 -7.042,-29.575 -16.754,-23.354 z m 732.704,12.211 c 0.418,24.298 4.165,29.551 4.444,6.229 0.146,-12.208 -0.756,-20.554 -2.222,-20.554 -1.387,0 -2.36,6.27 -2.222,14.325 z M 79.829,731.57 c -0.491,2.543 0.442,14.153 2.074,25.801 1.633,11.647 3.041,25.941 3.131,31.764 0.089,5.824 1.273,10.588 2.63,10.588 3.14,0 3.099,-4.262 -0.386,-39.583 -2.733,-27.703 -5.537,-38.459 -7.449,-28.57 z m 169.897,0.057 c -5.763,5.817 3.603,12.612 13.162,9.55 5.898,-1.89 6.504,-7.58 1.032,-9.699 -5.155,-1.997 -12.141,-1.924 -14.194,0.149 z m -65.774,23.875 c -0.022,9.576 1.025,16.817 2.43,16.817 3.162,0 3.162,-24.957 0,-29.897 -1.675,-2.617 -2.404,1.303 -2.43,13.08 z m 69.681,-8.938 c -6.713,2.734 -3.084,8.315 5.407,8.315 10.067,0 13.343,-3.678 6.548,-7.349 -5.174,-2.795 -7.086,-2.95 -11.955,-0.966 z m 560.694,26.878 c -2.18,3.358 -3.594,8.03 -3.142,10.382 1.179,6.136 6.991,7.354 6.991,1.464 0,-5.237 5.642,-11.426 8.128,-8.917 0.827,0.835 0.896,4.588 0.152,8.34 -1.831,9.246 5.383,12.481 7.635,3.424 4.251,-17.097 -10.896,-28.357 -19.764,-14.693 z m -553.291,-0.227 c -7.27,3.636 -6.928,6.324 1.921,15.09 l 7.335,7.266 v -12.872 c 0,-13.533 -0.379,-13.921 -9.256,-9.484 z m 582.144,0.65 c -4.719,3.336 -5.564,5.844 -4.868,14.444 l 0.842,10.407 -11.106,-0.119 c -9.342,-0.1 -11.106,0.639 -11.106,4.657 0,3.671 3.716,6.014 16.042,10.118 22.891,7.622 33.73,13.851 54.332,31.227 9.985,8.422 24.889,18.71 33.121,22.863 21.164,10.678 31.008,18.693 31.008,25.246 0,8.786 -13.948,24.136 -21.774,23.962 -6.061,-0.134 -6.226,-0.391 -1.996,-3.114 17.503,-11.263 18.643,-17.995 1.559,-9.196 -12.905,6.646 -15.695,4.982 -3.663,-2.184 10.476,-6.24 9.577,-11.226 -1.332,-7.387 -4.045,1.423 -7.973,3.598 -8.729,4.834 -0.757,1.235 -3.253,2.216 -5.549,2.179 -2.943,-0.047 -1.627,-2.23 4.465,-7.407 9.392,-7.982 6.683,-9.802 -5.288,-3.554 -10.235,5.344 -12.207,2.2 -3.253,-5.187 7.808,-6.442 5.399,-8.061 -4.927,-3.311 -8.909,4.097 -10.633,0.736 -3.612,-7.042 5.288,-5.857 5.407,-6.392 1.038,-4.653 -8.363,3.33 -16.041,4.495 -16.041,2.434 0,-1.079 1.943,-4.181 4.318,-6.892 4.209,-4.802 4.137,-4.884 -2.78,-3.184 -5.982,1.471 -6.85,1.091 -5.517,-2.415 1.285,-3.38 0.392,-3.931 -4.759,-2.937 -5.278,1.018 -6.272,0.338 -5.932,-4.063 0.67,-8.673 0.043,-9.785 -3.732,-6.622 -4.406,3.691 -9.04,1.273 -7.14,-3.727 0.951,-2.502 -0.252,-3.657 -3.81,-3.657 -2.86,0 -5.2,-1.121 -5.2,-2.491 0,-1.371 -2.221,-2.492 -4.936,-2.492 -3.306,0 -4.935,-1.661 -4.935,-5.03 0,-4.121 -1.115,-4.748 -6.17,-3.467 -4.666,1.182 -6.17,0.587 -6.17,-2.444 0,-2.346 -2.046,-4.007 -4.936,-4.007 -2.715,0 -4.936,-1.121 -4.936,-2.491 0,-1.37 -1.603,-2.491 -3.562,-2.491 -4.144,0 -11.631,9.811 -9.786,12.825 0.689,1.126 9.239,6.755 18.998,12.509 30.78,18.147 51.113,42.167 51.113,60.38 0,7.855 -9.936,18.922 -16.987,18.922 -5.182,0 -12.629,-6.126 -12.629,-10.389 0,-1.408 3.332,-5.702 7.404,-9.542 4.072,-3.84 7.404,-8.582 7.404,-10.537 0,-5.933 -14.575,-26.203 -26.392,-36.703 -6.124,-5.442 -17.268,-12.211 -24.764,-15.042 -12.513,-4.726 -14.109,-4.83 -19.49,-1.271 -8.788,5.813 -7.178,9.746 6.558,16.012 15.269,6.967 36.941,27.652 36.941,35.26 0,3.015 -2.777,8.079 -6.17,11.254 -4.851,4.538 -6.17,8.212 -6.17,17.18 0,8.642 -1.047,11.767 -4.319,12.886 -15.081,5.156 -30.224,13.626 -32.694,18.286 -7.322,13.81 -0.664,40.005 16.284,64.068 4.561,6.48 7.482,12.51 6.49,13.4 -1.628,1.47 -18.616,4.17 -78.309,12.43 -40.367,5.59 -60.663,7.25 -118.461,9.7 -32.577,1.38 -73.669,3.13 -91.314,3.9 -45.616,1.98 -174.411,-4.71 -217.18,-11.27 -8.144,-1.25 -27.977,-4.24 -44.073,-6.64 -16.323,-2.44 -29.756,-5.65 -30.375,-7.28 -0.609,-1.6 4.435,-10.31 11.21,-19.34 8.914,-11.891 12.789,-19.607 14.026,-27.93 2.215,-14.916 -1.193,-21.199 -19.01,-35.039 -11.233,-8.726 -13.733,-11.935 -12.626,-16.209 1.043,-4.023 -1.129,-7.669 -8.861,-14.876 -11.655,-10.864 -12.277,-14.135 -5.128,-26.974 5.878,-10.558 18.615,-19.009 43.095,-28.593 9.454,-3.702 19.26,-7.564 21.787,-8.582 4.287,-1.727 4.144,-2.394 -2.117,-9.906 -10.82,-12.981 -13.809,-13.664 -31.469,-7.193 -27.735,10.163 -65.574,40.102 -74.22,58.725 -2.398,5.164 -1.868,6.614 4.204,11.501 10.116,8.143 7.987,14.77 -5.054,15.732 -8.342,0.615 -10.964,-0.294 -14.17,-4.914 -5.227,-7.534 -4.959,-11.002 1.988,-25.737 8.06,-17.095 19.783,-28.252 48.524,-46.184 25.915,-16.168 28.939,-18.873 25.254,-22.593 -3.277,-3.308 -18.736,2.706 -38.765,15.081 -25.278,15.619 -84.209,45.102 -102.537,51.299 -20.628,6.974 -26.168,14.61 -18.377,25.328 2.785,3.831 10.536,10.698 17.225,15.261 6.689,4.563 12.484,9.18 12.877,10.261 0.816,2.244 -28.263,10.094 -37.39,10.094 -5.867,0 -6.008,-0.425 -4.753,-14.391 1.288,-14.341 1.256,-14.425 -9.044,-23.818 -5.684,-5.185 -11.647,-8.989 -13.249,-8.453 -1.692,0.565 -3.75,9.566 -4.909,21.469 -2.465,25.312 1.042,33.047 19.276,42.524 13.332,6.928 16.514,7.103 88.841,4.899 l 34.551,-1.054 14.664,7.66 c 8.065,4.213 15.098,8.978 15.63,10.588 1.738,5.263 -28.486,3.244 -68.336,-4.565 -69.326,-13.584 -80.024,-10.142 -85.234,27.429 -0.87,6.27 -5.102,16.69 -9.614,23.66 -15.169,23.45 -16.736,33.64 -7.41,48.19 9.558,14.91 77.528,32.33 204.467,52.41 111.305,17.6 279.184,24.71 409.679,17.35 79.524,-4.48 213.579,-27.18 291.218,-49.3 47.158,-13.43 67.677,-21.45 74.652,-29.16 9.84,-10.86 6.21,-30.99 -9.093,-50.5 -4.023,-5.12 -7.812,-12.03 -8.421,-15.35 -4.602,-25.061 -4.238,-24.343 -14.985,-29.595 -13.038,-6.372 -13.514,-6.361 -50.791,1.178 -31.27,6.324 -84.762,10.806 -92.624,7.76 -4.073,-1.578 -4.074,-1.914 -0.036,-6.419 10.044,-11.203 18.961,-12.974 64.587,-12.827 23.75,0.077 43.991,0.645 44.98,1.261 0.989,0.617 13.22,0.12 27.18,-1.104 18.815,-1.649 27.59,-3.602 33.913,-7.548 10.18,-6.349 19.2,-22.632 16.89,-30.498 -3.17,-10.837 -13.64,-31.623 -15.93,-31.623 -5.163,0 -10.801,13.522 -11.282,27.057 -0.274,7.727 -0.622,14.891 -0.771,15.919 -0.348,2.383 -29.606,2.119 -35.768,-0.324 -3.998,-1.585 -2.795,-3.313 8.638,-12.405 17.687,-14.065 34.261,-34.241 34.261,-41.706 0,-8.876 -7.705,-15.058 -21.265,-17.061 -13.43,-1.984 -34.745,-12.247 -69.946,-33.679 -12.951,-7.885 -28.067,-16.655 -33.591,-19.488 l -10.042,-5.152 1.06,-14.793 c 0.954,-13.304 0.481,-15.203 -4.697,-18.865 -7.078,-5.004 -7.177,-5.004 -14.207,-0.033 z m 10.055,21.047 c 0.787,8.095 0.361,8.795 -4.757,7.807 -5.497,-1.061 -8.041,-5.487 -3.155,-5.487 1.358,0 2.468,-2.616 2.468,-5.813 0,-3.197 0.81,-6.631 1.8,-7.63 2.086,-2.106 2.471,-0.93 3.644,11.123 z m 153.785,121.105 c 4.56,9.696 2.96,16.289 -4.29,17.733 -4.164,0.829 -7.433,-12.945 -5.156,-21.735 1.941,-7.491 4.566,-6.38 9.446,4.002 z m -966.334,0.636 c 3.26,6.148 3.271,17.871 0.024,26.49 -2.452,6.512 -2.681,6.582 -7.403,2.267 -5.024,-4.589 -6.013,-12.251 -3.331,-25.79 1.738,-8.775 6.877,-10.198 10.71,-2.967 z m 799.111,22.587 c 15.078,5.785 50.353,6.792 76.559,2.185 13.368,-2.35 18.833,-2.101 34.224,1.558 17.449,4.148 40.467,3.906 51.96,-0.547 8.2,-3.176 1.44,5.654 -8.04,10.506 -9.119,4.666 -14.041,4.948 -77.454,4.451 -74.721,-0.587 -80.663,0.394 -94.653,15.625 -5.796,6.309 -7.074,6.703 -12.964,3.994 -11.044,-5.079 -23.336,-15.717 -23.336,-20.195 0,-8.66 20.903,-22.249 34.551,-22.462 3.393,-0.053 12.012,2.146 19.153,4.885 z m -707.71,2.724 c 11.892,1.991 23.752,1.885 45.845,-0.411 l 29.803,-3.096 12.643,6.946 c 6.953,3.82 15.198,9.697 18.322,13.059 l 5.679,6.114 -5.594,4.58 c -3.076,2.52 -10.528,6.484 -16.56,8.809 l -10.967,4.228 -11.444,-7.652 c -6.294,-4.209 -18.759,-10.11 -27.701,-13.113 -15.111,-5.077 -18.615,-5.309 -49.736,-3.298 -52.177,3.373 -79.037,1.942 -75.389,-4.016 0.814,-1.33 5.508,-2.418 10.432,-2.418 10.389,0 40.255,-7.004 43.694,-10.247 3.08,-2.903 11.396,-2.764 30.973,0.515 z m 721.621,48.171 c 25.049,-0.137 40.191,-1.76 67.192,-7.201 32.698,-6.589 47.821,-7.063 47.821,-1.5 0,5.055 -95.411,31.756 -133.269,37.296 -13.762,2.01 -16.919,1.72 -22.212,-2.02 -7.847,-5.56 -23.969,-29.231 -26.1,-38.321 l -1.627,-6.941 17.929,9.432 17.929,9.432 z m -621.333,6.97 c -4.752,7.225 -11.993,16.375 -16.089,20.335 -7.44,7.19 -7.467,7.2 -22.995,4.15 -57.376,-11.24 -129.87,-33.794 -124.865,-38.848 3.306,-3.337 33.704,-0.954 63.661,4.99 48.246,9.574 63.089,9.339 87.612,-1.388 23.266,-10.177 25.308,-8.443 12.676,10.761 z M 72.937,995.086 c 19.586,10.444 67.011,23.214 129.487,34.864 65.813,12.27 102.545,16.69 199.903,24 66.608,5 234.83,0.24 307.259,-8.71 75.251,-9.29 166.283,-27.31 226.858,-44.89 20.933,-6.078 38.836,-10.565 39.785,-9.973 0.949,0.592 2.446,4.712 3.327,9.156 0.88,4.447 6.299,15.927 12.041,25.527 12.603,21.06 14.233,36.08 4.758,43.83 -15.631,12.78 -141.152,44.27 -228.772,57.39 -99.316,14.88 -138.258,17.72 -243.093,17.76 -131.518,0.05 -254.122,-10.76 -361.554,-31.88 -10.858,-2.13 -24.849,-4.82 -31.09,-5.98 -29.275,-5.4 -71.38,-15.88 -83.443,-20.77 -17.715,-7.18 -23.537,-15.13 -21.219,-28.99 1.016,-6.07 4.757,-13.91 8.912,-18.69 9.004,-10.35 14.549,-23.57 14.549,-34.68 0,-9.336 2.021,-16.475 4.664,-16.475 0.917,0 8.849,3.83 17.628,8.511 z M 921.83,1017.8 c -8.823,3.34 -19.171,6.08 -22.995,6.1 -5.426,0.04 -6.689,1 -5.749,4.41 0.663,2.39 1.923,6.88 2.801,9.96 2.225,7.82 10.147,7.12 14.116,-1.24 5.514,-11.61 37.112,-22.26 46.378,-15.63 3.187,2.28 2.928,3.3 -1.864,7.37 -3.061,2.59 -13.573,7.8 -23.359,11.58 -27.5,10.61 -36.504,23.41 -22.828,32.45 8.228,5.45 33.017,3.61 47.658,-3.53 5.831,-2.85 12.193,-4.56 14.136,-3.81 7.958,3.09 10.633,-0.77 7.947,-11.45 -3.057,-12.16 -9.884,-13.68 -14.769,-3.28 -4.198,8.93 -22.703,18.45 -34.068,17.52 -15.315,-1.25 -10.512,-7.41 13.177,-16.89 21.281,-8.52 33.714,-18.22 33.714,-26.31 0,-14.29 -26.337,-17.8 -54.295,-7.25 z m -853.909,3.94 c -26.092,7.95 -27.949,31.59 -3.613,45.99 14.944,8.84 40.612,16.01 57.324,16.01 8.01,0 15.509,1.59 19.307,4.1 7.565,5.01 9.849,2.96 12.072,-10.86 1.562,-9.7 1.232,-10.6 -4.378,-12.02 -4.565,-1.16 -7.722,0.13 -12.752,5.21 -6.166,6.22 -7.822,6.64 -21.352,5.4 -17.893,-1.63 -36.873,-10.67 -41.038,-19.54 -4.129,-8.79 0.259,-21.64 8.467,-24.79 20.444,-7.84 62.469,4.12 62.469,17.79 0,3.47 1.718,4.81 6.17,4.81 9.197,0 7.888,-8.17 -2.723,-17 -15.262,-12.7 -60.065,-21.16 -79.953,-15.1 z m 781.721,14.12 c -12.311,2.51 -19.126,5.07 -19.126,7.2 0,1.82 2.221,3.31 4.936,3.31 2.714,0 4.919,0.84 4.898,1.86 -0.11,5.45 -5.695,8.38 -22.78,11.95 -15.638,3.26 -19.862,3.38 -24.564,0.72 l -5.679,-3.21 5.553,-0.85 c 5.835,-0.9 6.659,-2.46 3.664,-6.97 -1.295,-1.95 -7.637,-1.59 -22.171,1.24 -16.474,3.22 -20.358,4.83 -20.36,8.45 -0.003,3.74 1.374,4.21 8.429,2.88 7.84,-1.49 10.393,-0.01 36.402,21.06 24.895,20.18 28.784,22.5 35.374,21.13 4.072,-0.85 8.148,-1.99 9.059,-2.53 0.91,-0.53 5.779,-13.57 10.819,-28.98 10.181,-31.11 11.902,-34.23 18.883,-34.23 5.457,0 4.804,-6.03 -0.713,-6.57 -1.923,-0.19 -12.104,1.4 -22.624,3.54 z m -17.979,38.54 c -3.088,14.58 -4.232,15.06 -15.391,6.4 -5.667,-4.39 -9.834,-8.47 -9.261,-9.04 1.362,-1.38 16.066,-4.88 21.85,-5.21 3.825,-0.21 4.253,0.98 2.802,7.85 z m -636.155,-28.94 c -3.353,3.38 -1.633,5.51 5.779,7.16 5.406,1.2 7.19,2.82 6.388,5.8 -0.612,2.28 -2.468,11.82 -4.125,21.2 -2.966,16.81 -3.113,17.05 -9.866,15.68 -4.679,-0.94 -7.291,-0.24 -8.226,2.22 -0.884,2.33 0.569,4.02 4.096,4.78 27.115,5.8 44.573,8.6 46.43,7.44 4.308,-2.68 2.144,-5.46 -5.446,-7 -4.731,-0.95 -7.22,-2.74 -6.495,-4.67 0.647,-1.72 2.608,-11.23 4.357,-21.14 3.148,-17.84 3.254,-18.01 10.545,-17.44 4.05,0.32 7.775,-0.58 8.278,-2 0.518,-1.46 -8.97,-4.57 -21.943,-7.2 -12.571,-2.55 -24.025,-5.07 -25.453,-5.6 -1.429,-0.53 -3.372,-0.19 -4.319,0.77 z m 506.675,14.77 c -10.181,1.79 -18.788,3.33 -19.127,3.42 -0.339,0.09 -0.617,1.89 -0.617,4.01 0,3.02 1.787,3.51 8.283,2.28 l 8.282,-1.57 5.291,21.3 c 2.91,11.71 5.291,21.89 5.291,22.63 0,0.73 -2.71,1.33 -6.024,1.33 -6.214,0 -10.026,3.43 -7.818,7.04 1.794,2.93 51.576,-7.95 52.758,-11.53 0.634,-1.92 -2.007,-2.98 -7.44,-2.98 h -8.424 l -4.122,-19.36 c -5.163,-24.26 -5.276,-22.99 2.048,-22.99 3.839,0 6.17,-1.41 6.17,-3.74 0,-4.53 -8.222,-4.49 -34.551,0.16 z m -426.955,1.81 c 0,2.41 2.568,4.23 6.638,4.72 6.545,0.77 6.627,1.01 5.806,16.98 -0.458,8.9 -0.907,18.15 -0.998,20.55 -0.115,3.07 -2.199,4.36 -7.039,4.36 -4.156,0 -6.875,1.34 -6.875,3.39 0,3.83 12.28,5.43 62.241,8.11 l 31.392,1.68 2.542,-6.75 c 1.399,-3.72 2.543,-8.36 2.543,-10.33 0,-4.82 -11.403,-4.65 -13.247,0.2 -2.466,6.49 -14.056,9.16 -31.93,7.35 l -16.795,-1.69 0.754,-7.83 c 0.706,-7.34 1.298,-7.78 9.391,-6.97 4.751,0.47 9.526,2.43 10.611,4.36 1.086,1.92 4.695,3.5 8.021,3.5 4.723,0 6.115,-1.37 6.356,-6.23 0.17,-3.43 0.447,-8.19 0.617,-10.59 0.411,-5.81 -10.777,-7.51 -13.782,-2.09 -1.346,2.43 -5.493,3.96 -10.712,3.96 -8.338,0 -8.515,-0.21 -8.515,-10.32 v -10.33 l 17.893,1.37 c 21.014,1.61 29.913,5.14 33.609,13.33 1.807,4 4.741,5.95 8.957,5.95 5.593,0 6.092,-0.74 4.627,-6.85 -4.309,-17.98 -2.805,-17.16 -34.65,-19 -16.061,-0.93 -37.809,-2.38 -48.328,-3.22 -16.417,-1.33 -19.127,-0.99 -19.127,2.39 z m 310.409,6.81 c -16.912,2.68 -26.83,7.5 -33.781,16.42 -6.829,8.76 -6.503,16.4 1.089,25.51 11.165,13.39 35.773,18.08 81.369,15.5 6.787,-0.39 14.561,-0.31 17.276,0.18 4.286,0.76 5.035,-0.68 5.688,-10.96 0.71,-11.17 0.407,-11.83 -5.441,-11.83 -3.406,0 -8.892,2.72 -12.191,6.05 -11.503,11.61 -34.406,13.69 -55.302,5.01 -9.353,-3.88 -14.262,-12.97 -11.976,-22.17 4.863,-19.55 56.5,-25.09 70.19,-7.52 4.791,6.15 15.202,8.56 15.202,3.52 0,-15.66 -35.873,-25.46 -72.123,-19.71 z m -182.076,2.43 c 0,1.37 2.777,2.49 6.17,2.49 6.124,0 6.17,0.17 6.17,22.42 0,22.26 -0.046,22.43 -6.17,22.43 -3.839,0 -6.17,1.41 -6.17,3.73 0,2.98 3.628,3.74 17.893,3.73 l 17.892,-0.02 29.097,-18.67 c 16.003,-10.27 29.607,-18.67 30.232,-18.67 0.625,0 1.136,6.73 1.136,14.95 0,14.95 0,14.95 -7.404,14.95 -4.936,0 -7.404,1.24 -7.404,3.73 0,3.03 3.976,3.74 20.978,3.74 17.001,0 20.977,-0.71 20.977,-3.74 0,-2.49 -2.468,-3.73 -7.403,-3.73 h -7.404 v -24.92 -24.91 h -7.344 c -4.813,0 -15.657,5.4 -31.466,15.68 -13.268,8.62 -28.288,18.24 -33.378,21.38 l -9.254,5.7 v -18.89 c 0,-18.49 0.131,-18.89 6.169,-18.89 3.394,0 6.17,-1.12 6.17,-2.49 0,-1.45 -8.226,-2.49 -19.743,-2.49 -11.517,0 -19.744,1.04 -19.744,2.49 z M 755.507,778.751 c -2.464,6.482 -1.695,23.047 1.153,24.823 3.217,2.007 13.802,-7.572 18.552,-16.789 3.859,-7.485 1.421,-10.742 -6.209,-8.297 -2.589,0.829 -5.421,0.341 -6.294,-1.085 -2.308,-3.771 -5.482,-3.177 -7.202,1.348 z m 113.526,2.491 c -2.882,7.583 -1.702,26.438 1.587,25.348 1.697,-0.562 3.433,-4.579 3.858,-8.927 0.425,-4.348 1.899,-7.905 3.274,-7.905 1.376,0 2.168,3.898 1.762,8.663 -0.865,10.134 4.079,17.236 7.829,11.247 3.118,-4.977 3.026,-21.554 -0.151,-27.548 -3.167,-5.972 -15.987,-6.592 -18.159,-0.878 z m 29.968,1.242 c -3.465,2.037 -4.319,6.002 -4.319,20.062 0,12.904 0.814,17.254 3.085,16.5 1.697,-0.563 3.64,-6.542 4.319,-13.287 1.752,-17.415 5.947,-15.188 7.404,3.93 0.917,12.034 2.167,16.194 4.868,16.194 5.043,0 8.073,-19.636 4.878,-31.613 -3.334,-12.501 -11.214,-17.09 -20.235,-11.786 z m 30.134,7.373 c -4.388,4.43 -4.942,7.702 -4.319,25.509 0.579,16.531 1.483,20.575 4.736,21.202 3.15,0.607 4.486,-2.311 6.17,-13.476 3.702,-24.543 10.706,-17.308 10.842,11.199 0.06,12.623 7.44,26.14 11.051,20.241 3.361,-5.488 1.458,-52.126 -2.436,-59.729 -5.75,-11.225 -17.595,-13.474 -26.044,-4.946 z m -715.606,1.645 c 0,3.294 -0.658,3.571 -2.961,1.246 -4.788,-4.834 -6.91,-3.483 -6.91,4.396 0,11.303 12.866,16.64 20.801,8.63 4.91,-4.956 5.208,-18.507 0.407,-18.507 -2.27,0 -3.102,1.939 -2.403,5.605 l 1.067,5.606 -2.909,-5.606 c -3.443,-6.631 -7.092,-7.337 -7.092,-1.37 z m 762.596,1.473 c -7.259,3.698 -10.075,18.496 -8.161,42.873 1.565,19.932 2.548,22.853 6.39,18.988 1.673,-1.682 3.551,-12.632 4.238,-24.707 1.116,-19.61 1.707,-21.686 6.17,-21.686 4.571,0 4.988,1.898 5.641,25.649 0.572,20.836 1.449,25.937 4.676,27.186 7.591,2.94 10.951,-6.451 10.431,-29.167 -0.55,-24.244 -3.03,-33.41 -10.446,-38.655 -6.355,-4.494 -10.84,-4.608 -18.939,-0.481 z m -783.666,2.374 c -0.912,2.39 -2.777,3.648 -4.144,2.795 -1.367,-0.852 -3.454,-0.005 -4.639,1.883 -1.56,2.486 -2.165,2.574 -2.192,0.319 -0.021,-1.713 -1.149,-3.114 -2.506,-3.114 -3.541,0 -3.044,10.709 0.739,15.931 2.133,2.946 5.644,4.147 10.489,3.591 6.191,-0.711 7.397,-2.041 8.051,-8.88 0.423,-4.424 -0.335,-10.029 -1.685,-12.457 -2.325,-4.181 -2.542,-4.184 -4.113,-0.068 z m -25.858,8.527 c -0.032,3.879 -0.411,4.004 -2.515,0.83 -2.144,-3.234 -2.969,-3.087 -6.132,1.099 -3.346,4.427 -3.655,4.462 -3.655,0.415 0,-2.456 -1.371,-3.937 -3.085,-3.331 -4.801,1.695 -3.26,19.529 2.025,23.431 6.452,4.762 14.421,4.059 19.611,-1.729 3.695,-4.122 4.098,-6.672 2.233,-14.136 -2.409,-9.646 -8.418,-14.307 -8.482,-6.579 z m -51.24,18.187 c 0.648,6.806 2.591,14.093 4.318,16.194 3.79,4.609 15.739,5.037 19.311,0.691 3.968,-4.826 6.139,-16.131 4.423,-23.031 -1.754,-7.055 -8.818,-8.532 -8.933,-1.868 -0.071,4.152 -0.195,4.152 -2.591,0 -3.368,-5.839 -5.911,-5.492 -9.129,1.245 l -2.679,5.606 -0.167,-5.606 c -0.091,-3.083 -1.418,-5.605 -2.949,-5.605 -1.848,0 -2.386,4.151 -1.604,12.374 z m -13.733,-5.709 c -0.893,0.902 -1.659,3.975 -1.703,6.83 -0.073,4.844 -0.296,4.9 -3.357,0.83 -4.097,-5.448 -6.436,-5.564 -6.436,-0.318 0,3.257 -0.698,3.457 -3.594,1.032 -8.651,-7.249 -11.939,7.385 -4.512,20.078 4.166,7.119 6.954,8.331 16.744,7.28 8.595,-0.923 11.106,-5.157 11.106,-18.729 0,-12.294 -4.245,-21.044 -8.248,-17.003 z m 837.886,10.774 c 0.087,12.4 0.285,12.894 2.083,5.198 1.092,-4.678 1.049,-10.844 -0.096,-13.703 -1.492,-3.724 -2.056,-1.313 -1.987,8.505 z m 41.546,7.327 c 0,9.511 1.111,17.986 2.468,18.832 1.563,0.975 2.468,-5.372 2.468,-17.292 0,-10.894 -1.04,-18.832 -2.468,-18.832 -1.408,0 -2.468,7.425 -2.468,17.292 z M 58.049,834.44 c 0,1.281 1.141,5.361 2.537,9.065 3.338,8.864 0.964,11.061 -2.841,2.63 -4.538,-10.054 -9.465,-8.377 -8.199,2.793 l 1.059,9.342 -4.058,-9.452 c -4.296,-10.005 -11.15,-11.792 -12.765,-3.328 -1.42,7.436 6.799,26.085 12.265,27.837 6.814,2.183 14.759,-0.18 21.306,-6.338 9.678,-9.102 6.386,-34.878 -4.455,-34.878 -2.667,0 -4.849,1.048 -4.849,2.329 z m 357.235,2.154 -9.255,0.8 v 17.023 c 0,12.755 0.919,17.378 3.664,18.442 4.002,1.55 5.122,-0.106 14.396,-21.275 6.773,-15.46 6.283,-16.295 -8.805,-14.99 z m 5.553,10.629 c 0,6.043 -4.227,14.784 -7.149,14.784 -1.858,0 -1.261,-9.124 1.102,-16.816 1.554,-5.062 6.047,-3.552 6.047,2.032 z m 18.902,-10.21 c -5.691,1.077 -8.113,3.908 -12.858,15.029 -3.215,7.536 -5.891,16.087 -5.945,19.003 -0.115,6.153 6.554,12.797 9.453,9.417 2.988,-3.484 17.942,-41.143 17.103,-43.07 -0.408,-0.937 -3.897,-1.108 -7.753,-0.379 z m -4.029,21.056 c -3.917,11.982 -8.56,14.692 -6.214,3.627 1.823,-8.6 5.959,-15.658 7.98,-13.618 0.621,0.626 -0.174,5.122 -1.766,9.991 z m -55.124,-19.177 c -3.813,0.579 -6.583,1.812 -6.155,2.741 0.427,0.929 3.843,7.575 7.591,14.769 5.952,11.423 7.769,13.079 14.355,13.079 h 7.54 l -1.484,-14.058 c -0.816,-7.731 -2.072,-15.019 -2.791,-16.193 -1.323,-2.161 -6.441,-2.252 -19.056,-0.338 z m 12.61,6.174 c 1.629,1.644 2.961,6.93 2.961,11.745 0,7.424 -0.493,8.201 -3.246,5.107 -9.753,-10.959 -9.487,-26.716 0.285,-16.852 z m -43.762,-3.147 c -2.858,1.826 -1.503,4.917 7.087,16.156 10.864,14.215 12.124,14.93 21.744,12.327 7.297,-1.974 7.025,-4.396 -2.109,-18.765 -6.51,-10.242 -8.827,-12.046 -15.424,-12.014 -4.27,0.021 -9.354,1.054 -11.298,2.296 z m 20.777,11.673 c 4.521,10.923 4.52,10.907 0.565,10.907 -4.014,0 -12.434,-14.123 -10.401,-17.445 2.851,-4.657 6.095,-2.5 9.836,6.538 z m 72.951,6.241 c -4.688,11.114 -8.372,22.24 -8.186,24.726 0.185,2.487 -1.254,5.854 -3.199,7.483 -5.176,4.337 -4.351,14.194 1.451,17.328 7.143,3.86 10.44,0.661 9.318,-9.041 -0.746,-6.453 -0.056,-8.426 2.95,-8.426 3.896,0 12.744,-15.45 21.186,-36.994 4.745,-12.111 2.94,-15.232 -8.826,-15.265 -5.378,-0.014 -7.264,2.576 -14.694,20.189 z m 17.87,-11.228 c 0.842,0.85 -1.834,8.275 -5.948,16.501 -4.893,9.786 -8.316,14.11 -9.901,12.509 -1.586,-1.601 -0.063,-7.304 4.405,-16.501 6.698,-13.786 8.369,-15.613 11.444,-12.509 z m -22.267,49.77 c 1.977,1.996 -0.611,8.477 -3.385,8.477 -1.212,0 -2.203,-2.243 -2.203,-4.983 0,-4.856 2.617,-6.493 5.588,-3.494 z m 118.787,-55.229 c -8.322,3.657 -18.254,15.906 -18.254,22.513 0,3.444 1.738,3.865 10.489,2.543 12.172,-1.838 29.638,3.321 44.218,13.062 12.611,8.424 12.031,11.574 -1.029,5.59 -24.414,-11.187 -51.21,-0.988 -51.21,19.492 0,3.546 2.548,4.243 15.521,4.243 13.317,0 17.503,1.213 29.487,8.544 7.681,4.7 13.403,9.465 12.715,10.588 -0.688,1.124 -5.109,2.044 -9.823,2.044 -4.714,0 -12.236,1.546 -16.715,3.435 -7.719,3.256 -18.845,14.665 -18.845,19.323 0,1.186 9.44,2.156 20.977,2.156 21.13,0 27.715,2.999 13.076,5.955 -9.946,2.008 -19.245,10.653 -19.245,17.891 0,5.217 1.208,5.589 20.855,6.417 24.179,1.018 28.708,3.64 23.443,13.568 -4.74,8.94 -3.987,24.95 1.461,31.02 4.419,4.93 4.451,4.93 9.892,-0.23 l 5.457,-5.17 2.707,7.83 2.707,7.84 7.714,-5.81 c 4.243,-3.2 9.216,-6.9 11.051,-8.22 2.354,-1.7 5.016,-0.82 9.039,3 6.643,6.3 9.497,5.06 15.459,-6.68 7.708,-15.17 24.018,-25.706 44.461,-28.705 16.958,-2.488 26.56,-6.933 33.096,-15.32 6.074,-7.795 5.7,-17.131 -1.105,-27.616 -4.916,-7.574 -6.902,-7.238 -10.258,1.738 -2.181,5.834 -4.299,7.474 -9.65,7.474 -6.463,0 -6.587,-0.199 -2.159,-3.467 3.977,-2.936 4.195,-4.078 1.426,-7.447 -1.799,-2.188 -4.14,-3.437 -5.201,-2.775 -1.061,0.662 -2.621,-0.614 -3.466,-2.837 -1.327,-3.49 -4.496,-3.807 -23.276,-2.324 -17.541,1.386 -22.315,1.017 -24.721,-1.909 -7.716,-9.385 -5.188,-51.674 3.927,-65.718 7.304,-11.252 24.513,-16.469 35.23,-10.679 2.984,1.612 5.15,1.638 6.108,0.073 2.103,-3.435 -5.26,-16.879 -10.92,-19.936 -7.938,-4.289 -25.346,-2.98 -34.389,2.585 l -8.339,5.132 -6.975,-6.746 c -6.74,-6.519 -7.189,-6.606 -13.282,-2.576 -3.468,2.294 -8.793,8.047 -11.833,12.785 -3.04,4.738 -6.662,8.629 -8.05,8.646 -1.387,0.017 -6.72,-3.463 -11.851,-7.732 -18.191,-15.137 -43.393,-20.853 -59.92,-13.59 z m 39.743,12.333 c 15.134,7.212 22.472,13.584 25.791,22.397 4.051,10.757 -2.91,10.88 -17.181,0.304 -13.506,-10.008 -33.468,-18.664 -43.042,-18.664 -7.691,0 -10.128,-3.932 -4.49,-7.245 7.662,-4.504 25.892,-3.001 38.922,3.208 z m 61.699,1.546 c 1.669,5.308 -0.444,14.985 -3.252,14.892 -0.926,-0.03 -4.432,-2.187 -7.791,-4.792 -6.004,-4.658 -6.029,-4.822 -1.468,-9.91 5.852,-6.528 10.496,-6.598 12.511,-0.19 z m 34.551,-2.492 c -6.793,2.947 -9.208,2.947 -7.404,0 0.839,-1.37 3.958,-2.412 6.932,-2.316 5.214,0.169 5.231,0.252 0.472,2.316 z m -47.103,32.816 c 1.814,10.39 -0.968,13.566 -8.375,9.565 -5.685,-3.072 -6.956,-16.975 -2.008,-21.97 4.178,-4.217 8.352,0.771 10.383,12.405 z m -59.819,7.471 c 13.055,3.949 41.521,30.283 41.521,38.411 0,3.305 -0.725,6.008 -1.612,6.008 -0.887,0 -7.354,-5.482 -14.372,-12.182 -14.553,-13.894 -28.027,-21.547 -42.127,-23.929 -16.539,-2.793 -17.842,-3.6 -12.371,-7.665 5.815,-4.32 16.05,-4.547 28.961,-0.643 z m 75.616,7.672 c 2.283,8.591 0.488,17.221 -3.889,18.694 -3.866,1.301 -6.233,-8.503 -4.415,-18.288 1.993,-10.723 5.516,-10.895 8.304,-0.406 z m -24.818,4.982 c 6.824,7.353 11.086,18.628 7.815,20.669 -3.209,2.002 -22.028,-17.001 -22.028,-22.244 0,-5.852 8.16,-4.948 14.213,1.575 z m 27.656,26.619 c 1.405,2.65 2.554,8.892 2.554,13.87 0,7.988 -0.593,8.861 -5.054,7.432 -2.78,-0.891 -6.543,-0.373 -8.362,1.151 -2.432,2.038 -4.976,2.004 -9.617,-0.131 -7.222,-3.322 -9.804,-8.36 -7.706,-15.034 1.214,-3.86 2.318,-4.164 6.646,-1.825 4.434,2.395 5.878,1.85 9.912,-3.739 5.627,-7.799 8.204,-8.181 11.627,-1.724 z m -47.536,13.964 c 11.769,5.921 12.561,6.906 12.324,15.341 -0.213,7.58 1.352,10.438 9.834,17.964 8.885,7.883 10.225,10.504 11.24,21.988 1.042,11.8 0.565,13.42 -5.032,17.12 l -6.183,4.09 1.518,-12.94 c 1.829,-15.584 -1,-15.756 -11.864,-0.72 -8.888,12.3 -11.106,12.94 -11.106,3.17 0,-4.73 2.787,-10.6 7.733,-16.281 4.252,-4.89 7.307,-9.261 6.787,-9.715 -5.215,-4.547 -16.288,-7.3 -33.804,-8.403 -18.371,-1.157 -20.401,-1.736 -16.41,-4.682 2.748,-2.029 11.104,-3.362 21.071,-3.362 14.488,0 16.676,-0.617 17.818,-5.027 2.365,-9.13 -8.866,-15.273 -34.841,-19.059 -13.426,-1.957 -8.799,-5.718 7.099,-5.772 7.15,-0.025 15.814,2.263 23.816,6.288 z m 98.215,3.639 c -0.839,1.37 -4.514,2.508 -8.166,2.529 -8.157,0.047 -13.992,3.492 -11.848,6.994 2.293,3.746 26.486,10.408 37.793,10.408 5.289,0 10.948,-1.346 12.577,-2.99 2.175,-2.195 3.691,-2.253 5.708,-0.217 5.493,5.545 -17.838,18.001 -33.932,18.117 -6.697,0.048 -37.485,-29.254 -32.623,-31.048 13.492,-4.977 32.677,-7.364 30.491,-3.793 z m -67.195,17.439 c 7.509,5.963 9.199,6.192 9.199,1.246 0,-5.461 3.317,-4.582 9.41,2.491 2.951,3.426 6.866,6.229 8.7,6.229 1.835,0 5.346,2.242 7.803,4.982 5.14,5.734 2.223,6.524 -4.662,1.262 -3.153,-2.41 -7.969,-3.105 -14.884,-2.148 -8.953,1.238 -11.208,0.484 -18.166,-6.078 -12.163,-11.469 -10.031,-18.014 2.6,-7.984 z m 45.788,10.104 c 7.409,9.467 5.778,9.398 -3.272,-0.138 -3.902,-4.111 -6.053,-7.412 -4.781,-7.337 1.272,0.076 4.896,3.44 8.053,7.475 z m -21.782,16.539 c -2.036,0.734 -5.078,3.086 -6.761,5.232 -3.679,4.67 -6.313,2.85 -4.139,-2.868 0.933,-2.452 4.171,-4.014 8.079,-3.897 3.718,0.113 4.931,0.772 2.821,1.533 z m 1.895,20.692 c -3.114,5.04 -6.831,6.66 -6.831,2.99 0,-2.59 5.348,-7.97 7.919,-7.97 1.097,0 0.608,2.24 -1.088,4.98 z M 608.401,843.051 c 0,2.58 15.445,16.465 18.314,16.465 1.715,0 9.454,-15.152 8.323,-16.294 -2.483,-2.506 -26.637,-2.661 -26.637,-0.171 z m -294.439,0.769 c -7.102,1.859 -3.778,6.091 15.764,20.077 21.733,15.553 26.245,17.323 31.258,12.263 3.372,-3.405 2.408,-5.372 -9.283,-18.941 -12.167,-14.122 -13.729,-15.123 -23.165,-14.854 -5.566,0.159 -12.124,0.814 -14.574,1.455 z m 29.874,14.263 c 6.358,6.064 10.752,11.839 9.766,12.835 -2.591,2.615 -29.015,-15.733 -29.015,-20.147 0,-6.733 7.518,-3.877 19.249,7.312 z m 24.557,19.072 c -3.528,2.074 -4.319,6.091 -4.319,21.934 0,18.547 -0.335,19.697 -7.647,26.273 -6.226,5.6 -7.339,8.107 -5.993,13.492 4.208,16.838 4.155,22.386 -0.276,29.213 -4.559,7.024 -15.699,38.823 -15.699,44.813 0,5.79 7.574,11.07 15.885,11.07 4.471,0 11.019,2.29 14.552,5.1 5.525,4.38 7.738,4.74 15.833,2.54 13.306,-3.62 18.302,-8.04 19.349,-17.12 0.514,-4.45 6.369,-15.471 13.422,-25.26 l 12.511,-17.365 -3.988,-7.785 c -2.612,-5.1 -5.251,-7.296 -7.651,-6.366 -2.022,0.783 -3.002,0.339 -2.187,-0.993 1.884,-3.077 -3.017,-12.479 -6.505,-12.479 -1.453,0 -4.826,-2.803 -7.496,-6.229 -6,-7.7 -8.942,-7.855 -11.822,-0.622 -1.807,4.538 -2.261,4.744 -2.388,1.081 -0.086,-2.488 1.015,-6.733 2.447,-9.433 3.038,-5.732 4.198,-47.001 1.446,-51.495 -2.253,-3.682 -13.478,-3.894 -19.474,-0.369 z m 12.209,31.565 c -0.787,11.99 -2.122,24.093 -2.966,26.897 -1.137,3.776 2.344,10.203 13.429,24.798 8.23,10.836 14.964,20.425 14.964,21.31 0,0.885 -3.311,6.542 -7.359,12.572 -4.047,6.033 -7.379,13.423 -7.404,16.423 -0.048,5.85 -8.428,13.23 -15.019,13.23 -2.202,0 -6.014,-2.25 -8.471,-4.99 -2.835,-3.16 -7.601,-4.98 -13.047,-4.98 h -8.58 l 1.332,-10.03 c 0.733,-5.517 3.491,-14.205 6.128,-19.308 2.637,-5.103 6.804,-13.118 9.26,-17.811 3.854,-7.364 4.068,-10.035 1.563,-19.489 -2.599,-9.811 -2.383,-11.622 2.072,-17.339 3.862,-4.957 4.974,-10.113 4.974,-23.072 0,-17.41 0.9,-20.01 6.923,-20.01 3.031,0 3.396,3.612 2.201,21.799 z m -17.982,76.289 c -2.743,7.217 0.052,12.777 6.424,12.777 5.172,0 6.136,-1.174 6.136,-7.474 0,-5.859 -1.203,-7.647 -5.564,-8.272 -3.263,-0.468 -6.156,0.76 -6.996,2.969 z m 33.537,-41.728 c 0,3.311 -0.67,3.481 -3.702,0.941 -2.036,-1.706 -3.702,-3.525 -3.702,-4.042 0,-0.518 1.666,-0.941 3.702,-0.941 2.036,0 3.702,1.819 3.702,4.042 z m 19.744,33.842 c 0,1.027 -4.72,-3.434 -10.489,-9.912 -5.769,-6.478 -11.044,-12.339 -11.723,-13.024 -0.678,-0.685 -2.741,-3.488 -4.583,-6.228 -1.842,-2.741 3.433,2.28 11.723,11.158 8.289,8.877 15.072,16.98 15.072,18.006 z m -7.404,-22.936 c 0,1.37 -1.111,2.492 -2.468,2.492 -1.357,0 -2.468,-1.122 -2.468,-2.492 0,-1.37 1.111,-2.491 2.468,-2.491 1.357,0 2.468,1.121 2.468,2.491 z m 11.33,16.798 c -1.712,1.728 -6.394,-1.782 -6.394,-4.793 0,-1.652 1.416,-1.463 3.762,0.502 2.068,1.733 3.253,3.664 2.632,4.291 z m -28.606,-92.017 c 0,6.102 6.169,11.456 11.03,9.573 5.372,-2.081 0.927,-12.622 -5.745,-13.627 -3.861,-0.582 -5.285,0.51 -5.285,4.054 z m 18.289,1.407 c -2.501,6.579 0.048,12.486 7.087,16.425 6.063,3.393 7.098,3.402 9.2,0.086 1.302,-2.055 2.385,-4.924 2.406,-6.375 0.118,-8.25 -16.072,-17.03 -18.693,-10.136 z m 11.327,7.999 c 0,4.4 -5.313,3.633 -6.838,-0.986 -0.538,-1.627 0.781,-2.959 2.93,-2.959 2.149,0 3.908,1.775 3.908,3.945 z m -27.148,10.856 c 0,4.03 1.045,7.979 2.322,8.776 1.334,0.832 0.574,4.522 -1.788,8.676 -3.881,6.827 -3.853,7.513 0.521,12.392 3.539,3.947 5.415,4.507 7.958,2.377 2.599,-2.178 3.327,-1.715 3.327,2.114 0,2.696 2.193,6.905 4.873,9.354 4.726,4.317 4.953,4.241 7.505,-2.535 3.477,-9.232 1.508,-13.602 -6.131,-13.602 -6.65,0 -7.548,-2.724 -6.399,-19.424 0.602,-8.753 -3.209,-15.455 -8.788,-15.455 -2.117,0 -3.4,2.765 -3.4,7.327 z m 7.404,1.54 c 0,2.136 -1.11,3.191 -2.468,2.345 -1.357,-0.847 -2.468,-2.595 -2.468,-3.885 0,-1.289 1.111,-2.344 2.468,-2.344 1.358,0 2.468,1.748 2.468,3.884 z m 0,22.275 c 0,2.056 -1.11,3.737 -2.468,3.737 -1.357,0 -2.468,-1.681 -2.468,-3.737 0,-2.055 1.111,-3.737 2.468,-3.737 1.358,0 2.468,1.682 2.468,3.737 z m 14.808,11.358 c 0,1.29 -1.111,2.345 -2.468,2.345 -1.357,0 -2.468,-1.748 -2.468,-3.884 0,-2.137 1.111,-3.192 2.468,-2.345 1.357,0.847 2.468,2.595 2.468,3.884 z m -5.759,-33.365 c -2.726,2.753 -1.851,14.575 1.317,17.772 1.628,1.644 4.96,2.99 7.403,2.99 6.505,0 6.233,-16.297 -0.331,-19.844 -5.622,-3.037 -6.224,-3.103 -8.389,-0.918 z m 8.227,12.189 c 0,1.974 -1.111,3.59 -2.468,3.59 -1.357,0 -2.468,-2.308 -2.468,-5.13 0,-2.821 1.111,-4.437 2.468,-3.59 1.357,0.847 2.468,3.155 2.468,5.13 z m 8.466,4.639 c -2.089,8.403 -0.584,14.136 4.561,17.369 5.305,3.334 9.088,-1.244 9.147,-11.069 0.071,-11.934 -11.038,-17.04 -13.708,-6.3 z m 10.043,8.501 c 0,4.877 -4.808,4.464 -5.754,-0.494 -0.578,-3.026 0.271,-4.257 2.434,-3.53 1.826,0.615 3.32,2.425 3.32,4.024 z m -127.716,14.761 c -11.409,2.323 -19.126,5.131 -19.126,6.96 0,1.687 4.72,4.97 10.488,7.296 17.106,6.898 19.121,9.802 7.812,11.26 -9.466,1.22 -9.656,1.446 -9.339,11.072 0.267,8.077 2.118,11.515 10.394,19.308 10.937,10.296 22.507,12.906 22.717,5.126 0.065,-2.402 4.398,-13.333 9.629,-24.295 9.144,-19.162 9.374,-20.264 5.957,-28.563 -5.787,-14.054 -7.653,-14.449 -38.532,-8.164 z m 29.152,11.701 c 3.75,5.777 3.637,6.571 -2.041,14.325 -3.306,4.515 -7.72,12.694 -9.808,18.175 -4.437,11.645 -8.124,12.479 -14.866,3.363 -5.633,-7.615 -4.045,-12.083 4.294,-12.083 10.35,0 13.63,-2.617 13.63,-10.878 0,-5.335 -1.7,-8.925 -5.299,-11.194 -4.278,-2.697 -4.634,-3.765 -1.851,-5.544 6.04,-3.86 11.854,-2.461 15.941,3.836 z m 82.396,-9.517 c -1.879,4.99 -1.555,7.978 1.352,12.457 5.179,7.979 9.894,7.408 13.609,-1.645 2.676,-6.522 2.498,-8.201 -1.318,-12.457 -6.034,-6.731 -10.7,-6.169 -13.643,1.645 z m 10.924,2.897 c 1.951,3.187 -2.575,8.783 -5.585,6.905 -3.962,-2.472 -3.376,-8.892 0.812,-8.892 1.956,0 4.104,0.894 4.773,1.987 z m -164.711,5.668 c -7.357,5.84 -8.138,11.822 -2.887,22.072 3.406,6.65 24.037,22.591 29.236,22.591 1.424,0 1.819,-5.59 0.976,-13.836 -1.128,-11.026 -2.739,-14.887 -7.935,-19.013 -4.926,-3.912 -6.162,-6.621 -5.054,-11.078 1.908,-7.674 -5.143,-8.036 -14.336,-0.736 z m 11.196,16.399 c 2.482,2.267 4.478,6.472 4.435,9.342 -0.072,4.836 -0.527,4.705 -6.17,-1.77 -9.06,-10.396 -7.726,-16.216 1.735,-7.572 z" /></g></svg>