<?xml version="1.0" encoding="utf-8" standalone="no"?>
<!DOCTYPE svg PUBLIC "-//W3C//DTD SVG 1.1//EN"
  "http://www.w3.org/Graphics/SVG/1.1/DTD/svg11.dtd">
<svg xmlns:xlink="http://www.w3.org/1999/xlink" width="955.021648pt" height="347.580625pt" viewBox="0 0 955.021648 347.580625" xmlns="http://www.w3.org/2000/svg" version="1.1">
 <metadata>
  <rdf:RDF xmlns:dc="http://purl.org/dc/elements/1.1/" xmlns:cc="http://creativecommons.org/ns#" xmlns:rdf="http://www.w3.org/1999/02/22-rdf-syntax-ns#">
   <cc:Work>
    <dc:type rdf:resource="http://purl.org/dc/dcmitype/StillImage"/>
    <dc:date>2025-07-29T02:05:05.562190</dc:date>
    <dc:format>image/svg+xml</dc:format>
    <dc:creator>
     <cc:Agent>
      <dc:title>Matplotlib v3.10.3, https://matplotlib.org/</dc:title>
     </cc:Agent>
    </dc:creator>
   </cc:Work>
  </rdf:RDF>
 </metadata>
 <defs>
  <style type="text/css">*{stroke-linejoin: round; stroke-linecap: butt}</style>
 </defs>
 <g id="figure_1">
  <g id="patch_1">
   <path d="M 0 347.580625 
L 955.021648 347.580625 
L 955.021648 0 
L 0 0 
z
" style="fill: #ffffff"/>
  </g>
  <g id="axes_1">
   <g id="patch_2">
    <path d="M 101.581563 284.4 
L 482.036108 284.4 
L 482.036108 7.2 
L 101.581563 7.2 
z
" style="fill: #ffffff"/>
   </g>
   <g id="matplotlib.axis_1">
    <g id="xtick_1">
     <g id="line2d_1">
      <path d="M 117.600701 284.4 
L 117.600701 7.2 
" clip-path="url(#p7afa5467af)" style="fill: none; stroke: #b0b0b0; stroke-opacity: 0.4; stroke-width: 0.8; stroke-linecap: square"/>
     </g>
     <g id="line2d_2">
      <defs>
       <path id="m66c2074bf6" d="M 0 0 
L 0 3.5 
" style="stroke: #000000; stroke-width: 0.8"/>
      </defs>
      <g>
       <use xlink:href="#m66c2074bf6" x="117.600701" y="284.4" style="stroke: #000000; stroke-width: 0.8"/>
      </g>
     </g>
     <g id="text_1">
      <!-- 0.5 -->
      <g transform="translate(103.287889 305.077187) scale(0.18 -0.18)">
       <defs>
        <path id="DejaVuSans-30" d="M 2034 4250 
Q 1547 4250 1301 3770 
Q 1056 3291 1056 2328 
Q 1056 1369 1301 889 
Q 1547 409 2034 409 
Q 2525 409 2770 889 
Q 3016 1369 3016 2328 
Q 3016 3291 2770 3770 
Q 2525 4250 2034 4250 
z
M 2034 4750 
Q 2819 4750 3233 4129 
Q 3647 3509 3647 2328 
Q 3647 1150 3233 529 
Q 2819 -91 2034 -91 
Q 1250 -91 836 529 
Q 422 1150 422 2328 
Q 422 3509 836 4129 
Q 1250 4750 2034 4750 
z
" transform="scale(0.015625)"/>
        <path id="DejaVuSans-2e" d="M 684 794 
L 1344 794 
L 1344 0 
L 684 0 
L 684 794 
z
" transform="scale(0.015625)"/>
        <path id="DejaVuSans-35" d="M 691 4666 
L 3169 4666 
L 3169 4134 
L 1269 4134 
L 1269 2991 
Q 1406 3038 1543 3061 
Q 1681 3084 1819 3084 
Q 2600 3084 3056 2656 
Q 3513 2228 3513 1497 
Q 3513 744 3044 326 
Q 2575 -91 1722 -91 
Q 1428 -91 1123 -41 
Q 819 9 494 109 
L 494 744 
Q 775 591 1075 516 
Q 1375 441 1709 441 
Q 2250 441 2565 725 
Q 2881 1009 2881 1497 
Q 2881 1984 2565 2268 
Q 2250 2553 1709 2553 
Q 1456 2553 1204 2497 
Q 953 2441 691 2322 
L 691 4666 
z
" transform="scale(0.015625)"/>
       </defs>
       <use xlink:href="#DejaVuSans-30"/>
       <use xlink:href="#DejaVuSans-2e" transform="translate(63.623047 0)"/>
       <use xlink:href="#DejaVuSans-35" transform="translate(95.410156 0)"/>
      </g>
     </g>
    </g>
    <g id="xtick_2">
     <g id="line2d_3">
      <path d="M 157.648548 284.4 
L 157.648548 7.2 
" clip-path="url(#p7afa5467af)" style="fill: none; stroke: #b0b0b0; stroke-opacity: 0.4; stroke-width: 0.8; stroke-linecap: square"/>
     </g>
     <g id="line2d_4">
      <g>
       <use xlink:href="#m66c2074bf6" x="157.648548" y="284.4" style="stroke: #000000; stroke-width: 0.8"/>
      </g>
     </g>
     <g id="text_2">
      <!-- 1.5 -->
      <g transform="translate(143.335736 305.077187) scale(0.18 -0.18)">
       <defs>
        <path id="DejaVuSans-31" d="M 794 531 
L 1825 531 
L 1825 4091 
L 703 3866 
L 703 4441 
L 1819 4666 
L 2450 4666 
L 2450 531 
L 3481 531 
L 3481 0 
L 794 0 
L 794 531 
z
" transform="scale(0.015625)"/>
       </defs>
       <use xlink:href="#DejaVuSans-31"/>
       <use xlink:href="#DejaVuSans-2e" transform="translate(63.623047 0)"/>
       <use xlink:href="#DejaVuSans-35" transform="translate(95.410156 0)"/>
      </g>
     </g>
    </g>
    <g id="xtick_3">
     <g id="line2d_5">
      <path d="M 197.696395 284.4 
L 197.696395 7.2 
" clip-path="url(#p7afa5467af)" style="fill: none; stroke: #b0b0b0; stroke-opacity: 0.4; stroke-width: 0.8; stroke-linecap: square"/>
     </g>
     <g id="line2d_6">
      <g>
       <use xlink:href="#m66c2074bf6" x="197.696395" y="284.4" style="stroke: #000000; stroke-width: 0.8"/>
      </g>
     </g>
     <g id="text_3">
      <!-- 2.5 -->
      <g transform="translate(183.383583 305.077187) scale(0.18 -0.18)">
       <defs>
        <path id="DejaVuSans-32" d="M 1228 531 
L 3431 531 
L 3431 0 
L 469 0 
L 469 531 
Q 828 903 1448 1529 
Q 2069 2156 2228 2338 
Q 2531 2678 2651 2914 
Q 2772 3150 2772 3378 
Q 2772 3750 2511 3984 
Q 2250 4219 1831 4219 
Q 1534 4219 1204 4116 
Q 875 4013 500 3803 
L 500 4441 
Q 881 4594 1212 4672 
Q 1544 4750 1819 4750 
Q 2544 4750 2975 4387 
Q 3406 4025 3406 3419 
Q 3406 3131 3298 2873 
Q 3191 2616 2906 2266 
Q 2828 2175 2409 1742 
Q 1991 1309 1228 531 
z
" transform="scale(0.015625)"/>
       </defs>
       <use xlink:href="#DejaVuSans-32"/>
       <use xlink:href="#DejaVuSans-2e" transform="translate(63.623047 0)"/>
       <use xlink:href="#DejaVuSans-35" transform="translate(95.410156 0)"/>
      </g>
     </g>
    </g>
    <g id="xtick_4">
     <g id="line2d_7">
      <path d="M 237.744242 284.4 
L 237.744242 7.2 
" clip-path="url(#p7afa5467af)" style="fill: none; stroke: #b0b0b0; stroke-opacity: 0.4; stroke-width: 0.8; stroke-linecap: square"/>
     </g>
     <g id="line2d_8">
      <g>
       <use xlink:href="#m66c2074bf6" x="237.744242" y="284.4" style="stroke: #000000; stroke-width: 0.8"/>
      </g>
     </g>
     <g id="text_4">
      <!-- 3.5 -->
      <g transform="translate(223.431429 305.077187) scale(0.18 -0.18)">
       <defs>
        <path id="DejaVuSans-33" d="M 2597 2516 
Q 3050 2419 3304 2112 
Q 3559 1806 3559 1356 
Q 3559 666 3084 287 
Q 2609 -91 1734 -91 
Q 1441 -91 1130 -33 
Q 819 25 488 141 
L 488 750 
Q 750 597 1062 519 
Q 1375 441 1716 441 
Q 2309 441 2620 675 
Q 2931 909 2931 1356 
Q 2931 1769 2642 2001 
Q 2353 2234 1838 2234 
L 1294 2234 
L 1294 2753 
L 1863 2753 
Q 2328 2753 2575 2939 
Q 2822 3125 2822 3475 
Q 2822 3834 2567 4026 
Q 2313 4219 1838 4219 
Q 1578 4219 1281 4162 
Q 984 4106 628 3988 
L 628 4550 
Q 988 4650 1302 4700 
Q 1616 4750 1894 4750 
Q 2613 4750 3031 4423 
Q 3450 4097 3450 3541 
Q 3450 3153 3228 2886 
Q 3006 2619 2597 2516 
z
" transform="scale(0.015625)"/>
       </defs>
       <use xlink:href="#DejaVuSans-33"/>
       <use xlink:href="#DejaVuSans-2e" transform="translate(63.623047 0)"/>
       <use xlink:href="#DejaVuSans-35" transform="translate(95.410156 0)"/>
      </g>
     </g>
    </g>
    <g id="xtick_5">
     <g id="line2d_9">
      <path d="M 277.792089 284.4 
L 277.792089 7.2 
" clip-path="url(#p7afa5467af)" style="fill: none; stroke: #b0b0b0; stroke-opacity: 0.4; stroke-width: 0.8; stroke-linecap: square"/>
     </g>
     <g id="line2d_10">
      <g>
       <use xlink:href="#m66c2074bf6" x="277.792089" y="284.4" style="stroke: #000000; stroke-width: 0.8"/>
      </g>
     </g>
     <g id="text_5">
      <!-- 4.5 -->
      <g transform="translate(263.479276 305.077187) scale(0.18 -0.18)">
       <defs>
        <path id="DejaVuSans-34" d="M 2419 4116 
L 825 1625 
L 2419 1625 
L 2419 4116 
z
M 2253 4666 
L 3047 4666 
L 3047 1625 
L 3713 1625 
L 3713 1100 
L 3047 1100 
L 3047 0 
L 2419 0 
L 2419 1100 
L 313 1100 
L 313 1709 
L 2253 4666 
z
" transform="scale(0.015625)"/>
       </defs>
       <use xlink:href="#DejaVuSans-34"/>
       <use xlink:href="#DejaVuSans-2e" transform="translate(63.623047 0)"/>
       <use xlink:href="#DejaVuSans-35" transform="translate(95.410156 0)"/>
      </g>
     </g>
    </g>
    <g id="xtick_6">
     <g id="line2d_11">
      <path d="M 317.839936 284.4 
L 317.839936 7.2 
" clip-path="url(#p7afa5467af)" style="fill: none; stroke: #b0b0b0; stroke-opacity: 0.4; stroke-width: 0.8; stroke-linecap: square"/>
     </g>
     <g id="line2d_12">
      <g>
       <use xlink:href="#m66c2074bf6" x="317.839936" y="284.4" style="stroke: #000000; stroke-width: 0.8"/>
      </g>
     </g>
     <g id="text_6">
      <!-- 5.5 -->
      <g transform="translate(303.527123 305.077187) scale(0.18 -0.18)">
       <use xlink:href="#DejaVuSans-35"/>
       <use xlink:href="#DejaVuSans-2e" transform="translate(63.623047 0)"/>
       <use xlink:href="#DejaVuSans-35" transform="translate(95.410156 0)"/>
      </g>
     </g>
    </g>
    <g id="xtick_7">
     <g id="line2d_13">
      <path d="M 357.887783 284.4 
L 357.887783 7.2 
" clip-path="url(#p7afa5467af)" style="fill: none; stroke: #b0b0b0; stroke-opacity: 0.4; stroke-width: 0.8; stroke-linecap: square"/>
     </g>
     <g id="line2d_14">
      <g>
       <use xlink:href="#m66c2074bf6" x="357.887783" y="284.4" style="stroke: #000000; stroke-width: 0.8"/>
      </g>
     </g>
     <g id="text_7">
      <!-- 6.5 -->
      <g transform="translate(343.57497 305.077187) scale(0.18 -0.18)">
       <defs>
        <path id="DejaVuSans-36" d="M 2113 2584 
Q 1688 2584 1439 2293 
Q 1191 2003 1191 1497 
Q 1191 994 1439 701 
Q 1688 409 2113 409 
Q 2538 409 2786 701 
Q 3034 994 3034 1497 
Q 3034 2003 2786 2293 
Q 2538 2584 2113 2584 
z
M 3366 4563 
L 3366 3988 
Q 3128 4100 2886 4159 
Q 2644 4219 2406 4219 
Q 1781 4219 1451 3797 
Q 1122 3375 1075 2522 
Q 1259 2794 1537 2939 
Q 1816 3084 2150 3084 
Q 2853 3084 3261 2657 
Q 3669 2231 3669 1497 
Q 3669 778 3244 343 
Q 2819 -91 2113 -91 
Q 1303 -91 875 529 
Q 447 1150 447 2328 
Q 447 3434 972 4092 
Q 1497 4750 2381 4750 
Q 2619 4750 2861 4703 
Q 3103 4656 3366 4563 
z
" transform="scale(0.015625)"/>
       </defs>
       <use xlink:href="#DejaVuSans-36"/>
       <use xlink:href="#DejaVuSans-2e" transform="translate(63.623047 0)"/>
       <use xlink:href="#DejaVuSans-35" transform="translate(95.410156 0)"/>
      </g>
     </g>
    </g>
    <g id="xtick_8">
     <g id="line2d_15">
      <path d="M 397.935629 284.4 
L 397.935629 7.2 
" clip-path="url(#p7afa5467af)" style="fill: none; stroke: #b0b0b0; stroke-opacity: 0.4; stroke-width: 0.8; stroke-linecap: square"/>
     </g>
     <g id="line2d_16">
      <g>
       <use xlink:href="#m66c2074bf6" x="397.935629" y="284.4" style="stroke: #000000; stroke-width: 0.8"/>
      </g>
     </g>
     <g id="text_8">
      <!-- 7.5 -->
      <g transform="translate(383.622817 305.077187) scale(0.18 -0.18)">
       <defs>
        <path id="DejaVuSans-37" d="M 525 4666 
L 3525 4666 
L 3525 4397 
L 1831 0 
L 1172 0 
L 2766 4134 
L 525 4134 
L 525 4666 
z
" transform="scale(0.015625)"/>
       </defs>
       <use xlink:href="#DejaVuSans-37"/>
       <use xlink:href="#DejaVuSans-2e" transform="translate(63.623047 0)"/>
       <use xlink:href="#DejaVuSans-35" transform="translate(95.410156 0)"/>
      </g>
     </g>
    </g>
    <g id="xtick_9">
     <g id="line2d_17">
      <path d="M 437.983476 284.4 
L 437.983476 7.2 
" clip-path="url(#p7afa5467af)" style="fill: none; stroke: #b0b0b0; stroke-opacity: 0.4; stroke-width: 0.8; stroke-linecap: square"/>
     </g>
     <g id="line2d_18">
      <g>
       <use xlink:href="#m66c2074bf6" x="437.983476" y="284.4" style="stroke: #000000; stroke-width: 0.8"/>
      </g>
     </g>
     <g id="text_9">
      <!-- 8.5 -->
      <g transform="translate(423.670664 305.077187) scale(0.18 -0.18)">
       <defs>
        <path id="DejaVuSans-38" d="M 2034 2216 
Q 1584 2216 1326 1975 
Q 1069 1734 1069 1313 
Q 1069 891 1326 650 
Q 1584 409 2034 409 
Q 2484 409 2743 651 
Q 3003 894 3003 1313 
Q 3003 1734 2745 1975 
Q 2488 2216 2034 2216 
z
M 1403 2484 
Q 997 2584 770 2862 
Q 544 3141 544 3541 
Q 544 4100 942 4425 
Q 1341 4750 2034 4750 
Q 2731 4750 3128 4425 
Q 3525 4100 3525 3541 
Q 3525 3141 3298 2862 
Q 3072 2584 2669 2484 
Q 3125 2378 3379 2068 
Q 3634 1759 3634 1313 
Q 3634 634 3220 271 
Q 2806 -91 2034 -91 
Q 1263 -91 848 271 
Q 434 634 434 1313 
Q 434 1759 690 2068 
Q 947 2378 1403 2484 
z
M 1172 3481 
Q 1172 3119 1398 2916 
Q 1625 2713 2034 2713 
Q 2441 2713 2670 2916 
Q 2900 3119 2900 3481 
Q 2900 3844 2670 4047 
Q 2441 4250 2034 4250 
Q 1625 4250 1398 4047 
Q 1172 3844 1172 3481 
z
" transform="scale(0.015625)"/>
       </defs>
       <use xlink:href="#DejaVuSans-38"/>
       <use xlink:href="#DejaVuSans-2e" transform="translate(63.623047 0)"/>
       <use xlink:href="#DejaVuSans-35" transform="translate(95.410156 0)"/>
      </g>
     </g>
    </g>
    <g id="xtick_10">
     <g id="line2d_19">
      <path d="M 478.031323 284.4 
L 478.031323 7.2 
" clip-path="url(#p7afa5467af)" style="fill: none; stroke: #b0b0b0; stroke-opacity: 0.4; stroke-width: 0.8; stroke-linecap: square"/>
     </g>
     <g id="line2d_20">
      <g>
       <use xlink:href="#m66c2074bf6" x="478.031323" y="284.4" style="stroke: #000000; stroke-width: 0.8"/>
      </g>
     </g>
     <g id="text_10">
      <!-- 9.5 -->
      <g transform="translate(463.718511 305.077187) scale(0.18 -0.18)">
       <defs>
        <path id="DejaVuSans-39" d="M 703 97 
L 703 672 
Q 941 559 1184 500 
Q 1428 441 1663 441 
Q 2288 441 2617 861 
Q 2947 1281 2994 2138 
Q 2813 1869 2534 1725 
Q 2256 1581 1919 1581 
Q 1219 1581 811 2004 
Q 403 2428 403 3163 
Q 403 3881 828 4315 
Q 1253 4750 1959 4750 
Q 2769 4750 3195 4129 
Q 3622 3509 3622 2328 
Q 3622 1225 3098 567 
Q 2575 -91 1691 -91 
Q 1453 -91 1209 -44 
Q 966 3 703 97 
z
M 1959 2075 
Q 2384 2075 2632 2365 
Q 2881 2656 2881 3163 
Q 2881 3666 2632 3958 
Q 2384 4250 1959 4250 
Q 1534 4250 1286 3958 
Q 1038 3666 1038 3163 
Q 1038 2656 1286 2365 
Q 1534 2075 1959 2075 
z
" transform="scale(0.015625)"/>
       </defs>
       <use xlink:href="#DejaVuSans-39"/>
       <use xlink:href="#DejaVuSans-2e" transform="translate(63.623047 0)"/>
       <use xlink:href="#DejaVuSans-35" transform="translate(95.410156 0)"/>
      </g>
     </g>
    </g>
    <g id="text_11">
     <!-- Distancia interatómica ($a_0$) -->
     <g transform="translate(143.088835 335.805313) scale(0.22 -0.22)">
      <defs>
       <path id="DejaVuSans-44" d="M 1259 4147 
L 1259 519 
L 2022 519 
Q 2988 519 3436 956 
Q 3884 1394 3884 2338 
Q 3884 3275 3436 3711 
Q 2988 4147 2022 4147 
L 1259 4147 
z
M 628 4666 
L 1925 4666 
Q 3281 4666 3915 4102 
Q 4550 3538 4550 2338 
Q 4550 1131 3912 565 
Q 3275 0 1925 0 
L 628 0 
L 628 4666 
z
" transform="scale(0.015625)"/>
       <path id="DejaVuSans-69" d="M 603 3500 
L 1178 3500 
L 1178 0 
L 603 0 
L 603 3500 
z
M 603 4863 
L 1178 4863 
L 1178 4134 
L 603 4134 
L 603 4863 
z
" transform="scale(0.015625)"/>
       <path id="DejaVuSans-73" d="M 2834 3397 
L 2834 2853 
Q 2591 2978 2328 3040 
Q 2066 3103 1784 3103 
Q 1356 3103 1142 2972 
Q 928 2841 928 2578 
Q 928 2378 1081 2264 
Q 1234 2150 1697 2047 
L 1894 2003 
Q 2506 1872 2764 1633 
Q 3022 1394 3022 966 
Q 3022 478 2636 193 
Q 2250 -91 1575 -91 
Q 1294 -91 989 -36 
Q 684 19 347 128 
L 347 722 
Q 666 556 975 473 
Q 1284 391 1588 391 
Q 1994 391 2212 530 
Q 2431 669 2431 922 
Q 2431 1156 2273 1281 
Q 2116 1406 1581 1522 
L 1381 1569 
Q 847 1681 609 1914 
Q 372 2147 372 2553 
Q 372 3047 722 3315 
Q 1072 3584 1716 3584 
Q 2034 3584 2315 3537 
Q 2597 3491 2834 3397 
z
" transform="scale(0.015625)"/>
       <path id="DejaVuSans-74" d="M 1172 4494 
L 1172 3500 
L 2356 3500 
L 2356 3053 
L 1172 3053 
L 1172 1153 
Q 1172 725 1289 603 
Q 1406 481 1766 481 
L 2356 481 
L 2356 0 
L 1766 0 
Q 1100 0 847 248 
Q 594 497 594 1153 
L 594 3053 
L 172 3053 
L 172 3500 
L 594 3500 
L 594 4494 
L 1172 4494 
z
" transform="scale(0.015625)"/>
       <path id="DejaVuSans-61" d="M 2194 1759 
Q 1497 1759 1228 1600 
Q 959 1441 959 1056 
Q 959 750 1161 570 
Q 1363 391 1709 391 
Q 2188 391 2477 730 
Q 2766 1069 2766 1631 
L 2766 1759 
L 2194 1759 
z
M 3341 1997 
L 3341 0 
L 2766 0 
L 2766 531 
Q 2569 213 2275 61 
Q 1981 -91 1556 -91 
Q 1019 -91 701 211 
Q 384 513 384 1019 
Q 384 1609 779 1909 
Q 1175 2209 1959 2209 
L 2766 2209 
L 2766 2266 
Q 2766 2663 2505 2880 
Q 2244 3097 1772 3097 
Q 1472 3097 1187 3025 
Q 903 2953 641 2809 
L 641 3341 
Q 956 3463 1253 3523 
Q 1550 3584 1831 3584 
Q 2591 3584 2966 3190 
Q 3341 2797 3341 1997 
z
" transform="scale(0.015625)"/>
       <path id="DejaVuSans-6e" d="M 3513 2113 
L 3513 0 
L 2938 0 
L 2938 2094 
Q 2938 2591 2744 2837 
Q 2550 3084 2163 3084 
Q 1697 3084 1428 2787 
Q 1159 2491 1159 1978 
L 1159 0 
L 581 0 
L 581 3500 
L 1159 3500 
L 1159 2956 
Q 1366 3272 1645 3428 
Q 1925 3584 2291 3584 
Q 2894 3584 3203 3211 
Q 3513 2838 3513 2113 
z
" transform="scale(0.015625)"/>
       <path id="DejaVuSans-63" d="M 3122 3366 
L 3122 2828 
Q 2878 2963 2633 3030 
Q 2388 3097 2138 3097 
Q 1578 3097 1268 2742 
Q 959 2388 959 1747 
Q 959 1106 1268 751 
Q 1578 397 2138 397 
Q 2388 397 2633 464 
Q 2878 531 3122 666 
L 3122 134 
Q 2881 22 2623 -34 
Q 2366 -91 2075 -91 
Q 1284 -91 818 406 
Q 353 903 353 1747 
Q 353 2603 823 3093 
Q 1294 3584 2113 3584 
Q 2378 3584 2631 3529 
Q 2884 3475 3122 3366 
z
" transform="scale(0.015625)"/>
       <path id="DejaVuSans-20" transform="scale(0.015625)"/>
       <path id="DejaVuSans-65" d="M 3597 1894 
L 3597 1613 
L 953 1613 
Q 991 1019 1311 708 
Q 1631 397 2203 397 
Q 2534 397 2845 478 
Q 3156 559 3463 722 
L 3463 178 
Q 3153 47 2828 -22 
Q 2503 -91 2169 -91 
Q 1331 -91 842 396 
Q 353 884 353 1716 
Q 353 2575 817 3079 
Q 1281 3584 2069 3584 
Q 2775 3584 3186 3129 
Q 3597 2675 3597 1894 
z
M 3022 2063 
Q 3016 2534 2758 2815 
Q 2500 3097 2075 3097 
Q 1594 3097 1305 2825 
Q 1016 2553 972 2059 
L 3022 2063 
z
" transform="scale(0.015625)"/>
       <path id="DejaVuSans-72" d="M 2631 2963 
Q 2534 3019 2420 3045 
Q 2306 3072 2169 3072 
Q 1681 3072 1420 2755 
Q 1159 2438 1159 1844 
L 1159 0 
L 581 0 
L 581 3500 
L 1159 3500 
L 1159 2956 
Q 1341 3275 1631 3429 
Q 1922 3584 2338 3584 
Q 2397 3584 2469 3576 
Q 2541 3569 2628 3553 
L 2631 2963 
z
" transform="scale(0.015625)"/>
       <path id="DejaVuSans-f3" d="M 1959 3097 
Q 1497 3097 1228 2736 
Q 959 2375 959 1747 
Q 959 1119 1226 758 
Q 1494 397 1959 397 
Q 2419 397 2687 759 
Q 2956 1122 2956 1747 
Q 2956 2369 2687 2733 
Q 2419 3097 1959 3097 
z
M 1959 3584 
Q 2709 3584 3137 3096 
Q 3566 2609 3566 1747 
Q 3566 888 3137 398 
Q 2709 -91 1959 -91 
Q 1206 -91 779 398 
Q 353 888 353 1747 
Q 353 2609 779 3096 
Q 1206 3584 1959 3584 
z
M 2394 5119 
L 3016 5119 
L 1998 3944 
L 1519 3944 
L 2394 5119 
z
" transform="scale(0.015625)"/>
       <path id="DejaVuSans-6d" d="M 3328 2828 
Q 3544 3216 3844 3400 
Q 4144 3584 4550 3584 
Q 5097 3584 5394 3201 
Q 5691 2819 5691 2113 
L 5691 0 
L 5113 0 
L 5113 2094 
Q 5113 2597 4934 2840 
Q 4756 3084 4391 3084 
Q 3944 3084 3684 2787 
Q 3425 2491 3425 1978 
L 3425 0 
L 2847 0 
L 2847 2094 
Q 2847 2600 2669 2842 
Q 2491 3084 2119 3084 
Q 1678 3084 1418 2786 
Q 1159 2488 1159 1978 
L 1159 0 
L 581 0 
L 581 3500 
L 1159 3500 
L 1159 2956 
Q 1356 3278 1631 3431 
Q 1906 3584 2284 3584 
Q 2666 3584 2933 3390 
Q 3200 3197 3328 2828 
z
" transform="scale(0.015625)"/>
       <path id="DejaVuSans-28" d="M 1984 4856 
Q 1566 4138 1362 3434 
Q 1159 2731 1159 2009 
Q 1159 1288 1364 580 
Q 1569 -128 1984 -844 
L 1484 -844 
Q 1016 -109 783 600 
Q 550 1309 550 2009 
Q 550 2706 781 3412 
Q 1013 4119 1484 4856 
L 1984 4856 
z
" transform="scale(0.015625)"/>
       <path id="DejaVuSans-Oblique-61" d="M 3438 1997 
L 3047 0 
L 2472 0 
L 2578 531 
Q 2325 219 2001 64 
Q 1678 -91 1281 -91 
Q 834 -91 548 182 
Q 263 456 263 884 
Q 263 1497 752 1853 
Q 1241 2209 2100 2209 
L 2900 2209 
L 2931 2363 
Q 2938 2388 2941 2417 
Q 2944 2447 2944 2509 
Q 2944 2788 2717 2942 
Q 2491 3097 2081 3097 
Q 1800 3097 1504 3025 
Q 1209 2953 897 2809 
L 997 3341 
Q 1322 3463 1633 3523 
Q 1944 3584 2234 3584 
Q 2853 3584 3176 3315 
Q 3500 3047 3500 2534 
Q 3500 2431 3484 2292 
Q 3469 2153 3438 1997 
z
M 2816 1759 
L 2241 1759 
Q 1534 1759 1195 1570 
Q 856 1381 856 984 
Q 856 709 1029 553 
Q 1203 397 1509 397 
Q 1978 397 2328 733 
Q 2678 1069 2791 1631 
L 2816 1759 
z
" transform="scale(0.015625)"/>
       <path id="DejaVuSans-29" d="M 513 4856 
L 1013 4856 
Q 1481 4119 1714 3412 
Q 1947 2706 1947 2009 
Q 1947 1309 1714 600 
Q 1481 -109 1013 -844 
L 513 -844 
Q 928 -128 1133 580 
Q 1338 1288 1338 2009 
Q 1338 2731 1133 3434 
Q 928 4138 513 4856 
z
" transform="scale(0.015625)"/>
      </defs>
      <use xlink:href="#DejaVuSans-44" transform="translate(0 0.015625)"/>
      <use xlink:href="#DejaVuSans-69" transform="translate(77.001953 0.015625)"/>
      <use xlink:href="#DejaVuSans-73" transform="translate(104.785156 0.015625)"/>
      <use xlink:href="#DejaVuSans-74" transform="translate(156.884766 0.015625)"/>
      <use xlink:href="#DejaVuSans-61" transform="translate(196.09375 0.015625)"/>
      <use xlink:href="#DejaVuSans-6e" transform="translate(257.373047 0.015625)"/>
      <use xlink:href="#DejaVuSans-63" transform="translate(320.751953 0.015625)"/>
      <use xlink:href="#DejaVuSans-69" transform="translate(375.732422 0.015625)"/>
      <use xlink:href="#DejaVuSans-61" transform="translate(403.515625 0.015625)"/>
      <use xlink:href="#DejaVuSans-20" transform="translate(464.794922 0.015625)"/>
      <use xlink:href="#DejaVuSans-69" transform="translate(496.582031 0.015625)"/>
      <use xlink:href="#DejaVuSans-6e" transform="translate(524.365234 0.015625)"/>
      <use xlink:href="#DejaVuSans-74" transform="translate(587.744141 0.015625)"/>
      <use xlink:href="#DejaVuSans-65" transform="translate(626.953125 0.015625)"/>
      <use xlink:href="#DejaVuSans-72" transform="translate(688.476562 0.015625)"/>
      <use xlink:href="#DejaVuSans-61" transform="translate(729.589844 0.015625)"/>
      <use xlink:href="#DejaVuSans-74" transform="translate(790.869141 0.015625)"/>
      <use xlink:href="#DejaVuSans-f3" transform="translate(830.078125 0.015625)"/>
      <use xlink:href="#DejaVuSans-6d" transform="translate(891.259766 0.015625)"/>
      <use xlink:href="#DejaVuSans-69" transform="translate(988.671875 0.015625)"/>
      <use xlink:href="#DejaVuSans-63" transform="translate(1016.455078 0.015625)"/>
      <use xlink:href="#DejaVuSans-61" transform="translate(1071.435547 0.015625)"/>
      <use xlink:href="#DejaVuSans-20" transform="translate(1132.714844 0.015625)"/>
      <use xlink:href="#DejaVuSans-28" transform="translate(1164.501953 0.015625)"/>
      <use xlink:href="#DejaVuSans-Oblique-61" transform="translate(1203.515625 0.015625)"/>
      <use xlink:href="#DejaVuSans-30" transform="translate(1264.794922 -16.390625) scale(0.7)"/>
      <use xlink:href="#DejaVuSans-29" transform="translate(1312.06543 0.015625)"/>
     </g>
    </g>
   </g>
   <g id="matplotlib.axis_2">
    <g id="ytick_1">
     <g id="line2d_21">
      <path d="M 101.581563 270.305085 
L 482.036108 270.305085 
" clip-path="url(#p7afa5467af)" style="fill: none; stroke: #b0b0b0; stroke-opacity: 0.4; stroke-width: 0.8; stroke-linecap: square"/>
     </g>
     <g id="line2d_22">
      <defs>
       <path id="m9ce29fd5d4" d="M 0 0 
L -3.5 0 
" style="stroke: #000000; stroke-width: 0.8"/>
      </defs>
      <g>
       <use xlink:href="#m9ce29fd5d4" x="101.581563" y="270.305085" style="stroke: #000000; stroke-width: 0.8"/>
      </g>
     </g>
     <g id="text_12">
      <!-- −0.60 -->
      <g transform="translate(39.42 277.143678) scale(0.18 -0.18)">
       <defs>
        <path id="DejaVuSans-2212" d="M 678 2272 
L 4684 2272 
L 4684 1741 
L 678 1741 
L 678 2272 
z
" transform="scale(0.015625)"/>
       </defs>
       <use xlink:href="#DejaVuSans-2212"/>
       <use xlink:href="#DejaVuSans-30" transform="translate(83.789062 0)"/>
       <use xlink:href="#DejaVuSans-2e" transform="translate(147.412109 0)"/>
       <use xlink:href="#DejaVuSans-36" transform="translate(179.199219 0)"/>
       <use xlink:href="#DejaVuSans-30" transform="translate(242.822266 0)"/>
      </g>
     </g>
    </g>
    <g id="ytick_2">
     <g id="line2d_23">
      <path d="M 101.581563 223.322034 
L 482.036108 223.322034 
" clip-path="url(#p7afa5467af)" style="fill: none; stroke: #b0b0b0; stroke-opacity: 0.4; stroke-width: 0.8; stroke-linecap: square"/>
     </g>
     <g id="line2d_24">
      <g>
       <use xlink:href="#m9ce29fd5d4" x="101.581563" y="223.322034" style="stroke: #000000; stroke-width: 0.8"/>
      </g>
     </g>
     <g id="text_13">
      <!-- −0.55 -->
      <g transform="translate(39.42 230.160628) scale(0.18 -0.18)">
       <use xlink:href="#DejaVuSans-2212"/>
       <use xlink:href="#DejaVuSans-30" transform="translate(83.789062 0)"/>
       <use xlink:href="#DejaVuSans-2e" transform="translate(147.412109 0)"/>
       <use xlink:href="#DejaVuSans-35" transform="translate(179.199219 0)"/>
       <use xlink:href="#DejaVuSans-35" transform="translate(242.822266 0)"/>
      </g>
     </g>
    </g>
    <g id="ytick_3">
     <g id="line2d_25">
      <path d="M 101.581563 176.338983 
L 482.036108 176.338983 
" clip-path="url(#p7afa5467af)" style="fill: none; stroke: #b0b0b0; stroke-opacity: 0.4; stroke-width: 0.8; stroke-linecap: square"/>
     </g>
     <g id="line2d_26">
      <g>
       <use xlink:href="#m9ce29fd5d4" x="101.581563" y="176.338983" style="stroke: #000000; stroke-width: 0.8"/>
      </g>
     </g>
     <g id="text_14">
      <!-- −0.50 -->
      <g transform="translate(39.42 183.177577) scale(0.18 -0.18)">
       <use xlink:href="#DejaVuSans-2212"/>
       <use xlink:href="#DejaVuSans-30" transform="translate(83.789062 0)"/>
       <use xlink:href="#DejaVuSans-2e" transform="translate(147.412109 0)"/>
       <use xlink:href="#DejaVuSans-35" transform="translate(179.199219 0)"/>
       <use xlink:href="#DejaVuSans-30" transform="translate(242.822266 0)"/>
      </g>
     </g>
    </g>
    <g id="ytick_4">
     <g id="line2d_27">
      <path d="M 101.581563 129.355932 
L 482.036108 129.355932 
" clip-path="url(#p7afa5467af)" style="fill: none; stroke: #b0b0b0; stroke-opacity: 0.4; stroke-width: 0.8; stroke-linecap: square"/>
     </g>
     <g id="line2d_28">
      <g>
       <use xlink:href="#m9ce29fd5d4" x="101.581563" y="129.355932" style="stroke: #000000; stroke-width: 0.8"/>
      </g>
     </g>
     <g id="text_15">
      <!-- −0.45 -->
      <g transform="translate(39.42 136.194526) scale(0.18 -0.18)">
       <use xlink:href="#DejaVuSans-2212"/>
       <use xlink:href="#DejaVuSans-30" transform="translate(83.789062 0)"/>
       <use xlink:href="#DejaVuSans-2e" transform="translate(147.412109 0)"/>
       <use xlink:href="#DejaVuSans-34" transform="translate(179.199219 0)"/>
       <use xlink:href="#DejaVuSans-35" transform="translate(242.822266 0)"/>
      </g>
     </g>
    </g>
    <g id="ytick_5">
     <g id="line2d_29">
      <path d="M 101.581563 82.372881 
L 482.036108 82.372881 
" clip-path="url(#p7afa5467af)" style="fill: none; stroke: #b0b0b0; stroke-opacity: 0.4; stroke-width: 0.8; stroke-linecap: square"/>
     </g>
     <g id="line2d_30">
      <g>
       <use xlink:href="#m9ce29fd5d4" x="101.581563" y="82.372881" style="stroke: #000000; stroke-width: 0.8"/>
      </g>
     </g>
     <g id="text_16">
      <!-- −0.40 -->
      <g transform="translate(39.42 89.211475) scale(0.18 -0.18)">
       <use xlink:href="#DejaVuSans-2212"/>
       <use xlink:href="#DejaVuSans-30" transform="translate(83.789062 0)"/>
       <use xlink:href="#DejaVuSans-2e" transform="translate(147.412109 0)"/>
       <use xlink:href="#DejaVuSans-34" transform="translate(179.199219 0)"/>
       <use xlink:href="#DejaVuSans-30" transform="translate(242.822266 0)"/>
      </g>
     </g>
    </g>
    <g id="ytick_6">
     <g id="line2d_31">
      <path d="M 101.581563 35.389831 
L 482.036108 35.389831 
" clip-path="url(#p7afa5467af)" style="fill: none; stroke: #b0b0b0; stroke-opacity: 0.4; stroke-width: 0.8; stroke-linecap: square"/>
     </g>
     <g id="line2d_32">
      <g>
       <use xlink:href="#m9ce29fd5d4" x="101.581563" y="35.389831" style="stroke: #000000; stroke-width: 0.8"/>
      </g>
     </g>
     <g id="text_17">
      <!-- −0.35 -->
      <g transform="translate(39.42 42.228424) scale(0.18 -0.18)">
       <use xlink:href="#DejaVuSans-2212"/>
       <use xlink:href="#DejaVuSans-30" transform="translate(83.789062 0)"/>
       <use xlink:href="#DejaVuSans-2e" transform="translate(147.412109 0)"/>
       <use xlink:href="#DejaVuSans-33" transform="translate(179.199219 0)"/>
       <use xlink:href="#DejaVuSans-35" transform="translate(242.822266 0)"/>
      </g>
     </g>
    </g>
    <g id="text_18">
     <!-- Energía (E$_h$) -->
     <g transform="translate(24.8 212.13) rotate(-90) scale(0.22 -0.22)">
      <defs>
       <path id="DejaVuSans-45" d="M 628 4666 
L 3578 4666 
L 3578 4134 
L 1259 4134 
L 1259 2753 
L 3481 2753 
L 3481 2222 
L 1259 2222 
L 1259 531 
L 3634 531 
L 3634 0 
L 628 0 
L 628 4666 
z
" transform="scale(0.015625)"/>
       <path id="DejaVuSans-67" d="M 2906 1791 
Q 2906 2416 2648 2759 
Q 2391 3103 1925 3103 
Q 1463 3103 1205 2759 
Q 947 2416 947 1791 
Q 947 1169 1205 825 
Q 1463 481 1925 481 
Q 2391 481 2648 825 
Q 2906 1169 2906 1791 
z
M 3481 434 
Q 3481 -459 3084 -895 
Q 2688 -1331 1869 -1331 
Q 1566 -1331 1297 -1286 
Q 1028 -1241 775 -1147 
L 775 -588 
Q 1028 -725 1275 -790 
Q 1522 -856 1778 -856 
Q 2344 -856 2625 -561 
Q 2906 -266 2906 331 
L 2906 616 
Q 2728 306 2450 153 
Q 2172 0 1784 0 
Q 1141 0 747 490 
Q 353 981 353 1791 
Q 353 2603 747 3093 
Q 1141 3584 1784 3584 
Q 2172 3584 2450 3431 
Q 2728 3278 2906 2969 
L 2906 3500 
L 3481 3500 
L 3481 434 
z
" transform="scale(0.015625)"/>
       <path id="DejaVuSans-ed" d="M 1322 5119 
L 1944 5119 
L 926 3944 
L 447 3944 
L 1322 5119 
z
M 603 3500 
L 1178 3500 
L 1178 0 
L 603 0 
L 603 3500 
z
M 891 3584 
L 891 3584 
z
" transform="scale(0.015625)"/>
       <path id="DejaVuSans-Oblique-68" d="M 3566 2113 
L 3156 0 
L 2578 0 
L 2988 2091 
Q 3016 2238 3031 2350 
Q 3047 2463 3047 2528 
Q 3047 2791 2881 2937 
Q 2716 3084 2419 3084 
Q 1956 3084 1617 2771 
Q 1278 2459 1178 1941 
L 800 0 
L 225 0 
L 1172 4863 
L 1747 4863 
L 1375 2950 
Q 1594 3244 1934 3414 
Q 2275 3584 2650 3584 
Q 3113 3584 3367 3334 
Q 3622 3084 3622 2631 
Q 3622 2519 3608 2391 
Q 3594 2263 3566 2113 
z
" transform="scale(0.015625)"/>
      </defs>
      <use xlink:href="#DejaVuSans-45" transform="translate(0 0.015625)"/>
      <use xlink:href="#DejaVuSans-6e" transform="translate(63.183594 0.015625)"/>
      <use xlink:href="#DejaVuSans-65" transform="translate(126.5625 0.015625)"/>
      <use xlink:href="#DejaVuSans-72" transform="translate(188.085938 0.015625)"/>
      <use xlink:href="#DejaVuSans-67" transform="translate(229.199219 0.015625)"/>
      <use xlink:href="#DejaVuSans-ed" transform="translate(292.675781 0.015625)"/>
      <use xlink:href="#DejaVuSans-61" transform="translate(320.458984 0.015625)"/>
      <use xlink:href="#DejaVuSans-20" transform="translate(381.738281 0.015625)"/>
      <use xlink:href="#DejaVuSans-28" transform="translate(413.525391 0.015625)"/>
      <use xlink:href="#DejaVuSans-45" transform="translate(452.539062 0.015625)"/>
      <use xlink:href="#DejaVuSans-Oblique-68" transform="translate(516.679688 -16.390625) scale(0.7)"/>
      <use xlink:href="#DejaVuSans-29" transform="translate(563.779297 0.015625)"/>
     </g>
    </g>
   </g>
   <g id="line2d_33">
    <path d="M 101.581563 176.338983 
L 482.036108 176.338983 
" clip-path="url(#p7afa5467af)" style="fill: none; stroke-dasharray: 1.5,2.475; stroke-dashoffset: 0; stroke: #000000; stroke-width: 1.5"/>
   </g>
   <g id="line2d_34">
    <path d="M 139.050537 -1 
L 141.629409 37.929631 
L 145.634194 84.641957 
L 149.638979 120.998152 
L 153.643763 149.413656 
L 157.648548 171.653825 
L 161.653333 189.03546 
L 165.658118 202.557941 
L 169.662902 212.991118 
L 173.667687 220.935746 
L 177.672472 226.865961 
L 181.677256 231.159719 
L 185.682041 234.120982 
L 189.686826 235.996137 
L 193.69161 236.986294 
L 197.696395 237.256629 
L 201.70118 236.943544 
L 205.705964 236.160204 
L 209.710749 235.000876 
L 213.715534 233.544341 
L 217.720318 231.856598 
L 221.725103 229.993037 
L 225.729888 228.000183 
L 229.734673 225.917112 
L 233.739457 223.776613 
L 237.744242 221.606135 
L 241.749027 219.428583 
L 245.753811 217.26297 
L 249.758596 215.124978 
L 253.763381 213.02742 
L 257.768165 210.980643 
L 261.77295 208.992868 
L 265.777735 207.070487 
L 269.782519 205.218314 
L 273.787304 203.439812 
L 277.792089 201.737281 
L 281.796874 200.112037 
L 285.801658 198.564552 
L 289.806443 197.094592 
L 293.811228 195.70133 
L 297.816012 194.383449 
L 301.820797 193.139229 
L 305.825582 191.966629 
L 309.830366 190.863352 
L 313.835151 189.826908 
L 317.839936 188.854664 
L 321.84472 187.943891 
L 325.849505 187.0918 
L 329.85429 186.295577 
L 333.859074 185.55241 
L 337.863859 184.859511 
L 341.868644 184.214141 
L 345.873429 183.613619 
L 349.878213 183.055337 
L 353.882998 182.536773 
L 357.887783 182.055494 
L 361.892567 181.609167 
L 365.897352 181.195557 
L 369.902137 180.812533 
L 373.906921 180.458067 
L 377.911706 180.130237 
L 381.916491 179.82722 
L 385.921275 179.547299 
L 389.92606 179.288852 
L 393.930845 179.050354 
L 397.935629 178.830372 
L 401.940414 178.627564 
L 405.945199 178.440671 
L 409.949984 178.268516 
L 413.954768 178.110002 
L 417.959553 177.964104 
L 421.964338 177.829867 
L 425.969122 177.706401 
L 429.973907 177.592882 
L 433.978692 177.48854 
L 437.983476 177.392664 
L 441.988261 177.304592 
L 445.993046 177.223712 
L 449.99783 177.149456 
L 454.002615 177.0813 
L 458.0074 177.018759 
L 462.012185 176.961382 
L 466.016969 176.908757 
L 470.021754 176.8605 
L 474.026539 176.816257 
L 478.031323 176.775704 
" clip-path="url(#p7afa5467af)" style="fill: none; stroke: #800016; stroke-width: 5; stroke-linecap: square"/>
   </g>
   <g id="line2d_35">
    <path d="M 202.1791 -1 
L 205.705964 12.916067 
L 209.710749 27.20707 
L 213.715534 40.150823 
L 217.720318 51.890212 
L 221.725103 62.550514 
L 225.729888 72.241942 
L 229.734673 81.061765 
L 233.739457 89.096077 
L 237.744242 96.42129 
L 241.749027 103.105393 
L 245.753811 109.209025 
L 249.758596 114.786393 
L 253.763381 119.886047 
L 257.768165 124.551565 
L 261.77295 128.822126 
L 265.777735 132.733018 
L 269.782519 136.316077 
L 273.787304 139.600065 
L 277.792089 142.611008 
L 281.796874 145.372483 
L 285.801658 147.90588 
L 289.806443 150.230625 
L 293.811228 152.364382 
L 297.816012 154.323226 
L 301.820797 156.121805 
L 305.825582 157.773475 
L 309.830366 159.290425 
L 313.835151 160.683791 
L 317.839936 161.963748 
L 321.84472 163.139607 
L 325.849505 164.219888 
L 329.85429 165.212393 
L 333.859074 166.124273 
L 337.863859 166.962081 
L 341.868644 167.731829 
L 345.873429 168.439033 
L 349.878213 169.088755 
L 353.882998 169.685645 
L 357.887783 170.233971 
L 361.892567 170.737656 
L 365.897352 171.200303 
L 369.902137 171.625226 
L 373.906921 172.015471 
L 377.911706 172.373836 
L 381.916491 172.702896 
L 385.921275 173.00502 
L 389.92606 173.282384 
L 393.930845 173.536992 
L 397.935629 173.770685 
L 401.940414 173.985158 
L 405.945199 174.18197 
L 409.949984 174.362554 
L 413.954768 174.528229 
L 417.959553 174.680208 
L 421.964338 174.819607 
L 425.969122 174.94745 
L 429.973907 175.064683 
L 433.978692 175.172172 
L 437.983476 175.270716 
L 441.988261 175.361047 
L 445.993046 175.443839 
L 449.99783 175.519714 
L 454.002615 175.589239 
L 458.0074 175.652939 
L 462.012185 175.711295 
L 466.016969 175.764748 
L 470.021754 175.813704 
L 474.026539 175.858537 
L 478.031323 175.899589 
" clip-path="url(#p7afa5467af)" style="fill: none; stroke-dasharray: 18.5,8; stroke-dashoffset: 0; stroke: #ff002b; stroke-width: 5"/>
   </g>
   <g id="line2d_36">
    <path d="M 137.624625 127.47661 
L 149.638979 228.020339 
L 161.653333 263.727458 
L 169.662902 269.365424 
L 177.672472 272.184407 
L 185.682041 270.305085 
L 193.69161 266.546441 
L 215.717926 250.572203 
" clip-path="url(#p7afa5467af)" style="fill: none; stroke-dasharray: 7.4,3.2; stroke-dashoffset: 0; stroke: #ee2677; stroke-width: 2"/>
    <defs>
     <path id="me309c3d347" d="M 0 4 
C 1.060812 4 2.078319 3.578535 2.828427 2.828427 
C 3.578535 2.078319 4 1.060812 4 0 
C 4 -1.060812 3.578535 -2.078319 2.828427 -2.828427 
C 2.078319 -3.578535 1.060812 -4 0 -4 
C -1.060812 -4 -2.078319 -3.578535 -2.828427 -2.828427 
C -3.578535 -2.078319 -4 -1.060812 -4 0 
C -4 1.060812 -3.578535 2.078319 -2.828427 2.828427 
C -2.078319 3.578535 -1.060812 4 0 4 
z
" style="stroke: #ee2677"/>
    </defs>
    <g clip-path="url(#p7afa5467af)">
     <use xlink:href="#me309c3d347" x="137.624625" y="127.47661" style="fill: #ee2677; stroke: #ee2677"/>
     <use xlink:href="#me309c3d347" x="149.638979" y="228.020339" style="fill: #ee2677; stroke: #ee2677"/>
     <use xlink:href="#me309c3d347" x="161.653333" y="263.727458" style="fill: #ee2677; stroke: #ee2677"/>
     <use xlink:href="#me309c3d347" x="169.662902" y="269.365424" style="fill: #ee2677; stroke: #ee2677"/>
     <use xlink:href="#me309c3d347" x="177.672472" y="272.184407" style="fill: #ee2677; stroke: #ee2677"/>
     <use xlink:href="#me309c3d347" x="185.682041" y="270.305085" style="fill: #ee2677; stroke: #ee2677"/>
     <use xlink:href="#me309c3d347" x="193.69161" y="266.546441" style="fill: #ee2677; stroke: #ee2677"/>
     <use xlink:href="#me309c3d347" x="215.717926" y="250.572203" style="fill: #ee2677; stroke: #ee2677"/>
    </g>
   </g>
   <g id="patch_3">
    <path d="M 101.581563 284.4 
L 101.581563 7.2 
" style="fill: none; stroke: #000000; stroke-width: 0.8; stroke-linejoin: miter; stroke-linecap: square"/>
   </g>
   <g id="patch_4">
    <path d="M 482.036108 284.4 
L 482.036108 7.2 
" style="fill: none; stroke: #000000; stroke-width: 0.8; stroke-linejoin: miter; stroke-linecap: square"/>
   </g>
   <g id="patch_5">
    <path d="M 101.581563 284.4 
L 482.036108 284.4 
" style="fill: none; stroke: #000000; stroke-width: 0.8; stroke-linejoin: miter; stroke-linecap: square"/>
   </g>
   <g id="patch_6">
    <path d="M 101.581563 7.2 
L 482.036108 7.2 
" style="fill: none; stroke: #000000; stroke-width: 0.8; stroke-linejoin: miter; stroke-linecap: square"/>
   </g>
   <g id="legend_1">
    <g id="patch_7">
     <path d="M 261.325639 95.658437 
L 470.136108 95.658437 
Q 473.536108 95.658437 473.536108 92.258437 
L 473.536108 19.1 
Q 473.536108 15.7 470.136108 15.7 
L 261.325639 15.7 
Q 257.925639 15.7 257.925639 19.1 
L 257.925639 92.258437 
Q 257.925639 95.658437 261.325639 95.658437 
z
" style="fill: #ffffff; opacity: 0.8; stroke: #cccccc; stroke-linejoin: miter"/>
    </g>
    <g id="line2d_37">
     <path d="M 264.725639 29.467344 
L 281.725639 29.467344 
L 298.725639 29.467344 
" style="fill: none; stroke: #800016; stroke-width: 5; stroke-linecap: square"/>
    </g>
    <g id="text_19">
     <!-- Estado ligante -->
     <g transform="translate(312.325639 35.417344) scale(0.17 -0.17)">
      <defs>
       <path id="DejaVuSans-64" d="M 2906 2969 
L 2906 4863 
L 3481 4863 
L 3481 0 
L 2906 0 
L 2906 525 
Q 2725 213 2448 61 
Q 2172 -91 1784 -91 
Q 1150 -91 751 415 
Q 353 922 353 1747 
Q 353 2572 751 3078 
Q 1150 3584 1784 3584 
Q 2172 3584 2448 3432 
Q 2725 3281 2906 2969 
z
M 947 1747 
Q 947 1113 1208 752 
Q 1469 391 1925 391 
Q 2381 391 2643 752 
Q 2906 1113 2906 1747 
Q 2906 2381 2643 2742 
Q 2381 3103 1925 3103 
Q 1469 3103 1208 2742 
Q 947 2381 947 1747 
z
" transform="scale(0.015625)"/>
       <path id="DejaVuSans-6f" d="M 1959 3097 
Q 1497 3097 1228 2736 
Q 959 2375 959 1747 
Q 959 1119 1226 758 
Q 1494 397 1959 397 
Q 2419 397 2687 759 
Q 2956 1122 2956 1747 
Q 2956 2369 2687 2733 
Q 2419 3097 1959 3097 
z
M 1959 3584 
Q 2709 3584 3137 3096 
Q 3566 2609 3566 1747 
Q 3566 888 3137 398 
Q 2709 -91 1959 -91 
Q 1206 -91 779 398 
Q 353 888 353 1747 
Q 353 2609 779 3096 
Q 1206 3584 1959 3584 
z
" transform="scale(0.015625)"/>
       <path id="DejaVuSans-6c" d="M 603 4863 
L 1178 4863 
L 1178 0 
L 603 0 
L 603 4863 
z
" transform="scale(0.015625)"/>
      </defs>
      <use xlink:href="#DejaVuSans-45"/>
      <use xlink:href="#DejaVuSans-73" transform="translate(63.183594 0)"/>
      <use xlink:href="#DejaVuSans-74" transform="translate(115.283203 0)"/>
      <use xlink:href="#DejaVuSans-61" transform="translate(154.492188 0)"/>
      <use xlink:href="#DejaVuSans-64" transform="translate(215.771484 0)"/>
      <use xlink:href="#DejaVuSans-6f" transform="translate(279.248047 0)"/>
      <use xlink:href="#DejaVuSans-20" transform="translate(340.429688 0)"/>
      <use xlink:href="#DejaVuSans-6c" transform="translate(372.216797 0)"/>
      <use xlink:href="#DejaVuSans-69" transform="translate(400 0)"/>
      <use xlink:href="#DejaVuSans-67" transform="translate(427.783203 0)"/>
      <use xlink:href="#DejaVuSans-61" transform="translate(491.259766 0)"/>
      <use xlink:href="#DejaVuSans-6e" transform="translate(552.539062 0)"/>
      <use xlink:href="#DejaVuSans-74" transform="translate(615.917969 0)"/>
      <use xlink:href="#DejaVuSans-65" transform="translate(655.126953 0)"/>
     </g>
    </g>
    <g id="line2d_38">
     <path d="M 264.725639 54.420156 
L 281.725639 54.420156 
L 298.725639 54.420156 
" style="fill: none; stroke-dasharray: 18.5,8; stroke-dashoffset: 0; stroke: #ff002b; stroke-width: 5"/>
    </g>
    <g id="text_20">
     <!-- Estado antiligante -->
     <g transform="translate(312.325639 60.370156) scale(0.17 -0.17)">
      <use xlink:href="#DejaVuSans-45"/>
      <use xlink:href="#DejaVuSans-73" transform="translate(63.183594 0)"/>
      <use xlink:href="#DejaVuSans-74" transform="translate(115.283203 0)"/>
      <use xlink:href="#DejaVuSans-61" transform="translate(154.492188 0)"/>
      <use xlink:href="#DejaVuSans-64" transform="translate(215.771484 0)"/>
      <use xlink:href="#DejaVuSans-6f" transform="translate(279.248047 0)"/>
      <use xlink:href="#DejaVuSans-20" transform="translate(340.429688 0)"/>
      <use xlink:href="#DejaVuSans-61" transform="translate(372.216797 0)"/>
      <use xlink:href="#DejaVuSans-6e" transform="translate(433.496094 0)"/>
      <use xlink:href="#DejaVuSans-74" transform="translate(496.875 0)"/>
      <use xlink:href="#DejaVuSans-69" transform="translate(536.083984 0)"/>
      <use xlink:href="#DejaVuSans-6c" transform="translate(563.867188 0)"/>
      <use xlink:href="#DejaVuSans-69" transform="translate(591.650391 0)"/>
      <use xlink:href="#DejaVuSans-67" transform="translate(619.433594 0)"/>
      <use xlink:href="#DejaVuSans-61" transform="translate(682.910156 0)"/>
      <use xlink:href="#DejaVuSans-6e" transform="translate(744.189453 0)"/>
      <use xlink:href="#DejaVuSans-74" transform="translate(807.568359 0)"/>
      <use xlink:href="#DejaVuSans-65" transform="translate(846.777344 0)"/>
     </g>
    </g>
    <g id="line2d_39">
     <path d="M 264.725639 79.372969 
L 281.725639 79.372969 
L 298.725639 79.372969 
" style="fill: none; stroke-dasharray: 7.4,3.2; stroke-dashoffset: 0; stroke: #ee2677; stroke-width: 2"/>
     <g>
      <use xlink:href="#me309c3d347" x="281.725639" y="79.372969" style="fill: #ee2677; stroke: #ee2677"/>
     </g>
    </g>
    <g id="text_21">
     <!-- Burrau -->
     <g transform="translate(312.325639 85.322969) scale(0.17 -0.17)">
      <defs>
       <path id="DejaVuSans-42" d="M 1259 2228 
L 1259 519 
L 2272 519 
Q 2781 519 3026 730 
Q 3272 941 3272 1375 
Q 3272 1813 3026 2020 
Q 2781 2228 2272 2228 
L 1259 2228 
z
M 1259 4147 
L 1259 2741 
L 2194 2741 
Q 2656 2741 2882 2914 
Q 3109 3088 3109 3444 
Q 3109 3797 2882 3972 
Q 2656 4147 2194 4147 
L 1259 4147 
z
M 628 4666 
L 2241 4666 
Q 2963 4666 3353 4366 
Q 3744 4066 3744 3513 
Q 3744 3084 3544 2831 
Q 3344 2578 2956 2516 
Q 3422 2416 3680 2098 
Q 3938 1781 3938 1306 
Q 3938 681 3513 340 
Q 3088 0 2303 0 
L 628 0 
L 628 4666 
z
" transform="scale(0.015625)"/>
       <path id="DejaVuSans-75" d="M 544 1381 
L 544 3500 
L 1119 3500 
L 1119 1403 
Q 1119 906 1312 657 
Q 1506 409 1894 409 
Q 2359 409 2629 706 
Q 2900 1003 2900 1516 
L 2900 3500 
L 3475 3500 
L 3475 0 
L 2900 0 
L 2900 538 
Q 2691 219 2414 64 
Q 2138 -91 1772 -91 
Q 1169 -91 856 284 
Q 544 659 544 1381 
z
M 1991 3584 
L 1991 3584 
z
" transform="scale(0.015625)"/>
      </defs>
      <use xlink:href="#DejaVuSans-42"/>
      <use xlink:href="#DejaVuSans-75" transform="translate(68.603516 0)"/>
      <use xlink:href="#DejaVuSans-72" transform="translate(131.982422 0)"/>
      <use xlink:href="#DejaVuSans-72" transform="translate(171.345703 0)"/>
      <use xlink:href="#DejaVuSans-61" transform="translate(212.458984 0)"/>
      <use xlink:href="#DejaVuSans-75" transform="translate(273.738281 0)"/>
     </g>
    </g>
   </g>
  </g>
  <g id="axes_2">
   <g id="patch_8">
    <path d="M 558.127017 284.4 
L 938.581562 284.4 
L 938.581562 7.2 
L 558.127017 7.2 
z
" style="fill: #ffffff"/>
   </g>
   <g id="matplotlib.axis_3">
    <g id="xtick_11">
     <g id="line2d_40">
      <path d="M 578.417926 284.4 
L 578.417926 7.2 
" clip-path="url(#pf736af9380)" style="fill: none; stroke: #b0b0b0; stroke-opacity: 0.4; stroke-width: 0.8; stroke-linecap: square"/>
     </g>
     <g id="line2d_41">
      <g>
       <use xlink:href="#m66c2074bf6" x="578.417926" y="284.4" style="stroke: #000000; stroke-width: 0.8"/>
      </g>
     </g>
     <g id="text_22">
      <!-- 0.5 -->
      <g transform="translate(564.105114 305.077187) scale(0.18 -0.18)">
       <use xlink:href="#DejaVuSans-30"/>
       <use xlink:href="#DejaVuSans-2e" transform="translate(63.623047 0)"/>
       <use xlink:href="#DejaVuSans-35" transform="translate(95.410156 0)"/>
      </g>
     </g>
    </g>
    <g id="xtick_12">
     <g id="line2d_42">
      <path d="M 629.145199 284.4 
L 629.145199 7.2 
" clip-path="url(#pf736af9380)" style="fill: none; stroke: #b0b0b0; stroke-opacity: 0.4; stroke-width: 0.8; stroke-linecap: square"/>
     </g>
     <g id="line2d_43">
      <g>
       <use xlink:href="#m66c2074bf6" x="629.145199" y="284.4" style="stroke: #000000; stroke-width: 0.8"/>
      </g>
     </g>
     <g id="text_23">
      <!-- 1.5 -->
      <g transform="translate(614.832386 305.077187) scale(0.18 -0.18)">
       <use xlink:href="#DejaVuSans-31"/>
       <use xlink:href="#DejaVuSans-2e" transform="translate(63.623047 0)"/>
       <use xlink:href="#DejaVuSans-35" transform="translate(95.410156 0)"/>
      </g>
     </g>
    </g>
    <g id="xtick_13">
     <g id="line2d_44">
      <path d="M 679.872472 284.4 
L 679.872472 7.2 
" clip-path="url(#pf736af9380)" style="fill: none; stroke: #b0b0b0; stroke-opacity: 0.4; stroke-width: 0.8; stroke-linecap: square"/>
     </g>
     <g id="line2d_45">
      <g>
       <use xlink:href="#m66c2074bf6" x="679.872472" y="284.4" style="stroke: #000000; stroke-width: 0.8"/>
      </g>
     </g>
     <g id="text_24">
      <!-- 2.5 -->
      <g transform="translate(665.559659 305.077187) scale(0.18 -0.18)">
       <use xlink:href="#DejaVuSans-32"/>
       <use xlink:href="#DejaVuSans-2e" transform="translate(63.623047 0)"/>
       <use xlink:href="#DejaVuSans-35" transform="translate(95.410156 0)"/>
      </g>
     </g>
    </g>
    <g id="xtick_14">
     <g id="line2d_46">
      <path d="M 730.599744 284.4 
L 730.599744 7.2 
" clip-path="url(#pf736af9380)" style="fill: none; stroke: #b0b0b0; stroke-opacity: 0.4; stroke-width: 0.8; stroke-linecap: square"/>
     </g>
     <g id="line2d_47">
      <g>
       <use xlink:href="#m66c2074bf6" x="730.599744" y="284.4" style="stroke: #000000; stroke-width: 0.8"/>
      </g>
     </g>
     <g id="text_25">
      <!-- 3.5 -->
      <g transform="translate(716.286932 305.077187) scale(0.18 -0.18)">
       <use xlink:href="#DejaVuSans-33"/>
       <use xlink:href="#DejaVuSans-2e" transform="translate(63.623047 0)"/>
       <use xlink:href="#DejaVuSans-35" transform="translate(95.410156 0)"/>
      </g>
     </g>
    </g>
    <g id="xtick_15">
     <g id="line2d_48">
      <path d="M 781.327017 284.4 
L 781.327017 7.2 
" clip-path="url(#pf736af9380)" style="fill: none; stroke: #b0b0b0; stroke-opacity: 0.4; stroke-width: 0.8; stroke-linecap: square"/>
     </g>
     <g id="line2d_49">
      <g>
       <use xlink:href="#m66c2074bf6" x="781.327017" y="284.4" style="stroke: #000000; stroke-width: 0.8"/>
      </g>
     </g>
     <g id="text_26">
      <!-- 4.5 -->
      <g transform="translate(767.014205 305.077187) scale(0.18 -0.18)">
       <use xlink:href="#DejaVuSans-34"/>
       <use xlink:href="#DejaVuSans-2e" transform="translate(63.623047 0)"/>
       <use xlink:href="#DejaVuSans-35" transform="translate(95.410156 0)"/>
      </g>
     </g>
    </g>
    <g id="xtick_16">
     <g id="line2d_50">
      <path d="M 832.05429 284.4 
L 832.05429 7.2 
" clip-path="url(#pf736af9380)" style="fill: none; stroke: #b0b0b0; stroke-opacity: 0.4; stroke-width: 0.8; stroke-linecap: square"/>
     </g>
     <g id="line2d_51">
      <g>
       <use xlink:href="#m66c2074bf6" x="832.05429" y="284.4" style="stroke: #000000; stroke-width: 0.8"/>
      </g>
     </g>
     <g id="text_27">
      <!-- 5.5 -->
      <g transform="translate(817.741477 305.077187) scale(0.18 -0.18)">
       <use xlink:href="#DejaVuSans-35"/>
       <use xlink:href="#DejaVuSans-2e" transform="translate(63.623047 0)"/>
       <use xlink:href="#DejaVuSans-35" transform="translate(95.410156 0)"/>
      </g>
     </g>
    </g>
    <g id="xtick_17">
     <g id="line2d_52">
      <path d="M 882.781562 284.4 
L 882.781562 7.2 
" clip-path="url(#pf736af9380)" style="fill: none; stroke: #b0b0b0; stroke-opacity: 0.4; stroke-width: 0.8; stroke-linecap: square"/>
     </g>
     <g id="line2d_53">
      <g>
       <use xlink:href="#m66c2074bf6" x="882.781562" y="284.4" style="stroke: #000000; stroke-width: 0.8"/>
      </g>
     </g>
     <g id="text_28">
      <!-- 6.5 -->
      <g transform="translate(868.46875 305.077187) scale(0.18 -0.18)">
       <use xlink:href="#DejaVuSans-36"/>
       <use xlink:href="#DejaVuSans-2e" transform="translate(63.623047 0)"/>
       <use xlink:href="#DejaVuSans-35" transform="translate(95.410156 0)"/>
      </g>
     </g>
    </g>
    <g id="xtick_18">
     <g id="line2d_54">
      <path d="M 933.508835 284.4 
L 933.508835 7.2 
" clip-path="url(#pf736af9380)" style="fill: none; stroke: #b0b0b0; stroke-opacity: 0.4; stroke-width: 0.8; stroke-linecap: square"/>
     </g>
     <g id="line2d_55">
      <g>
       <use xlink:href="#m66c2074bf6" x="933.508835" y="284.4" style="stroke: #000000; stroke-width: 0.8"/>
      </g>
     </g>
     <g id="text_29">
      <!-- 7.5 -->
      <g transform="translate(919.196023 305.077187) scale(0.18 -0.18)">
       <use xlink:href="#DejaVuSans-37"/>
       <use xlink:href="#DejaVuSans-2e" transform="translate(63.623047 0)"/>
       <use xlink:href="#DejaVuSans-35" transform="translate(95.410156 0)"/>
      </g>
     </g>
    </g>
    <g id="text_30">
     <!-- Distancia interatómica ($a_0$) -->
     <g transform="translate(599.63429 335.805313) scale(0.22 -0.22)">
      <use xlink:href="#DejaVuSans-44" transform="translate(0 0.015625)"/>
      <use xlink:href="#DejaVuSans-69" transform="translate(77.001953 0.015625)"/>
      <use xlink:href="#DejaVuSans-73" transform="translate(104.785156 0.015625)"/>
      <use xlink:href="#DejaVuSans-74" transform="translate(156.884766 0.015625)"/>
      <use xlink:href="#DejaVuSans-61" transform="translate(196.09375 0.015625)"/>
      <use xlink:href="#DejaVuSans-6e" transform="translate(257.373047 0.015625)"/>
      <use xlink:href="#DejaVuSans-63" transform="translate(320.751953 0.015625)"/>
      <use xlink:href="#DejaVuSans-69" transform="translate(375.732422 0.015625)"/>
      <use xlink:href="#DejaVuSans-61" transform="translate(403.515625 0.015625)"/>
      <use xlink:href="#DejaVuSans-20" transform="translate(464.794922 0.015625)"/>
      <use xlink:href="#DejaVuSans-69" transform="translate(496.582031 0.015625)"/>
      <use xlink:href="#DejaVuSans-6e" transform="translate(524.365234 0.015625)"/>
      <use xlink:href="#DejaVuSans-74" transform="translate(587.744141 0.015625)"/>
      <use xlink:href="#DejaVuSans-65" transform="translate(626.953125 0.015625)"/>
      <use xlink:href="#DejaVuSans-72" transform="translate(688.476562 0.015625)"/>
      <use xlink:href="#DejaVuSans-61" transform="translate(729.589844 0.015625)"/>
      <use xlink:href="#DejaVuSans-74" transform="translate(790.869141 0.015625)"/>
      <use xlink:href="#DejaVuSans-f3" transform="translate(830.078125 0.015625)"/>
      <use xlink:href="#DejaVuSans-6d" transform="translate(891.259766 0.015625)"/>
      <use xlink:href="#DejaVuSans-69" transform="translate(988.671875 0.015625)"/>
      <use xlink:href="#DejaVuSans-63" transform="translate(1016.455078 0.015625)"/>
      <use xlink:href="#DejaVuSans-61" transform="translate(1071.435547 0.015625)"/>
      <use xlink:href="#DejaVuSans-20" transform="translate(1132.714844 0.015625)"/>
      <use xlink:href="#DejaVuSans-28" transform="translate(1164.501953 0.015625)"/>
      <use xlink:href="#DejaVuSans-Oblique-61" transform="translate(1203.515625 0.015625)"/>
      <use xlink:href="#DejaVuSans-30" transform="translate(1264.794922 -16.390625) scale(0.7)"/>
      <use xlink:href="#DejaVuSans-29" transform="translate(1312.06543 0.015625)"/>
     </g>
    </g>
   </g>
   <g id="matplotlib.axis_4">
    <g id="ytick_7">
     <g id="line2d_56">
      <path d="M 558.127017 238.2 
L 938.581562 238.2 
" clip-path="url(#pf736af9380)" style="fill: none; stroke: #b0b0b0; stroke-opacity: 0.4; stroke-width: 0.8; stroke-linecap: square"/>
     </g>
     <g id="line2d_57">
      <g>
       <use xlink:href="#m9ce29fd5d4" x="558.127017" y="238.2" style="stroke: #000000; stroke-width: 0.8"/>
      </g>
     </g>
     <g id="text_31">
      <!-- −0.4 -->
      <g transform="translate(507.417955 245.038594) scale(0.18 -0.18)">
       <use xlink:href="#DejaVuSans-2212"/>
       <use xlink:href="#DejaVuSans-30" transform="translate(83.789062 0)"/>
       <use xlink:href="#DejaVuSans-2e" transform="translate(147.412109 0)"/>
       <use xlink:href="#DejaVuSans-34" transform="translate(179.199219 0)"/>
      </g>
     </g>
    </g>
    <g id="ytick_8">
     <g id="line2d_58">
      <path d="M 558.127017 168.9 
L 938.581562 168.9 
" clip-path="url(#pf736af9380)" style="fill: none; stroke: #b0b0b0; stroke-opacity: 0.4; stroke-width: 0.8; stroke-linecap: square"/>
     </g>
     <g id="line2d_59">
      <g>
       <use xlink:href="#m9ce29fd5d4" x="558.127017" y="168.9" style="stroke: #000000; stroke-width: 0.8"/>
      </g>
     </g>
     <g id="text_32">
      <!-- −0.1 -->
      <g transform="translate(507.417955 175.738594) scale(0.18 -0.18)">
       <use xlink:href="#DejaVuSans-2212"/>
       <use xlink:href="#DejaVuSans-30" transform="translate(83.789062 0)"/>
       <use xlink:href="#DejaVuSans-2e" transform="translate(147.412109 0)"/>
       <use xlink:href="#DejaVuSans-31" transform="translate(179.199219 0)"/>
      </g>
     </g>
    </g>
    <g id="ytick_9">
     <g id="line2d_60">
      <path d="M 558.127017 99.6 
L 938.581562 99.6 
" clip-path="url(#pf736af9380)" style="fill: none; stroke: #b0b0b0; stroke-opacity: 0.4; stroke-width: 0.8; stroke-linecap: square"/>
     </g>
     <g id="line2d_61">
      <g>
       <use xlink:href="#m9ce29fd5d4" x="558.127017" y="99.6" style="stroke: #000000; stroke-width: 0.8"/>
      </g>
     </g>
     <g id="text_33">
      <!-- 0.2 -->
      <g transform="translate(522.501392 106.438594) scale(0.18 -0.18)">
       <use xlink:href="#DejaVuSans-30"/>
       <use xlink:href="#DejaVuSans-2e" transform="translate(63.623047 0)"/>
       <use xlink:href="#DejaVuSans-32" transform="translate(95.410156 0)"/>
      </g>
     </g>
    </g>
    <g id="ytick_10">
     <g id="line2d_62">
      <path d="M 558.127017 30.3 
L 938.581562 30.3 
" clip-path="url(#pf736af9380)" style="fill: none; stroke: #b0b0b0; stroke-opacity: 0.4; stroke-width: 0.8; stroke-linecap: square"/>
     </g>
     <g id="line2d_63">
      <g>
       <use xlink:href="#m9ce29fd5d4" x="558.127017" y="30.3" style="stroke: #000000; stroke-width: 0.8"/>
      </g>
     </g>
     <g id="text_34">
      <!-- 0.5 -->
      <g transform="translate(522.501392 37.138594) scale(0.18 -0.18)">
       <use xlink:href="#DejaVuSans-30"/>
       <use xlink:href="#DejaVuSans-2e" transform="translate(63.623047 0)"/>
       <use xlink:href="#DejaVuSans-35" transform="translate(95.410156 0)"/>
      </g>
     </g>
    </g>
   </g>
   <g id="line2d_64">
    <path d="M 645.439595 -1 
L 649.436108 4.028393 
L 654.508835 10.329381 
L 659.581562 16.526422 
L 664.65429 22.600184 
L 669.727017 28.534249 
L 674.799744 34.314893 
L 679.872472 39.930873 
L 684.945199 45.373209 
L 690.017926 50.634978 
L 695.090653 55.711108 
L 700.163381 60.598194 
L 705.236108 65.29431 
L 710.308835 69.798842 
L 715.381562 74.112327 
L 720.45429 78.236307 
L 725.527017 82.173193 
L 730.599744 85.926138 
L 735.672472 89.498923 
L 740.745199 92.895856 
L 745.817926 96.121674 
L 750.890653 99.181461 
L 755.963381 102.08057 
L 761.036108 104.824557 
L 766.108835 107.419121 
L 771.181562 109.870049 
L 776.25429 112.18317 
L 781.327017 114.364317 
L 786.399744 116.419288 
L 791.472472 118.353819 
L 796.545199 120.173555 
L 801.617926 121.884033 
L 806.690653 123.490657 
L 811.763381 124.998693 
L 816.836108 126.413248 
L 821.908835 127.739265 
L 826.981562 128.981517 
L 832.05429 130.1446 
L 837.127017 131.232932 
L 842.199744 132.250747 
L 847.272472 133.202103 
L 852.345199 134.090873 
L 857.417926 134.920757 
L 862.490653 135.695275 
L 867.563381 136.41778 
L 872.636108 137.091453 
L 877.708835 137.719315 
L 882.781562 138.304228 
L 887.85429 138.8489 
L 892.927017 139.355893 
L 897.999744 139.827626 
L 903.072472 140.266381 
L 908.145199 140.674311 
L 913.217926 141.053444 
L 918.290653 141.405686 
L 923.363381 141.732831 
L 928.436108 142.036566 
L 933.508835 142.318472 
L 938.581562 142.580035 
L 943.65429 142.822648 
L 948.727017 143.047613 
L 953.799744 143.256154 
L 956.021648 143.340804 
" clip-path="url(#pf736af9380)" style="fill: none; stroke: #9197ae; stroke-width: 5; stroke-linecap: square"/>
   </g>
   <g id="line2d_65">
    <path d="M 578.073342 -1 
L 578.417926 6.359547 
L 583.490653 75.764365 
L 588.563381 122.959103 
L 593.636108 156.364285 
L 598.708835 180.689242 
L 603.781562 198.775099 
L 608.85429 212.435807 
L 613.927017 222.880947 
L 618.999744 230.94496 
L 624.072472 237.219215 
L 629.145199 242.131979 
L 634.217926 245.998888 
L 639.290653 249.055936 
L 644.363381 251.481676 
L 649.436108 253.412537 
L 654.508835 254.953631 
L 659.581562 256.186508 
L 664.65429 257.174814 
L 669.727017 257.968472 
L 674.799744 258.606815 
L 679.872472 259.120948 
L 684.945199 259.535548 
L 690.017926 259.870251 
L 695.090653 260.14072 
L 700.163381 260.359474 
L 705.236108 260.536544 
L 710.308835 260.679976 
L 715.381562 260.796237 
L 720.45429 260.890529 
L 725.527017 260.967047 
L 730.599744 261.029171 
L 735.672472 261.079633 
L 740.745199 261.120639 
L 745.817926 261.153974 
L 750.890653 261.181082 
L 755.963381 261.203135 
L 761.036108 261.221081 
L 766.108835 261.235688 
L 771.181562 261.247581 
L 776.25429 261.257267 
L 781.327017 261.265157 
L 786.399744 261.271586 
L 791.472472 261.276825 
L 796.545199 261.281095 
L 801.617926 261.284577 
L 806.690653 261.287415 
L 811.763381 261.28973 
L 816.836108 261.291618 
L 821.908835 261.293158 
L 826.981562 261.294415 
L 832.05429 261.29544 
L 837.127017 261.296277 
L 842.199744 261.29696 
L 847.272472 261.297518 
L 852.345199 261.297973 
L 857.417926 261.298344 
L 862.490653 261.298647 
L 867.563381 261.298895 
L 872.636108 261.299097 
L 877.708835 261.299263 
L 882.781562 261.299398 
L 887.85429 261.299508 
L 892.927017 261.299598 
L 897.999744 261.299671 
L 903.072472 261.299731 
L 908.145199 261.29978 
L 913.217926 261.299821 
L 918.290653 261.299853 
L 923.363381 261.29988 
L 928.436108 261.299902 
L 933.508835 261.29992 
L 938.581562 261.299935 
L 943.65429 261.299946 
L 948.727017 261.299956 
L 953.799744 261.299964 
L 956.021648 261.299967 
" clip-path="url(#pf736af9380)" style="fill: none; stroke-dasharray: 18.5,8; stroke-dashoffset: 0; stroke: #004e89; stroke-width: 5"/>
   </g>
   <g id="line2d_66">
    <path d="M 577.308786 -1 
L 578.417926 23.20499 
L 583.490653 94.244635 
L 588.563381 142.331352 
L 593.636108 175.900547 
L 598.708835 199.698262 
L 603.781562 216.616792 
L 608.85429 228.530115 
L 613.927017 236.712461 
L 618.999744 242.064414 
L 624.072472 245.242692 
L 629.145199 246.738506 
L 634.217926 246.926937 
L 639.290653 246.099219 
L 644.363381 244.484538 
L 649.436108 242.265186 
L 654.508835 239.587351 
L 659.581562 236.568991 
L 664.65429 233.305686 
L 669.727017 229.875083 
L 674.799744 226.340306 
L 679.872472 222.752634 
L 684.945199 219.153614 
L 690.017926 215.576758 
L 695.090653 212.048915 
L 700.163381 208.591389 
L 705.236108 205.220866 
L 710.308835 201.950176 
L 715.381562 198.788929 
L 720.45429 195.74405 
L 725.527017 192.820228 
L 730.599744 190.020293 
L 735.672472 187.345538 
L 740.745199 184.795987 
L 745.817926 182.370631 
L 750.890653 180.067618 
L 755.963381 177.88442 
L 761.036108 175.81798 
L 766.108835 173.864822 
L 771.181562 172.02116 
L 776.25429 170.28298 
L 781.327017 168.646114 
L 786.399744 167.106299 
L 791.472472 165.659229 
L 796.545199 164.300595 
L 801.617926 163.026122 
L 806.690653 161.831597 
L 811.763381 160.712891 
L 816.836108 159.665978 
L 821.908835 158.686948 
L 826.981562 157.772021 
L 832.05429 156.917551 
L 837.127017 156.120035 
L 842.199744 155.376115 
L 847.272472 154.68258 
L 852.345199 154.036367 
L 857.417926 153.434557 
L 862.490653 152.874377 
L 867.563381 152.353198 
L 872.636108 151.868525 
L 877.708835 151.418001 
L 882.781562 150.999399 
L 887.85429 150.610615 
L 892.927017 150.249669 
L 897.999744 149.914697 
L 903.072472 149.603943 
L 908.145199 149.315761 
L 913.217926 149.048603 
L 918.290653 148.801019 
L 923.363381 148.571649 
L 928.436108 148.35922 
L 933.508835 148.162541 
L 938.581562 147.9805 
L 943.65429 147.812054 
L 948.727017 147.656232 
L 953.799744 147.512129 
L 956.021648 147.453772 
" clip-path="url(#pf736af9380)" style="fill: none; stroke-dasharray: 32,8,5,8; stroke-dashoffset: 0; stroke: #00043a; stroke-width: 5"/>
   </g>
   <g id="patch_9">
    <path d="M 558.127017 284.4 
L 558.127017 7.2 
" style="fill: none; stroke: #000000; stroke-width: 0.8; stroke-linejoin: miter; stroke-linecap: square"/>
   </g>
   <g id="patch_10">
    <path d="M 938.581562 284.4 
L 938.581562 7.2 
" style="fill: none; stroke: #000000; stroke-width: 0.8; stroke-linejoin: miter; stroke-linecap: square"/>
   </g>
   <g id="patch_11">
    <path d="M 558.127017 284.4 
L 938.581562 284.4 
" style="fill: none; stroke: #000000; stroke-width: 0.8; stroke-linejoin: miter; stroke-linecap: square"/>
   </g>
   <g id="patch_12">
    <path d="M 558.127017 7.2 
L 938.581562 7.2 
" style="fill: none; stroke: #000000; stroke-width: 0.8; stroke-linejoin: miter; stroke-linecap: square"/>
   </g>
   <g id="legend_2">
    <g id="patch_13">
     <path d="M 824.511562 95.658437 
L 926.681562 95.658437 
Q 930.081562 95.658437 930.081562 92.258437 
L 930.081562 19.1 
Q 930.081562 15.7 926.681562 15.7 
L 824.511562 15.7 
Q 821.111562 15.7 821.111562 19.1 
L 821.111562 92.258437 
Q 821.111562 95.658437 824.511562 95.658437 
z
" style="fill: #ffffff; opacity: 0.8; stroke: #cccccc; stroke-linejoin: miter"/>
    </g>
    <g id="line2d_67">
     <path d="M 827.911562 29.467344 
L 850.861562 29.467344 
L 873.811562 29.467344 
" style="fill: none; stroke: #9197ae; stroke-width: 5; stroke-linecap: square"/>
    </g>
    <g id="text_35">
     <!-- $S(R)$ -->
     <g transform="translate(887.411562 35.417344) scale(0.17 -0.17)">
      <defs>
       <path id="DejaVuSans-Oblique-53" d="M 3859 4513 
L 3738 3897 
Q 3422 4066 3111 4152 
Q 2800 4238 2509 4238 
Q 1944 4238 1609 3991 
Q 1275 3744 1275 3334 
Q 1275 3109 1398 2989 
Q 1522 2869 2034 2731 
L 2413 2638 
Q 3053 2472 3303 2217 
Q 3553 1963 3553 1503 
Q 3553 797 2998 353 
Q 2444 -91 1538 -91 
Q 1166 -91 791 -17 
Q 416 56 38 206 
L 166 856 
Q 513 641 861 531 
Q 1209 422 1556 422 
Q 2147 422 2503 684 
Q 2859 947 2859 1369 
Q 2859 1650 2717 1795 
Q 2575 1941 2106 2059 
L 1728 2156 
Q 1081 2325 845 2545 
Q 609 2766 609 3163 
Q 609 3859 1145 4304 
Q 1681 4750 2541 4750 
Q 2875 4750 3203 4690 
Q 3531 4631 3859 4513 
z
" transform="scale(0.015625)"/>
       <path id="DejaVuSans-Oblique-52" d="M 1613 4147 
L 1294 2491 
L 2106 2491 
Q 2584 2491 2879 2755 
Q 3175 3019 3175 3444 
Q 3175 3784 2976 3965 
Q 2778 4147 2406 4147 
L 1613 4147 
z
M 2772 2241 
Q 2972 2194 3105 2009 
Q 3238 1825 3413 1275 
L 3809 0 
L 3144 0 
L 2778 1197 
Q 2638 1659 2453 1815 
Q 2269 1972 1888 1972 
L 1191 1972 
L 806 0 
L 172 0 
L 1081 4666 
L 2503 4666 
Q 3150 4666 3495 4373 
Q 3841 4081 3841 3531 
Q 3841 3044 3547 2687 
Q 3253 2331 2772 2241 
z
" transform="scale(0.015625)"/>
      </defs>
      <use xlink:href="#DejaVuSans-Oblique-53" transform="translate(0 0.125)"/>
      <use xlink:href="#DejaVuSans-28" transform="translate(63.476562 0.125)"/>
      <use xlink:href="#DejaVuSans-Oblique-52" transform="translate(102.490234 0.125)"/>
      <use xlink:href="#DejaVuSans-29" transform="translate(171.972656 0.125)"/>
     </g>
    </g>
    <g id="line2d_68">
     <path d="M 827.911562 54.420156 
L 850.861562 54.420156 
L 873.811562 54.420156 
" style="fill: none; stroke-dasharray: 18.5,8; stroke-dashoffset: 0; stroke: #004e89; stroke-width: 5"/>
    </g>
    <g id="text_36">
     <!-- $\mathcal{H}_{AA}$ -->
     <g transform="translate(887.411562 60.370156) scale(0.17 -0.17)">
      <defs>
       <path id="STIXNonUnicode-Italic-e234" d="M 5408 4237 
L 5344 4083 
Q 5152 4083 5075 3964 
Q 4998 3846 4902 3494 
L 4134 762 
Q 4090 614 4090 429 
Q 4090 166 4435 166 
Q 4659 166 4838 339 
L 4934 218 
Q 4787 51 4531 -41 
Q 4275 -134 4051 -134 
Q 3802 -134 3587 -3 
Q 3373 128 3373 403 
Q 3373 525 3405 627 
L 3859 2240 
Q 3674 2157 3667 2157 
L 2016 2157 
L 1581 595 
Q 1472 218 1209 109 
Q 947 0 371 0 
L 435 154 
Q 634 173 739 294 
Q 845 416 934 717 
L 1542 2899 
Q 1562 2957 1638 3280 
Q 1715 3603 1715 3674 
Q 1715 3789 1664 3840 
Q 1613 3891 1466 3891 
Q 922 3891 365 3411 
L 262 3526 
Q 518 3821 966 4035 
Q 1414 4250 1978 4250 
Q 2221 4250 2329 4131 
Q 2438 4013 2438 3770 
Q 2438 3584 2304 3117 
L 2074 2330 
Q 2106 2336 2170 2374 
Q 2234 2413 2266 2413 
L 3910 2413 
L 4269 3654 
Q 4384 4051 4605 4144 
Q 4826 4237 5408 4237 
z
" transform="scale(0.015625)"/>
       <path id="DejaVuSans-Oblique-41" d="M 2356 4666 
L 3072 4666 
L 3938 0 
L 3278 0 
L 3084 1197 
L 984 1197 
L 325 0 
L -341 0 
L 2356 4666 
z
M 2584 4044 
L 1275 1722 
L 2988 1722 
L 2584 4044 
z
" transform="scale(0.015625)"/>
      </defs>
      <use xlink:href="#STIXNonUnicode-Italic-e234" transform="translate(0 0.59375)"/>
      <use xlink:href="#DejaVuSans-Oblique-41" transform="translate(84.057022 -15.8125) scale(0.7)"/>
      <use xlink:href="#DejaVuSans-Oblique-41" transform="translate(131.942764 -15.8125) scale(0.7)"/>
     </g>
    </g>
    <g id="line2d_69">
     <path d="M 827.911562 79.372969 
L 850.861562 79.372969 
L 873.811562 79.372969 
" style="fill: none; stroke-dasharray: 32,8,5,8; stroke-dashoffset: 0; stroke: #00043a; stroke-width: 5"/>
    </g>
    <g id="text_37">
     <!-- $\mathcal{H}_{AB}$ -->
     <g transform="translate(887.411562 85.322969) scale(0.17 -0.17)">
      <defs>
       <path id="DejaVuSans-Oblique-42" d="M 1081 4666 
L 2694 4666 
Q 3350 4666 3675 4422 
Q 4000 4178 4000 3688 
Q 4000 3238 3720 2911 
Q 3441 2584 2988 2516 
Q 3375 2428 3569 2181 
Q 3763 1934 3763 1522 
Q 3763 819 3242 409 
Q 2722 0 1819 0 
L 172 0 
L 1081 4666 
z
M 1234 2228 
L 903 519 
L 1919 519 
Q 2491 519 2800 781 
Q 3109 1044 3109 1522 
Q 3109 1891 2904 2059 
Q 2700 2228 2247 2228 
L 1234 2228 
z
M 1606 4147 
L 1331 2741 
L 2272 2741 
Q 2775 2741 3058 2959 
Q 3341 3178 3341 3566 
Q 3341 3869 3150 4008 
Q 2959 4147 2541 4147 
L 1606 4147 
z
" transform="scale(0.015625)"/>
      </defs>
      <use xlink:href="#STIXNonUnicode-Italic-e234" transform="translate(0 0.59375)"/>
      <use xlink:href="#DejaVuSans-Oblique-41" transform="translate(84.057022 -15.8125) scale(0.7)"/>
      <use xlink:href="#DejaVuSans-Oblique-42" transform="translate(131.942764 -15.8125) scale(0.7)"/>
     </g>
    </g>
   </g>
  </g>
 </g>
 <defs>
  <clipPath id="p7afa5467af">
   <rect x="101.581563" y="7.2" width="380.454545" height="277.2"/>
  </clipPath>
  <clipPath id="pf736af9380">
   <rect x="558.127017" y="7.2" width="380.454545" height="277.2"/>
  </clipPath>
 </defs>
</svg>
