<?xml version="1.0" encoding="utf-8" standalone="no"?>
<!DOCTYPE svg PUBLIC "-//W3C//DTD SVG 1.1//EN"
  "http://www.w3.org/Graphics/SVG/1.1/DTD/svg11.dtd">
<svg xmlns:xlink="http://www.w3.org/1999/xlink" width="907.389062pt" height="331.548625pt" viewBox="0 0 907.389062 331.548625" xmlns="http://www.w3.org/2000/svg" version="1.1">
 <metadata>
  <rdf:RDF xmlns:dc="http://purl.org/dc/elements/1.1/" xmlns:cc="http://creativecommons.org/ns#" xmlns:rdf="http://www.w3.org/1999/02/22-rdf-syntax-ns#">
   <cc:Work>
    <dc:type rdf:resource="http://purl.org/dc/dcmitype/StillImage"/>
    <dc:date>2025-07-28T04:57:36.124774</dc:date>
    <dc:format>image/svg+xml</dc:format>
    <dc:creator>
     <cc:Agent>
      <dc:title>Matplotlib v3.10.3, https://matplotlib.org/</dc:title>
     </cc:Agent>
    </dc:creator>
   </cc:Work>
  </rdf:RDF>
 </metadata>
 <defs>
  <style type="text/css">*{stroke-linejoin: round; stroke-linecap: butt}</style>
 </defs>
 <g id="figure_1">
  <g id="patch_1">
   <path d="M 0 331.548625 
L 907.389062 331.548625 
L 907.389062 0 
L 0 0 
z
" style="fill: #ffffff"/>
  </g>
  <g id="axes_1">
   <g id="patch_2">
    <path d="M 90.129063 268.368 
L 448.624063 268.368 
L 448.624063 7.2 
L 90.129063 7.2 
z
" style="fill: #ffffff"/>
   </g>
   <g id="matplotlib.axis_1">
    <g id="xtick_1">
     <g id="line2d_1">
      <path d="M 94.846102 268.368 
L 94.846102 7.2 
" clip-path="url(#p67bd23f021)" style="fill: none; stroke: #b0b0b0; stroke-opacity: 0.4; stroke-width: 0.8; stroke-linecap: square"/>
     </g>
     <g id="line2d_2">
      <defs>
       <path id="ma52b1f1931" d="M 0 0 
L 0 3.5 
" style="stroke: #000000; stroke-width: 0.8"/>
      </defs>
      <g>
       <use xlink:href="#ma52b1f1931" x="94.846102" y="268.368" style="stroke: #000000; stroke-width: 0.8"/>
      </g>
     </g>
     <g id="text_1">
      <!-- 0 -->
      <g transform="translate(89.119852 289.045187) scale(0.18 -0.18)">
       <defs>
        <path id="DejaVuSans-30" d="M 2034 4250 
Q 1547 4250 1301 3770 
Q 1056 3291 1056 2328 
Q 1056 1369 1301 889 
Q 1547 409 2034 409 
Q 2525 409 2770 889 
Q 3016 1369 3016 2328 
Q 3016 3291 2770 3770 
Q 2525 4250 2034 4250 
z
M 2034 4750 
Q 2819 4750 3233 4129 
Q 3647 3509 3647 2328 
Q 3647 1150 3233 529 
Q 2819 -91 2034 -91 
Q 1250 -91 836 529 
Q 422 1150 422 2328 
Q 422 3509 836 4129 
Q 1250 4750 2034 4750 
z
" transform="scale(0.015625)"/>
       </defs>
       <use xlink:href="#DejaVuSans-30"/>
      </g>
     </g>
    </g>
    <g id="xtick_2">
     <g id="line2d_3">
      <path d="M 189.186891 268.368 
L 189.186891 7.2 
" clip-path="url(#p67bd23f021)" style="fill: none; stroke: #b0b0b0; stroke-opacity: 0.4; stroke-width: 0.8; stroke-linecap: square"/>
     </g>
     <g id="line2d_4">
      <g>
       <use xlink:href="#ma52b1f1931" x="189.186891" y="268.368" style="stroke: #000000; stroke-width: 0.8"/>
      </g>
     </g>
     <g id="text_2">
      <!-- 2 -->
      <g transform="translate(183.460641 289.045187) scale(0.18 -0.18)">
       <defs>
        <path id="DejaVuSans-32" d="M 1228 531 
L 3431 531 
L 3431 0 
L 469 0 
L 469 531 
Q 828 903 1448 1529 
Q 2069 2156 2228 2338 
Q 2531 2678 2651 2914 
Q 2772 3150 2772 3378 
Q 2772 3750 2511 3984 
Q 2250 4219 1831 4219 
Q 1534 4219 1204 4116 
Q 875 4013 500 3803 
L 500 4441 
Q 881 4594 1212 4672 
Q 1544 4750 1819 4750 
Q 2544 4750 2975 4387 
Q 3406 4025 3406 3419 
Q 3406 3131 3298 2873 
Q 3191 2616 2906 2266 
Q 2828 2175 2409 1742 
Q 1991 1309 1228 531 
z
" transform="scale(0.015625)"/>
       </defs>
       <use xlink:href="#DejaVuSans-32"/>
      </g>
     </g>
    </g>
    <g id="xtick_3">
     <g id="line2d_5">
      <path d="M 283.527681 268.368 
L 283.527681 7.2 
" clip-path="url(#p67bd23f021)" style="fill: none; stroke: #b0b0b0; stroke-opacity: 0.4; stroke-width: 0.8; stroke-linecap: square"/>
     </g>
     <g id="line2d_6">
      <g>
       <use xlink:href="#ma52b1f1931" x="283.527681" y="268.368" style="stroke: #000000; stroke-width: 0.8"/>
      </g>
     </g>
     <g id="text_3">
      <!-- 4 -->
      <g transform="translate(277.801431 289.045187) scale(0.18 -0.18)">
       <defs>
        <path id="DejaVuSans-34" d="M 2419 4116 
L 825 1625 
L 2419 1625 
L 2419 4116 
z
M 2253 4666 
L 3047 4666 
L 3047 1625 
L 3713 1625 
L 3713 1100 
L 3047 1100 
L 3047 0 
L 2419 0 
L 2419 1100 
L 313 1100 
L 313 1709 
L 2253 4666 
z
" transform="scale(0.015625)"/>
       </defs>
       <use xlink:href="#DejaVuSans-34"/>
      </g>
     </g>
    </g>
    <g id="xtick_4">
     <g id="line2d_7">
      <path d="M 377.86847 268.368 
L 377.86847 7.2 
" clip-path="url(#p67bd23f021)" style="fill: none; stroke: #b0b0b0; stroke-opacity: 0.4; stroke-width: 0.8; stroke-linecap: square"/>
     </g>
     <g id="line2d_8">
      <g>
       <use xlink:href="#ma52b1f1931" x="377.86847" y="268.368" style="stroke: #000000; stroke-width: 0.8"/>
      </g>
     </g>
     <g id="text_4">
      <!-- 6 -->
      <g transform="translate(372.14222 289.045187) scale(0.18 -0.18)">
       <defs>
        <path id="DejaVuSans-36" d="M 2113 2584 
Q 1688 2584 1439 2293 
Q 1191 2003 1191 1497 
Q 1191 994 1439 701 
Q 1688 409 2113 409 
Q 2538 409 2786 701 
Q 3034 994 3034 1497 
Q 3034 2003 2786 2293 
Q 2538 2584 2113 2584 
z
M 3366 4563 
L 3366 3988 
Q 3128 4100 2886 4159 
Q 2644 4219 2406 4219 
Q 1781 4219 1451 3797 
Q 1122 3375 1075 2522 
Q 1259 2794 1537 2939 
Q 1816 3084 2150 3084 
Q 2853 3084 3261 2657 
Q 3669 2231 3669 1497 
Q 3669 778 3244 343 
Q 2819 -91 2113 -91 
Q 1303 -91 875 529 
Q 447 1150 447 2328 
Q 447 3434 972 4092 
Q 1497 4750 2381 4750 
Q 2619 4750 2861 4703 
Q 3103 4656 3366 4563 
z
" transform="scale(0.015625)"/>
       </defs>
       <use xlink:href="#DejaVuSans-36"/>
      </g>
     </g>
    </g>
    <g id="xtick_5">
     <g id="line2d_9">
      <path d="M 142.016497 268.368 
L 142.016497 7.2 
" clip-path="url(#p67bd23f021)" style="fill: none; stroke: #b0b0b0; stroke-opacity: 0.4; stroke-width: 0.8; stroke-linecap: square"/>
     </g>
     <g id="line2d_10">
      <defs>
       <path id="m8eac5152da" d="M 0 0 
L 0 2 
" style="stroke: #000000; stroke-width: 0.6"/>
      </defs>
      <g>
       <use xlink:href="#m8eac5152da" x="142.016497" y="268.368" style="stroke: #000000; stroke-width: 0.6"/>
      </g>
     </g>
    </g>
    <g id="xtick_6">
     <g id="line2d_11">
      <path d="M 236.357286 268.368 
L 236.357286 7.2 
" clip-path="url(#p67bd23f021)" style="fill: none; stroke: #b0b0b0; stroke-opacity: 0.4; stroke-width: 0.8; stroke-linecap: square"/>
     </g>
     <g id="line2d_12">
      <g>
       <use xlink:href="#m8eac5152da" x="236.357286" y="268.368" style="stroke: #000000; stroke-width: 0.6"/>
      </g>
     </g>
    </g>
    <g id="xtick_7">
     <g id="line2d_13">
      <path d="M 330.698076 268.368 
L 330.698076 7.2 
" clip-path="url(#p67bd23f021)" style="fill: none; stroke: #b0b0b0; stroke-opacity: 0.4; stroke-width: 0.8; stroke-linecap: square"/>
     </g>
     <g id="line2d_14">
      <g>
       <use xlink:href="#m8eac5152da" x="330.698076" y="268.368" style="stroke: #000000; stroke-width: 0.6"/>
      </g>
     </g>
    </g>
    <g id="xtick_8">
     <g id="line2d_15">
      <path d="M 425.038865 268.368 
L 425.038865 7.2 
" clip-path="url(#p67bd23f021)" style="fill: none; stroke: #b0b0b0; stroke-opacity: 0.4; stroke-width: 0.8; stroke-linecap: square"/>
     </g>
     <g id="line2d_16">
      <g>
       <use xlink:href="#m8eac5152da" x="425.038865" y="268.368" style="stroke: #000000; stroke-width: 0.6"/>
      </g>
     </g>
    </g>
    <g id="text_5">
     <!-- Distancia interatómica ($a_0$) -->
     <g transform="translate(120.656562 319.773313) scale(0.22 -0.22)">
      <defs>
       <path id="DejaVuSans-44" d="M 1259 4147 
L 1259 519 
L 2022 519 
Q 2988 519 3436 956 
Q 3884 1394 3884 2338 
Q 3884 3275 3436 3711 
Q 2988 4147 2022 4147 
L 1259 4147 
z
M 628 4666 
L 1925 4666 
Q 3281 4666 3915 4102 
Q 4550 3538 4550 2338 
Q 4550 1131 3912 565 
Q 3275 0 1925 0 
L 628 0 
L 628 4666 
z
" transform="scale(0.015625)"/>
       <path id="DejaVuSans-69" d="M 603 3500 
L 1178 3500 
L 1178 0 
L 603 0 
L 603 3500 
z
M 603 4863 
L 1178 4863 
L 1178 4134 
L 603 4134 
L 603 4863 
z
" transform="scale(0.015625)"/>
       <path id="DejaVuSans-73" d="M 2834 3397 
L 2834 2853 
Q 2591 2978 2328 3040 
Q 2066 3103 1784 3103 
Q 1356 3103 1142 2972 
Q 928 2841 928 2578 
Q 928 2378 1081 2264 
Q 1234 2150 1697 2047 
L 1894 2003 
Q 2506 1872 2764 1633 
Q 3022 1394 3022 966 
Q 3022 478 2636 193 
Q 2250 -91 1575 -91 
Q 1294 -91 989 -36 
Q 684 19 347 128 
L 347 722 
Q 666 556 975 473 
Q 1284 391 1588 391 
Q 1994 391 2212 530 
Q 2431 669 2431 922 
Q 2431 1156 2273 1281 
Q 2116 1406 1581 1522 
L 1381 1569 
Q 847 1681 609 1914 
Q 372 2147 372 2553 
Q 372 3047 722 3315 
Q 1072 3584 1716 3584 
Q 2034 3584 2315 3537 
Q 2597 3491 2834 3397 
z
" transform="scale(0.015625)"/>
       <path id="DejaVuSans-74" d="M 1172 4494 
L 1172 3500 
L 2356 3500 
L 2356 3053 
L 1172 3053 
L 1172 1153 
Q 1172 725 1289 603 
Q 1406 481 1766 481 
L 2356 481 
L 2356 0 
L 1766 0 
Q 1100 0 847 248 
Q 594 497 594 1153 
L 594 3053 
L 172 3053 
L 172 3500 
L 594 3500 
L 594 4494 
L 1172 4494 
z
" transform="scale(0.015625)"/>
       <path id="DejaVuSans-61" d="M 2194 1759 
Q 1497 1759 1228 1600 
Q 959 1441 959 1056 
Q 959 750 1161 570 
Q 1363 391 1709 391 
Q 2188 391 2477 730 
Q 2766 1069 2766 1631 
L 2766 1759 
L 2194 1759 
z
M 3341 1997 
L 3341 0 
L 2766 0 
L 2766 531 
Q 2569 213 2275 61 
Q 1981 -91 1556 -91 
Q 1019 -91 701 211 
Q 384 513 384 1019 
Q 384 1609 779 1909 
Q 1175 2209 1959 2209 
L 2766 2209 
L 2766 2266 
Q 2766 2663 2505 2880 
Q 2244 3097 1772 3097 
Q 1472 3097 1187 3025 
Q 903 2953 641 2809 
L 641 3341 
Q 956 3463 1253 3523 
Q 1550 3584 1831 3584 
Q 2591 3584 2966 3190 
Q 3341 2797 3341 1997 
z
" transform="scale(0.015625)"/>
       <path id="DejaVuSans-6e" d="M 3513 2113 
L 3513 0 
L 2938 0 
L 2938 2094 
Q 2938 2591 2744 2837 
Q 2550 3084 2163 3084 
Q 1697 3084 1428 2787 
Q 1159 2491 1159 1978 
L 1159 0 
L 581 0 
L 581 3500 
L 1159 3500 
L 1159 2956 
Q 1366 3272 1645 3428 
Q 1925 3584 2291 3584 
Q 2894 3584 3203 3211 
Q 3513 2838 3513 2113 
z
" transform="scale(0.015625)"/>
       <path id="DejaVuSans-63" d="M 3122 3366 
L 3122 2828 
Q 2878 2963 2633 3030 
Q 2388 3097 2138 3097 
Q 1578 3097 1268 2742 
Q 959 2388 959 1747 
Q 959 1106 1268 751 
Q 1578 397 2138 397 
Q 2388 397 2633 464 
Q 2878 531 3122 666 
L 3122 134 
Q 2881 22 2623 -34 
Q 2366 -91 2075 -91 
Q 1284 -91 818 406 
Q 353 903 353 1747 
Q 353 2603 823 3093 
Q 1294 3584 2113 3584 
Q 2378 3584 2631 3529 
Q 2884 3475 3122 3366 
z
" transform="scale(0.015625)"/>
       <path id="DejaVuSans-20" transform="scale(0.015625)"/>
       <path id="DejaVuSans-65" d="M 3597 1894 
L 3597 1613 
L 953 1613 
Q 991 1019 1311 708 
Q 1631 397 2203 397 
Q 2534 397 2845 478 
Q 3156 559 3463 722 
L 3463 178 
Q 3153 47 2828 -22 
Q 2503 -91 2169 -91 
Q 1331 -91 842 396 
Q 353 884 353 1716 
Q 353 2575 817 3079 
Q 1281 3584 2069 3584 
Q 2775 3584 3186 3129 
Q 3597 2675 3597 1894 
z
M 3022 2063 
Q 3016 2534 2758 2815 
Q 2500 3097 2075 3097 
Q 1594 3097 1305 2825 
Q 1016 2553 972 2059 
L 3022 2063 
z
" transform="scale(0.015625)"/>
       <path id="DejaVuSans-72" d="M 2631 2963 
Q 2534 3019 2420 3045 
Q 2306 3072 2169 3072 
Q 1681 3072 1420 2755 
Q 1159 2438 1159 1844 
L 1159 0 
L 581 0 
L 581 3500 
L 1159 3500 
L 1159 2956 
Q 1341 3275 1631 3429 
Q 1922 3584 2338 3584 
Q 2397 3584 2469 3576 
Q 2541 3569 2628 3553 
L 2631 2963 
z
" transform="scale(0.015625)"/>
       <path id="DejaVuSans-f3" d="M 1959 3097 
Q 1497 3097 1228 2736 
Q 959 2375 959 1747 
Q 959 1119 1226 758 
Q 1494 397 1959 397 
Q 2419 397 2687 759 
Q 2956 1122 2956 1747 
Q 2956 2369 2687 2733 
Q 2419 3097 1959 3097 
z
M 1959 3584 
Q 2709 3584 3137 3096 
Q 3566 2609 3566 1747 
Q 3566 888 3137 398 
Q 2709 -91 1959 -91 
Q 1206 -91 779 398 
Q 353 888 353 1747 
Q 353 2609 779 3096 
Q 1206 3584 1959 3584 
z
M 2394 5119 
L 3016 5119 
L 1998 3944 
L 1519 3944 
L 2394 5119 
z
" transform="scale(0.015625)"/>
       <path id="DejaVuSans-6d" d="M 3328 2828 
Q 3544 3216 3844 3400 
Q 4144 3584 4550 3584 
Q 5097 3584 5394 3201 
Q 5691 2819 5691 2113 
L 5691 0 
L 5113 0 
L 5113 2094 
Q 5113 2597 4934 2840 
Q 4756 3084 4391 3084 
Q 3944 3084 3684 2787 
Q 3425 2491 3425 1978 
L 3425 0 
L 2847 0 
L 2847 2094 
Q 2847 2600 2669 2842 
Q 2491 3084 2119 3084 
Q 1678 3084 1418 2786 
Q 1159 2488 1159 1978 
L 1159 0 
L 581 0 
L 581 3500 
L 1159 3500 
L 1159 2956 
Q 1356 3278 1631 3431 
Q 1906 3584 2284 3584 
Q 2666 3584 2933 3390 
Q 3200 3197 3328 2828 
z
" transform="scale(0.015625)"/>
       <path id="DejaVuSans-28" d="M 1984 4856 
Q 1566 4138 1362 3434 
Q 1159 2731 1159 2009 
Q 1159 1288 1364 580 
Q 1569 -128 1984 -844 
L 1484 -844 
Q 1016 -109 783 600 
Q 550 1309 550 2009 
Q 550 2706 781 3412 
Q 1013 4119 1484 4856 
L 1984 4856 
z
" transform="scale(0.015625)"/>
       <path id="DejaVuSans-Oblique-61" d="M 3438 1997 
L 3047 0 
L 2472 0 
L 2578 531 
Q 2325 219 2001 64 
Q 1678 -91 1281 -91 
Q 834 -91 548 182 
Q 263 456 263 884 
Q 263 1497 752 1853 
Q 1241 2209 2100 2209 
L 2900 2209 
L 2931 2363 
Q 2938 2388 2941 2417 
Q 2944 2447 2944 2509 
Q 2944 2788 2717 2942 
Q 2491 3097 2081 3097 
Q 1800 3097 1504 3025 
Q 1209 2953 897 2809 
L 997 3341 
Q 1322 3463 1633 3523 
Q 1944 3584 2234 3584 
Q 2853 3584 3176 3315 
Q 3500 3047 3500 2534 
Q 3500 2431 3484 2292 
Q 3469 2153 3438 1997 
z
M 2816 1759 
L 2241 1759 
Q 1534 1759 1195 1570 
Q 856 1381 856 984 
Q 856 709 1029 553 
Q 1203 397 1509 397 
Q 1978 397 2328 733 
Q 2678 1069 2791 1631 
L 2816 1759 
z
" transform="scale(0.015625)"/>
       <path id="DejaVuSans-29" d="M 513 4856 
L 1013 4856 
Q 1481 4119 1714 3412 
Q 1947 2706 1947 2009 
Q 1947 1309 1714 600 
Q 1481 -109 1013 -844 
L 513 -844 
Q 928 -128 1133 580 
Q 1338 1288 1338 2009 
Q 1338 2731 1133 3434 
Q 928 4138 513 4856 
z
" transform="scale(0.015625)"/>
      </defs>
      <use xlink:href="#DejaVuSans-44" transform="translate(0 0.015625)"/>
      <use xlink:href="#DejaVuSans-69" transform="translate(77.001953 0.015625)"/>
      <use xlink:href="#DejaVuSans-73" transform="translate(104.785156 0.015625)"/>
      <use xlink:href="#DejaVuSans-74" transform="translate(156.884766 0.015625)"/>
      <use xlink:href="#DejaVuSans-61" transform="translate(196.09375 0.015625)"/>
      <use xlink:href="#DejaVuSans-6e" transform="translate(257.373047 0.015625)"/>
      <use xlink:href="#DejaVuSans-63" transform="translate(320.751953 0.015625)"/>
      <use xlink:href="#DejaVuSans-69" transform="translate(375.732422 0.015625)"/>
      <use xlink:href="#DejaVuSans-61" transform="translate(403.515625 0.015625)"/>
      <use xlink:href="#DejaVuSans-20" transform="translate(464.794922 0.015625)"/>
      <use xlink:href="#DejaVuSans-69" transform="translate(496.582031 0.015625)"/>
      <use xlink:href="#DejaVuSans-6e" transform="translate(524.365234 0.015625)"/>
      <use xlink:href="#DejaVuSans-74" transform="translate(587.744141 0.015625)"/>
      <use xlink:href="#DejaVuSans-65" transform="translate(626.953125 0.015625)"/>
      <use xlink:href="#DejaVuSans-72" transform="translate(688.476562 0.015625)"/>
      <use xlink:href="#DejaVuSans-61" transform="translate(729.589844 0.015625)"/>
      <use xlink:href="#DejaVuSans-74" transform="translate(790.869141 0.015625)"/>
      <use xlink:href="#DejaVuSans-f3" transform="translate(830.078125 0.015625)"/>
      <use xlink:href="#DejaVuSans-6d" transform="translate(891.259766 0.015625)"/>
      <use xlink:href="#DejaVuSans-69" transform="translate(988.671875 0.015625)"/>
      <use xlink:href="#DejaVuSans-63" transform="translate(1016.455078 0.015625)"/>
      <use xlink:href="#DejaVuSans-61" transform="translate(1071.435547 0.015625)"/>
      <use xlink:href="#DejaVuSans-20" transform="translate(1132.714844 0.015625)"/>
      <use xlink:href="#DejaVuSans-28" transform="translate(1164.501953 0.015625)"/>
      <use xlink:href="#DejaVuSans-Oblique-61" transform="translate(1203.515625 0.015625)"/>
      <use xlink:href="#DejaVuSans-30" transform="translate(1264.794922 -16.390625) scale(0.7)"/>
      <use xlink:href="#DejaVuSans-29" transform="translate(1312.06543 0.015625)"/>
     </g>
    </g>
   </g>
   <g id="matplotlib.axis_2">
    <g id="ytick_1">
     <g id="line2d_17">
      <path d="M 90.129063 239.187218 
L 448.624063 239.187218 
" clip-path="url(#p67bd23f021)" style="fill: none; stroke: #b0b0b0; stroke-opacity: 0.4; stroke-width: 0.8; stroke-linecap: square"/>
     </g>
     <g id="line2d_18">
      <defs>
       <path id="mdd6bd54c07" d="M 0 0 
L -3.5 0 
" style="stroke: #000000; stroke-width: 0.8"/>
      </defs>
      <g>
       <use xlink:href="#mdd6bd54c07" x="90.129063" y="239.187218" style="stroke: #000000; stroke-width: 0.8"/>
      </g>
     </g>
     <g id="text_6">
      <!-- −1.0 -->
      <g transform="translate(39.42 246.025812) scale(0.18 -0.18)">
       <defs>
        <path id="DejaVuSans-2212" d="M 678 2272 
L 4684 2272 
L 4684 1741 
L 678 1741 
L 678 2272 
z
" transform="scale(0.015625)"/>
        <path id="DejaVuSans-31" d="M 794 531 
L 1825 531 
L 1825 4091 
L 703 3866 
L 703 4441 
L 1819 4666 
L 2450 4666 
L 2450 531 
L 3481 531 
L 3481 0 
L 794 0 
L 794 531 
z
" transform="scale(0.015625)"/>
        <path id="DejaVuSans-2e" d="M 684 794 
L 1344 794 
L 1344 0 
L 684 0 
L 684 794 
z
" transform="scale(0.015625)"/>
       </defs>
       <use xlink:href="#DejaVuSans-2212"/>
       <use xlink:href="#DejaVuSans-31" transform="translate(83.789062 0)"/>
       <use xlink:href="#DejaVuSans-2e" transform="translate(147.412109 0)"/>
       <use xlink:href="#DejaVuSans-30" transform="translate(179.199219 0)"/>
      </g>
     </g>
    </g>
    <g id="ytick_2">
     <g id="line2d_19">
      <path d="M 90.129063 166.235263 
L 448.624063 166.235263 
" clip-path="url(#p67bd23f021)" style="fill: none; stroke: #b0b0b0; stroke-opacity: 0.4; stroke-width: 0.8; stroke-linecap: square"/>
     </g>
     <g id="line2d_20">
      <g>
       <use xlink:href="#mdd6bd54c07" x="90.129063" y="166.235263" style="stroke: #000000; stroke-width: 0.8"/>
      </g>
     </g>
     <g id="text_7">
      <!-- −0.5 -->
      <g transform="translate(39.42 173.073856) scale(0.18 -0.18)">
       <defs>
        <path id="DejaVuSans-35" d="M 691 4666 
L 3169 4666 
L 3169 4134 
L 1269 4134 
L 1269 2991 
Q 1406 3038 1543 3061 
Q 1681 3084 1819 3084 
Q 2600 3084 3056 2656 
Q 3513 2228 3513 1497 
Q 3513 744 3044 326 
Q 2575 -91 1722 -91 
Q 1428 -91 1123 -41 
Q 819 9 494 109 
L 494 744 
Q 775 591 1075 516 
Q 1375 441 1709 441 
Q 2250 441 2565 725 
Q 2881 1009 2881 1497 
Q 2881 1984 2565 2268 
Q 2250 2553 1709 2553 
Q 1456 2553 1204 2497 
Q 953 2441 691 2322 
L 691 4666 
z
" transform="scale(0.015625)"/>
       </defs>
       <use xlink:href="#DejaVuSans-2212"/>
       <use xlink:href="#DejaVuSans-30" transform="translate(83.789062 0)"/>
       <use xlink:href="#DejaVuSans-2e" transform="translate(147.412109 0)"/>
       <use xlink:href="#DejaVuSans-35" transform="translate(179.199219 0)"/>
      </g>
     </g>
    </g>
    <g id="ytick_3">
     <g id="line2d_21">
      <path d="M 90.129063 93.283307 
L 448.624063 93.283307 
" clip-path="url(#p67bd23f021)" style="fill: none; stroke: #b0b0b0; stroke-opacity: 0.4; stroke-width: 0.8; stroke-linecap: square"/>
     </g>
     <g id="line2d_22">
      <g>
       <use xlink:href="#mdd6bd54c07" x="90.129063" y="93.283307" style="stroke: #000000; stroke-width: 0.8"/>
      </g>
     </g>
     <g id="text_8">
      <!-- 0.0 -->
      <g transform="translate(54.503438 100.121901) scale(0.18 -0.18)">
       <use xlink:href="#DejaVuSans-30"/>
       <use xlink:href="#DejaVuSans-2e" transform="translate(63.623047 0)"/>
       <use xlink:href="#DejaVuSans-30" transform="translate(95.410156 0)"/>
      </g>
     </g>
    </g>
    <g id="ytick_4">
     <g id="line2d_23">
      <path d="M 90.129063 20.331352 
L 448.624063 20.331352 
" clip-path="url(#p67bd23f021)" style="fill: none; stroke: #b0b0b0; stroke-opacity: 0.4; stroke-width: 0.8; stroke-linecap: square"/>
     </g>
     <g id="line2d_24">
      <g>
       <use xlink:href="#mdd6bd54c07" x="90.129063" y="20.331352" style="stroke: #000000; stroke-width: 0.8"/>
      </g>
     </g>
     <g id="text_9">
      <!-- 0.5 -->
      <g transform="translate(54.503438 27.169946) scale(0.18 -0.18)">
       <use xlink:href="#DejaVuSans-30"/>
       <use xlink:href="#DejaVuSans-2e" transform="translate(63.623047 0)"/>
       <use xlink:href="#DejaVuSans-35" transform="translate(95.410156 0)"/>
      </g>
     </g>
    </g>
    <g id="ytick_5">
     <g id="line2d_25">
      <path d="M 90.129063 202.71124 
L 448.624063 202.71124 
" clip-path="url(#p67bd23f021)" style="fill: none; stroke: #b0b0b0; stroke-opacity: 0.4; stroke-width: 0.8; stroke-linecap: square"/>
     </g>
     <g id="line2d_26">
      <defs>
       <path id="m3147a28d6f" d="M 0 0 
L -2 0 
" style="stroke: #000000; stroke-width: 0.6"/>
      </defs>
      <g>
       <use xlink:href="#m3147a28d6f" x="90.129063" y="202.71124" style="stroke: #000000; stroke-width: 0.6"/>
      </g>
     </g>
    </g>
    <g id="ytick_6">
     <g id="line2d_27">
      <path d="M 90.129063 129.759285 
L 448.624063 129.759285 
" clip-path="url(#p67bd23f021)" style="fill: none; stroke: #b0b0b0; stroke-opacity: 0.4; stroke-width: 0.8; stroke-linecap: square"/>
     </g>
     <g id="line2d_28">
      <g>
       <use xlink:href="#m3147a28d6f" x="90.129063" y="129.759285" style="stroke: #000000; stroke-width: 0.6"/>
      </g>
     </g>
    </g>
    <g id="ytick_7">
     <g id="line2d_29">
      <path d="M 90.129063 56.80733 
L 448.624063 56.80733 
" clip-path="url(#p67bd23f021)" style="fill: none; stroke: #b0b0b0; stroke-opacity: 0.4; stroke-width: 0.8; stroke-linecap: square"/>
     </g>
     <g id="line2d_30">
      <g>
       <use xlink:href="#m3147a28d6f" x="90.129063" y="56.80733" style="stroke: #000000; stroke-width: 0.6"/>
      </g>
     </g>
    </g>
    <g id="text_10">
     <!-- Energía ($\text{E}_\text{h}$) -->
     <g transform="translate(24.8 204.114) rotate(-90) scale(0.22 -0.22)">
      <defs>
       <path id="DejaVuSans-45" d="M 628 4666 
L 3578 4666 
L 3578 4134 
L 1259 4134 
L 1259 2753 
L 3481 2753 
L 3481 2222 
L 1259 2222 
L 1259 531 
L 3634 531 
L 3634 0 
L 628 0 
L 628 4666 
z
" transform="scale(0.015625)"/>
       <path id="DejaVuSans-67" d="M 2906 1791 
Q 2906 2416 2648 2759 
Q 2391 3103 1925 3103 
Q 1463 3103 1205 2759 
Q 947 2416 947 1791 
Q 947 1169 1205 825 
Q 1463 481 1925 481 
Q 2391 481 2648 825 
Q 2906 1169 2906 1791 
z
M 3481 434 
Q 3481 -459 3084 -895 
Q 2688 -1331 1869 -1331 
Q 1566 -1331 1297 -1286 
Q 1028 -1241 775 -1147 
L 775 -588 
Q 1028 -725 1275 -790 
Q 1522 -856 1778 -856 
Q 2344 -856 2625 -561 
Q 2906 -266 2906 331 
L 2906 616 
Q 2728 306 2450 153 
Q 2172 0 1784 0 
Q 1141 0 747 490 
Q 353 981 353 1791 
Q 353 2603 747 3093 
Q 1141 3584 1784 3584 
Q 2172 3584 2450 3431 
Q 2728 3278 2906 2969 
L 2906 3500 
L 3481 3500 
L 3481 434 
z
" transform="scale(0.015625)"/>
       <path id="DejaVuSans-ed" d="M 1322 5119 
L 1944 5119 
L 926 3944 
L 447 3944 
L 1322 5119 
z
M 603 3500 
L 1178 3500 
L 1178 0 
L 603 0 
L 603 3500 
z
M 891 3584 
L 891 3584 
z
" transform="scale(0.015625)"/>
       <path id="DejaVuSans-68" d="M 3513 2113 
L 3513 0 
L 2938 0 
L 2938 2094 
Q 2938 2591 2744 2837 
Q 2550 3084 2163 3084 
Q 1697 3084 1428 2787 
Q 1159 2491 1159 1978 
L 1159 0 
L 581 0 
L 581 4863 
L 1159 4863 
L 1159 2956 
Q 1366 3272 1645 3428 
Q 1925 3584 2291 3584 
Q 2894 3584 3203 3211 
Q 3513 2838 3513 2113 
z
" transform="scale(0.015625)"/>
      </defs>
      <use xlink:href="#DejaVuSans-45" transform="translate(0 0.015625)"/>
      <use xlink:href="#DejaVuSans-6e" transform="translate(63.183594 0.015625)"/>
      <use xlink:href="#DejaVuSans-65" transform="translate(126.5625 0.015625)"/>
      <use xlink:href="#DejaVuSans-72" transform="translate(188.085938 0.015625)"/>
      <use xlink:href="#DejaVuSans-67" transform="translate(229.199219 0.015625)"/>
      <use xlink:href="#DejaVuSans-ed" transform="translate(292.675781 0.015625)"/>
      <use xlink:href="#DejaVuSans-61" transform="translate(320.458984 0.015625)"/>
      <use xlink:href="#DejaVuSans-20" transform="translate(381.738281 0.015625)"/>
      <use xlink:href="#DejaVuSans-28" transform="translate(413.525391 0.015625)"/>
      <use xlink:href="#DejaVuSans-45" transform="translate(452.539062 0.015625)"/>
      <use xlink:href="#DejaVuSans-68" transform="translate(516.679688 -16.390625) scale(0.7)"/>
      <use xlink:href="#DejaVuSans-29" transform="translate(563.779297 0.015625)"/>
     </g>
    </g>
   </g>
   <g id="line2d_31">
    <path d="M 90.129063 229.438219 
L 448.624063 229.438219 
" clip-path="url(#p67bd23f021)" style="fill: none; stroke-dasharray: 1.5,2.475; stroke-dashoffset: 0; stroke: #000000; stroke-width: 1.5"/>
   </g>
   <g id="line2d_32">
    <path d="M 109.845608 -1 
L 111.35574 40.899949 
L 113.71426 88.625319 
L 116.07278 124.50735 
L 118.431299 152.093798 
L 120.789819 173.659818 
L 123.148339 190.733507 
L 125.506859 204.378741 
L 127.865378 215.358536 
L 130.223898 224.232459 
L 132.582418 231.419915 
L 134.940938 237.239975 
L 137.299457 241.939453 
L 139.657977 245.712072 
L 142.016497 248.711913 
L 144.375016 251.063475 
L 146.733536 252.868278 
L 149.092056 254.210011 
L 151.450576 255.158827 
L 153.809095 255.773387 
L 156.167615 256.10346 
L 158.526135 256.191185 
L 160.884655 256.072495 
L 163.243174 255.777779 
L 165.601694 255.333182 
L 170.318734 254.078891 
L 175.035773 252.449007 
L 179.752813 250.544733 
L 186.828372 247.330347 
L 193.903931 243.839616 
L 205.69653 237.733939 
L 222.206168 229.202176 
L 231.640247 224.560146 
L 241.074326 220.177685 
L 250.508405 216.093019 
L 257.583964 213.23694 
L 264.659523 210.561853 
L 271.735082 208.066939 
L 281.169161 205.013975 
L 290.60324 202.260354 
L 300.037319 199.787326 
L 309.471398 197.574044 
L 318.905477 195.598799 
L 328.339556 193.840235 
L 337.773635 192.277869 
L 349.566234 190.571776 
L 361.358832 189.107669 
L 373.151431 187.853524 
L 387.302549 186.58476 
L 401.453668 185.530961 
L 417.963306 184.520487 
L 436.831464 183.590131 
L 460.416661 182.673972 
L 488.718898 181.823238 
L 524.096694 181.003926 
L 568.908569 180.202532 
L 627.871562 179.386657 
L 700.985674 178.606079 
L 792.967944 177.857956 
L 804.760543 177.776075 
L 804.760543 177.776075 
" clip-path="url(#p67bd23f021)" style="fill: none; stroke: #c51f05; stroke-width: 5; stroke-linecap: square"/>
   </g>
   <g id="line2d_33">
    <path d="M 155.58481 -1 
L 156.167615 1.868441 
L 158.526135 12.625997 
L 160.884655 22.60811 
L 163.243174 31.88306 
L 165.601694 40.513873 
L 167.960214 48.557392 
L 170.318734 56.065933 
L 172.677253 63.086278 
L 175.035773 69.661115 
L 177.394293 75.828649 
L 179.752813 81.622858 
L 182.111332 87.074281 
L 184.469852 92.210016 
L 186.828372 97.054112 
L 189.186891 101.62796 
L 191.545411 105.950604 
L 196.262451 113.908459 
L 200.97949 121.043773 
L 205.69653 127.451561 
L 210.413569 133.21148 
L 215.130609 138.391803 
L 219.847648 143.052176 
L 224.564687 147.245419 
L 229.281727 151.018589 
L 233.998766 154.413935 
L 238.715806 157.469221 
L 243.432845 160.218426 
L 248.149885 162.692045 
L 252.866924 164.917282 
L 257.583964 166.918709 
L 262.301003 168.718274 
L 267.018043 170.335679 
L 274.093602 172.458578 
L 281.169161 174.263718 
L 288.24472 175.7961 
L 295.32028 177.094233 
L 302.395839 178.191113 
L 311.829918 179.38859 
L 321.263997 180.333561 
L 330.698076 181.070778 
L 342.490674 181.754829 
L 354.283273 182.226741 
L 368.434391 182.574145 
L 384.94403 182.751087 
L 406.170707 182.725404 
L 432.114424 182.455005 
L 474.56778 181.760631 
L 573.625609 180.103404 
L 642.022681 179.216566 
L 719.853832 178.434527 
L 804.760543 177.776074 
L 804.760543 177.776074 
" clip-path="url(#p67bd23f021)" style="fill: none; stroke: #f9b80d; stroke-width: 5; stroke-linecap: square"/>
   </g>
   <g id="line2d_34">
    <path d="M 109.845608 -1 
L 111.35574 40.899949 
L 113.71426 88.625319 
L 116.07278 124.50735 
L 118.431299 152.093798 
L 120.789819 173.659818 
L 123.148339 190.733507 
L 125.506859 204.378741 
L 127.865378 215.358536 
L 130.223898 224.232459 
L 132.582418 231.419915 
L 134.940938 237.239975 
L 137.299457 241.939453 
L 139.657977 245.712072 
L 142.016497 248.711913 
L 144.375016 251.063475 
L 146.733536 252.868278 
L 149.092056 254.210011 
L 151.450576 255.158827 
L 153.809095 255.773387 
L 156.167615 256.10346 
L 158.526135 256.191185 
L 160.884655 256.072495 
L 163.243174 255.777779 
L 165.601694 255.333182 
L 170.318734 254.078891 
L 175.035773 252.449007 
L 179.752813 250.544733 
L 186.828372 247.330347 
L 193.903931 243.839616 
L 200.97949 240.35247 
L 205.69653 238.453258 
L 210.413569 236.882055 
L 215.130609 235.583278 
L 219.847648 234.510467 
L 224.564687 233.624804 
L 231.640247 232.578122 
L 238.715806 231.794065 
L 248.149885 231.045962 
L 257.583964 230.537116 
L 269.376563 230.123049 
L 285.886201 229.793713 
L 309.471398 229.57926 
L 351.924753 229.464695 
L 486.360378 229.437989 
L 804.760543 229.437927 
L 804.760543 229.437927 
" clip-path="url(#p67bd23f021)" style="fill: none; stroke-dasharray: 32,8,5,8; stroke-dashoffset: 0; stroke: #aecb28; stroke-width: 5"/>
   </g>
   <g id="LineCollection_1">
    <path d="M 198.62097 268.368 
L 198.62097 241.445554 
" clip-path="url(#p67bd23f021)" style="fill: none; stroke-dasharray: 5.55,2.4; stroke-dashoffset: 0; stroke: #000000; stroke-width: 1.5"/>
   </g>
   <g id="line2d_35">
    <defs>
     <path id="m035988ce2f" d="M 0 3.5 
C 0.928211 3.5 1.81853 3.131218 2.474874 2.474874 
C 3.131218 1.81853 3.5 0.928211 3.5 0 
C 3.5 -0.928211 3.131218 -1.81853 2.474874 -2.474874 
C 1.81853 -3.131218 0.928211 -3.5 0 -3.5 
C -0.928211 -3.5 -1.81853 -3.131218 -2.474874 -2.474874 
C -3.131218 -1.81853 -3.5 -0.928211 -3.5 0 
C -3.5 0.928211 -3.131218 1.81853 -2.474874 2.474874 
C -1.81853 3.131218 -0.928211 3.5 0 3.5 
z
" style="stroke: #000000"/>
    </defs>
    <g clip-path="url(#p67bd23f021)">
     <use xlink:href="#m035988ce2f" x="198.62097" y="241.445554" style="stroke: #000000"/>
    </g>
   </g>
   <g id="patch_3">
    <path d="M 90.129063 268.368 
L 90.129063 7.2 
" style="fill: none; stroke: #000000; stroke-width: 0.8; stroke-linejoin: miter; stroke-linecap: square"/>
   </g>
   <g id="patch_4">
    <path d="M 448.624063 268.368 
L 448.624063 7.2 
" style="fill: none; stroke: #000000; stroke-width: 0.8; stroke-linejoin: miter; stroke-linecap: square"/>
   </g>
   <g id="patch_5">
    <path d="M 90.129063 268.368 
L 448.624062 268.368 
" style="fill: none; stroke: #000000; stroke-width: 0.8; stroke-linejoin: miter; stroke-linecap: square"/>
   </g>
   <g id="patch_6">
    <path d="M 90.129063 7.2 
L 448.624062 7.2 
" style="fill: none; stroke: #000000; stroke-width: 0.8; stroke-linejoin: miter; stroke-linecap: square"/>
   </g>
   <g id="legend_1">
    <g id="patch_7">
     <path d="M 305.591563 97.1154 
L 436.528062 97.1154 
Q 439.984062 97.1154 439.984062 93.6594 
L 439.984062 19.296 
Q 439.984062 15.84 436.528062 15.84 
L 305.591563 15.84 
Q 302.135562 15.84 302.135562 19.296 
L 302.135562 93.6594 
Q 302.135562 97.1154 305.591563 97.1154 
z
" style="fill: #ffffff; opacity: 0.8; stroke: #cccccc; stroke-linejoin: miter"/>
    </g>
    <g id="line2d_36">
     <path d="M 309.047562 29.8341 
L 332.375563 29.8341 
L 355.703562 29.8341 
" style="fill: none; stroke: #c51f05; stroke-width: 5; stroke-linecap: square"/>
    </g>
    <g id="text_11">
     <!-- RHF(+) -->
     <g transform="translate(369.527562 35.8821) scale(0.1728 -0.1728)">
      <defs>
       <path id="DejaVuSans-52" d="M 2841 2188 
Q 3044 2119 3236 1894 
Q 3428 1669 3622 1275 
L 4263 0 
L 3584 0 
L 2988 1197 
Q 2756 1666 2539 1819 
Q 2322 1972 1947 1972 
L 1259 1972 
L 1259 0 
L 628 0 
L 628 4666 
L 2053 4666 
Q 2853 4666 3247 4331 
Q 3641 3997 3641 3322 
Q 3641 2881 3436 2590 
Q 3231 2300 2841 2188 
z
M 1259 4147 
L 1259 2491 
L 2053 2491 
Q 2509 2491 2742 2702 
Q 2975 2913 2975 3322 
Q 2975 3731 2742 3939 
Q 2509 4147 2053 4147 
L 1259 4147 
z
" transform="scale(0.015625)"/>
       <path id="DejaVuSans-48" d="M 628 4666 
L 1259 4666 
L 1259 2753 
L 3553 2753 
L 3553 4666 
L 4184 4666 
L 4184 0 
L 3553 0 
L 3553 2222 
L 1259 2222 
L 1259 0 
L 628 0 
L 628 4666 
z
" transform="scale(0.015625)"/>
       <path id="DejaVuSans-46" d="M 628 4666 
L 3309 4666 
L 3309 4134 
L 1259 4134 
L 1259 2759 
L 3109 2759 
L 3109 2228 
L 1259 2228 
L 1259 0 
L 628 0 
L 628 4666 
z
" transform="scale(0.015625)"/>
       <path id="DejaVuSans-2b" d="M 2944 4013 
L 2944 2272 
L 4684 2272 
L 4684 1741 
L 2944 1741 
L 2944 0 
L 2419 0 
L 2419 1741 
L 678 1741 
L 678 2272 
L 2419 2272 
L 2419 4013 
L 2944 4013 
z
" transform="scale(0.015625)"/>
      </defs>
      <use xlink:href="#DejaVuSans-52"/>
      <use xlink:href="#DejaVuSans-48" transform="translate(69.482422 0)"/>
      <use xlink:href="#DejaVuSans-46" transform="translate(144.677734 0)"/>
      <use xlink:href="#DejaVuSans-28" transform="translate(202.197266 0)"/>
      <use xlink:href="#DejaVuSans-2b" transform="translate(241.210938 0)"/>
      <use xlink:href="#DejaVuSans-29" transform="translate(325 0)"/>
     </g>
    </g>
    <g id="line2d_37">
     <path d="M 309.047562 55.1979 
L 332.375563 55.1979 
L 355.703562 55.1979 
" style="fill: none; stroke: #f9b80d; stroke-width: 5; stroke-linecap: square"/>
    </g>
    <g id="text_12">
     <!-- RHF(-) -->
     <g transform="translate(369.527562 61.2459) scale(0.1728 -0.1728)">
      <defs>
       <path id="DejaVuSans-2d" d="M 313 2009 
L 1997 2009 
L 1997 1497 
L 313 1497 
L 313 2009 
z
" transform="scale(0.015625)"/>
      </defs>
      <use xlink:href="#DejaVuSans-52"/>
      <use xlink:href="#DejaVuSans-48" transform="translate(69.482422 0)"/>
      <use xlink:href="#DejaVuSans-46" transform="translate(144.677734 0)"/>
      <use xlink:href="#DejaVuSans-28" transform="translate(202.197266 0)"/>
      <use xlink:href="#DejaVuSans-2d" transform="translate(241.210938 0)"/>
      <use xlink:href="#DejaVuSans-29" transform="translate(277.294922 0)"/>
     </g>
    </g>
    <g id="line2d_38">
     <path d="M 309.047562 80.5617 
L 332.375563 80.5617 
L 355.703562 80.5617 
" style="fill: none; stroke-dasharray: 32,8,5,8; stroke-dashoffset: 0; stroke: #aecb28; stroke-width: 5"/>
    </g>
    <g id="text_13">
     <!-- UHF(+) -->
     <g transform="translate(369.527562 86.6097) scale(0.1728 -0.1728)">
      <defs>
       <path id="DejaVuSans-55" d="M 556 4666 
L 1191 4666 
L 1191 1831 
Q 1191 1081 1462 751 
Q 1734 422 2344 422 
Q 2950 422 3222 751 
Q 3494 1081 3494 1831 
L 3494 4666 
L 4128 4666 
L 4128 1753 
Q 4128 841 3676 375 
Q 3225 -91 2344 -91 
Q 1459 -91 1007 375 
Q 556 841 556 1753 
L 556 4666 
z
" transform="scale(0.015625)"/>
      </defs>
      <use xlink:href="#DejaVuSans-55"/>
      <use xlink:href="#DejaVuSans-48" transform="translate(73.193359 0)"/>
      <use xlink:href="#DejaVuSans-46" transform="translate(148.388672 0)"/>
      <use xlink:href="#DejaVuSans-28" transform="translate(205.908203 0)"/>
      <use xlink:href="#DejaVuSans-2b" transform="translate(244.921875 0)"/>
      <use xlink:href="#DejaVuSans-29" transform="translate(328.710938 0)"/>
     </g>
    </g>
   </g>
  </g>
  <g id="axes_2">
   <g id="patch_8">
    <path d="M 541.694062 268.368 
L 900.189062 268.368 
L 900.189062 7.2 
L 541.694062 7.2 
z
" style="fill: #ffffff"/>
   </g>
   <g id="matplotlib.axis_3">
    <g id="xtick_9">
     <g id="line2d_39">
      <path d="M 541.694062 268.368 
L 541.694062 7.2 
" clip-path="url(#p2ade4df898)" style="fill: none; stroke: #b0b0b0; stroke-opacity: 0.4; stroke-width: 0.8; stroke-linecap: square"/>
     </g>
     <g id="line2d_40">
      <g>
       <use xlink:href="#ma52b1f1931" x="541.694062" y="268.368" style="stroke: #000000; stroke-width: 0.8"/>
      </g>
     </g>
     <g id="text_14">
      <!-- 0 -->
      <g transform="translate(535.967812 289.045187) scale(0.18 -0.18)">
       <use xlink:href="#DejaVuSans-30"/>
      </g>
     </g>
    </g>
    <g id="xtick_10">
     <g id="line2d_41">
      <path d="M 637.292729 268.368 
L 637.292729 7.2 
" clip-path="url(#p2ade4df898)" style="fill: none; stroke: #b0b0b0; stroke-opacity: 0.4; stroke-width: 0.8; stroke-linecap: square"/>
     </g>
     <g id="line2d_42">
      <g>
       <use xlink:href="#ma52b1f1931" x="637.292729" y="268.368" style="stroke: #000000; stroke-width: 0.8"/>
      </g>
     </g>
     <g id="text_15">
      <!-- 2 -->
      <g transform="translate(631.566479 289.045187) scale(0.18 -0.18)">
       <use xlink:href="#DejaVuSans-32"/>
      </g>
     </g>
    </g>
    <g id="xtick_11">
     <g id="line2d_43">
      <path d="M 732.891396 268.368 
L 732.891396 7.2 
" clip-path="url(#p2ade4df898)" style="fill: none; stroke: #b0b0b0; stroke-opacity: 0.4; stroke-width: 0.8; stroke-linecap: square"/>
     </g>
     <g id="line2d_44">
      <g>
       <use xlink:href="#ma52b1f1931" x="732.891396" y="268.368" style="stroke: #000000; stroke-width: 0.8"/>
      </g>
     </g>
     <g id="text_16">
      <!-- 4 -->
      <g transform="translate(727.165146 289.045187) scale(0.18 -0.18)">
       <use xlink:href="#DejaVuSans-34"/>
      </g>
     </g>
    </g>
    <g id="xtick_12">
     <g id="line2d_45">
      <path d="M 828.490062 268.368 
L 828.490062 7.2 
" clip-path="url(#p2ade4df898)" style="fill: none; stroke: #b0b0b0; stroke-opacity: 0.4; stroke-width: 0.8; stroke-linecap: square"/>
     </g>
     <g id="line2d_46">
      <g>
       <use xlink:href="#ma52b1f1931" x="828.490062" y="268.368" style="stroke: #000000; stroke-width: 0.8"/>
      </g>
     </g>
     <g id="text_17">
      <!-- 6 -->
      <g transform="translate(822.763812 289.045187) scale(0.18 -0.18)">
       <use xlink:href="#DejaVuSans-36"/>
      </g>
     </g>
    </g>
    <g id="xtick_13">
     <g id="line2d_47">
      <path d="M 589.493396 268.368 
L 589.493396 7.2 
" clip-path="url(#p2ade4df898)" style="fill: none; stroke: #b0b0b0; stroke-opacity: 0.4; stroke-width: 0.8; stroke-linecap: square"/>
     </g>
     <g id="line2d_48">
      <g>
       <use xlink:href="#m8eac5152da" x="589.493396" y="268.368" style="stroke: #000000; stroke-width: 0.6"/>
      </g>
     </g>
    </g>
    <g id="xtick_14">
     <g id="line2d_49">
      <path d="M 685.092062 268.368 
L 685.092062 7.2 
" clip-path="url(#p2ade4df898)" style="fill: none; stroke: #b0b0b0; stroke-opacity: 0.4; stroke-width: 0.8; stroke-linecap: square"/>
     </g>
     <g id="line2d_50">
      <g>
       <use xlink:href="#m8eac5152da" x="685.092062" y="268.368" style="stroke: #000000; stroke-width: 0.6"/>
      </g>
     </g>
    </g>
    <g id="xtick_15">
     <g id="line2d_51">
      <path d="M 780.690729 268.368 
L 780.690729 7.2 
" clip-path="url(#p2ade4df898)" style="fill: none; stroke: #b0b0b0; stroke-opacity: 0.4; stroke-width: 0.8; stroke-linecap: square"/>
     </g>
     <g id="line2d_52">
      <g>
       <use xlink:href="#m8eac5152da" x="780.690729" y="268.368" style="stroke: #000000; stroke-width: 0.6"/>
      </g>
     </g>
    </g>
    <g id="xtick_16">
     <g id="line2d_53">
      <path d="M 876.289396 268.368 
L 876.289396 7.2 
" clip-path="url(#p2ade4df898)" style="fill: none; stroke: #b0b0b0; stroke-opacity: 0.4; stroke-width: 0.8; stroke-linecap: square"/>
     </g>
     <g id="line2d_54">
      <g>
       <use xlink:href="#m8eac5152da" x="876.289396" y="268.368" style="stroke: #000000; stroke-width: 0.6"/>
      </g>
     </g>
    </g>
    <g id="text_18">
     <!-- Distancia interatómica ($a_0$) -->
     <g transform="translate(572.221562 319.773313) scale(0.22 -0.22)">
      <use xlink:href="#DejaVuSans-44" transform="translate(0 0.015625)"/>
      <use xlink:href="#DejaVuSans-69" transform="translate(77.001953 0.015625)"/>
      <use xlink:href="#DejaVuSans-73" transform="translate(104.785156 0.015625)"/>
      <use xlink:href="#DejaVuSans-74" transform="translate(156.884766 0.015625)"/>
      <use xlink:href="#DejaVuSans-61" transform="translate(196.09375 0.015625)"/>
      <use xlink:href="#DejaVuSans-6e" transform="translate(257.373047 0.015625)"/>
      <use xlink:href="#DejaVuSans-63" transform="translate(320.751953 0.015625)"/>
      <use xlink:href="#DejaVuSans-69" transform="translate(375.732422 0.015625)"/>
      <use xlink:href="#DejaVuSans-61" transform="translate(403.515625 0.015625)"/>
      <use xlink:href="#DejaVuSans-20" transform="translate(464.794922 0.015625)"/>
      <use xlink:href="#DejaVuSans-69" transform="translate(496.582031 0.015625)"/>
      <use xlink:href="#DejaVuSans-6e" transform="translate(524.365234 0.015625)"/>
      <use xlink:href="#DejaVuSans-74" transform="translate(587.744141 0.015625)"/>
      <use xlink:href="#DejaVuSans-65" transform="translate(626.953125 0.015625)"/>
      <use xlink:href="#DejaVuSans-72" transform="translate(688.476562 0.015625)"/>
      <use xlink:href="#DejaVuSans-61" transform="translate(729.589844 0.015625)"/>
      <use xlink:href="#DejaVuSans-74" transform="translate(790.869141 0.015625)"/>
      <use xlink:href="#DejaVuSans-f3" transform="translate(830.078125 0.015625)"/>
      <use xlink:href="#DejaVuSans-6d" transform="translate(891.259766 0.015625)"/>
      <use xlink:href="#DejaVuSans-69" transform="translate(988.671875 0.015625)"/>
      <use xlink:href="#DejaVuSans-63" transform="translate(1016.455078 0.015625)"/>
      <use xlink:href="#DejaVuSans-61" transform="translate(1071.435547 0.015625)"/>
      <use xlink:href="#DejaVuSans-20" transform="translate(1132.714844 0.015625)"/>
      <use xlink:href="#DejaVuSans-28" transform="translate(1164.501953 0.015625)"/>
      <use xlink:href="#DejaVuSans-Oblique-61" transform="translate(1203.515625 0.015625)"/>
      <use xlink:href="#DejaVuSans-30" transform="translate(1264.794922 -16.390625) scale(0.7)"/>
      <use xlink:href="#DejaVuSans-29" transform="translate(1312.06543 0.015625)"/>
     </g>
    </g>
   </g>
   <g id="matplotlib.axis_4">
    <g id="ytick_8">
     <g id="line2d_55">
      <path d="M 541.694062 242.2512 
L 900.189062 242.2512 
" clip-path="url(#p2ade4df898)" style="fill: none; stroke: #b0b0b0; stroke-opacity: 0.4; stroke-width: 0.8; stroke-linecap: square"/>
     </g>
     <g id="line2d_56">
      <g>
       <use xlink:href="#mdd6bd54c07" x="541.694062" y="242.2512" style="stroke: #000000; stroke-width: 0.8"/>
      </g>
     </g>
     <g id="text_19">
      <!-- 0.0 -->
      <g transform="translate(506.068437 249.089794) scale(0.18 -0.18)">
       <use xlink:href="#DejaVuSans-30"/>
       <use xlink:href="#DejaVuSans-2e" transform="translate(63.623047 0)"/>
       <use xlink:href="#DejaVuSans-30" transform="translate(95.410156 0)"/>
      </g>
     </g>
    </g>
    <g id="ytick_9">
     <g id="line2d_57">
      <path d="M 541.694062 190.0176 
L 900.189062 190.0176 
" clip-path="url(#p2ade4df898)" style="fill: none; stroke: #b0b0b0; stroke-opacity: 0.4; stroke-width: 0.8; stroke-linecap: square"/>
     </g>
     <g id="line2d_58">
      <g>
       <use xlink:href="#mdd6bd54c07" x="541.694062" y="190.0176" style="stroke: #000000; stroke-width: 0.8"/>
      </g>
     </g>
     <g id="text_20">
      <!-- 0.2 -->
      <g transform="translate(506.068437 196.856194) scale(0.18 -0.18)">
       <use xlink:href="#DejaVuSans-30"/>
       <use xlink:href="#DejaVuSans-2e" transform="translate(63.623047 0)"/>
       <use xlink:href="#DejaVuSans-32" transform="translate(95.410156 0)"/>
      </g>
     </g>
    </g>
    <g id="ytick_10">
     <g id="line2d_59">
      <path d="M 541.694062 137.784 
L 900.189062 137.784 
" clip-path="url(#p2ade4df898)" style="fill: none; stroke: #b0b0b0; stroke-opacity: 0.4; stroke-width: 0.8; stroke-linecap: square"/>
     </g>
     <g id="line2d_60">
      <g>
       <use xlink:href="#mdd6bd54c07" x="541.694062" y="137.784" style="stroke: #000000; stroke-width: 0.8"/>
      </g>
     </g>
     <g id="text_21">
      <!-- 0.4 -->
      <g transform="translate(506.068437 144.622594) scale(0.18 -0.18)">
       <use xlink:href="#DejaVuSans-30"/>
       <use xlink:href="#DejaVuSans-2e" transform="translate(63.623047 0)"/>
       <use xlink:href="#DejaVuSans-34" transform="translate(95.410156 0)"/>
      </g>
     </g>
    </g>
    <g id="ytick_11">
     <g id="line2d_61">
      <path d="M 541.694062 85.5504 
L 900.189062 85.5504 
" clip-path="url(#p2ade4df898)" style="fill: none; stroke: #b0b0b0; stroke-opacity: 0.4; stroke-width: 0.8; stroke-linecap: square"/>
     </g>
     <g id="line2d_62">
      <g>
       <use xlink:href="#mdd6bd54c07" x="541.694062" y="85.5504" style="stroke: #000000; stroke-width: 0.8"/>
      </g>
     </g>
     <g id="text_22">
      <!-- 0.6 -->
      <g transform="translate(506.068437 92.388994) scale(0.18 -0.18)">
       <use xlink:href="#DejaVuSans-30"/>
       <use xlink:href="#DejaVuSans-2e" transform="translate(63.623047 0)"/>
       <use xlink:href="#DejaVuSans-36" transform="translate(95.410156 0)"/>
      </g>
     </g>
    </g>
    <g id="ytick_12">
     <g id="line2d_63">
      <path d="M 541.694062 33.3168 
L 900.189062 33.3168 
" clip-path="url(#p2ade4df898)" style="fill: none; stroke: #b0b0b0; stroke-opacity: 0.4; stroke-width: 0.8; stroke-linecap: square"/>
     </g>
     <g id="line2d_64">
      <g>
       <use xlink:href="#mdd6bd54c07" x="541.694062" y="33.3168" style="stroke: #000000; stroke-width: 0.8"/>
      </g>
     </g>
     <g id="text_23">
      <!-- 0.8 -->
      <g transform="translate(506.068437 40.155394) scale(0.18 -0.18)">
       <defs>
        <path id="DejaVuSans-38" d="M 2034 2216 
Q 1584 2216 1326 1975 
Q 1069 1734 1069 1313 
Q 1069 891 1326 650 
Q 1584 409 2034 409 
Q 2484 409 2743 651 
Q 3003 894 3003 1313 
Q 3003 1734 2745 1975 
Q 2488 2216 2034 2216 
z
M 1403 2484 
Q 997 2584 770 2862 
Q 544 3141 544 3541 
Q 544 4100 942 4425 
Q 1341 4750 2034 4750 
Q 2731 4750 3128 4425 
Q 3525 4100 3525 3541 
Q 3525 3141 3298 2862 
Q 3072 2584 2669 2484 
Q 3125 2378 3379 2068 
Q 3634 1759 3634 1313 
Q 3634 634 3220 271 
Q 2806 -91 2034 -91 
Q 1263 -91 848 271 
Q 434 634 434 1313 
Q 434 1759 690 2068 
Q 947 2378 1403 2484 
z
M 1172 3481 
Q 1172 3119 1398 2916 
Q 1625 2713 2034 2713 
Q 2441 2713 2670 2916 
Q 2900 3119 2900 3481 
Q 2900 3844 2670 4047 
Q 2441 4250 2034 4250 
Q 1625 4250 1398 4047 
Q 1172 3844 1172 3481 
z
" transform="scale(0.015625)"/>
       </defs>
       <use xlink:href="#DejaVuSans-30"/>
       <use xlink:href="#DejaVuSans-2e" transform="translate(63.623047 0)"/>
       <use xlink:href="#DejaVuSans-38" transform="translate(95.410156 0)"/>
      </g>
     </g>
    </g>
    <g id="ytick_13">
     <g id="line2d_65">
      <path d="M 541.694062 216.1344 
L 900.189062 216.1344 
" clip-path="url(#p2ade4df898)" style="fill: none; stroke: #b0b0b0; stroke-opacity: 0.4; stroke-width: 0.8; stroke-linecap: square"/>
     </g>
     <g id="line2d_66">
      <g>
       <use xlink:href="#m3147a28d6f" x="541.694062" y="216.1344" style="stroke: #000000; stroke-width: 0.6"/>
      </g>
     </g>
    </g>
    <g id="ytick_14">
     <g id="line2d_67">
      <path d="M 541.694062 163.9008 
L 900.189062 163.9008 
" clip-path="url(#p2ade4df898)" style="fill: none; stroke: #b0b0b0; stroke-opacity: 0.4; stroke-width: 0.8; stroke-linecap: square"/>
     </g>
     <g id="line2d_68">
      <g>
       <use xlink:href="#m3147a28d6f" x="541.694062" y="163.9008" style="stroke: #000000; stroke-width: 0.6"/>
      </g>
     </g>
    </g>
    <g id="ytick_15">
     <g id="line2d_69">
      <path d="M 541.694062 111.6672 
L 900.189062 111.6672 
" clip-path="url(#p2ade4df898)" style="fill: none; stroke: #b0b0b0; stroke-opacity: 0.4; stroke-width: 0.8; stroke-linecap: square"/>
     </g>
     <g id="line2d_70">
      <g>
       <use xlink:href="#m3147a28d6f" x="541.694062" y="111.6672" style="stroke: #000000; stroke-width: 0.6"/>
      </g>
     </g>
    </g>
    <g id="ytick_16">
     <g id="line2d_71">
      <path d="M 541.694062 59.4336 
L 900.189062 59.4336 
" clip-path="url(#p2ade4df898)" style="fill: none; stroke: #b0b0b0; stroke-opacity: 0.4; stroke-width: 0.8; stroke-linecap: square"/>
     </g>
     <g id="line2d_72">
      <g>
       <use xlink:href="#m3147a28d6f" x="541.694062" y="59.4336" style="stroke: #000000; stroke-width: 0.6"/>
      </g>
     </g>
    </g>
    <g id="ytick_17">
     <g id="line2d_73">
      <path d="M 541.694062 7.2 
L 900.189062 7.2 
" clip-path="url(#p2ade4df898)" style="fill: none; stroke: #b0b0b0; stroke-opacity: 0.4; stroke-width: 0.8; stroke-linecap: square"/>
     </g>
     <g id="line2d_74">
      <g>
       <use xlink:href="#m3147a28d6f" x="541.694062" y="7.2" style="stroke: #000000; stroke-width: 0.6"/>
      </g>
     </g>
    </g>
    <g id="text_24">
     <!-- Ángulo ($\theta$) -->
     <g transform="translate(491.448437 194.874) rotate(-90) scale(0.22 -0.22)">
      <defs>
       <path id="DejaVuSans-c1" d="M 2188 4044 
L 1331 1722 
L 3047 1722 
L 2188 4044 
z
M 1831 4666 
L 2547 4666 
L 4325 0 
L 3669 0 
L 3244 1197 
L 1141 1197 
L 716 0 
L 50 0 
L 1831 4666 
z
M 2356 5921 
L 2934 5921 
L 2222 5096 
L 1743 5096 
L 2356 5921 
z
" transform="scale(0.015625)"/>
       <path id="DejaVuSans-75" d="M 544 1381 
L 544 3500 
L 1119 3500 
L 1119 1403 
Q 1119 906 1312 657 
Q 1506 409 1894 409 
Q 2359 409 2629 706 
Q 2900 1003 2900 1516 
L 2900 3500 
L 3475 3500 
L 3475 0 
L 2900 0 
L 2900 538 
Q 2691 219 2414 64 
Q 2138 -91 1772 -91 
Q 1169 -91 856 284 
Q 544 659 544 1381 
z
M 1991 3584 
L 1991 3584 
z
" transform="scale(0.015625)"/>
       <path id="DejaVuSans-6c" d="M 603 4863 
L 1178 4863 
L 1178 0 
L 603 0 
L 603 4863 
z
" transform="scale(0.015625)"/>
       <path id="DejaVuSans-6f" d="M 1959 3097 
Q 1497 3097 1228 2736 
Q 959 2375 959 1747 
Q 959 1119 1226 758 
Q 1494 397 1959 397 
Q 2419 397 2687 759 
Q 2956 1122 2956 1747 
Q 2956 2369 2687 2733 
Q 2419 3097 1959 3097 
z
M 1959 3584 
Q 2709 3584 3137 3096 
Q 3566 2609 3566 1747 
Q 3566 888 3137 398 
Q 2709 -91 1959 -91 
Q 1206 -91 779 398 
Q 353 888 353 1747 
Q 353 2609 779 3096 
Q 1206 3584 1959 3584 
z
" transform="scale(0.015625)"/>
       <path id="DejaVuSans-Oblique-3b8" d="M 2913 2219 
L 925 2219 
Q 791 1284 928 888 
Q 1100 400 1566 400 
Q 2034 400 2391 891 
Q 2703 1322 2913 2219 
z
M 3009 2750 
Q 3094 3638 2984 3950 
Q 2813 4444 2353 4444 
Q 1875 4444 1525 3956 
Q 1250 3563 1034 2750 
L 3009 2750 
z
M 2444 4913 
Q 3194 4913 3494 4250 
Q 3794 3591 3566 2422 
Q 3341 1256 2781 594 
Q 2225 -72 1475 -72 
Q 722 -72 425 594 
Q 128 1256 353 2422 
Q 581 3591 1134 4250 
Q 1691 4913 2444 4913 
z
" transform="scale(0.015625)"/>
      </defs>
      <use xlink:href="#DejaVuSans-c1" transform="translate(0 0.484375)"/>
      <use xlink:href="#DejaVuSans-6e" transform="translate(68.408203 0.484375)"/>
      <use xlink:href="#DejaVuSans-67" transform="translate(131.787109 0.484375)"/>
      <use xlink:href="#DejaVuSans-75" transform="translate(195.263672 0.484375)"/>
      <use xlink:href="#DejaVuSans-6c" transform="translate(258.642578 0.484375)"/>
      <use xlink:href="#DejaVuSans-6f" transform="translate(286.425781 0.484375)"/>
      <use xlink:href="#DejaVuSans-20" transform="translate(347.607422 0.484375)"/>
      <use xlink:href="#DejaVuSans-28" transform="translate(379.394531 0.484375)"/>
      <use xlink:href="#DejaVuSans-Oblique-3b8" transform="translate(418.408203 0.484375)"/>
      <use xlink:href="#DejaVuSans-29" transform="translate(479.589844 0.484375)"/>
     </g>
    </g>
   </g>
   <g id="line2d_75">
    <path d="M 548.863962 242.2512 
L 644.462629 242.2512 
L 646.852596 211.829961 
L 649.242562 193.295046 
L 651.632529 180.399045 
L 654.022496 170.048762 
L 656.412462 161.257889 
L 658.802429 153.55825 
L 661.192396 146.681897 
L 663.582362 140.458309 
L 665.972329 134.771191 
L 668.362296 129.535943 
L 670.752262 124.689209 
L 673.142229 120.18168 
L 675.532196 115.974158 
L 677.922162 112.034662 
L 680.312129 108.336452 
L 682.702096 104.85731 
L 687.482029 98.482881 
L 692.261962 92.787241 
L 697.041896 87.674674 
L 701.821829 83.069603 
L 706.601762 78.909911 
L 711.381696 75.144344 
L 716.161629 71.72964 
L 720.941562 68.628683 
L 725.721496 65.809276 
L 730.501429 63.243431 
L 735.281362 60.906447 
L 740.061296 58.776288 
L 744.841229 56.833484 
L 749.621162 55.060684 
L 756.791062 52.686593 
L 763.960962 50.614146 
L 771.130862 48.804265 
L 778.300762 47.223525 
L 785.470662 45.843059 
L 795.030529 44.272008 
L 804.590396 42.964232 
L 814.150262 41.87849 
L 826.100096 40.78116 
L 838.049929 39.920419 
L 852.389729 39.134805 
L 869.119496 38.478465 
L 888.239229 37.975127 
L 908.389062 37.638377 
L 908.389062 37.638377 
" clip-path="url(#p2ade4df898)" style="fill: none; stroke-dasharray: 32,8,5,8; stroke-dashoffset: 0; stroke: #16165d; stroke-width: 5"/>
   </g>
   <g id="line2d_76">
    <path d="M 548.863962 242.2512 
L 908.389062 242.2512 
L 908.389062 242.2512 
" clip-path="url(#p2ade4df898)" style="fill: none; stroke-dasharray: 5,8.25; stroke-dashoffset: 0; stroke: #a6c0d5; stroke-width: 5"/>
   </g>
   <g id="patch_9">
    <path d="M 541.694062 268.368 
L 541.694062 7.2 
" style="fill: none; stroke: #000000; stroke-width: 0.8; stroke-linejoin: miter; stroke-linecap: square"/>
   </g>
   <g id="patch_10">
    <path d="M 900.189062 268.368 
L 900.189062 7.2 
" style="fill: none; stroke: #000000; stroke-width: 0.8; stroke-linejoin: miter; stroke-linecap: square"/>
   </g>
   <g id="patch_11">
    <path d="M 541.694062 268.368 
L 900.189062 268.368 
" style="fill: none; stroke: #000000; stroke-width: 0.8; stroke-linejoin: miter; stroke-linecap: square"/>
   </g>
   <g id="patch_12">
    <path d="M 541.694062 7.2 
L 900.189062 7.2 
" style="fill: none; stroke: #000000; stroke-width: 0.8; stroke-linejoin: miter; stroke-linecap: square"/>
   </g>
   <g id="legend_2">
    <g id="patch_13">
     <path d="M 553.790062 71.7516 
L 672.630562 71.7516 
Q 676.086563 71.7516 676.086563 68.2956 
L 676.086563 19.296 
Q 676.086563 15.84 672.630562 15.84 
L 553.790062 15.84 
Q 550.334062 15.84 550.334062 19.296 
L 550.334062 68.2956 
Q 550.334062 71.7516 553.790062 71.7516 
z
" style="fill: #ffffff; opacity: 0.8; stroke: #cccccc; stroke-linejoin: miter"/>
    </g>
    <g id="line2d_77">
     <path d="M 557.246062 29.8341 
L 574.526062 29.8341 
L 591.806063 29.8341 
" style="fill: none; stroke-dasharray: 32,8,5,8; stroke-dashoffset: 0; stroke: #16165d; stroke-width: 5"/>
    </g>
    <g id="text_25">
     <!-- UHF(+) -->
     <g transform="translate(605.630063 35.8821) scale(0.1728 -0.1728)">
      <use xlink:href="#DejaVuSans-55"/>
      <use xlink:href="#DejaVuSans-48" transform="translate(73.193359 0)"/>
      <use xlink:href="#DejaVuSans-46" transform="translate(148.388672 0)"/>
      <use xlink:href="#DejaVuSans-28" transform="translate(205.908203 0)"/>
      <use xlink:href="#DejaVuSans-2b" transform="translate(244.921875 0)"/>
      <use xlink:href="#DejaVuSans-29" transform="translate(328.710938 0)"/>
     </g>
    </g>
    <g id="line2d_78">
     <path d="M 557.246062 55.1979 
L 574.526062 55.1979 
L 591.806063 55.1979 
" style="fill: none; stroke-dasharray: 5,8.25; stroke-dashoffset: 0; stroke: #a6c0d5; stroke-width: 5"/>
    </g>
    <g id="text_26">
     <!-- UHF(-) -->
     <g transform="translate(605.630063 61.2459) scale(0.1728 -0.1728)">
      <use xlink:href="#DejaVuSans-55"/>
      <use xlink:href="#DejaVuSans-48" transform="translate(73.193359 0)"/>
      <use xlink:href="#DejaVuSans-46" transform="translate(148.388672 0)"/>
      <use xlink:href="#DejaVuSans-28" transform="translate(205.908203 0)"/>
      <use xlink:href="#DejaVuSans-2d" transform="translate(244.921875 0)"/>
      <use xlink:href="#DejaVuSans-29" transform="translate(281.005859 0)"/>
     </g>
    </g>
   </g>
  </g>
 </g>
 <defs>
  <clipPath id="p67bd23f021">
   <rect x="90.129063" y="7.2" width="358.495" height="261.168"/>
  </clipPath>
  <clipPath id="p2ade4df898">
   <rect x="541.694062" y="7.2" width="358.495" height="261.168"/>
  </clipPath>
 </defs>
</svg>
