<?xml version="1.0" encoding="utf-8" standalone="no"?>
<!DOCTYPE svg PUBLIC "-//W3C//DTD SVG 1.1//EN"
  "http://www.w3.org/Graphics/SVG/1.1/DTD/svg11.dtd">
<svg xmlns:xlink="http://www.w3.org/1999/xlink" width="918.3175pt" height="347.3125pt" viewBox="0 0 918.3175 347.3125" xmlns="http://www.w3.org/2000/svg" version="1.1">
 <metadata>
  <rdf:RDF xmlns:dc="http://purl.org/dc/elements/1.1/" xmlns:cc="http://creativecommons.org/ns#" xmlns:rdf="http://www.w3.org/1999/02/22-rdf-syntax-ns#">
   <cc:Work>
    <dc:type rdf:resource="http://purl.org/dc/dcmitype/StillImage"/>
    <dc:date>2025-07-08T00:57:50.049620</dc:date>
    <dc:format>image/svg+xml</dc:format>
    <dc:creator>
     <cc:Agent>
      <dc:title>Matplotlib v3.10.1, https://matplotlib.org/</dc:title>
     </cc:Agent>
    </dc:creator>
   </cc:Work>
  </rdf:RDF>
 </metadata>
 <defs>
  <style type="text/css">*{stroke-linejoin: round; stroke-linecap: butt}</style>
 </defs>
 <g id="figure_1">
  <g id="patch_1">
   <path d="M 0 347.3125 
L 918.3175 347.3125 
L 918.3175 0 
L 0 0 
z
" style="fill: #ffffff"/>
  </g>
  <g id="axes_1">
   <g id="patch_2">
    <path d="M 74.1175 284.4 
L 454.572045 284.4 
L 454.572045 7.2 
L 74.1175 7.2 
z
" style="fill: #ffffff"/>
   </g>
   <g id="matplotlib.axis_1">
    <g id="xtick_1">
     <g id="line2d_1">
      <path d="M 91.410888 284.4 
L 91.410888 7.2 
" clip-path="url(#pebdc39fae3)" style="fill: none; stroke: #b0b0b0; stroke-opacity: 0.4; stroke-width: 0.8; stroke-linecap: square"/>
     </g>
     <g id="line2d_2">
      <defs>
       <path id="mdbf2f0760e" d="M 0 0 
L 0 3.5 
" style="stroke: #000000; stroke-width: 0.8"/>
      </defs>
      <g>
       <use xlink:href="#mdbf2f0760e" x="91.410888" y="284.4" style="stroke: #000000; stroke-width: 0.8"/>
      </g>
     </g>
     <g id="text_1">
      <!-- 0 -->
      <g transform="translate(85.684638 305.077188) scale(0.18 -0.18)">
       <defs>
        <path id="DejaVuSans-30" d="M 2034 4250 
Q 1547 4250 1301 3770 
Q 1056 3291 1056 2328 
Q 1056 1369 1301 889 
Q 1547 409 2034 409 
Q 2525 409 2770 889 
Q 3016 1369 3016 2328 
Q 3016 3291 2770 3770 
Q 2525 4250 2034 4250 
z
M 2034 4750 
Q 2819 4750 3233 4129 
Q 3647 3509 3647 2328 
Q 3647 1150 3233 529 
Q 2819 -91 2034 -91 
Q 1250 -91 836 529 
Q 422 1150 422 2328 
Q 422 3509 836 4129 
Q 1250 4750 2034 4750 
z
" transform="scale(0.015625)"/>
       </defs>
       <use xlink:href="#DejaVuSans-30"/>
      </g>
     </g>
    </g>
    <g id="xtick_2">
     <g id="line2d_3">
      <path d="M 177.877831 284.4 
L 177.877831 7.2 
" clip-path="url(#pebdc39fae3)" style="fill: none; stroke: #b0b0b0; stroke-opacity: 0.4; stroke-width: 0.8; stroke-linecap: square"/>
     </g>
     <g id="line2d_4">
      <g>
       <use xlink:href="#mdbf2f0760e" x="177.877831" y="284.4" style="stroke: #000000; stroke-width: 0.8"/>
      </g>
     </g>
     <g id="text_2">
      <!-- 1 -->
      <g transform="translate(172.151581 305.077188) scale(0.18 -0.18)">
       <defs>
        <path id="DejaVuSans-31" d="M 794 531 
L 1825 531 
L 1825 4091 
L 703 3866 
L 703 4441 
L 1819 4666 
L 2450 4666 
L 2450 531 
L 3481 531 
L 3481 0 
L 794 0 
L 794 531 
z
" transform="scale(0.015625)"/>
       </defs>
       <use xlink:href="#DejaVuSans-31"/>
      </g>
     </g>
    </g>
    <g id="xtick_3">
     <g id="line2d_5">
      <path d="M 264.344773 284.4 
L 264.344773 7.2 
" clip-path="url(#pebdc39fae3)" style="fill: none; stroke: #b0b0b0; stroke-opacity: 0.4; stroke-width: 0.8; stroke-linecap: square"/>
     </g>
     <g id="line2d_6">
      <g>
       <use xlink:href="#mdbf2f0760e" x="264.344773" y="284.4" style="stroke: #000000; stroke-width: 0.8"/>
      </g>
     </g>
     <g id="text_3">
      <!-- 2 -->
      <g transform="translate(258.618523 305.077188) scale(0.18 -0.18)">
       <defs>
        <path id="DejaVuSans-32" d="M 1228 531 
L 3431 531 
L 3431 0 
L 469 0 
L 469 531 
Q 828 903 1448 1529 
Q 2069 2156 2228 2338 
Q 2531 2678 2651 2914 
Q 2772 3150 2772 3378 
Q 2772 3750 2511 3984 
Q 2250 4219 1831 4219 
Q 1534 4219 1204 4116 
Q 875 4013 500 3803 
L 500 4441 
Q 881 4594 1212 4672 
Q 1544 4750 1819 4750 
Q 2544 4750 2975 4387 
Q 3406 4025 3406 3419 
Q 3406 3131 3298 2873 
Q 3191 2616 2906 2266 
Q 2828 2175 2409 1742 
Q 1991 1309 1228 531 
z
" transform="scale(0.015625)"/>
       </defs>
       <use xlink:href="#DejaVuSans-32"/>
      </g>
     </g>
    </g>
    <g id="xtick_4">
     <g id="line2d_7">
      <path d="M 350.811715 284.4 
L 350.811715 7.2 
" clip-path="url(#pebdc39fae3)" style="fill: none; stroke: #b0b0b0; stroke-opacity: 0.4; stroke-width: 0.8; stroke-linecap: square"/>
     </g>
     <g id="line2d_8">
      <g>
       <use xlink:href="#mdbf2f0760e" x="350.811715" y="284.4" style="stroke: #000000; stroke-width: 0.8"/>
      </g>
     </g>
     <g id="text_4">
      <!-- 3 -->
      <g transform="translate(345.085465 305.077188) scale(0.18 -0.18)">
       <defs>
        <path id="DejaVuSans-33" d="M 2597 2516 
Q 3050 2419 3304 2112 
Q 3559 1806 3559 1356 
Q 3559 666 3084 287 
Q 2609 -91 1734 -91 
Q 1441 -91 1130 -33 
Q 819 25 488 141 
L 488 750 
Q 750 597 1062 519 
Q 1375 441 1716 441 
Q 2309 441 2620 675 
Q 2931 909 2931 1356 
Q 2931 1769 2642 2001 
Q 2353 2234 1838 2234 
L 1294 2234 
L 1294 2753 
L 1863 2753 
Q 2328 2753 2575 2939 
Q 2822 3125 2822 3475 
Q 2822 3834 2567 4026 
Q 2313 4219 1838 4219 
Q 1578 4219 1281 4162 
Q 984 4106 628 3988 
L 628 4550 
Q 988 4650 1302 4700 
Q 1616 4750 1894 4750 
Q 2613 4750 3031 4423 
Q 3450 4097 3450 3541 
Q 3450 3153 3228 2886 
Q 3006 2619 2597 2516 
z
" transform="scale(0.015625)"/>
       </defs>
       <use xlink:href="#DejaVuSans-33"/>
      </g>
     </g>
    </g>
    <g id="xtick_5">
     <g id="line2d_9">
      <path d="M 437.278657 284.4 
L 437.278657 7.2 
" clip-path="url(#pebdc39fae3)" style="fill: none; stroke: #b0b0b0; stroke-opacity: 0.4; stroke-width: 0.8; stroke-linecap: square"/>
     </g>
     <g id="line2d_10">
      <g>
       <use xlink:href="#mdbf2f0760e" x="437.278657" y="284.4" style="stroke: #000000; stroke-width: 0.8"/>
      </g>
     </g>
     <g id="text_5">
      <!-- 4 -->
      <g transform="translate(431.552407 305.077188) scale(0.18 -0.18)">
       <defs>
        <path id="DejaVuSans-34" d="M 2419 4116 
L 825 1625 
L 2419 1625 
L 2419 4116 
z
M 2253 4666 
L 3047 4666 
L 3047 1625 
L 3713 1625 
L 3713 1100 
L 3047 1100 
L 3047 0 
L 2419 0 
L 2419 1100 
L 313 1100 
L 313 1709 
L 2253 4666 
z
" transform="scale(0.015625)"/>
       </defs>
       <use xlink:href="#DejaVuSans-34"/>
      </g>
     </g>
    </g>
    <g id="xtick_6">
     <g id="line2d_11">
      <path d="M 134.64436 284.4 
L 134.64436 7.2 
" clip-path="url(#pebdc39fae3)" style="fill: none; stroke: #b0b0b0; stroke-opacity: 0.4; stroke-width: 0.8; stroke-linecap: square"/>
     </g>
     <g id="line2d_12">
      <defs>
       <path id="m68bfee0200" d="M 0 0 
L 0 2 
" style="stroke: #000000; stroke-width: 0.6"/>
      </defs>
      <g>
       <use xlink:href="#m68bfee0200" x="134.64436" y="284.4" style="stroke: #000000; stroke-width: 0.6"/>
      </g>
     </g>
    </g>
    <g id="xtick_7">
     <g id="line2d_13">
      <path d="M 221.111302 284.4 
L 221.111302 7.2 
" clip-path="url(#pebdc39fae3)" style="fill: none; stroke: #b0b0b0; stroke-opacity: 0.4; stroke-width: 0.8; stroke-linecap: square"/>
     </g>
     <g id="line2d_14">
      <g>
       <use xlink:href="#m68bfee0200" x="221.111302" y="284.4" style="stroke: #000000; stroke-width: 0.6"/>
      </g>
     </g>
    </g>
    <g id="xtick_8">
     <g id="line2d_15">
      <path d="M 307.578244 284.4 
L 307.578244 7.2 
" clip-path="url(#pebdc39fae3)" style="fill: none; stroke: #b0b0b0; stroke-opacity: 0.4; stroke-width: 0.8; stroke-linecap: square"/>
     </g>
     <g id="line2d_16">
      <g>
       <use xlink:href="#m68bfee0200" x="307.578244" y="284.4" style="stroke: #000000; stroke-width: 0.6"/>
      </g>
     </g>
    </g>
    <g id="xtick_9">
     <g id="line2d_17">
      <path d="M 394.045186 284.4 
L 394.045186 7.2 
" clip-path="url(#pebdc39fae3)" style="fill: none; stroke: #b0b0b0; stroke-opacity: 0.4; stroke-width: 0.8; stroke-linecap: square"/>
     </g>
     <g id="line2d_18">
      <g>
       <use xlink:href="#m68bfee0200" x="394.045186" y="284.4" style="stroke: #000000; stroke-width: 0.6"/>
      </g>
     </g>
    </g>
    <g id="text_6">
     <!-- Radio ($a_0$) -->
     <g transform="translate(209.124773 335.537188) scale(0.22 -0.22)">
      <defs>
       <path id="DejaVuSans-52" d="M 2841 2188 
Q 3044 2119 3236 1894 
Q 3428 1669 3622 1275 
L 4263 0 
L 3584 0 
L 2988 1197 
Q 2756 1666 2539 1819 
Q 2322 1972 1947 1972 
L 1259 1972 
L 1259 0 
L 628 0 
L 628 4666 
L 2053 4666 
Q 2853 4666 3247 4331 
Q 3641 3997 3641 3322 
Q 3641 2881 3436 2590 
Q 3231 2300 2841 2188 
z
M 1259 4147 
L 1259 2491 
L 2053 2491 
Q 2509 2491 2742 2702 
Q 2975 2913 2975 3322 
Q 2975 3731 2742 3939 
Q 2509 4147 2053 4147 
L 1259 4147 
z
" transform="scale(0.015625)"/>
       <path id="DejaVuSans-61" d="M 2194 1759 
Q 1497 1759 1228 1600 
Q 959 1441 959 1056 
Q 959 750 1161 570 
Q 1363 391 1709 391 
Q 2188 391 2477 730 
Q 2766 1069 2766 1631 
L 2766 1759 
L 2194 1759 
z
M 3341 1997 
L 3341 0 
L 2766 0 
L 2766 531 
Q 2569 213 2275 61 
Q 1981 -91 1556 -91 
Q 1019 -91 701 211 
Q 384 513 384 1019 
Q 384 1609 779 1909 
Q 1175 2209 1959 2209 
L 2766 2209 
L 2766 2266 
Q 2766 2663 2505 2880 
Q 2244 3097 1772 3097 
Q 1472 3097 1187 3025 
Q 903 2953 641 2809 
L 641 3341 
Q 956 3463 1253 3523 
Q 1550 3584 1831 3584 
Q 2591 3584 2966 3190 
Q 3341 2797 3341 1997 
z
" transform="scale(0.015625)"/>
       <path id="DejaVuSans-64" d="M 2906 2969 
L 2906 4863 
L 3481 4863 
L 3481 0 
L 2906 0 
L 2906 525 
Q 2725 213 2448 61 
Q 2172 -91 1784 -91 
Q 1150 -91 751 415 
Q 353 922 353 1747 
Q 353 2572 751 3078 
Q 1150 3584 1784 3584 
Q 2172 3584 2448 3432 
Q 2725 3281 2906 2969 
z
M 947 1747 
Q 947 1113 1208 752 
Q 1469 391 1925 391 
Q 2381 391 2643 752 
Q 2906 1113 2906 1747 
Q 2906 2381 2643 2742 
Q 2381 3103 1925 3103 
Q 1469 3103 1208 2742 
Q 947 2381 947 1747 
z
" transform="scale(0.015625)"/>
       <path id="DejaVuSans-69" d="M 603 3500 
L 1178 3500 
L 1178 0 
L 603 0 
L 603 3500 
z
M 603 4863 
L 1178 4863 
L 1178 4134 
L 603 4134 
L 603 4863 
z
" transform="scale(0.015625)"/>
       <path id="DejaVuSans-6f" d="M 1959 3097 
Q 1497 3097 1228 2736 
Q 959 2375 959 1747 
Q 959 1119 1226 758 
Q 1494 397 1959 397 
Q 2419 397 2687 759 
Q 2956 1122 2956 1747 
Q 2956 2369 2687 2733 
Q 2419 3097 1959 3097 
z
M 1959 3584 
Q 2709 3584 3137 3096 
Q 3566 2609 3566 1747 
Q 3566 888 3137 398 
Q 2709 -91 1959 -91 
Q 1206 -91 779 398 
Q 353 888 353 1747 
Q 353 2609 779 3096 
Q 1206 3584 1959 3584 
z
" transform="scale(0.015625)"/>
       <path id="DejaVuSans-20" transform="scale(0.015625)"/>
       <path id="DejaVuSans-28" d="M 1984 4856 
Q 1566 4138 1362 3434 
Q 1159 2731 1159 2009 
Q 1159 1288 1364 580 
Q 1569 -128 1984 -844 
L 1484 -844 
Q 1016 -109 783 600 
Q 550 1309 550 2009 
Q 550 2706 781 3412 
Q 1013 4119 1484 4856 
L 1984 4856 
z
" transform="scale(0.015625)"/>
       <path id="DejaVuSans-Oblique-61" d="M 3438 1997 
L 3047 0 
L 2472 0 
L 2578 531 
Q 2325 219 2001 64 
Q 1678 -91 1281 -91 
Q 834 -91 548 182 
Q 263 456 263 884 
Q 263 1497 752 1853 
Q 1241 2209 2100 2209 
L 2900 2209 
L 2931 2363 
Q 2938 2388 2941 2417 
Q 2944 2447 2944 2509 
Q 2944 2788 2717 2942 
Q 2491 3097 2081 3097 
Q 1800 3097 1504 3025 
Q 1209 2953 897 2809 
L 997 3341 
Q 1322 3463 1633 3523 
Q 1944 3584 2234 3584 
Q 2853 3584 3176 3315 
Q 3500 3047 3500 2534 
Q 3500 2431 3484 2292 
Q 3469 2153 3438 1997 
z
M 2816 1759 
L 2241 1759 
Q 1534 1759 1195 1570 
Q 856 1381 856 984 
Q 856 709 1029 553 
Q 1203 397 1509 397 
Q 1978 397 2328 733 
Q 2678 1069 2791 1631 
L 2816 1759 
z
" transform="scale(0.015625)"/>
       <path id="DejaVuSans-29" d="M 513 4856 
L 1013 4856 
Q 1481 4119 1714 3412 
Q 1947 2706 1947 2009 
Q 1947 1309 1714 600 
Q 1481 -109 1013 -844 
L 513 -844 
Q 928 -128 1133 580 
Q 1338 1288 1338 2009 
Q 1338 2731 1133 3434 
Q 928 4138 513 4856 
z
" transform="scale(0.015625)"/>
      </defs>
      <use xlink:href="#DejaVuSans-52" transform="translate(0 0.015625)"/>
      <use xlink:href="#DejaVuSans-61" transform="translate(69.482422 0.015625)"/>
      <use xlink:href="#DejaVuSans-64" transform="translate(130.761719 0.015625)"/>
      <use xlink:href="#DejaVuSans-69" transform="translate(194.238281 0.015625)"/>
      <use xlink:href="#DejaVuSans-6f" transform="translate(222.021484 0.015625)"/>
      <use xlink:href="#DejaVuSans-20" transform="translate(283.203125 0.015625)"/>
      <use xlink:href="#DejaVuSans-28" transform="translate(314.990234 0.015625)"/>
      <use xlink:href="#DejaVuSans-Oblique-61" transform="translate(354.003906 0.015625)"/>
      <use xlink:href="#DejaVuSans-30" transform="translate(415.283203 -16.390625) scale(0.7)"/>
      <use xlink:href="#DejaVuSans-29" transform="translate(462.553711 0.015625)"/>
     </g>
    </g>
   </g>
   <g id="matplotlib.axis_2">
    <g id="ytick_1">
     <g id="line2d_19">
      <path d="M 74.1175 273.931224 
L 454.572045 273.931224 
" clip-path="url(#pebdc39fae3)" style="fill: none; stroke: #b0b0b0; stroke-opacity: 0.4; stroke-width: 0.8; stroke-linecap: square"/>
     </g>
     <g id="line2d_20">
      <defs>
       <path id="m27be5a726e" d="M 0 0 
L -3.5 0 
" style="stroke: #000000; stroke-width: 0.8"/>
      </defs>
      <g>
       <use xlink:href="#m27be5a726e" x="74.1175" y="273.931224" style="stroke: #000000; stroke-width: 0.8"/>
      </g>
     </g>
     <g id="text_7">
      <!-- 0.0 -->
      <g transform="translate(38.491875 280.769818) scale(0.18 -0.18)">
       <defs>
        <path id="DejaVuSans-2e" d="M 684 794 
L 1344 794 
L 1344 0 
L 684 0 
L 684 794 
z
" transform="scale(0.015625)"/>
       </defs>
       <use xlink:href="#DejaVuSans-30"/>
       <use xlink:href="#DejaVuSans-2e" transform="translate(63.623047 0)"/>
       <use xlink:href="#DejaVuSans-30" transform="translate(95.410156 0)"/>
      </g>
     </g>
    </g>
    <g id="ytick_2">
     <g id="line2d_21">
      <path d="M 74.1175 229.47602 
L 454.572045 229.47602 
" clip-path="url(#pebdc39fae3)" style="fill: none; stroke: #b0b0b0; stroke-opacity: 0.4; stroke-width: 0.8; stroke-linecap: square"/>
     </g>
     <g id="line2d_22">
      <g>
       <use xlink:href="#m27be5a726e" x="74.1175" y="229.47602" style="stroke: #000000; stroke-width: 0.8"/>
      </g>
     </g>
     <g id="text_8">
      <!-- 0.5 -->
      <g transform="translate(38.491875 236.314614) scale(0.18 -0.18)">
       <defs>
        <path id="DejaVuSans-35" d="M 691 4666 
L 3169 4666 
L 3169 4134 
L 1269 4134 
L 1269 2991 
Q 1406 3038 1543 3061 
Q 1681 3084 1819 3084 
Q 2600 3084 3056 2656 
Q 3513 2228 3513 1497 
Q 3513 744 3044 326 
Q 2575 -91 1722 -91 
Q 1428 -91 1123 -41 
Q 819 9 494 109 
L 494 744 
Q 775 591 1075 516 
Q 1375 441 1709 441 
Q 2250 441 2565 725 
Q 2881 1009 2881 1497 
Q 2881 1984 2565 2268 
Q 2250 2553 1709 2553 
Q 1456 2553 1204 2497 
Q 953 2441 691 2322 
L 691 4666 
z
" transform="scale(0.015625)"/>
       </defs>
       <use xlink:href="#DejaVuSans-30"/>
       <use xlink:href="#DejaVuSans-2e" transform="translate(63.623047 0)"/>
       <use xlink:href="#DejaVuSans-35" transform="translate(95.410156 0)"/>
      </g>
     </g>
    </g>
    <g id="ytick_3">
     <g id="line2d_23">
      <path d="M 74.1175 185.020816 
L 454.572045 185.020816 
" clip-path="url(#pebdc39fae3)" style="fill: none; stroke: #b0b0b0; stroke-opacity: 0.4; stroke-width: 0.8; stroke-linecap: square"/>
     </g>
     <g id="line2d_24">
      <g>
       <use xlink:href="#m27be5a726e" x="74.1175" y="185.020816" style="stroke: #000000; stroke-width: 0.8"/>
      </g>
     </g>
     <g id="text_9">
      <!-- 1.0 -->
      <g transform="translate(38.491875 191.85941) scale(0.18 -0.18)">
       <use xlink:href="#DejaVuSans-31"/>
       <use xlink:href="#DejaVuSans-2e" transform="translate(63.623047 0)"/>
       <use xlink:href="#DejaVuSans-30" transform="translate(95.410156 0)"/>
      </g>
     </g>
    </g>
    <g id="ytick_4">
     <g id="line2d_25">
      <path d="M 74.1175 140.565612 
L 454.572045 140.565612 
" clip-path="url(#pebdc39fae3)" style="fill: none; stroke: #b0b0b0; stroke-opacity: 0.4; stroke-width: 0.8; stroke-linecap: square"/>
     </g>
     <g id="line2d_26">
      <g>
       <use xlink:href="#m27be5a726e" x="74.1175" y="140.565612" style="stroke: #000000; stroke-width: 0.8"/>
      </g>
     </g>
     <g id="text_10">
      <!-- 1.5 -->
      <g transform="translate(38.491875 147.404206) scale(0.18 -0.18)">
       <use xlink:href="#DejaVuSans-31"/>
       <use xlink:href="#DejaVuSans-2e" transform="translate(63.623047 0)"/>
       <use xlink:href="#DejaVuSans-35" transform="translate(95.410156 0)"/>
      </g>
     </g>
    </g>
    <g id="ytick_5">
     <g id="line2d_27">
      <path d="M 74.1175 96.110408 
L 454.572045 96.110408 
" clip-path="url(#pebdc39fae3)" style="fill: none; stroke: #b0b0b0; stroke-opacity: 0.4; stroke-width: 0.8; stroke-linecap: square"/>
     </g>
     <g id="line2d_28">
      <g>
       <use xlink:href="#m27be5a726e" x="74.1175" y="96.110408" style="stroke: #000000; stroke-width: 0.8"/>
      </g>
     </g>
     <g id="text_11">
      <!-- 2.0 -->
      <g transform="translate(38.491875 102.949002) scale(0.18 -0.18)">
       <use xlink:href="#DejaVuSans-32"/>
       <use xlink:href="#DejaVuSans-2e" transform="translate(63.623047 0)"/>
       <use xlink:href="#DejaVuSans-30" transform="translate(95.410156 0)"/>
      </g>
     </g>
    </g>
    <g id="ytick_6">
     <g id="line2d_29">
      <path d="M 74.1175 51.655204 
L 454.572045 51.655204 
" clip-path="url(#pebdc39fae3)" style="fill: none; stroke: #b0b0b0; stroke-opacity: 0.4; stroke-width: 0.8; stroke-linecap: square"/>
     </g>
     <g id="line2d_30">
      <g>
       <use xlink:href="#m27be5a726e" x="74.1175" y="51.655204" style="stroke: #000000; stroke-width: 0.8"/>
      </g>
     </g>
     <g id="text_12">
      <!-- 2.5 -->
      <g transform="translate(38.491875 58.493798) scale(0.18 -0.18)">
       <use xlink:href="#DejaVuSans-32"/>
       <use xlink:href="#DejaVuSans-2e" transform="translate(63.623047 0)"/>
       <use xlink:href="#DejaVuSans-35" transform="translate(95.410156 0)"/>
      </g>
     </g>
    </g>
    <g id="ytick_7">
     <g id="line2d_31">
      <path d="M 74.1175 251.703622 
L 454.572045 251.703622 
" clip-path="url(#pebdc39fae3)" style="fill: none; stroke: #b0b0b0; stroke-opacity: 0.4; stroke-width: 0.8; stroke-linecap: square"/>
     </g>
     <g id="line2d_32">
      <defs>
       <path id="m5930a9cde1" d="M 0 0 
L -2 0 
" style="stroke: #000000; stroke-width: 0.6"/>
      </defs>
      <g>
       <use xlink:href="#m5930a9cde1" x="74.1175" y="251.703622" style="stroke: #000000; stroke-width: 0.6"/>
      </g>
     </g>
    </g>
    <g id="ytick_8">
     <g id="line2d_33">
      <path d="M 74.1175 207.248418 
L 454.572045 207.248418 
" clip-path="url(#pebdc39fae3)" style="fill: none; stroke: #b0b0b0; stroke-opacity: 0.4; stroke-width: 0.8; stroke-linecap: square"/>
     </g>
     <g id="line2d_34">
      <g>
       <use xlink:href="#m5930a9cde1" x="74.1175" y="207.248418" style="stroke: #000000; stroke-width: 0.6"/>
      </g>
     </g>
    </g>
    <g id="ytick_9">
     <g id="line2d_35">
      <path d="M 74.1175 162.793214 
L 454.572045 162.793214 
" clip-path="url(#pebdc39fae3)" style="fill: none; stroke: #b0b0b0; stroke-opacity: 0.4; stroke-width: 0.8; stroke-linecap: square"/>
     </g>
     <g id="line2d_36">
      <g>
       <use xlink:href="#m5930a9cde1" x="74.1175" y="162.793214" style="stroke: #000000; stroke-width: 0.6"/>
      </g>
     </g>
    </g>
    <g id="ytick_10">
     <g id="line2d_37">
      <path d="M 74.1175 118.33801 
L 454.572045 118.33801 
" clip-path="url(#pebdc39fae3)" style="fill: none; stroke: #b0b0b0; stroke-opacity: 0.4; stroke-width: 0.8; stroke-linecap: square"/>
     </g>
     <g id="line2d_38">
      <g>
       <use xlink:href="#m5930a9cde1" x="74.1175" y="118.33801" style="stroke: #000000; stroke-width: 0.6"/>
      </g>
     </g>
    </g>
    <g id="ytick_11">
     <g id="line2d_39">
      <path d="M 74.1175 73.882806 
L 454.572045 73.882806 
" clip-path="url(#pebdc39fae3)" style="fill: none; stroke: #b0b0b0; stroke-opacity: 0.4; stroke-width: 0.8; stroke-linecap: square"/>
     </g>
     <g id="line2d_40">
      <g>
       <use xlink:href="#m5930a9cde1" x="74.1175" y="73.882806" style="stroke: #000000; stroke-width: 0.6"/>
      </g>
     </g>
    </g>
    <g id="ytick_12">
     <g id="line2d_41">
      <path d="M 74.1175 29.427602 
L 454.572045 29.427602 
" clip-path="url(#pebdc39fae3)" style="fill: none; stroke: #b0b0b0; stroke-opacity: 0.4; stroke-width: 0.8; stroke-linecap: square"/>
     </g>
     <g id="line2d_42">
      <g>
       <use xlink:href="#m5930a9cde1" x="74.1175" y="29.427602" style="stroke: #000000; stroke-width: 0.6"/>
      </g>
     </g>
    </g>
    <g id="ytick_13">
     <g id="line2d_43">
      <path d="M 74.1175 7.2 
L 454.572045 7.2 
" clip-path="url(#pebdc39fae3)" style="fill: none; stroke: #b0b0b0; stroke-opacity: 0.4; stroke-width: 0.8; stroke-linecap: square"/>
     </g>
     <g id="line2d_44">
      <g>
       <use xlink:href="#m5930a9cde1" x="74.1175" y="7.2" style="stroke: #000000; stroke-width: 0.6"/>
      </g>
     </g>
    </g>
    <g id="text_13">
     <!-- $R_{1s}$ -->
     <g transform="translate(23.916563 162.74) rotate(-90) scale(0.22 -0.22)">
      <defs>
       <path id="DejaVuSans-Oblique-52" d="M 1613 4147 
L 1294 2491 
L 2106 2491 
Q 2584 2491 2879 2755 
Q 3175 3019 3175 3444 
Q 3175 3784 2976 3965 
Q 2778 4147 2406 4147 
L 1613 4147 
z
M 2772 2241 
Q 2972 2194 3105 2009 
Q 3238 1825 3413 1275 
L 3809 0 
L 3144 0 
L 2778 1197 
Q 2638 1659 2453 1815 
Q 2269 1972 1888 1972 
L 1191 1972 
L 806 0 
L 172 0 
L 1081 4666 
L 2503 4666 
Q 3150 4666 3495 4373 
Q 3841 4081 3841 3531 
Q 3841 3044 3547 2687 
Q 3253 2331 2772 2241 
z
" transform="scale(0.015625)"/>
       <path id="DejaVuSans-Oblique-73" d="M 3200 3397 
L 3091 2853 
Q 2863 2978 2609 3040 
Q 2356 3103 2088 3103 
Q 1634 3103 1373 2948 
Q 1113 2794 1113 2528 
Q 1113 2219 1719 2053 
Q 1766 2041 1788 2034 
L 1972 1978 
Q 2547 1819 2739 1644 
Q 2931 1469 2931 1166 
Q 2931 609 2489 259 
Q 2047 -91 1331 -91 
Q 1053 -91 747 -37 
Q 441 16 72 128 
L 184 722 
Q 500 559 806 475 
Q 1113 391 1394 391 
Q 1816 391 2080 572 
Q 2344 753 2344 1031 
Q 2344 1331 1650 1516 
L 1591 1531 
L 1394 1581 
Q 956 1697 753 1886 
Q 550 2075 550 2369 
Q 550 2928 970 3256 
Q 1391 3584 2113 3584 
Q 2397 3584 2667 3537 
Q 2938 3491 3200 3397 
z
" transform="scale(0.015625)"/>
      </defs>
      <use xlink:href="#DejaVuSans-Oblique-52" transform="translate(0 0.09375)"/>
      <use xlink:href="#DejaVuSans-31" transform="translate(69.482422 -16.3125) scale(0.7)"/>
      <use xlink:href="#DejaVuSans-Oblique-73" transform="translate(114.018555 -16.3125) scale(0.7)"/>
     </g>
    </g>
   </g>
   <g id="line2d_45">
    <path d="M 91.410888 28.395252 
L 94.904502 40.393774 
L 98.398116 51.805968 
L 101.89173 62.660486 
L 105.385344 72.98458 
L 108.878958 82.80417 
L 112.372571 92.14391 
L 115.866185 101.027248 
L 119.359799 109.476486 
L 122.853413 117.512839 
L 126.347027 125.156482 
L 129.84064 132.426606 
L 133.334254 139.341464 
L 136.827868 145.918415 
L 140.321482 152.173973 
L 143.815096 158.123842 
L 147.30871 163.782961 
L 150.802323 169.165538 
L 154.295937 174.285087 
L 157.789551 179.15446 
L 161.283165 183.785884 
L 164.776779 188.190985 
L 168.270393 192.380823 
L 171.764006 196.365919 
L 175.25762 200.156276 
L 178.751234 203.761411 
L 182.244848 207.190375 
L 185.738462 210.451777 
L 189.232076 213.553805 
L 192.725689 216.504247 
L 196.219303 219.310511 
L 199.712917 221.979643 
L 203.206531 224.518343 
L 206.700145 226.932985 
L 210.193758 229.229632 
L 213.687372 231.414049 
L 217.180986 233.491721 
L 220.6746 235.467864 
L 224.168214 237.34744 
L 227.661828 239.135167 
L 231.155441 240.835534 
L 234.649055 242.45281 
L 238.142669 243.991054 
L 241.636283 245.45413 
L 245.129897 246.845711 
L 248.623511 248.169289 
L 252.117124 249.428189 
L 255.610738 250.62557 
L 259.104352 251.764439 
L 262.597966 252.847656 
L 266.09158 253.877939 
L 269.585193 254.857876 
L 273.078807 255.789927 
L 276.572421 256.676431 
L 280.066035 257.519615 
L 283.559649 258.321596 
L 287.053263 259.084386 
L 290.546876 259.809901 
L 294.04049 260.499963 
L 297.534104 261.156304 
L 301.027718 261.780571 
L 304.521332 262.374333 
L 308.014946 262.93908 
L 311.508559 263.476229 
L 315.002173 263.98713 
L 318.495787 264.473064 
L 321.989401 264.935253 
L 325.483015 265.374856 
L 328.976628 265.792977 
L 332.470242 266.190666 
L 335.963856 266.568921 
L 339.45747 266.928692 
L 342.951084 267.270882 
L 346.444698 267.596351 
L 349.938311 267.905915 
L 353.431925 268.200352 
L 356.925539 268.4804 
L 360.419153 268.746764 
L 363.912767 269.000111 
L 367.406381 269.241078 
L 370.899994 269.47027 
L 374.393608 269.688262 
L 377.887222 269.895601 
L 381.380836 270.092808 
L 384.87445 270.280379 
L 388.368063 270.458783 
L 391.861677 270.62847 
L 395.355291 270.789865 
L 398.848905 270.943372 
L 402.342519 271.089379 
L 405.836133 271.22825 
L 409.329746 271.360335 
L 412.82336 271.485966 
L 416.316974 271.605458 
L 419.810588 271.71911 
L 423.304202 271.827209 
L 426.797816 271.930025 
L 430.291429 272.027817 
L 433.785043 272.12083 
L 437.278657 272.209298 
" clip-path="url(#pebdc39fae3)" style="fill: none; stroke: #000000; stroke-width: 2; stroke-linecap: square"/>
   </g>
   <g id="line2d_46">
    <path d="M 91.410888 75.920881 
L 94.904502 76.500771 
L 98.398116 78.223682 
L 101.89173 81.04024 
L 105.385344 84.871094 
L 108.878958 89.611095 
L 112.372571 95.134694 
L 115.866185 101.302168 
L 119.359799 107.966228 
L 122.853413 114.978578 
L 126.347027 122.196 
L 129.84064 129.485617 
L 133.334254 136.729099 
L 136.827868 143.825638 
L 140.321482 150.693654 
L 143.815096 157.271287 
L 147.30871 163.515795 
L 150.802323 169.40207 
L 154.295937 174.920481 
L 157.789551 180.074296 
L 161.283165 184.87691 
L 164.776779 189.34909 
L 168.270393 193.516392 
L 171.764006 197.406881 
L 175.25762 201.049226 
L 178.751234 204.47121 
L 182.244848 207.698643 
L 185.738462 210.754655 
L 189.232076 213.659323 
L 192.725689 216.429565 
L 196.219303 219.079238 
L 199.712917 221.619393 
L 203.206531 224.058606 
L 206.700145 226.403368 
L 210.193758 228.658474 
L 213.687372 230.827402 
L 217.180986 232.912651 
L 220.6746 234.916041 
L 224.168214 236.838954 
L 227.661828 238.682534 
L 231.155441 240.447843 
L 234.649055 242.135966 
L 238.142669 243.748094 
L 241.636283 245.285569 
L 245.129897 246.749913 
L 248.623511 248.142835 
L 252.117124 249.466231 
L 255.610738 250.722163 
L 259.104352 251.91285 
L 262.597966 253.040634 
L 266.09158 254.107966 
L 269.585193 255.11737 
L 273.078807 256.071425 
L 276.572421 256.972739 
L 280.066035 257.823923 
L 283.559649 258.627576 
L 287.053263 259.386262 
L 290.546876 260.102495 
L 294.04049 260.778726 
L 297.534104 261.417331 
L 301.027718 262.020599 
L 304.521332 262.590725 
L 308.014946 263.129807 
L 311.508559 263.639837 
L 315.002173 264.122701 
L 318.495787 264.580179 
L 321.989401 265.013941 
L 325.483015 265.425554 
L 328.976628 265.816476 
L 332.470242 266.188067 
L 335.963856 266.541588 
L 339.45747 266.878205 
L 342.951084 267.198996 
L 346.444698 267.504953 
L 349.938311 267.79699 
L 353.431925 268.075943 
L 356.925539 268.342582 
L 360.419153 268.59761 
L 363.912767 268.841673 
L 367.406381 269.07536 
L 370.899994 269.299211 
L 374.393608 269.513721 
L 377.887222 269.719343 
L 381.380836 269.916493 
L 384.87445 270.105555 
L 388.368063 270.286881 
L 391.861677 270.460798 
L 395.355291 270.627606 
L 398.848905 270.787589 
L 402.342519 270.941007 
L 405.836133 271.088106 
L 409.329746 271.229118 
L 412.82336 271.364261 
L 416.316974 271.493742 
L 419.810588 271.617758 
L 423.304202 271.736497 
L 426.797816 271.850139 
L 430.291429 271.958858 
L 433.785043 272.062822 
L 437.278657 272.162193 
" clip-path="url(#pebdc39fae3)" style="fill: none; stroke-dasharray: 14.8,6.4; stroke-dashoffset: 0; stroke: #800080; stroke-width: 4"/>
   </g>
   <g id="line2d_47">
    <defs>
     <path id="maaff7d8dac" d="M 0 5 
C 1.326016 5 2.597899 4.473168 3.535534 3.535534 
C 4.473168 2.597899 5 1.326016 5 0 
C 5 -1.326016 4.473168 -2.597899 3.535534 -3.535534 
C 2.597899 -4.473168 1.326016 -5 0 -5 
C -1.326016 -5 -2.597899 -4.473168 -3.535534 -3.535534 
C -4.473168 -2.597899 -5 -1.326016 -5 0 
C -5 1.326016 -4.473168 2.597899 -3.535534 3.535534 
C -2.597899 4.473168 -1.326016 5 0 5 
z
" style="stroke: #008b8b"/>
    </defs>
    <g clip-path="url(#pebdc39fae3)">
     <use xlink:href="#maaff7d8dac" x="91.410888" y="75.876014" style="fill: #008b8b; stroke: #008b8b"/>
     <use xlink:href="#maaff7d8dac" x="108.878958" y="89.583449" style="fill: #008b8b; stroke: #008b8b"/>
     <use xlink:href="#maaff7d8dac" x="126.347027" y="122.197342" style="fill: #008b8b; stroke: #008b8b"/>
     <use xlink:href="#maaff7d8dac" x="143.815096" y="157.282004" style="fill: #008b8b; stroke: #008b8b"/>
     <use xlink:href="#maaff7d8dac" x="161.283165" y="184.879186" style="fill: #008b8b; stroke: #008b8b"/>
     <use xlink:href="#maaff7d8dac" x="178.751234" y="204.465859" style="fill: #008b8b; stroke: #008b8b"/>
     <use xlink:href="#maaff7d8dac" x="196.219303" y="219.074221" style="fill: #008b8b; stroke: #008b8b"/>
     <use xlink:href="#maaff7d8dac" x="213.687372" y="230.82645" style="fill: #008b8b; stroke: #008b8b"/>
     <use xlink:href="#maaff7d8dac" x="231.155441" y="240.450026" style="fill: #008b8b; stroke: #008b8b"/>
     <use xlink:href="#maaff7d8dac" x="248.623511" y="248.145905" style="fill: #008b8b; stroke: #008b8b"/>
     <use xlink:href="#maaff7d8dac" x="266.09158" y="254.110301" style="fill: #008b8b; stroke: #008b8b"/>
     <use xlink:href="#maaff7d8dac" x="283.559649" y="258.628555" style="fill: #008b8b; stroke: #008b8b"/>
     <use xlink:href="#maaff7d8dac" x="301.027718" y="262.020329" style="fill: #008b8b; stroke: #008b8b"/>
     <use xlink:href="#maaff7d8dac" x="318.495787" y="264.579114" style="fill: #008b8b; stroke: #008b8b"/>
     <use xlink:href="#maaff7d8dac" x="335.963856" y="266.540233" style="fill: #008b8b; stroke: #008b8b"/>
     <use xlink:href="#maaff7d8dac" x="353.431925" y="268.074687" style="fill: #008b8b; stroke: #008b8b"/>
     <use xlink:href="#maaff7d8dac" x="370.899994" y="269.298279" style="fill: #008b8b; stroke: #008b8b"/>
     <use xlink:href="#maaff7d8dac" x="388.368063" y="270.286349" style="fill: #008b8b; stroke: #008b8b"/>
     <use xlink:href="#maaff7d8dac" x="405.836133" y="271.087948" style="fill: #008b8b; stroke: #008b8b"/>
     <use xlink:href="#maaff7d8dac" x="423.304202" y="271.736634" style="fill: #008b8b; stroke: #008b8b"/>
    </g>
   </g>
   <g id="patch_3">
    <path d="M 74.1175 284.4 
L 74.1175 7.2 
" style="fill: none; stroke: #000000; stroke-width: 0.8; stroke-linejoin: miter; stroke-linecap: square"/>
   </g>
   <g id="patch_4">
    <path d="M 454.572045 284.4 
L 454.572045 7.2 
" style="fill: none; stroke: #000000; stroke-width: 0.8; stroke-linejoin: miter; stroke-linecap: square"/>
   </g>
   <g id="patch_5">
    <path d="M 74.1175 284.4 
L 454.572045 284.4 
" style="fill: none; stroke: #000000; stroke-width: 0.8; stroke-linejoin: miter; stroke-linecap: square"/>
   </g>
   <g id="patch_6">
    <path d="M 74.1175 7.2 
L 454.572045 7.2 
" style="fill: none; stroke: #000000; stroke-width: 0.8; stroke-linejoin: miter; stroke-linecap: square"/>
   </g>
   <g id="legend_1">
    <g id="patch_7">
     <path d="M 274.166577 85.251562 
L 444.072045 85.251562 
Q 447.072045 85.251562 447.072045 82.251562 
L 447.072045 17.7 
Q 447.072045 14.7 444.072045 14.7 
L 274.166577 14.7 
Q 271.166577 14.7 271.166577 17.7 
L 271.166577 82.251562 
Q 271.166577 85.251562 274.166577 85.251562 
z
" style="fill: #ffffff; opacity: 0.8; stroke: #cccccc; stroke-linejoin: miter"/>
    </g>
    <g id="line2d_48">
     <path d="M 277.166577 26.847656 
L 292.166577 26.847656 
L 307.166577 26.847656 
" style="fill: none; stroke: #000000; stroke-width: 2; stroke-linecap: square"/>
    </g>
    <g id="text_14">
     <!-- Slater -->
     <g transform="translate(319.166577 32.097656) scale(0.15 -0.15)">
      <defs>
       <path id="DejaVuSans-53" d="M 3425 4513 
L 3425 3897 
Q 3066 4069 2747 4153 
Q 2428 4238 2131 4238 
Q 1616 4238 1336 4038 
Q 1056 3838 1056 3469 
Q 1056 3159 1242 3001 
Q 1428 2844 1947 2747 
L 2328 2669 
Q 3034 2534 3370 2195 
Q 3706 1856 3706 1288 
Q 3706 609 3251 259 
Q 2797 -91 1919 -91 
Q 1588 -91 1214 -16 
Q 841 59 441 206 
L 441 856 
Q 825 641 1194 531 
Q 1563 422 1919 422 
Q 2459 422 2753 634 
Q 3047 847 3047 1241 
Q 3047 1584 2836 1778 
Q 2625 1972 2144 2069 
L 1759 2144 
Q 1053 2284 737 2584 
Q 422 2884 422 3419 
Q 422 4038 858 4394 
Q 1294 4750 2059 4750 
Q 2388 4750 2728 4690 
Q 3069 4631 3425 4513 
z
" transform="scale(0.015625)"/>
       <path id="DejaVuSans-6c" d="M 603 4863 
L 1178 4863 
L 1178 0 
L 603 0 
L 603 4863 
z
" transform="scale(0.015625)"/>
       <path id="DejaVuSans-74" d="M 1172 4494 
L 1172 3500 
L 2356 3500 
L 2356 3053 
L 1172 3053 
L 1172 1153 
Q 1172 725 1289 603 
Q 1406 481 1766 481 
L 2356 481 
L 2356 0 
L 1766 0 
Q 1100 0 847 248 
Q 594 497 594 1153 
L 594 3053 
L 172 3053 
L 172 3500 
L 594 3500 
L 594 4494 
L 1172 4494 
z
" transform="scale(0.015625)"/>
       <path id="DejaVuSans-65" d="M 3597 1894 
L 3597 1613 
L 953 1613 
Q 991 1019 1311 708 
Q 1631 397 2203 397 
Q 2534 397 2845 478 
Q 3156 559 3463 722 
L 3463 178 
Q 3153 47 2828 -22 
Q 2503 -91 2169 -91 
Q 1331 -91 842 396 
Q 353 884 353 1716 
Q 353 2575 817 3079 
Q 1281 3584 2069 3584 
Q 2775 3584 3186 3129 
Q 3597 2675 3597 1894 
z
M 3022 2063 
Q 3016 2534 2758 2815 
Q 2500 3097 2075 3097 
Q 1594 3097 1305 2825 
Q 1016 2553 972 2059 
L 3022 2063 
z
" transform="scale(0.015625)"/>
       <path id="DejaVuSans-72" d="M 2631 2963 
Q 2534 3019 2420 3045 
Q 2306 3072 2169 3072 
Q 1681 3072 1420 2755 
Q 1159 2438 1159 1844 
L 1159 0 
L 581 0 
L 581 3500 
L 1159 3500 
L 1159 2956 
Q 1341 3275 1631 3429 
Q 1922 3584 2338 3584 
Q 2397 3584 2469 3576 
Q 2541 3569 2628 3553 
L 2631 2963 
z
" transform="scale(0.015625)"/>
      </defs>
      <use xlink:href="#DejaVuSans-53"/>
      <use xlink:href="#DejaVuSans-6c" transform="translate(63.476562 0)"/>
      <use xlink:href="#DejaVuSans-61" transform="translate(91.259766 0)"/>
      <use xlink:href="#DejaVuSans-74" transform="translate(152.539062 0)"/>
      <use xlink:href="#DejaVuSans-65" transform="translate(191.748047 0)"/>
      <use xlink:href="#DejaVuSans-72" transform="translate(253.271484 0)"/>
     </g>
    </g>
    <g id="line2d_49">
     <path d="M 277.166577 48.864844 
L 292.166577 48.864844 
L 307.166577 48.864844 
" style="fill: none; stroke-dasharray: 14.8,6.4; stroke-dashoffset: 0; stroke: #800080; stroke-width: 4"/>
    </g>
    <g id="text_15">
     <!-- Szabo y Ostlund -->
     <g transform="translate(319.166577 54.114844) scale(0.15 -0.15)">
      <defs>
       <path id="DejaVuSans-7a" d="M 353 3500 
L 3084 3500 
L 3084 2975 
L 922 459 
L 3084 459 
L 3084 0 
L 275 0 
L 275 525 
L 2438 3041 
L 353 3041 
L 353 3500 
z
" transform="scale(0.015625)"/>
       <path id="DejaVuSans-62" d="M 3116 1747 
Q 3116 2381 2855 2742 
Q 2594 3103 2138 3103 
Q 1681 3103 1420 2742 
Q 1159 2381 1159 1747 
Q 1159 1113 1420 752 
Q 1681 391 2138 391 
Q 2594 391 2855 752 
Q 3116 1113 3116 1747 
z
M 1159 2969 
Q 1341 3281 1617 3432 
Q 1894 3584 2278 3584 
Q 2916 3584 3314 3078 
Q 3713 2572 3713 1747 
Q 3713 922 3314 415 
Q 2916 -91 2278 -91 
Q 1894 -91 1617 61 
Q 1341 213 1159 525 
L 1159 0 
L 581 0 
L 581 4863 
L 1159 4863 
L 1159 2969 
z
" transform="scale(0.015625)"/>
       <path id="DejaVuSans-79" d="M 2059 -325 
Q 1816 -950 1584 -1140 
Q 1353 -1331 966 -1331 
L 506 -1331 
L 506 -850 
L 844 -850 
Q 1081 -850 1212 -737 
Q 1344 -625 1503 -206 
L 1606 56 
L 191 3500 
L 800 3500 
L 1894 763 
L 2988 3500 
L 3597 3500 
L 2059 -325 
z
" transform="scale(0.015625)"/>
       <path id="DejaVuSans-4f" d="M 2522 4238 
Q 1834 4238 1429 3725 
Q 1025 3213 1025 2328 
Q 1025 1447 1429 934 
Q 1834 422 2522 422 
Q 3209 422 3611 934 
Q 4013 1447 4013 2328 
Q 4013 3213 3611 3725 
Q 3209 4238 2522 4238 
z
M 2522 4750 
Q 3503 4750 4090 4092 
Q 4678 3434 4678 2328 
Q 4678 1225 4090 567 
Q 3503 -91 2522 -91 
Q 1538 -91 948 565 
Q 359 1222 359 2328 
Q 359 3434 948 4092 
Q 1538 4750 2522 4750 
z
" transform="scale(0.015625)"/>
       <path id="DejaVuSans-73" d="M 2834 3397 
L 2834 2853 
Q 2591 2978 2328 3040 
Q 2066 3103 1784 3103 
Q 1356 3103 1142 2972 
Q 928 2841 928 2578 
Q 928 2378 1081 2264 
Q 1234 2150 1697 2047 
L 1894 2003 
Q 2506 1872 2764 1633 
Q 3022 1394 3022 966 
Q 3022 478 2636 193 
Q 2250 -91 1575 -91 
Q 1294 -91 989 -36 
Q 684 19 347 128 
L 347 722 
Q 666 556 975 473 
Q 1284 391 1588 391 
Q 1994 391 2212 530 
Q 2431 669 2431 922 
Q 2431 1156 2273 1281 
Q 2116 1406 1581 1522 
L 1381 1569 
Q 847 1681 609 1914 
Q 372 2147 372 2553 
Q 372 3047 722 3315 
Q 1072 3584 1716 3584 
Q 2034 3584 2315 3537 
Q 2597 3491 2834 3397 
z
" transform="scale(0.015625)"/>
       <path id="DejaVuSans-75" d="M 544 1381 
L 544 3500 
L 1119 3500 
L 1119 1403 
Q 1119 906 1312 657 
Q 1506 409 1894 409 
Q 2359 409 2629 706 
Q 2900 1003 2900 1516 
L 2900 3500 
L 3475 3500 
L 3475 0 
L 2900 0 
L 2900 538 
Q 2691 219 2414 64 
Q 2138 -91 1772 -91 
Q 1169 -91 856 284 
Q 544 659 544 1381 
z
M 1991 3584 
L 1991 3584 
z
" transform="scale(0.015625)"/>
       <path id="DejaVuSans-6e" d="M 3513 2113 
L 3513 0 
L 2938 0 
L 2938 2094 
Q 2938 2591 2744 2837 
Q 2550 3084 2163 3084 
Q 1697 3084 1428 2787 
Q 1159 2491 1159 1978 
L 1159 0 
L 581 0 
L 581 3500 
L 1159 3500 
L 1159 2956 
Q 1366 3272 1645 3428 
Q 1925 3584 2291 3584 
Q 2894 3584 3203 3211 
Q 3513 2838 3513 2113 
z
" transform="scale(0.015625)"/>
      </defs>
      <use xlink:href="#DejaVuSans-53"/>
      <use xlink:href="#DejaVuSans-7a" transform="translate(63.476562 0)"/>
      <use xlink:href="#DejaVuSans-61" transform="translate(115.966797 0)"/>
      <use xlink:href="#DejaVuSans-62" transform="translate(177.246094 0)"/>
      <use xlink:href="#DejaVuSans-6f" transform="translate(240.722656 0)"/>
      <use xlink:href="#DejaVuSans-20" transform="translate(301.904297 0)"/>
      <use xlink:href="#DejaVuSans-79" transform="translate(333.691406 0)"/>
      <use xlink:href="#DejaVuSans-20" transform="translate(392.871094 0)"/>
      <use xlink:href="#DejaVuSans-4f" transform="translate(424.658203 0)"/>
      <use xlink:href="#DejaVuSans-73" transform="translate(503.369141 0)"/>
      <use xlink:href="#DejaVuSans-74" transform="translate(555.46875 0)"/>
      <use xlink:href="#DejaVuSans-6c" transform="translate(594.677734 0)"/>
      <use xlink:href="#DejaVuSans-75" transform="translate(622.460938 0)"/>
      <use xlink:href="#DejaVuSans-6e" transform="translate(685.839844 0)"/>
      <use xlink:href="#DejaVuSans-64" transform="translate(749.21875 0)"/>
     </g>
    </g>
    <g id="line2d_50">
     <g>
      <use xlink:href="#maaff7d8dac" x="292.166577" y="70.882031" style="fill: #008b8b; stroke: #008b8b"/>
     </g>
    </g>
    <g id="text_16">
     <!-- Este trabajo -->
     <g transform="translate(319.166577 76.132031) scale(0.15 -0.15)">
      <defs>
       <path id="DejaVuSans-45" d="M 628 4666 
L 3578 4666 
L 3578 4134 
L 1259 4134 
L 1259 2753 
L 3481 2753 
L 3481 2222 
L 1259 2222 
L 1259 531 
L 3634 531 
L 3634 0 
L 628 0 
L 628 4666 
z
" transform="scale(0.015625)"/>
       <path id="DejaVuSans-6a" d="M 603 3500 
L 1178 3500 
L 1178 -63 
Q 1178 -731 923 -1031 
Q 669 -1331 103 -1331 
L -116 -1331 
L -116 -844 
L 38 -844 
Q 366 -844 484 -692 
Q 603 -541 603 -63 
L 603 3500 
z
M 603 4863 
L 1178 4863 
L 1178 4134 
L 603 4134 
L 603 4863 
z
" transform="scale(0.015625)"/>
      </defs>
      <use xlink:href="#DejaVuSans-45"/>
      <use xlink:href="#DejaVuSans-73" transform="translate(63.183594 0)"/>
      <use xlink:href="#DejaVuSans-74" transform="translate(115.283203 0)"/>
      <use xlink:href="#DejaVuSans-65" transform="translate(154.492188 0)"/>
      <use xlink:href="#DejaVuSans-20" transform="translate(216.015625 0)"/>
      <use xlink:href="#DejaVuSans-74" transform="translate(247.802734 0)"/>
      <use xlink:href="#DejaVuSans-72" transform="translate(287.011719 0)"/>
      <use xlink:href="#DejaVuSans-61" transform="translate(328.125 0)"/>
      <use xlink:href="#DejaVuSans-62" transform="translate(389.404297 0)"/>
      <use xlink:href="#DejaVuSans-61" transform="translate(452.880859 0)"/>
      <use xlink:href="#DejaVuSans-6a" transform="translate(514.160156 0)"/>
      <use xlink:href="#DejaVuSans-6f" transform="translate(541.943359 0)"/>
     </g>
    </g>
   </g>
  </g>
  <g id="axes_2">
   <g id="patch_8">
    <path d="M 530.662955 284.4 
L 911.1175 284.4 
L 911.1175 7.2 
L 530.662955 7.2 
z
" style="fill: #ffffff"/>
   </g>
   <g id="matplotlib.axis_3">
    <g id="xtick_10">
     <g id="line2d_51">
      <path d="M 547.956343 284.4 
L 547.956343 7.2 
" clip-path="url(#pff1683012d)" style="fill: none; stroke: #b0b0b0; stroke-opacity: 0.4; stroke-width: 0.8; stroke-linecap: square"/>
     </g>
     <g id="line2d_52">
      <g>
       <use xlink:href="#mdbf2f0760e" x="547.956343" y="284.4" style="stroke: #000000; stroke-width: 0.8"/>
      </g>
     </g>
     <g id="text_17">
      <!-- 0 -->
      <g transform="translate(542.230093 305.077188) scale(0.18 -0.18)">
       <use xlink:href="#DejaVuSans-30"/>
      </g>
     </g>
    </g>
    <g id="xtick_11">
     <g id="line2d_53">
      <path d="M 634.423285 284.4 
L 634.423285 7.2 
" clip-path="url(#pff1683012d)" style="fill: none; stroke: #b0b0b0; stroke-opacity: 0.4; stroke-width: 0.8; stroke-linecap: square"/>
     </g>
     <g id="line2d_54">
      <g>
       <use xlink:href="#mdbf2f0760e" x="634.423285" y="284.4" style="stroke: #000000; stroke-width: 0.8"/>
      </g>
     </g>
     <g id="text_18">
      <!-- 1 -->
      <g transform="translate(628.697035 305.077188) scale(0.18 -0.18)">
       <use xlink:href="#DejaVuSans-31"/>
      </g>
     </g>
    </g>
    <g id="xtick_12">
     <g id="line2d_55">
      <path d="M 720.890227 284.4 
L 720.890227 7.2 
" clip-path="url(#pff1683012d)" style="fill: none; stroke: #b0b0b0; stroke-opacity: 0.4; stroke-width: 0.8; stroke-linecap: square"/>
     </g>
     <g id="line2d_56">
      <g>
       <use xlink:href="#mdbf2f0760e" x="720.890227" y="284.4" style="stroke: #000000; stroke-width: 0.8"/>
      </g>
     </g>
     <g id="text_19">
      <!-- 2 -->
      <g transform="translate(715.163977 305.077188) scale(0.18 -0.18)">
       <use xlink:href="#DejaVuSans-32"/>
      </g>
     </g>
    </g>
    <g id="xtick_13">
     <g id="line2d_57">
      <path d="M 807.357169 284.4 
L 807.357169 7.2 
" clip-path="url(#pff1683012d)" style="fill: none; stroke: #b0b0b0; stroke-opacity: 0.4; stroke-width: 0.8; stroke-linecap: square"/>
     </g>
     <g id="line2d_58">
      <g>
       <use xlink:href="#mdbf2f0760e" x="807.357169" y="284.4" style="stroke: #000000; stroke-width: 0.8"/>
      </g>
     </g>
     <g id="text_20">
      <!-- 3 -->
      <g transform="translate(801.630919 305.077188) scale(0.18 -0.18)">
       <use xlink:href="#DejaVuSans-33"/>
      </g>
     </g>
    </g>
    <g id="xtick_14">
     <g id="line2d_59">
      <path d="M 893.824112 284.4 
L 893.824112 7.2 
" clip-path="url(#pff1683012d)" style="fill: none; stroke: #b0b0b0; stroke-opacity: 0.4; stroke-width: 0.8; stroke-linecap: square"/>
     </g>
     <g id="line2d_60">
      <g>
       <use xlink:href="#mdbf2f0760e" x="893.824112" y="284.4" style="stroke: #000000; stroke-width: 0.8"/>
      </g>
     </g>
     <g id="text_21">
      <!-- 4 -->
      <g transform="translate(888.097862 305.077188) scale(0.18 -0.18)">
       <use xlink:href="#DejaVuSans-34"/>
      </g>
     </g>
    </g>
    <g id="xtick_15">
     <g id="line2d_61">
      <path d="M 591.189814 284.4 
L 591.189814 7.2 
" clip-path="url(#pff1683012d)" style="fill: none; stroke: #b0b0b0; stroke-opacity: 0.4; stroke-width: 0.8; stroke-linecap: square"/>
     </g>
     <g id="line2d_62">
      <g>
       <use xlink:href="#m68bfee0200" x="591.189814" y="284.4" style="stroke: #000000; stroke-width: 0.6"/>
      </g>
     </g>
    </g>
    <g id="xtick_16">
     <g id="line2d_63">
      <path d="M 677.656756 284.4 
L 677.656756 7.2 
" clip-path="url(#pff1683012d)" style="fill: none; stroke: #b0b0b0; stroke-opacity: 0.4; stroke-width: 0.8; stroke-linecap: square"/>
     </g>
     <g id="line2d_64">
      <g>
       <use xlink:href="#m68bfee0200" x="677.656756" y="284.4" style="stroke: #000000; stroke-width: 0.6"/>
      </g>
     </g>
    </g>
    <g id="xtick_17">
     <g id="line2d_65">
      <path d="M 764.123698 284.4 
L 764.123698 7.2 
" clip-path="url(#pff1683012d)" style="fill: none; stroke: #b0b0b0; stroke-opacity: 0.4; stroke-width: 0.8; stroke-linecap: square"/>
     </g>
     <g id="line2d_66">
      <g>
       <use xlink:href="#m68bfee0200" x="764.123698" y="284.4" style="stroke: #000000; stroke-width: 0.6"/>
      </g>
     </g>
    </g>
    <g id="xtick_18">
     <g id="line2d_67">
      <path d="M 850.59064 284.4 
L 850.59064 7.2 
" clip-path="url(#pff1683012d)" style="fill: none; stroke: #b0b0b0; stroke-opacity: 0.4; stroke-width: 0.8; stroke-linecap: square"/>
     </g>
     <g id="line2d_68">
      <g>
       <use xlink:href="#m68bfee0200" x="850.59064" y="284.4" style="stroke: #000000; stroke-width: 0.6"/>
      </g>
     </g>
    </g>
    <g id="text_22">
     <!-- Radio ($a_0$) -->
     <g transform="translate(665.670227 335.537188) scale(0.22 -0.22)">
      <use xlink:href="#DejaVuSans-52" transform="translate(0 0.015625)"/>
      <use xlink:href="#DejaVuSans-61" transform="translate(69.482422 0.015625)"/>
      <use xlink:href="#DejaVuSans-64" transform="translate(130.761719 0.015625)"/>
      <use xlink:href="#DejaVuSans-69" transform="translate(194.238281 0.015625)"/>
      <use xlink:href="#DejaVuSans-6f" transform="translate(222.021484 0.015625)"/>
      <use xlink:href="#DejaVuSans-20" transform="translate(283.203125 0.015625)"/>
      <use xlink:href="#DejaVuSans-28" transform="translate(314.990234 0.015625)"/>
      <use xlink:href="#DejaVuSans-Oblique-61" transform="translate(354.003906 0.015625)"/>
      <use xlink:href="#DejaVuSans-30" transform="translate(415.283203 -16.390625) scale(0.7)"/>
      <use xlink:href="#DejaVuSans-29" transform="translate(462.553711 0.015625)"/>
     </g>
    </g>
   </g>
   <g id="matplotlib.axis_4">
    <g id="ytick_14">
     <g id="line2d_69">
      <path d="M 530.662955 271.8 
L 911.1175 271.8 
" clip-path="url(#pff1683012d)" style="fill: none; stroke: #b0b0b0; stroke-opacity: 0.4; stroke-width: 0.8; stroke-linecap: square"/>
     </g>
     <g id="line2d_70">
      <g>
       <use xlink:href="#m27be5a726e" x="530.662955" y="271.8" style="stroke: #000000; stroke-width: 0.8"/>
      </g>
     </g>
     <g id="text_23">
      <!-- 0 -->
      <g transform="translate(512.210455 278.638594) scale(0.18 -0.18)">
       <use xlink:href="#DejaVuSans-30"/>
      </g>
     </g>
    </g>
    <g id="ytick_15">
     <g id="line2d_71">
      <path d="M 530.662955 212.051125 
L 911.1175 212.051125 
" clip-path="url(#pff1683012d)" style="fill: none; stroke: #b0b0b0; stroke-opacity: 0.4; stroke-width: 0.8; stroke-linecap: square"/>
     </g>
     <g id="line2d_72">
      <g>
       <use xlink:href="#m27be5a726e" x="530.662955" y="212.051125" style="stroke: #000000; stroke-width: 0.8"/>
      </g>
     </g>
     <g id="text_24">
      <!-- 2 -->
      <g transform="translate(512.210455 218.889719) scale(0.18 -0.18)">
       <use xlink:href="#DejaVuSans-32"/>
      </g>
     </g>
    </g>
    <g id="ytick_16">
     <g id="line2d_73">
      <path d="M 530.662955 152.302251 
L 911.1175 152.302251 
" clip-path="url(#pff1683012d)" style="fill: none; stroke: #b0b0b0; stroke-opacity: 0.4; stroke-width: 0.8; stroke-linecap: square"/>
     </g>
     <g id="line2d_74">
      <g>
       <use xlink:href="#m27be5a726e" x="530.662955" y="152.302251" style="stroke: #000000; stroke-width: 0.8"/>
      </g>
     </g>
     <g id="text_25">
      <!-- 4 -->
      <g transform="translate(512.210455 159.140844) scale(0.18 -0.18)">
       <use xlink:href="#DejaVuSans-34"/>
      </g>
     </g>
    </g>
    <g id="ytick_17">
     <g id="line2d_75">
      <path d="M 530.662955 92.553376 
L 911.1175 92.553376 
" clip-path="url(#pff1683012d)" style="fill: none; stroke: #b0b0b0; stroke-opacity: 0.4; stroke-width: 0.8; stroke-linecap: square"/>
     </g>
     <g id="line2d_76">
      <g>
       <use xlink:href="#m27be5a726e" x="530.662955" y="92.553376" style="stroke: #000000; stroke-width: 0.8"/>
      </g>
     </g>
     <g id="text_26">
      <!-- 6 -->
      <g transform="translate(512.210455 99.39197) scale(0.18 -0.18)">
       <defs>
        <path id="DejaVuSans-36" d="M 2113 2584 
Q 1688 2584 1439 2293 
Q 1191 2003 1191 1497 
Q 1191 994 1439 701 
Q 1688 409 2113 409 
Q 2538 409 2786 701 
Q 3034 994 3034 1497 
Q 3034 2003 2786 2293 
Q 2538 2584 2113 2584 
z
M 3366 4563 
L 3366 3988 
Q 3128 4100 2886 4159 
Q 2644 4219 2406 4219 
Q 1781 4219 1451 3797 
Q 1122 3375 1075 2522 
Q 1259 2794 1537 2939 
Q 1816 3084 2150 3084 
Q 2853 3084 3261 2657 
Q 3669 2231 3669 1497 
Q 3669 778 3244 343 
Q 2819 -91 2113 -91 
Q 1303 -91 875 529 
Q 447 1150 447 2328 
Q 447 3434 972 4092 
Q 1497 4750 2381 4750 
Q 2619 4750 2861 4703 
Q 3103 4656 3366 4563 
z
" transform="scale(0.015625)"/>
       </defs>
       <use xlink:href="#DejaVuSans-36"/>
      </g>
     </g>
    </g>
    <g id="ytick_18">
     <g id="line2d_77">
      <path d="M 530.662955 32.804501 
L 911.1175 32.804501 
" clip-path="url(#pff1683012d)" style="fill: none; stroke: #b0b0b0; stroke-opacity: 0.4; stroke-width: 0.8; stroke-linecap: square"/>
     </g>
     <g id="line2d_78">
      <g>
       <use xlink:href="#m27be5a726e" x="530.662955" y="32.804501" style="stroke: #000000; stroke-width: 0.8"/>
      </g>
     </g>
     <g id="text_27">
      <!-- 8 -->
      <g transform="translate(512.210455 39.643095) scale(0.18 -0.18)">
       <defs>
        <path id="DejaVuSans-38" d="M 2034 2216 
Q 1584 2216 1326 1975 
Q 1069 1734 1069 1313 
Q 1069 891 1326 650 
Q 1584 409 2034 409 
Q 2484 409 2743 651 
Q 3003 894 3003 1313 
Q 3003 1734 2745 1975 
Q 2488 2216 2034 2216 
z
M 1403 2484 
Q 997 2584 770 2862 
Q 544 3141 544 3541 
Q 544 4100 942 4425 
Q 1341 4750 2034 4750 
Q 2731 4750 3128 4425 
Q 3525 4100 3525 3541 
Q 3525 3141 3298 2862 
Q 3072 2584 2669 2484 
Q 3125 2378 3379 2068 
Q 3634 1759 3634 1313 
Q 3634 634 3220 271 
Q 2806 -91 2034 -91 
Q 1263 -91 848 271 
Q 434 634 434 1313 
Q 434 1759 690 2068 
Q 947 2378 1403 2484 
z
M 1172 3481 
Q 1172 3119 1398 2916 
Q 1625 2713 2034 2713 
Q 2441 2713 2670 2916 
Q 2900 3119 2900 3481 
Q 2900 3844 2670 4047 
Q 2441 4250 2034 4250 
Q 1625 4250 1398 4047 
Q 1172 3844 1172 3481 
z
" transform="scale(0.015625)"/>
       </defs>
       <use xlink:href="#DejaVuSans-38"/>
      </g>
     </g>
    </g>
    <g id="ytick_19">
     <g id="line2d_79">
      <path d="M 530.662955 241.925563 
L 911.1175 241.925563 
" clip-path="url(#pff1683012d)" style="fill: none; stroke: #b0b0b0; stroke-opacity: 0.4; stroke-width: 0.8; stroke-linecap: square"/>
     </g>
     <g id="line2d_80">
      <g>
       <use xlink:href="#m5930a9cde1" x="530.662955" y="241.925563" style="stroke: #000000; stroke-width: 0.6"/>
      </g>
     </g>
    </g>
    <g id="ytick_20">
     <g id="line2d_81">
      <path d="M 530.662955 182.176688 
L 911.1175 182.176688 
" clip-path="url(#pff1683012d)" style="fill: none; stroke: #b0b0b0; stroke-opacity: 0.4; stroke-width: 0.8; stroke-linecap: square"/>
     </g>
     <g id="line2d_82">
      <g>
       <use xlink:href="#m5930a9cde1" x="530.662955" y="182.176688" style="stroke: #000000; stroke-width: 0.6"/>
      </g>
     </g>
    </g>
    <g id="ytick_21">
     <g id="line2d_83">
      <path d="M 530.662955 122.427813 
L 911.1175 122.427813 
" clip-path="url(#pff1683012d)" style="fill: none; stroke: #b0b0b0; stroke-opacity: 0.4; stroke-width: 0.8; stroke-linecap: square"/>
     </g>
     <g id="line2d_84">
      <g>
       <use xlink:href="#m5930a9cde1" x="530.662955" y="122.427813" style="stroke: #000000; stroke-width: 0.6"/>
      </g>
     </g>
    </g>
    <g id="ytick_22">
     <g id="line2d_85">
      <path d="M 530.662955 62.678939 
L 911.1175 62.678939 
" clip-path="url(#pff1683012d)" style="fill: none; stroke: #b0b0b0; stroke-opacity: 0.4; stroke-width: 0.8; stroke-linecap: square"/>
     </g>
     <g id="line2d_86">
      <g>
       <use xlink:href="#m5930a9cde1" x="530.662955" y="62.678939" style="stroke: #000000; stroke-width: 0.6"/>
      </g>
     </g>
    </g>
    <g id="text_28">
     <!-- $4\pi r^2 |R_{1s}|^2$ -->
     <g transform="translate(496.930455 199.26) rotate(-90) scale(0.22 -0.22)">
      <defs>
       <path id="DejaVuSans-Oblique-3c0" d="M 584 3500 
L 3938 3500 
L 3825 2925 
L 3384 2925 
L 2966 775 
Q 2922 550 2981 450 
Q 3038 353 3209 353 
Q 3256 353 3325 363 
Q 3397 369 3419 372 
L 3338 -44 
Q 3222 -84 3103 -103 
Q 2981 -122 2866 -122 
Q 2491 -122 2388 81 
Q 2284 288 2391 838 
L 2797 2925 
L 1506 2925 
L 938 0 
L 350 0 
L 919 2925 
L 472 2925 
L 584 3500 
z
" transform="scale(0.015625)"/>
       <path id="DejaVuSans-Oblique-72" d="M 2853 2969 
Q 2766 3016 2653 3041 
Q 2541 3066 2413 3066 
Q 1953 3066 1609 2717 
Q 1266 2369 1153 1784 
L 800 0 
L 225 0 
L 909 3500 
L 1484 3500 
L 1375 2956 
Q 1603 3259 1920 3421 
Q 2238 3584 2597 3584 
Q 2691 3584 2781 3573 
Q 2872 3563 2963 3538 
L 2853 2969 
z
" transform="scale(0.015625)"/>
       <path id="DejaVuSans-7c" d="M 1344 4891 
L 1344 -1509 
L 813 -1509 
L 813 4891 
L 1344 4891 
z
" transform="scale(0.015625)"/>
      </defs>
      <use xlink:href="#DejaVuSans-34" transform="translate(0 0.765625)"/>
      <use xlink:href="#DejaVuSans-Oblique-3c0" transform="translate(63.623047 0.765625)"/>
      <use xlink:href="#DejaVuSans-Oblique-72" transform="translate(123.828125 0.765625)"/>
      <use xlink:href="#DejaVuSans-32" transform="translate(169.591302 39.046875) scale(0.7)"/>
      <use xlink:href="#DejaVuSans-7c" transform="translate(216.86181 0.765625)"/>
      <use xlink:href="#DejaVuSans-Oblique-52" transform="translate(250.553216 0.765625)"/>
      <use xlink:href="#DejaVuSans-31" transform="translate(320.035638 -15.640625) scale(0.7)"/>
      <use xlink:href="#DejaVuSans-Oblique-73" transform="translate(364.571771 -15.640625) scale(0.7)"/>
      <use xlink:href="#DejaVuSans-7c" transform="translate(403.775872 0.765625)"/>
      <use xlink:href="#DejaVuSans-32" transform="translate(438.42431 39.046875) scale(0.7)"/>
     </g>
    </g>
   </g>
   <g id="line2d_87">
    <path d="M 547.956343 271.8 
L 551.449957 267.571688 
L 554.943571 256.499351 
L 558.437184 240.655942 
L 561.930798 221.711793 
L 565.424412 200.999174 
L 568.918026 179.567574 
L 572.41164 158.230941 
L 575.905254 137.607966 
L 579.398867 118.156357 
L 582.892481 100.201932 
L 586.386095 83.963244 
L 589.879709 69.572358 
L 593.373323 57.092337 
L 596.866937 46.531884 
L 600.36055 37.857574 
L 603.854164 31.004009 
L 607.347778 25.882211 
L 610.841392 22.386516 
L 614.335006 20.400195 
L 617.828619 19.8 
L 621.322233 20.459801 
L 624.815847 22.253466 
L 628.309461 25.057098 
L 631.803075 28.750745 
L 635.296689 33.219665 
L 638.790302 38.355235 
L 642.283916 44.055558 
L 645.77753 50.225827 
L 649.271144 56.778501 
L 652.764758 63.633321 
L 656.258372 70.717207 
L 659.751985 77.964065 
L 663.245599 85.314516 
L 666.739213 92.715581 
L 670.232827 100.120329 
L 673.726441 107.487501 
L 677.220054 114.781125 
L 680.713668 121.970123 
L 684.207282 129.027929 
L 687.700896 135.932106 
L 691.19451 142.663982 
L 694.688124 149.208299 
L 698.181737 155.552876 
L 701.675351 161.688298 
L 705.168965 167.607618 
L 708.662579 173.306081 
L 712.156193 178.780867 
L 715.649807 184.030857 
L 719.14342 189.05641 
L 722.637034 193.85917 
L 726.130648 198.441882 
L 729.624262 202.808222 
L 733.117876 206.962658 
L 736.611489 210.910305 
L 740.105103 214.656811 
L 743.598717 218.208247 
L 747.092331 221.571011 
L 750.585945 224.751744 
L 754.079559 227.757255 
L 757.573172 230.594454 
L 761.066786 233.270297 
L 764.5604 235.791736 
L 768.054014 238.165675 
L 771.547628 240.398935 
L 775.041242 242.498223 
L 778.534855 244.470107 
L 782.028469 246.320994 
L 785.522083 248.057113 
L 789.015697 249.684504 
L 792.509311 251.209001 
L 796.002924 252.636235 
L 799.496538 253.971617 
L 802.990152 255.220345 
L 806.483766 256.387396 
L 809.97738 257.47753 
L 813.470994 258.49529 
L 816.964607 259.445007 
L 820.458221 260.330802 
L 823.951835 261.156589 
L 827.445449 261.926083 
L 830.939063 262.642808 
L 834.432677 263.310095 
L 837.92629 263.931098 
L 841.419904 264.508795 
L 844.913518 265.045994 
L 848.407132 265.545346 
L 851.900746 266.009345 
L 855.39436 266.440339 
L 858.887973 266.840535 
L 862.381587 267.212008 
L 865.875201 267.556705 
L 869.368815 267.876452 
L 872.862429 268.172963 
L 876.356042 268.447841 
L 879.849656 268.702588 
L 883.34327 268.93861 
L 886.836884 269.157221 
L 890.330498 269.359649 
L 893.824112 269.547041 
" clip-path="url(#pff1683012d)" style="fill: none; stroke: #000000; stroke-width: 2; stroke-linecap: square"/>
   </g>
   <g id="line2d_88">
    <path d="M 547.956343 271.8 
L 551.449957 268.778085 
L 554.943571 259.922389 
L 558.437184 245.839064 
L 561.930798 227.462227 
L 565.424412 205.952464 
L 568.918026 182.577445 
L 572.41164 158.591807 
L 575.905254 135.131962 
L 579.398867 113.137415 
L 582.892481 93.304691 
L 586.386095 76.07422 
L 589.879709 61.645762 
L 593.373323 50.014793 
L 596.866937 41.02099 
L 600.36055 34.400401 
L 603.854164 29.834482 
L 607.347778 26.991385 
L 610.841392 25.557148 
L 614.335006 25.256329 
L 617.828619 25.862983 
L 621.322233 27.20372 
L 624.815847 29.154823 
L 628.309461 31.635463 
L 631.803075 34.598731 
L 635.296689 38.02195 
L 638.790302 41.897317 
L 642.283916 46.22364 
L 645.77753 50.999618 
L 649.271144 56.218876 
L 652.764758 61.866765 
L 656.258372 67.918787 
L 659.751985 74.340395 
L 663.245599 81.087874 
L 666.739213 88.109977 
L 670.232827 95.350011 
L 673.726441 102.748095 
L 677.220054 110.243394 
L 680.713668 117.776139 
L 684.207282 125.289366 
L 687.700896 132.730283 
L 691.19451 140.051283 
L 694.688124 147.210594 
L 698.181737 154.172623 
L 701.675351 160.908019 
L 705.168965 167.393528 
L 708.662579 173.611676 
L 712.156193 179.55033 
L 715.649807 185.202181 
L 719.14342 190.564186 
L 722.637034 195.636996 
L 726.130648 200.424384 
L 729.624262 204.932701 
L 733.117876 209.170373 
L 736.611489 213.147431 
L 740.105103 216.875097 
L 743.598717 220.365415 
L 747.092331 223.630933 
L 750.585945 226.684432 
L 754.079559 229.5387 
L 757.573172 232.206347 
L 761.066786 234.699656 
L 764.5604 237.030471 
L 768.054014 239.210109 
L 771.547628 241.249302 
L 775.041242 243.158155 
L 778.534855 244.946129 
L 782.028469 246.622032 
L 785.522083 248.194028 
L 789.015697 249.66965 
L 792.509311 251.055826 
L 796.002924 252.358904 
L 799.496538 253.58469 
L 802.990152 254.738481 
L 806.483766 255.825101 
L 809.97738 256.848941 
L 813.470994 257.813994 
L 816.964607 258.723892 
L 820.458221 259.581945 
L 823.951835 260.391168 
L 827.445449 261.154318 
L 830.939063 261.87392 
L 834.432677 262.552296 
L 837.92629 263.191589 
L 841.419904 263.793785 
L 844.913518 264.360732 
L 848.407132 264.89416 
L 851.900746 265.395696 
L 855.39436 265.866874 
L 858.887973 266.309152 
L 862.381587 266.723918 
L 865.875201 267.112499 
L 869.368815 267.47617 
L 872.862429 267.816154 
L 876.356042 268.133633 
L 879.849656 268.429749 
L 883.34327 268.705603 
L 886.836884 268.962262 
L 890.330498 269.200759 
L 893.824112 269.422091 
" clip-path="url(#pff1683012d)" style="fill: none; stroke-dasharray: 14.8,6.4; stroke-dashoffset: 0; stroke: #800080; stroke-width: 4"/>
   </g>
   <g id="line2d_89">
    <g clip-path="url(#pff1683012d)">
     <use xlink:href="#maaff7d8dac" x="547.956343" y="271.8" style="fill: #008b8b; stroke: #008b8b"/>
     <use xlink:href="#maaff7d8dac" x="565.424412" y="205.93271" style="fill: #008b8b; stroke: #008b8b"/>
     <use xlink:href="#maaff7d8dac" x="582.892481" y="93.307849" style="fill: #008b8b; stroke: #008b8b"/>
     <use xlink:href="#maaff7d8dac" x="600.36055" y="34.444018" style="fill: #008b8b; stroke: #008b8b"/>
     <use xlink:href="#maaff7d8dac" x="617.828619" y="25.875555" style="fill: #008b8b; stroke: #008b8b"/>
     <use xlink:href="#maaff7d8dac" x="635.296689" y="37.98593" style="fill: #008b8b; stroke: #008b8b"/>
     <use xlink:href="#maaff7d8dac" x="652.764758" y="61.828356" style="fill: #008b8b; stroke: #008b8b"/>
     <use xlink:href="#maaff7d8dac" x="670.232827" y="95.342216" style="fill: #008b8b; stroke: #008b8b"/>
     <use xlink:href="#maaff7d8dac" x="687.700896" y="132.74842" style="fill: #008b8b; stroke: #008b8b"/>
     <use xlink:href="#maaff7d8dac" x="705.168965" y="167.418382" style="fill: #008b8b; stroke: #008b8b"/>
     <use xlink:href="#maaff7d8dac" x="722.637034" y="195.65494" style="fill: #008b8b; stroke: #008b8b"/>
     <use xlink:href="#maaff7d8dac" x="740.105103" y="216.882127" style="fill: #008b8b; stroke: #008b8b"/>
     <use xlink:href="#maaff7d8dac" x="757.573172" y="232.204555" style="fill: #008b8b; stroke: #008b8b"/>
     <use xlink:href="#maaff7d8dac" x="775.041242" y="243.151633" style="fill: #008b8b; stroke: #008b8b"/>
     <use xlink:href="#maaff7d8dac" x="792.509311" y="251.048217" style="fill: #008b8b; stroke: #008b8b"/>
     <use xlink:href="#maaff7d8dac" x="809.97738" y="256.842528" style="fill: #008b8b; stroke: #008b8b"/>
     <use xlink:href="#maaff7d8dac" x="827.445449" y="261.150033" style="fill: #008b8b; stroke: #008b8b"/>
     <use xlink:href="#maaff7d8dac" x="844.913518" y="264.358558" style="fill: #008b8b; stroke: #008b8b"/>
     <use xlink:href="#maaff7d8dac" x="862.381587" y="266.723352" style="fill: #008b8b; stroke: #008b8b"/>
     <use xlink:href="#maaff7d8dac" x="879.849656" y="268.43017" style="fill: #008b8b; stroke: #008b8b"/>
    </g>
   </g>
   <g id="patch_9">
    <path d="M 530.662955 284.4 
L 530.662955 7.2 
" style="fill: none; stroke: #000000; stroke-width: 0.8; stroke-linejoin: miter; stroke-linecap: square"/>
   </g>
   <g id="patch_10">
    <path d="M 911.1175 284.4 
L 911.1175 7.2 
" style="fill: none; stroke: #000000; stroke-width: 0.8; stroke-linejoin: miter; stroke-linecap: square"/>
   </g>
   <g id="patch_11">
    <path d="M 530.662955 284.4 
L 911.1175 284.4 
" style="fill: none; stroke: #000000; stroke-width: 0.8; stroke-linejoin: miter; stroke-linecap: square"/>
   </g>
   <g id="patch_12">
    <path d="M 530.662955 7.2 
L 911.1175 7.2 
" style="fill: none; stroke: #000000; stroke-width: 0.8; stroke-linejoin: miter; stroke-linecap: square"/>
   </g>
   <g id="legend_2">
    <g id="patch_13">
     <path d="M 730.712031 85.251562 
L 900.6175 85.251562 
Q 903.6175 85.251562 903.6175 82.251562 
L 903.6175 17.7 
Q 903.6175 14.7 900.6175 14.7 
L 730.712031 14.7 
Q 727.712031 14.7 727.712031 17.7 
L 727.712031 82.251562 
Q 727.712031 85.251562 730.712031 85.251562 
z
" style="fill: #ffffff; opacity: 0.8; stroke: #cccccc; stroke-linejoin: miter"/>
    </g>
    <g id="line2d_90">
     <path d="M 733.712031 26.847656 
L 748.712031 26.847656 
L 763.712031 26.847656 
" style="fill: none; stroke: #000000; stroke-width: 2; stroke-linecap: square"/>
    </g>
    <g id="text_29">
     <!-- Slater -->
     <g transform="translate(775.712031 32.097656) scale(0.15 -0.15)">
      <use xlink:href="#DejaVuSans-53"/>
      <use xlink:href="#DejaVuSans-6c" transform="translate(63.476562 0)"/>
      <use xlink:href="#DejaVuSans-61" transform="translate(91.259766 0)"/>
      <use xlink:href="#DejaVuSans-74" transform="translate(152.539062 0)"/>
      <use xlink:href="#DejaVuSans-65" transform="translate(191.748047 0)"/>
      <use xlink:href="#DejaVuSans-72" transform="translate(253.271484 0)"/>
     </g>
    </g>
    <g id="line2d_91">
     <path d="M 733.712031 48.864844 
L 748.712031 48.864844 
L 763.712031 48.864844 
" style="fill: none; stroke-dasharray: 14.8,6.4; stroke-dashoffset: 0; stroke: #800080; stroke-width: 4"/>
    </g>
    <g id="text_30">
     <!-- Szabo y Ostlund -->
     <g transform="translate(775.712031 54.114844) scale(0.15 -0.15)">
      <use xlink:href="#DejaVuSans-53"/>
      <use xlink:href="#DejaVuSans-7a" transform="translate(63.476562 0)"/>
      <use xlink:href="#DejaVuSans-61" transform="translate(115.966797 0)"/>
      <use xlink:href="#DejaVuSans-62" transform="translate(177.246094 0)"/>
      <use xlink:href="#DejaVuSans-6f" transform="translate(240.722656 0)"/>
      <use xlink:href="#DejaVuSans-20" transform="translate(301.904297 0)"/>
      <use xlink:href="#DejaVuSans-79" transform="translate(333.691406 0)"/>
      <use xlink:href="#DejaVuSans-20" transform="translate(392.871094 0)"/>
      <use xlink:href="#DejaVuSans-4f" transform="translate(424.658203 0)"/>
      <use xlink:href="#DejaVuSans-73" transform="translate(503.369141 0)"/>
      <use xlink:href="#DejaVuSans-74" transform="translate(555.46875 0)"/>
      <use xlink:href="#DejaVuSans-6c" transform="translate(594.677734 0)"/>
      <use xlink:href="#DejaVuSans-75" transform="translate(622.460938 0)"/>
      <use xlink:href="#DejaVuSans-6e" transform="translate(685.839844 0)"/>
      <use xlink:href="#DejaVuSans-64" transform="translate(749.21875 0)"/>
     </g>
    </g>
    <g id="line2d_92">
     <g>
      <use xlink:href="#maaff7d8dac" x="748.712031" y="70.882031" style="fill: #008b8b; stroke: #008b8b"/>
     </g>
    </g>
    <g id="text_31">
     <!-- Este trabajo -->
     <g transform="translate(775.712031 76.132031) scale(0.15 -0.15)">
      <use xlink:href="#DejaVuSans-45"/>
      <use xlink:href="#DejaVuSans-73" transform="translate(63.183594 0)"/>
      <use xlink:href="#DejaVuSans-74" transform="translate(115.283203 0)"/>
      <use xlink:href="#DejaVuSans-65" transform="translate(154.492188 0)"/>
      <use xlink:href="#DejaVuSans-20" transform="translate(216.015625 0)"/>
      <use xlink:href="#DejaVuSans-74" transform="translate(247.802734 0)"/>
      <use xlink:href="#DejaVuSans-72" transform="translate(287.011719 0)"/>
      <use xlink:href="#DejaVuSans-61" transform="translate(328.125 0)"/>
      <use xlink:href="#DejaVuSans-62" transform="translate(389.404297 0)"/>
      <use xlink:href="#DejaVuSans-61" transform="translate(452.880859 0)"/>
      <use xlink:href="#DejaVuSans-6a" transform="translate(514.160156 0)"/>
      <use xlink:href="#DejaVuSans-6f" transform="translate(541.943359 0)"/>
     </g>
    </g>
   </g>
  </g>
 </g>
 <defs>
  <clipPath id="pebdc39fae3">
   <rect x="74.1175" y="7.2" width="380.454545" height="277.2"/>
  </clipPath>
  <clipPath id="pff1683012d">
   <rect x="530.662955" y="7.2" width="380.454545" height="277.2"/>
  </clipPath>
 </defs>
</svg>
