<?xml version="1.0" encoding="utf-8" standalone="no"?>
<!DOCTYPE svg PUBLIC "-//W3C//DTD SVG 1.1//EN"
  "http://www.w3.org/Graphics/SVG/1.1/DTD/svg11.dtd">
<svg xmlns:xlink="http://www.w3.org/1999/xlink" width="1041.299062pt" height="393.439219pt" viewBox="0 0 1041.299062 393.439219" xmlns="http://www.w3.org/2000/svg" version="1.1">
 <metadata>
  <rdf:RDF xmlns:dc="http://purl.org/dc/elements/1.1/" xmlns:cc="http://creativecommons.org/ns#" xmlns:rdf="http://www.w3.org/1999/02/22-rdf-syntax-ns#">
   <cc:Work>
    <dc:type rdf:resource="http://purl.org/dc/dcmitype/StillImage"/>
    <dc:date>2025-07-08T17:55:44.464610</dc:date>
    <dc:format>image/svg+xml</dc:format>
    <dc:creator>
     <cc:Agent>
      <dc:title>Matplotlib v3.10.1, https://matplotlib.org/</dc:title>
     </cc:Agent>
    </dc:creator>
   </cc:Work>
  </rdf:RDF>
 </metadata>
 <defs>
  <style type="text/css">*{stroke-linejoin: round; stroke-linecap: butt}</style>
 </defs>
 <g id="figure_1">
  <g id="patch_1">
   <path d="M 0 393.439219 
L 1041.299062 393.439219 
L 1041.299062 -0 
L 0 -0 
z
" style="fill: #ffffff"/>
  </g>
  <g id="axes_1">
   <g id="patch_2">
    <path d="M 90.129063 328.278594 
L 547.864062 328.278594 
L 547.864062 14.038594 
L 90.129063 14.038594 
z
" style="fill: #ffffff"/>
   </g>
   <g id="matplotlib.axis_1">
    <g id="xtick_1">
     <g id="line2d_1">
      <path d="M 92.903214 328.278594 
L 92.903214 14.038594 
" clip-path="url(#p74a950790d)" style="fill: none; stroke: #b0b0b0; stroke-opacity: 0.4; stroke-width: 0.8; stroke-linecap: square"/>
     </g>
     <g id="line2d_2">
      <defs>
       <path id="mdf9e112802" d="M 0 0 
L 0 3.5 
" style="stroke: #000000; stroke-width: 0.8"/>
      </defs>
      <g>
       <use xlink:href="#mdf9e112802" x="92.903214" y="328.278594" style="stroke: #000000; stroke-width: 0.8"/>
      </g>
     </g>
     <g id="text_1">
      <!-- 0 -->
      <g transform="translate(87.176964 348.955781) scale(0.18 -0.18)">
       <defs>
        <path id="DejaVuSans-30" d="M 2034 4250 
Q 1547 4250 1301 3770 
Q 1056 3291 1056 2328 
Q 1056 1369 1301 889 
Q 1547 409 2034 409 
Q 2525 409 2770 889 
Q 3016 1369 3016 2328 
Q 3016 3291 2770 3770 
Q 2525 4250 2034 4250 
z
M 2034 4750 
Q 2819 4750 3233 4129 
Q 3647 3509 3647 2328 
Q 3647 1150 3233 529 
Q 2819 -91 2034 -91 
Q 1250 -91 836 529 
Q 422 1150 422 2328 
Q 422 3509 836 4129 
Q 1250 4750 2034 4750 
z
" transform="scale(0.015625)"/>
       </defs>
       <use xlink:href="#DejaVuSans-30"/>
      </g>
     </g>
    </g>
    <g id="xtick_2">
     <g id="line2d_3">
      <path d="M 148.386244 328.278594 
L 148.386244 14.038594 
" clip-path="url(#p74a950790d)" style="fill: none; stroke: #b0b0b0; stroke-opacity: 0.4; stroke-width: 0.8; stroke-linecap: square"/>
     </g>
     <g id="line2d_4">
      <g>
       <use xlink:href="#mdf9e112802" x="148.386244" y="328.278594" style="stroke: #000000; stroke-width: 0.8"/>
      </g>
     </g>
     <g id="text_2">
      <!-- 1 -->
      <g transform="translate(142.659994 348.955781) scale(0.18 -0.18)">
       <defs>
        <path id="DejaVuSans-31" d="M 794 531 
L 1825 531 
L 1825 4091 
L 703 3866 
L 703 4441 
L 1819 4666 
L 2450 4666 
L 2450 531 
L 3481 531 
L 3481 0 
L 794 0 
L 794 531 
z
" transform="scale(0.015625)"/>
       </defs>
       <use xlink:href="#DejaVuSans-31"/>
      </g>
     </g>
    </g>
    <g id="xtick_3">
     <g id="line2d_5">
      <path d="M 203.869275 328.278594 
L 203.869275 14.038594 
" clip-path="url(#p74a950790d)" style="fill: none; stroke: #b0b0b0; stroke-opacity: 0.4; stroke-width: 0.8; stroke-linecap: square"/>
     </g>
     <g id="line2d_6">
      <g>
       <use xlink:href="#mdf9e112802" x="203.869275" y="328.278594" style="stroke: #000000; stroke-width: 0.8"/>
      </g>
     </g>
     <g id="text_3">
      <!-- 2 -->
      <g transform="translate(198.143025 348.955781) scale(0.18 -0.18)">
       <defs>
        <path id="DejaVuSans-32" d="M 1228 531 
L 3431 531 
L 3431 0 
L 469 0 
L 469 531 
Q 828 903 1448 1529 
Q 2069 2156 2228 2338 
Q 2531 2678 2651 2914 
Q 2772 3150 2772 3378 
Q 2772 3750 2511 3984 
Q 2250 4219 1831 4219 
Q 1534 4219 1204 4116 
Q 875 4013 500 3803 
L 500 4441 
Q 881 4594 1212 4672 
Q 1544 4750 1819 4750 
Q 2544 4750 2975 4387 
Q 3406 4025 3406 3419 
Q 3406 3131 3298 2873 
Q 3191 2616 2906 2266 
Q 2828 2175 2409 1742 
Q 1991 1309 1228 531 
z
" transform="scale(0.015625)"/>
       </defs>
       <use xlink:href="#DejaVuSans-32"/>
      </g>
     </g>
    </g>
    <g id="xtick_4">
     <g id="line2d_7">
      <path d="M 259.352305 328.278594 
L 259.352305 14.038594 
" clip-path="url(#p74a950790d)" style="fill: none; stroke: #b0b0b0; stroke-opacity: 0.4; stroke-width: 0.8; stroke-linecap: square"/>
     </g>
     <g id="line2d_8">
      <g>
       <use xlink:href="#mdf9e112802" x="259.352305" y="328.278594" style="stroke: #000000; stroke-width: 0.8"/>
      </g>
     </g>
     <g id="text_4">
      <!-- 3 -->
      <g transform="translate(253.626055 348.955781) scale(0.18 -0.18)">
       <defs>
        <path id="DejaVuSans-33" d="M 2597 2516 
Q 3050 2419 3304 2112 
Q 3559 1806 3559 1356 
Q 3559 666 3084 287 
Q 2609 -91 1734 -91 
Q 1441 -91 1130 -33 
Q 819 25 488 141 
L 488 750 
Q 750 597 1062 519 
Q 1375 441 1716 441 
Q 2309 441 2620 675 
Q 2931 909 2931 1356 
Q 2931 1769 2642 2001 
Q 2353 2234 1838 2234 
L 1294 2234 
L 1294 2753 
L 1863 2753 
Q 2328 2753 2575 2939 
Q 2822 3125 2822 3475 
Q 2822 3834 2567 4026 
Q 2313 4219 1838 4219 
Q 1578 4219 1281 4162 
Q 984 4106 628 3988 
L 628 4550 
Q 988 4650 1302 4700 
Q 1616 4750 1894 4750 
Q 2613 4750 3031 4423 
Q 3450 4097 3450 3541 
Q 3450 3153 3228 2886 
Q 3006 2619 2597 2516 
z
" transform="scale(0.015625)"/>
       </defs>
       <use xlink:href="#DejaVuSans-33"/>
      </g>
     </g>
    </g>
    <g id="xtick_5">
     <g id="line2d_9">
      <path d="M 314.835335 328.278594 
L 314.835335 14.038594 
" clip-path="url(#p74a950790d)" style="fill: none; stroke: #b0b0b0; stroke-opacity: 0.4; stroke-width: 0.8; stroke-linecap: square"/>
     </g>
     <g id="line2d_10">
      <g>
       <use xlink:href="#mdf9e112802" x="314.835335" y="328.278594" style="stroke: #000000; stroke-width: 0.8"/>
      </g>
     </g>
     <g id="text_5">
      <!-- 4 -->
      <g transform="translate(309.109085 348.955781) scale(0.18 -0.18)">
       <defs>
        <path id="DejaVuSans-34" d="M 2419 4116 
L 825 1625 
L 2419 1625 
L 2419 4116 
z
M 2253 4666 
L 3047 4666 
L 3047 1625 
L 3713 1625 
L 3713 1100 
L 3047 1100 
L 3047 0 
L 2419 0 
L 2419 1100 
L 313 1100 
L 313 1709 
L 2253 4666 
z
" transform="scale(0.015625)"/>
       </defs>
       <use xlink:href="#DejaVuSans-34"/>
      </g>
     </g>
    </g>
    <g id="xtick_6">
     <g id="line2d_11">
      <path d="M 370.318366 328.278594 
L 370.318366 14.038594 
" clip-path="url(#p74a950790d)" style="fill: none; stroke: #b0b0b0; stroke-opacity: 0.4; stroke-width: 0.8; stroke-linecap: square"/>
     </g>
     <g id="line2d_12">
      <g>
       <use xlink:href="#mdf9e112802" x="370.318366" y="328.278594" style="stroke: #000000; stroke-width: 0.8"/>
      </g>
     </g>
     <g id="text_6">
      <!-- 5 -->
      <g transform="translate(364.592116 348.955781) scale(0.18 -0.18)">
       <defs>
        <path id="DejaVuSans-35" d="M 691 4666 
L 3169 4666 
L 3169 4134 
L 1269 4134 
L 1269 2991 
Q 1406 3038 1543 3061 
Q 1681 3084 1819 3084 
Q 2600 3084 3056 2656 
Q 3513 2228 3513 1497 
Q 3513 744 3044 326 
Q 2575 -91 1722 -91 
Q 1428 -91 1123 -41 
Q 819 9 494 109 
L 494 744 
Q 775 591 1075 516 
Q 1375 441 1709 441 
Q 2250 441 2565 725 
Q 2881 1009 2881 1497 
Q 2881 1984 2565 2268 
Q 2250 2553 1709 2553 
Q 1456 2553 1204 2497 
Q 953 2441 691 2322 
L 691 4666 
z
" transform="scale(0.015625)"/>
       </defs>
       <use xlink:href="#DejaVuSans-35"/>
      </g>
     </g>
    </g>
    <g id="xtick_7">
     <g id="line2d_13">
      <path d="M 425.801396 328.278594 
L 425.801396 14.038594 
" clip-path="url(#p74a950790d)" style="fill: none; stroke: #b0b0b0; stroke-opacity: 0.4; stroke-width: 0.8; stroke-linecap: square"/>
     </g>
     <g id="line2d_14">
      <g>
       <use xlink:href="#mdf9e112802" x="425.801396" y="328.278594" style="stroke: #000000; stroke-width: 0.8"/>
      </g>
     </g>
     <g id="text_7">
      <!-- 6 -->
      <g transform="translate(420.075146 348.955781) scale(0.18 -0.18)">
       <defs>
        <path id="DejaVuSans-36" d="M 2113 2584 
Q 1688 2584 1439 2293 
Q 1191 2003 1191 1497 
Q 1191 994 1439 701 
Q 1688 409 2113 409 
Q 2538 409 2786 701 
Q 3034 994 3034 1497 
Q 3034 2003 2786 2293 
Q 2538 2584 2113 2584 
z
M 3366 4563 
L 3366 3988 
Q 3128 4100 2886 4159 
Q 2644 4219 2406 4219 
Q 1781 4219 1451 3797 
Q 1122 3375 1075 2522 
Q 1259 2794 1537 2939 
Q 1816 3084 2150 3084 
Q 2853 3084 3261 2657 
Q 3669 2231 3669 1497 
Q 3669 778 3244 343 
Q 2819 -91 2113 -91 
Q 1303 -91 875 529 
Q 447 1150 447 2328 
Q 447 3434 972 4092 
Q 1497 4750 2381 4750 
Q 2619 4750 2861 4703 
Q 3103 4656 3366 4563 
z
" transform="scale(0.015625)"/>
       </defs>
       <use xlink:href="#DejaVuSans-36"/>
      </g>
     </g>
    </g>
    <g id="xtick_8">
     <g id="line2d_15">
      <path d="M 481.284426 328.278594 
L 481.284426 14.038594 
" clip-path="url(#p74a950790d)" style="fill: none; stroke: #b0b0b0; stroke-opacity: 0.4; stroke-width: 0.8; stroke-linecap: square"/>
     </g>
     <g id="line2d_16">
      <g>
       <use xlink:href="#mdf9e112802" x="481.284426" y="328.278594" style="stroke: #000000; stroke-width: 0.8"/>
      </g>
     </g>
     <g id="text_8">
      <!-- 7 -->
      <g transform="translate(475.558176 348.955781) scale(0.18 -0.18)">
       <defs>
        <path id="DejaVuSans-37" d="M 525 4666 
L 3525 4666 
L 3525 4397 
L 1831 0 
L 1172 0 
L 2766 4134 
L 525 4134 
L 525 4666 
z
" transform="scale(0.015625)"/>
       </defs>
       <use xlink:href="#DejaVuSans-37"/>
      </g>
     </g>
    </g>
    <g id="xtick_9">
     <g id="line2d_17">
      <path d="M 536.767456 328.278594 
L 536.767456 14.038594 
" clip-path="url(#p74a950790d)" style="fill: none; stroke: #b0b0b0; stroke-opacity: 0.4; stroke-width: 0.8; stroke-linecap: square"/>
     </g>
     <g id="line2d_18">
      <g>
       <use xlink:href="#mdf9e112802" x="536.767456" y="328.278594" style="stroke: #000000; stroke-width: 0.8"/>
      </g>
     </g>
     <g id="text_9">
      <!-- 8 -->
      <g transform="translate(531.041206 348.955781) scale(0.18 -0.18)">
       <defs>
        <path id="DejaVuSans-38" d="M 2034 2216 
Q 1584 2216 1326 1975 
Q 1069 1734 1069 1313 
Q 1069 891 1326 650 
Q 1584 409 2034 409 
Q 2484 409 2743 651 
Q 3003 894 3003 1313 
Q 3003 1734 2745 1975 
Q 2488 2216 2034 2216 
z
M 1403 2484 
Q 997 2584 770 2862 
Q 544 3141 544 3541 
Q 544 4100 942 4425 
Q 1341 4750 2034 4750 
Q 2731 4750 3128 4425 
Q 3525 4100 3525 3541 
Q 3525 3141 3298 2862 
Q 3072 2584 2669 2484 
Q 3125 2378 3379 2068 
Q 3634 1759 3634 1313 
Q 3634 634 3220 271 
Q 2806 -91 2034 -91 
Q 1263 -91 848 271 
Q 434 634 434 1313 
Q 434 1759 690 2068 
Q 947 2378 1403 2484 
z
M 1172 3481 
Q 1172 3119 1398 2916 
Q 1625 2713 2034 2713 
Q 2441 2713 2670 2916 
Q 2900 3119 2900 3481 
Q 2900 3844 2670 4047 
Q 2441 4250 2034 4250 
Q 1625 4250 1398 4047 
Q 1172 3844 1172 3481 
z
" transform="scale(0.015625)"/>
       </defs>
       <use xlink:href="#DejaVuSans-38"/>
      </g>
     </g>
    </g>
    <g id="text_10">
     <!-- Distancia interatómica ($a_0$) -->
     <g transform="translate(170.276562 379.683906) scale(0.22 -0.22)">
      <defs>
       <path id="DejaVuSans-44" d="M 1259 4147 
L 1259 519 
L 2022 519 
Q 2988 519 3436 956 
Q 3884 1394 3884 2338 
Q 3884 3275 3436 3711 
Q 2988 4147 2022 4147 
L 1259 4147 
z
M 628 4666 
L 1925 4666 
Q 3281 4666 3915 4102 
Q 4550 3538 4550 2338 
Q 4550 1131 3912 565 
Q 3275 0 1925 0 
L 628 0 
L 628 4666 
z
" transform="scale(0.015625)"/>
       <path id="DejaVuSans-69" d="M 603 3500 
L 1178 3500 
L 1178 0 
L 603 0 
L 603 3500 
z
M 603 4863 
L 1178 4863 
L 1178 4134 
L 603 4134 
L 603 4863 
z
" transform="scale(0.015625)"/>
       <path id="DejaVuSans-73" d="M 2834 3397 
L 2834 2853 
Q 2591 2978 2328 3040 
Q 2066 3103 1784 3103 
Q 1356 3103 1142 2972 
Q 928 2841 928 2578 
Q 928 2378 1081 2264 
Q 1234 2150 1697 2047 
L 1894 2003 
Q 2506 1872 2764 1633 
Q 3022 1394 3022 966 
Q 3022 478 2636 193 
Q 2250 -91 1575 -91 
Q 1294 -91 989 -36 
Q 684 19 347 128 
L 347 722 
Q 666 556 975 473 
Q 1284 391 1588 391 
Q 1994 391 2212 530 
Q 2431 669 2431 922 
Q 2431 1156 2273 1281 
Q 2116 1406 1581 1522 
L 1381 1569 
Q 847 1681 609 1914 
Q 372 2147 372 2553 
Q 372 3047 722 3315 
Q 1072 3584 1716 3584 
Q 2034 3584 2315 3537 
Q 2597 3491 2834 3397 
z
" transform="scale(0.015625)"/>
       <path id="DejaVuSans-74" d="M 1172 4494 
L 1172 3500 
L 2356 3500 
L 2356 3053 
L 1172 3053 
L 1172 1153 
Q 1172 725 1289 603 
Q 1406 481 1766 481 
L 2356 481 
L 2356 0 
L 1766 0 
Q 1100 0 847 248 
Q 594 497 594 1153 
L 594 3053 
L 172 3053 
L 172 3500 
L 594 3500 
L 594 4494 
L 1172 4494 
z
" transform="scale(0.015625)"/>
       <path id="DejaVuSans-61" d="M 2194 1759 
Q 1497 1759 1228 1600 
Q 959 1441 959 1056 
Q 959 750 1161 570 
Q 1363 391 1709 391 
Q 2188 391 2477 730 
Q 2766 1069 2766 1631 
L 2766 1759 
L 2194 1759 
z
M 3341 1997 
L 3341 0 
L 2766 0 
L 2766 531 
Q 2569 213 2275 61 
Q 1981 -91 1556 -91 
Q 1019 -91 701 211 
Q 384 513 384 1019 
Q 384 1609 779 1909 
Q 1175 2209 1959 2209 
L 2766 2209 
L 2766 2266 
Q 2766 2663 2505 2880 
Q 2244 3097 1772 3097 
Q 1472 3097 1187 3025 
Q 903 2953 641 2809 
L 641 3341 
Q 956 3463 1253 3523 
Q 1550 3584 1831 3584 
Q 2591 3584 2966 3190 
Q 3341 2797 3341 1997 
z
" transform="scale(0.015625)"/>
       <path id="DejaVuSans-6e" d="M 3513 2113 
L 3513 0 
L 2938 0 
L 2938 2094 
Q 2938 2591 2744 2837 
Q 2550 3084 2163 3084 
Q 1697 3084 1428 2787 
Q 1159 2491 1159 1978 
L 1159 0 
L 581 0 
L 581 3500 
L 1159 3500 
L 1159 2956 
Q 1366 3272 1645 3428 
Q 1925 3584 2291 3584 
Q 2894 3584 3203 3211 
Q 3513 2838 3513 2113 
z
" transform="scale(0.015625)"/>
       <path id="DejaVuSans-63" d="M 3122 3366 
L 3122 2828 
Q 2878 2963 2633 3030 
Q 2388 3097 2138 3097 
Q 1578 3097 1268 2742 
Q 959 2388 959 1747 
Q 959 1106 1268 751 
Q 1578 397 2138 397 
Q 2388 397 2633 464 
Q 2878 531 3122 666 
L 3122 134 
Q 2881 22 2623 -34 
Q 2366 -91 2075 -91 
Q 1284 -91 818 406 
Q 353 903 353 1747 
Q 353 2603 823 3093 
Q 1294 3584 2113 3584 
Q 2378 3584 2631 3529 
Q 2884 3475 3122 3366 
z
" transform="scale(0.015625)"/>
       <path id="DejaVuSans-20" transform="scale(0.015625)"/>
       <path id="DejaVuSans-65" d="M 3597 1894 
L 3597 1613 
L 953 1613 
Q 991 1019 1311 708 
Q 1631 397 2203 397 
Q 2534 397 2845 478 
Q 3156 559 3463 722 
L 3463 178 
Q 3153 47 2828 -22 
Q 2503 -91 2169 -91 
Q 1331 -91 842 396 
Q 353 884 353 1716 
Q 353 2575 817 3079 
Q 1281 3584 2069 3584 
Q 2775 3584 3186 3129 
Q 3597 2675 3597 1894 
z
M 3022 2063 
Q 3016 2534 2758 2815 
Q 2500 3097 2075 3097 
Q 1594 3097 1305 2825 
Q 1016 2553 972 2059 
L 3022 2063 
z
" transform="scale(0.015625)"/>
       <path id="DejaVuSans-72" d="M 2631 2963 
Q 2534 3019 2420 3045 
Q 2306 3072 2169 3072 
Q 1681 3072 1420 2755 
Q 1159 2438 1159 1844 
L 1159 0 
L 581 0 
L 581 3500 
L 1159 3500 
L 1159 2956 
Q 1341 3275 1631 3429 
Q 1922 3584 2338 3584 
Q 2397 3584 2469 3576 
Q 2541 3569 2628 3553 
L 2631 2963 
z
" transform="scale(0.015625)"/>
       <path id="DejaVuSans-f3" d="M 1959 3097 
Q 1497 3097 1228 2736 
Q 959 2375 959 1747 
Q 959 1119 1226 758 
Q 1494 397 1959 397 
Q 2419 397 2687 759 
Q 2956 1122 2956 1747 
Q 2956 2369 2687 2733 
Q 2419 3097 1959 3097 
z
M 1959 3584 
Q 2709 3584 3137 3096 
Q 3566 2609 3566 1747 
Q 3566 888 3137 398 
Q 2709 -91 1959 -91 
Q 1206 -91 779 398 
Q 353 888 353 1747 
Q 353 2609 779 3096 
Q 1206 3584 1959 3584 
z
M 2394 5119 
L 3016 5119 
L 1998 3944 
L 1519 3944 
L 2394 5119 
z
" transform="scale(0.015625)"/>
       <path id="DejaVuSans-6d" d="M 3328 2828 
Q 3544 3216 3844 3400 
Q 4144 3584 4550 3584 
Q 5097 3584 5394 3201 
Q 5691 2819 5691 2113 
L 5691 0 
L 5113 0 
L 5113 2094 
Q 5113 2597 4934 2840 
Q 4756 3084 4391 3084 
Q 3944 3084 3684 2787 
Q 3425 2491 3425 1978 
L 3425 0 
L 2847 0 
L 2847 2094 
Q 2847 2600 2669 2842 
Q 2491 3084 2119 3084 
Q 1678 3084 1418 2786 
Q 1159 2488 1159 1978 
L 1159 0 
L 581 0 
L 581 3500 
L 1159 3500 
L 1159 2956 
Q 1356 3278 1631 3431 
Q 1906 3584 2284 3584 
Q 2666 3584 2933 3390 
Q 3200 3197 3328 2828 
z
" transform="scale(0.015625)"/>
       <path id="DejaVuSans-28" d="M 1984 4856 
Q 1566 4138 1362 3434 
Q 1159 2731 1159 2009 
Q 1159 1288 1364 580 
Q 1569 -128 1984 -844 
L 1484 -844 
Q 1016 -109 783 600 
Q 550 1309 550 2009 
Q 550 2706 781 3412 
Q 1013 4119 1484 4856 
L 1984 4856 
z
" transform="scale(0.015625)"/>
       <path id="DejaVuSans-Oblique-61" d="M 3438 1997 
L 3047 0 
L 2472 0 
L 2578 531 
Q 2325 219 2001 64 
Q 1678 -91 1281 -91 
Q 834 -91 548 182 
Q 263 456 263 884 
Q 263 1497 752 1853 
Q 1241 2209 2100 2209 
L 2900 2209 
L 2931 2363 
Q 2938 2388 2941 2417 
Q 2944 2447 2944 2509 
Q 2944 2788 2717 2942 
Q 2491 3097 2081 3097 
Q 1800 3097 1504 3025 
Q 1209 2953 897 2809 
L 997 3341 
Q 1322 3463 1633 3523 
Q 1944 3584 2234 3584 
Q 2853 3584 3176 3315 
Q 3500 3047 3500 2534 
Q 3500 2431 3484 2292 
Q 3469 2153 3438 1997 
z
M 2816 1759 
L 2241 1759 
Q 1534 1759 1195 1570 
Q 856 1381 856 984 
Q 856 709 1029 553 
Q 1203 397 1509 397 
Q 1978 397 2328 733 
Q 2678 1069 2791 1631 
L 2816 1759 
z
" transform="scale(0.015625)"/>
       <path id="DejaVuSans-29" d="M 513 4856 
L 1013 4856 
Q 1481 4119 1714 3412 
Q 1947 2706 1947 2009 
Q 1947 1309 1714 600 
Q 1481 -109 1013 -844 
L 513 -844 
Q 928 -128 1133 580 
Q 1338 1288 1338 2009 
Q 1338 2731 1133 3434 
Q 928 4138 513 4856 
z
" transform="scale(0.015625)"/>
      </defs>
      <use xlink:href="#DejaVuSans-44" transform="translate(0 0.015625)"/>
      <use xlink:href="#DejaVuSans-69" transform="translate(77.001953 0.015625)"/>
      <use xlink:href="#DejaVuSans-73" transform="translate(104.785156 0.015625)"/>
      <use xlink:href="#DejaVuSans-74" transform="translate(156.884766 0.015625)"/>
      <use xlink:href="#DejaVuSans-61" transform="translate(196.09375 0.015625)"/>
      <use xlink:href="#DejaVuSans-6e" transform="translate(257.373047 0.015625)"/>
      <use xlink:href="#DejaVuSans-63" transform="translate(320.751953 0.015625)"/>
      <use xlink:href="#DejaVuSans-69" transform="translate(375.732422 0.015625)"/>
      <use xlink:href="#DejaVuSans-61" transform="translate(403.515625 0.015625)"/>
      <use xlink:href="#DejaVuSans-20" transform="translate(464.794922 0.015625)"/>
      <use xlink:href="#DejaVuSans-69" transform="translate(496.582031 0.015625)"/>
      <use xlink:href="#DejaVuSans-6e" transform="translate(524.365234 0.015625)"/>
      <use xlink:href="#DejaVuSans-74" transform="translate(587.744141 0.015625)"/>
      <use xlink:href="#DejaVuSans-65" transform="translate(626.953125 0.015625)"/>
      <use xlink:href="#DejaVuSans-72" transform="translate(688.476562 0.015625)"/>
      <use xlink:href="#DejaVuSans-61" transform="translate(729.589844 0.015625)"/>
      <use xlink:href="#DejaVuSans-74" transform="translate(790.869141 0.015625)"/>
      <use xlink:href="#DejaVuSans-f3" transform="translate(830.078125 0.015625)"/>
      <use xlink:href="#DejaVuSans-6d" transform="translate(891.259766 0.015625)"/>
      <use xlink:href="#DejaVuSans-69" transform="translate(988.671875 0.015625)"/>
      <use xlink:href="#DejaVuSans-63" transform="translate(1016.455078 0.015625)"/>
      <use xlink:href="#DejaVuSans-61" transform="translate(1071.435547 0.015625)"/>
      <use xlink:href="#DejaVuSans-20" transform="translate(1132.714844 0.015625)"/>
      <use xlink:href="#DejaVuSans-28" transform="translate(1164.501953 0.015625)"/>
      <use xlink:href="#DejaVuSans-Oblique-61" transform="translate(1203.515625 0.015625)"/>
      <use xlink:href="#DejaVuSans-30" transform="translate(1264.794922 -16.390625) scale(0.7)"/>
      <use xlink:href="#DejaVuSans-29" transform="translate(1312.06543 0.015625)"/>
     </g>
    </g>
   </g>
   <g id="matplotlib.axis_2">
    <g id="ytick_1">
     <g id="line2d_19">
      <path d="M 90.129063 328.278594 
L 547.864062 328.278594 
" clip-path="url(#p74a950790d)" style="fill: none; stroke: #b0b0b0; stroke-opacity: 0.4; stroke-width: 0.8; stroke-linecap: square"/>
     </g>
     <g id="line2d_20">
      <defs>
       <path id="m97cc3a2f69" d="M 0 0 
L -3.5 0 
" style="stroke: #000000; stroke-width: 0.8"/>
      </defs>
      <g>
       <use xlink:href="#m97cc3a2f69" x="90.129063" y="328.278594" style="stroke: #000000; stroke-width: 0.8"/>
      </g>
     </g>
     <g id="text_11">
      <!-- −1.2 -->
      <g transform="translate(39.42 335.117187) scale(0.18 -0.18)">
       <defs>
        <path id="DejaVuSans-2212" d="M 678 2272 
L 4684 2272 
L 4684 1741 
L 678 1741 
L 678 2272 
z
" transform="scale(0.015625)"/>
        <path id="DejaVuSans-2e" d="M 684 794 
L 1344 794 
L 1344 0 
L 684 0 
L 684 794 
z
" transform="scale(0.015625)"/>
       </defs>
       <use xlink:href="#DejaVuSans-2212"/>
       <use xlink:href="#DejaVuSans-31" transform="translate(83.789062 0)"/>
       <use xlink:href="#DejaVuSans-2e" transform="translate(147.412109 0)"/>
       <use xlink:href="#DejaVuSans-32" transform="translate(179.199219 0)"/>
      </g>
     </g>
    </g>
    <g id="ytick_2">
     <g id="line2d_21">
      <path d="M 90.129063 288.998594 
L 547.864062 288.998594 
" clip-path="url(#p74a950790d)" style="fill: none; stroke: #b0b0b0; stroke-opacity: 0.4; stroke-width: 0.8; stroke-linecap: square"/>
     </g>
     <g id="line2d_22">
      <g>
       <use xlink:href="#m97cc3a2f69" x="90.129063" y="288.998594" style="stroke: #000000; stroke-width: 0.8"/>
      </g>
     </g>
     <g id="text_12">
      <!-- −1.0 -->
      <g transform="translate(39.42 295.837187) scale(0.18 -0.18)">
       <use xlink:href="#DejaVuSans-2212"/>
       <use xlink:href="#DejaVuSans-31" transform="translate(83.789062 0)"/>
       <use xlink:href="#DejaVuSans-2e" transform="translate(147.412109 0)"/>
       <use xlink:href="#DejaVuSans-30" transform="translate(179.199219 0)"/>
      </g>
     </g>
    </g>
    <g id="ytick_3">
     <g id="line2d_23">
      <path d="M 90.129063 249.718594 
L 547.864062 249.718594 
" clip-path="url(#p74a950790d)" style="fill: none; stroke: #b0b0b0; stroke-opacity: 0.4; stroke-width: 0.8; stroke-linecap: square"/>
     </g>
     <g id="line2d_24">
      <g>
       <use xlink:href="#m97cc3a2f69" x="90.129063" y="249.718594" style="stroke: #000000; stroke-width: 0.8"/>
      </g>
     </g>
     <g id="text_13">
      <!-- −0.8 -->
      <g transform="translate(39.42 256.557187) scale(0.18 -0.18)">
       <use xlink:href="#DejaVuSans-2212"/>
       <use xlink:href="#DejaVuSans-30" transform="translate(83.789062 0)"/>
       <use xlink:href="#DejaVuSans-2e" transform="translate(147.412109 0)"/>
       <use xlink:href="#DejaVuSans-38" transform="translate(179.199219 0)"/>
      </g>
     </g>
    </g>
    <g id="ytick_4">
     <g id="line2d_25">
      <path d="M 90.129063 210.438594 
L 547.864062 210.438594 
" clip-path="url(#p74a950790d)" style="fill: none; stroke: #b0b0b0; stroke-opacity: 0.4; stroke-width: 0.8; stroke-linecap: square"/>
     </g>
     <g id="line2d_26">
      <g>
       <use xlink:href="#m97cc3a2f69" x="90.129063" y="210.438594" style="stroke: #000000; stroke-width: 0.8"/>
      </g>
     </g>
     <g id="text_14">
      <!-- −0.6 -->
      <g transform="translate(39.42 217.277187) scale(0.18 -0.18)">
       <use xlink:href="#DejaVuSans-2212"/>
       <use xlink:href="#DejaVuSans-30" transform="translate(83.789062 0)"/>
       <use xlink:href="#DejaVuSans-2e" transform="translate(147.412109 0)"/>
       <use xlink:href="#DejaVuSans-36" transform="translate(179.199219 0)"/>
      </g>
     </g>
    </g>
    <g id="ytick_5">
     <g id="line2d_27">
      <path d="M 90.129063 171.158594 
L 547.864062 171.158594 
" clip-path="url(#p74a950790d)" style="fill: none; stroke: #b0b0b0; stroke-opacity: 0.4; stroke-width: 0.8; stroke-linecap: square"/>
     </g>
     <g id="line2d_28">
      <g>
       <use xlink:href="#m97cc3a2f69" x="90.129063" y="171.158594" style="stroke: #000000; stroke-width: 0.8"/>
      </g>
     </g>
     <g id="text_15">
      <!-- −0.4 -->
      <g transform="translate(39.42 177.997187) scale(0.18 -0.18)">
       <use xlink:href="#DejaVuSans-2212"/>
       <use xlink:href="#DejaVuSans-30" transform="translate(83.789062 0)"/>
       <use xlink:href="#DejaVuSans-2e" transform="translate(147.412109 0)"/>
       <use xlink:href="#DejaVuSans-34" transform="translate(179.199219 0)"/>
      </g>
     </g>
    </g>
    <g id="ytick_6">
     <g id="line2d_29">
      <path d="M 90.129063 131.878594 
L 547.864062 131.878594 
" clip-path="url(#p74a950790d)" style="fill: none; stroke: #b0b0b0; stroke-opacity: 0.4; stroke-width: 0.8; stroke-linecap: square"/>
     </g>
     <g id="line2d_30">
      <g>
       <use xlink:href="#m97cc3a2f69" x="90.129063" y="131.878594" style="stroke: #000000; stroke-width: 0.8"/>
      </g>
     </g>
     <g id="text_16">
      <!-- −0.2 -->
      <g transform="translate(39.42 138.717187) scale(0.18 -0.18)">
       <use xlink:href="#DejaVuSans-2212"/>
       <use xlink:href="#DejaVuSans-30" transform="translate(83.789062 0)"/>
       <use xlink:href="#DejaVuSans-2e" transform="translate(147.412109 0)"/>
       <use xlink:href="#DejaVuSans-32" transform="translate(179.199219 0)"/>
      </g>
     </g>
    </g>
    <g id="ytick_7">
     <g id="line2d_31">
      <path d="M 90.129063 92.598594 
L 547.864062 92.598594 
" clip-path="url(#p74a950790d)" style="fill: none; stroke: #b0b0b0; stroke-opacity: 0.4; stroke-width: 0.8; stroke-linecap: square"/>
     </g>
     <g id="line2d_32">
      <g>
       <use xlink:href="#m97cc3a2f69" x="90.129063" y="92.598594" style="stroke: #000000; stroke-width: 0.8"/>
      </g>
     </g>
     <g id="text_17">
      <!-- 0.0 -->
      <g transform="translate(54.503438 99.437187) scale(0.18 -0.18)">
       <use xlink:href="#DejaVuSans-30"/>
       <use xlink:href="#DejaVuSans-2e" transform="translate(63.623047 0)"/>
       <use xlink:href="#DejaVuSans-30" transform="translate(95.410156 0)"/>
      </g>
     </g>
    </g>
    <g id="ytick_8">
     <g id="line2d_33">
      <path d="M 90.129063 53.318594 
L 547.864062 53.318594 
" clip-path="url(#p74a950790d)" style="fill: none; stroke: #b0b0b0; stroke-opacity: 0.4; stroke-width: 0.8; stroke-linecap: square"/>
     </g>
     <g id="line2d_34">
      <g>
       <use xlink:href="#m97cc3a2f69" x="90.129063" y="53.318594" style="stroke: #000000; stroke-width: 0.8"/>
      </g>
     </g>
     <g id="text_18">
      <!-- 0.2 -->
      <g transform="translate(54.503438 60.157187) scale(0.18 -0.18)">
       <use xlink:href="#DejaVuSans-30"/>
       <use xlink:href="#DejaVuSans-2e" transform="translate(63.623047 0)"/>
       <use xlink:href="#DejaVuSans-32" transform="translate(95.410156 0)"/>
      </g>
     </g>
    </g>
    <g id="ytick_9">
     <g id="line2d_35">
      <path d="M 90.129063 14.038594 
L 547.864062 14.038594 
" clip-path="url(#p74a950790d)" style="fill: none; stroke: #b0b0b0; stroke-opacity: 0.4; stroke-width: 0.8; stroke-linecap: square"/>
     </g>
     <g id="line2d_36">
      <g>
       <use xlink:href="#m97cc3a2f69" x="90.129063" y="14.038594" style="stroke: #000000; stroke-width: 0.8"/>
      </g>
     </g>
     <g id="text_19">
      <!-- 0.4 -->
      <g transform="translate(54.503438 20.877187) scale(0.18 -0.18)">
       <use xlink:href="#DejaVuSans-30"/>
       <use xlink:href="#DejaVuSans-2e" transform="translate(63.623047 0)"/>
       <use xlink:href="#DejaVuSans-34" transform="translate(95.410156 0)"/>
      </g>
     </g>
    </g>
    <g id="text_20">
     <!-- Energía ($\mathrm{E}_h$) -->
     <g transform="translate(24.8 237.488594) rotate(-90) scale(0.22 -0.22)">
      <defs>
       <path id="DejaVuSans-45" d="M 628 4666 
L 3578 4666 
L 3578 4134 
L 1259 4134 
L 1259 2753 
L 3481 2753 
L 3481 2222 
L 1259 2222 
L 1259 531 
L 3634 531 
L 3634 0 
L 628 0 
L 628 4666 
z
" transform="scale(0.015625)"/>
       <path id="DejaVuSans-67" d="M 2906 1791 
Q 2906 2416 2648 2759 
Q 2391 3103 1925 3103 
Q 1463 3103 1205 2759 
Q 947 2416 947 1791 
Q 947 1169 1205 825 
Q 1463 481 1925 481 
Q 2391 481 2648 825 
Q 2906 1169 2906 1791 
z
M 3481 434 
Q 3481 -459 3084 -895 
Q 2688 -1331 1869 -1331 
Q 1566 -1331 1297 -1286 
Q 1028 -1241 775 -1147 
L 775 -588 
Q 1028 -725 1275 -790 
Q 1522 -856 1778 -856 
Q 2344 -856 2625 -561 
Q 2906 -266 2906 331 
L 2906 616 
Q 2728 306 2450 153 
Q 2172 0 1784 0 
Q 1141 0 747 490 
Q 353 981 353 1791 
Q 353 2603 747 3093 
Q 1141 3584 1784 3584 
Q 2172 3584 2450 3431 
Q 2728 3278 2906 2969 
L 2906 3500 
L 3481 3500 
L 3481 434 
z
" transform="scale(0.015625)"/>
       <path id="DejaVuSans-ed" d="M 1322 5119 
L 1944 5119 
L 926 3944 
L 447 3944 
L 1322 5119 
z
M 603 3500 
L 1178 3500 
L 1178 0 
L 603 0 
L 603 3500 
z
M 891 3584 
L 891 3584 
z
" transform="scale(0.015625)"/>
       <path id="DejaVuSans-Oblique-68" d="M 3566 2113 
L 3156 0 
L 2578 0 
L 2988 2091 
Q 3016 2238 3031 2350 
Q 3047 2463 3047 2528 
Q 3047 2791 2881 2937 
Q 2716 3084 2419 3084 
Q 1956 3084 1617 2771 
Q 1278 2459 1178 1941 
L 800 0 
L 225 0 
L 1172 4863 
L 1747 4863 
L 1375 2950 
Q 1594 3244 1934 3414 
Q 2275 3584 2650 3584 
Q 3113 3584 3367 3334 
Q 3622 3084 3622 2631 
Q 3622 2519 3608 2391 
Q 3594 2263 3566 2113 
z
" transform="scale(0.015625)"/>
      </defs>
      <use xlink:href="#DejaVuSans-45" transform="translate(0 0.015625)"/>
      <use xlink:href="#DejaVuSans-6e" transform="translate(63.183594 0.015625)"/>
      <use xlink:href="#DejaVuSans-65" transform="translate(126.5625 0.015625)"/>
      <use xlink:href="#DejaVuSans-72" transform="translate(188.085938 0.015625)"/>
      <use xlink:href="#DejaVuSans-67" transform="translate(229.199219 0.015625)"/>
      <use xlink:href="#DejaVuSans-ed" transform="translate(292.675781 0.015625)"/>
      <use xlink:href="#DejaVuSans-61" transform="translate(320.458984 0.015625)"/>
      <use xlink:href="#DejaVuSans-20" transform="translate(381.738281 0.015625)"/>
      <use xlink:href="#DejaVuSans-28" transform="translate(413.525391 0.015625)"/>
      <use xlink:href="#DejaVuSans-45" transform="translate(452.539062 0.015625)"/>
      <use xlink:href="#DejaVuSans-Oblique-68" transform="translate(516.679688 -16.390625) scale(0.7)"/>
      <use xlink:href="#DejaVuSans-29" transform="translate(563.779297 0.015625)"/>
     </g>
    </g>
   </g>
   <g id="line2d_37">
    <path d="M 111.561199 -1 
L 112.322275 23.190358 
L 115.096426 87.515136 
L 117.870578 135.896657 
L 120.644729 173.1132 
L 123.418881 202.229102 
L 126.193032 225.302424 
L 128.967184 243.7661 
L 131.741335 258.647789 
L 134.515487 270.701245 
L 137.289638 280.491389 
L 140.06379 288.448087 
L 142.837941 294.903935 
L 145.612093 300.120004 
L 148.386244 304.304024 
L 151.160396 307.623857 
L 153.934547 310.216464 
L 156.708699 312.194801 
L 159.48285 313.65359 
L 162.257002 314.672104 
L 165.031153 315.317652 
L 167.805305 315.647311 
L 170.579456 315.709818 
L 173.353608 315.546505 
L 176.127759 315.192982 
L 178.901911 314.679193 
L 184.450214 313.270515 
L 189.998517 311.484707 
L 195.54682 309.442764 
L 203.869275 306.093813 
L 228.836638 295.78514 
L 237.159093 292.680073 
L 245.481547 289.864422 
L 253.804002 287.370905 
L 262.126456 285.209651 
L 270.448911 283.372875 
L 278.771366 281.839367 
L 287.09382 280.579356 
L 295.416275 279.558466 
L 303.738729 278.741261 
L 314.835335 277.910085 
L 325.931941 277.309046 
L 339.802699 276.792758 
L 356.447608 276.405967 
L 378.64082 276.125822 
L 411.930638 275.952492 
L 478.510275 275.881191 
L 927.92282 275.875156 
L 927.92282 275.875156 
" clip-path="url(#p74a950790d)" style="fill: none; stroke: #008000; stroke-width: 5; stroke-linecap: square"/>
   </g>
   <g id="line2d_38">
    <path d="M 111.561198 -1 
L 112.322275 23.190364 
L 115.096426 87.515142 
L 117.870578 135.896658 
L 120.644729 173.11321 
L 123.418881 202.229105 
L 126.193032 225.302426 
L 128.967184 243.766104 
L 131.741335 258.64779 
L 134.515487 270.701249 
L 137.289638 280.491392 
L 140.06379 288.448096 
L 142.837941 294.903939 
L 145.612093 300.120006 
L 148.386244 304.304027 
L 151.160396 307.623862 
L 153.934547 310.216466 
L 156.708699 312.194808 
L 159.48285 313.653592 
L 162.257002 314.672104 
L 165.031153 315.317654 
L 167.805305 315.647315 
L 170.579456 315.709821 
L 173.353608 315.546508 
L 176.127759 315.192983 
L 178.901911 314.679195 
L 184.450214 313.270517 
L 189.998517 311.484711 
L 195.54682 309.442766 
L 203.869275 306.093813 
L 228.836638 295.785142 
L 237.159093 292.680074 
L 245.481547 289.864424 
L 253.804002 287.37091 
L 262.126456 285.209651 
L 270.448911 283.37288 
L 278.771366 281.839382 
L 287.09382 280.579368 
L 295.416275 279.558485 
L 303.738729 278.741271 
L 314.835335 277.910085 
L 325.931941 277.309089 
L 339.802699 276.792799 
L 356.447608 276.405985 
L 378.64082 276.125827 
L 411.930638 275.952503 
L 478.510275 275.881193 
L 927.92282 275.875157 
L 927.92282 275.875157 
" clip-path="url(#p74a950790d)" style="fill: none; stroke-dasharray: 5,8.25; stroke-dashoffset: 0; stroke: #90ee90; stroke-width: 5"/>
   </g>
   <g id="line2d_39">
    <defs>
     <path id="ma0af88878f" d="M 0 5 
C 1.326016 5 2.597899 4.473168 3.535534 3.535534 
C 4.473168 2.597899 5 1.326016 5 0 
C 5 -1.326016 4.473168 -2.597899 3.535534 -3.535534 
C 2.597899 -4.473168 1.326016 -5 0 -5 
C -1.326016 -5 -2.597899 -4.473168 -3.535534 -3.535534 
C -4.473168 -2.597899 -5 -1.326016 -5 0 
C -5 1.326016 -4.473168 2.597899 -3.535534 3.535534 
C -2.597899 4.473168 -1.326016 5 0 5 
z
" style="stroke: #000000"/>
    </defs>
    <g clip-path="url(#p74a950790d)">
     <use xlink:href="#ma0af88878f" x="114.29215" y="54.496994" style="stroke: #000000"/>
     <use xlink:href="#ma0af88878f" x="124.252684" y="197.868994" style="stroke: #000000"/>
     <use xlink:href="#ma0af88878f" x="134.947151" y="259.145794" style="stroke: #000000"/>
     <use xlink:href="#ma0af88878f" x="154.868219" y="303.924994" style="stroke: #000000"/>
     <use xlink:href="#ma0af88878f" x="169.442053" y="310.406194" style="stroke: #000000"/>
     <use xlink:href="#ma0af88878f" x="196.178222" y="300.978994" style="stroke: #000000"/>
     <use xlink:href="#ma0af88878f" x="217.672006" y="296.658194" style="stroke: #000000"/>
     <use xlink:href="#ma0af88878f" x="238.327008" y="290.176994" style="stroke: #000000"/>
     <use xlink:href="#ma0af88878f" x="258.248075" y="284.874194" style="stroke: #000000"/>
     <use xlink:href="#ma0af88878f" x="280.370945" y="273.482994" style="stroke: #000000"/>
     <use xlink:href="#ma0af88878f" x="300.292013" y="276.428994" style="stroke: #000000"/>
     <use xlink:href="#ma0af88878f" x="405.873671" y="274.072194" style="stroke: #000000"/>
     <use xlink:href="#ma0af88878f" x="509.56807" y="274.661394" style="stroke: #000000"/>
    </g>
   </g>
   <g id="patch_3">
    <path d="M 90.129063 328.278594 
L 90.129063 14.038594 
" style="fill: none; stroke: #000000; stroke-width: 0.8; stroke-linejoin: miter; stroke-linecap: square"/>
   </g>
   <g id="patch_4">
    <path d="M 547.864062 328.278594 
L 547.864062 14.038594 
" style="fill: none; stroke: #000000; stroke-width: 0.8; stroke-linejoin: miter; stroke-linecap: square"/>
   </g>
   <g id="patch_5">
    <path d="M 90.129063 328.278594 
L 547.864062 328.278594 
" style="fill: none; stroke: #000000; stroke-width: 0.8; stroke-linejoin: miter; stroke-linecap: square"/>
   </g>
   <g id="patch_6">
    <path d="M 90.129063 14.038594 
L 547.864062 14.038594 
" style="fill: none; stroke: #000000; stroke-width: 0.8; stroke-linejoin: miter; stroke-linecap: square"/>
   </g>
   <g id="legend_1">
    <g id="patch_7">
     <path d="M 360.355312 128.514219 
L 532.464062 128.514219 
Q 536.864062 128.514219 536.864062 124.114219 
L 536.864062 29.438594 
Q 536.864062 25.038594 532.464062 25.038594 
L 360.355312 25.038594 
Q 355.955312 25.038594 355.955312 29.438594 
L 355.955312 124.114219 
Q 355.955312 128.514219 360.355312 128.514219 
z
" style="fill: #ffffff; opacity: 0.8; stroke: #cccccc; stroke-linejoin: miter"/>
    </g>
    <g id="line2d_40">
     <g>
      <use xlink:href="#ma0af88878f" x="393.355312" y="42.855156" style="stroke: #000000"/>
     </g>
    </g>
    <g id="text_21">
     <!-- Kandala -->
     <g transform="translate(439.555312 50.555156) scale(0.22 -0.22)">
      <defs>
       <path id="DejaVuSans-4b" d="M 628 4666 
L 1259 4666 
L 1259 2694 
L 3353 4666 
L 4166 4666 
L 1850 2491 
L 4331 0 
L 3500 0 
L 1259 2247 
L 1259 0 
L 628 0 
L 628 4666 
z
" transform="scale(0.015625)"/>
       <path id="DejaVuSans-64" d="M 2906 2969 
L 2906 4863 
L 3481 4863 
L 3481 0 
L 2906 0 
L 2906 525 
Q 2725 213 2448 61 
Q 2172 -91 1784 -91 
Q 1150 -91 751 415 
Q 353 922 353 1747 
Q 353 2572 751 3078 
Q 1150 3584 1784 3584 
Q 2172 3584 2448 3432 
Q 2725 3281 2906 2969 
z
M 947 1747 
Q 947 1113 1208 752 
Q 1469 391 1925 391 
Q 2381 391 2643 752 
Q 2906 1113 2906 1747 
Q 2906 2381 2643 2742 
Q 2381 3103 1925 3103 
Q 1469 3103 1208 2742 
Q 947 2381 947 1747 
z
" transform="scale(0.015625)"/>
       <path id="DejaVuSans-6c" d="M 603 4863 
L 1178 4863 
L 1178 0 
L 603 0 
L 603 4863 
z
" transform="scale(0.015625)"/>
      </defs>
      <use xlink:href="#DejaVuSans-4b"/>
      <use xlink:href="#DejaVuSans-61" transform="translate(63.826172 0)"/>
      <use xlink:href="#DejaVuSans-6e" transform="translate(125.105469 0)"/>
      <use xlink:href="#DejaVuSans-64" transform="translate(188.484375 0)"/>
      <use xlink:href="#DejaVuSans-61" transform="translate(251.960938 0)"/>
      <use xlink:href="#DejaVuSans-6c" transform="translate(313.240234 0)"/>
      <use xlink:href="#DejaVuSans-61" transform="translate(341.023438 0)"/>
     </g>
    </g>
    <g id="line2d_41">
     <path d="M 364.755312 75.147031 
L 393.355312 75.147031 
L 421.955312 75.147031 
" style="fill: none; stroke-dasharray: 5,8.25; stroke-dashoffset: 0; stroke: #90ee90; stroke-width: 5"/>
    </g>
    <g id="text_22">
     <!-- CI -->
     <g transform="translate(439.555312 82.847031) scale(0.22 -0.22)">
      <defs>
       <path id="DejaVuSans-43" d="M 4122 4306 
L 4122 3641 
Q 3803 3938 3442 4084 
Q 3081 4231 2675 4231 
Q 1875 4231 1450 3742 
Q 1025 3253 1025 2328 
Q 1025 1406 1450 917 
Q 1875 428 2675 428 
Q 3081 428 3442 575 
Q 3803 722 4122 1019 
L 4122 359 
Q 3791 134 3420 21 
Q 3050 -91 2638 -91 
Q 1578 -91 968 557 
Q 359 1206 359 2328 
Q 359 3453 968 4101 
Q 1578 4750 2638 4750 
Q 3056 4750 3426 4639 
Q 3797 4528 4122 4306 
z
" transform="scale(0.015625)"/>
       <path id="DejaVuSans-49" d="M 628 4666 
L 1259 4666 
L 1259 0 
L 628 0 
L 628 4666 
z
" transform="scale(0.015625)"/>
      </defs>
      <use xlink:href="#DejaVuSans-43"/>
      <use xlink:href="#DejaVuSans-49" transform="translate(69.824219 0)"/>
     </g>
    </g>
    <g id="line2d_42">
     <path d="M 364.755312 107.438906 
L 393.355312 107.438906 
L 421.955312 107.438906 
" style="fill: none; stroke: #008000; stroke-width: 5; stroke-linecap: square"/>
    </g>
    <g id="text_23">
     <!-- VQE -->
     <g transform="translate(439.555312 115.138906) scale(0.22 -0.22)">
      <defs>
       <path id="DejaVuSans-56" d="M 1831 0 
L 50 4666 
L 709 4666 
L 2188 738 
L 3669 4666 
L 4325 4666 
L 2547 0 
L 1831 0 
z
" transform="scale(0.015625)"/>
       <path id="DejaVuSans-51" d="M 2522 4238 
Q 1834 4238 1429 3725 
Q 1025 3213 1025 2328 
Q 1025 1447 1429 934 
Q 1834 422 2522 422 
Q 3209 422 3611 934 
Q 4013 1447 4013 2328 
Q 4013 3213 3611 3725 
Q 3209 4238 2522 4238 
z
M 3406 84 
L 4238 -825 
L 3475 -825 
L 2784 -78 
Q 2681 -84 2626 -87 
Q 2572 -91 2522 -91 
Q 1538 -91 948 567 
Q 359 1225 359 2328 
Q 359 3434 948 4092 
Q 1538 4750 2522 4750 
Q 3503 4750 4090 4092 
Q 4678 3434 4678 2328 
Q 4678 1516 4351 937 
Q 4025 359 3406 84 
z
" transform="scale(0.015625)"/>
      </defs>
      <use xlink:href="#DejaVuSans-56"/>
      <use xlink:href="#DejaVuSans-51" transform="translate(68.408203 0)"/>
      <use xlink:href="#DejaVuSans-45" transform="translate(147.119141 0)"/>
     </g>
    </g>
   </g>
  </g>
  <g id="axes_2">
   <g id="patch_8">
    <path d="M 576.364062 328.278594 
L 1034.099062 328.278594 
L 1034.099062 14.038594 
L 576.364062 14.038594 
z
" style="fill: #ffffff"/>
   </g>
   <g id="matplotlib.axis_3">
    <g id="xtick_10">
     <g id="line2d_43">
      <path d="M 581.578332 328.278594 
L 581.578332 14.038594 
" clip-path="url(#p4de06af24e)" style="fill: none; stroke: #b0b0b0; stroke-opacity: 0.4; stroke-width: 0.8; stroke-linecap: square"/>
     </g>
     <g id="line2d_44">
      <g>
       <use xlink:href="#mdf9e112802" x="581.578332" y="328.278594" style="stroke: #000000; stroke-width: 0.8"/>
      </g>
     </g>
     <g id="text_24">
      <!-- 0 -->
      <g transform="translate(575.852082 348.955781) scale(0.18 -0.18)">
       <use xlink:href="#DejaVuSans-30"/>
      </g>
     </g>
    </g>
    <g id="xtick_11">
     <g id="line2d_45">
      <path d="M 685.86372 328.278594 
L 685.86372 14.038594 
" clip-path="url(#p4de06af24e)" style="fill: none; stroke: #b0b0b0; stroke-opacity: 0.4; stroke-width: 0.8; stroke-linecap: square"/>
     </g>
     <g id="line2d_46">
      <g>
       <use xlink:href="#mdf9e112802" x="685.86372" y="328.278594" style="stroke: #000000; stroke-width: 0.8"/>
      </g>
     </g>
     <g id="text_25">
      <!-- 1 -->
      <g transform="translate(680.13747 348.955781) scale(0.18 -0.18)">
       <use xlink:href="#DejaVuSans-31"/>
      </g>
     </g>
    </g>
    <g id="xtick_12">
     <g id="line2d_47">
      <path d="M 790.149109 328.278594 
L 790.149109 14.038594 
" clip-path="url(#p4de06af24e)" style="fill: none; stroke: #b0b0b0; stroke-opacity: 0.4; stroke-width: 0.8; stroke-linecap: square"/>
     </g>
     <g id="line2d_48">
      <g>
       <use xlink:href="#mdf9e112802" x="790.149109" y="328.278594" style="stroke: #000000; stroke-width: 0.8"/>
      </g>
     </g>
     <g id="text_26">
      <!-- 2 -->
      <g transform="translate(784.422859 348.955781) scale(0.18 -0.18)">
       <use xlink:href="#DejaVuSans-32"/>
      </g>
     </g>
    </g>
    <g id="xtick_13">
     <g id="line2d_49">
      <path d="M 894.434497 328.278594 
L 894.434497 14.038594 
" clip-path="url(#p4de06af24e)" style="fill: none; stroke: #b0b0b0; stroke-opacity: 0.4; stroke-width: 0.8; stroke-linecap: square"/>
     </g>
     <g id="line2d_50">
      <g>
       <use xlink:href="#mdf9e112802" x="894.434497" y="328.278594" style="stroke: #000000; stroke-width: 0.8"/>
      </g>
     </g>
     <g id="text_27">
      <!-- 3 -->
      <g transform="translate(888.708247 348.955781) scale(0.18 -0.18)">
       <use xlink:href="#DejaVuSans-33"/>
      </g>
     </g>
    </g>
    <g id="xtick_14">
     <g id="line2d_51">
      <path d="M 998.719886 328.278594 
L 998.719886 14.038594 
" clip-path="url(#p4de06af24e)" style="fill: none; stroke: #b0b0b0; stroke-opacity: 0.4; stroke-width: 0.8; stroke-linecap: square"/>
     </g>
     <g id="line2d_52">
      <g>
       <use xlink:href="#mdf9e112802" x="998.719886" y="328.278594" style="stroke: #000000; stroke-width: 0.8"/>
      </g>
     </g>
     <g id="text_28">
      <!-- 4 -->
      <g transform="translate(992.993636 348.955781) scale(0.18 -0.18)">
       <use xlink:href="#DejaVuSans-34"/>
      </g>
     </g>
    </g>
    <g id="xtick_15">
     <g id="line2d_53">
      <path d="M 633.721026 328.278594 
L 633.721026 14.038594 
" clip-path="url(#p4de06af24e)" style="fill: none; stroke: #b0b0b0; stroke-opacity: 0.4; stroke-width: 0.8; stroke-linecap: square"/>
     </g>
     <g id="line2d_54">
      <defs>
       <path id="mb97627bcac" d="M 0 0 
L 0 2 
" style="stroke: #000000; stroke-width: 0.6"/>
      </defs>
      <g>
       <use xlink:href="#mb97627bcac" x="633.721026" y="328.278594" style="stroke: #000000; stroke-width: 0.6"/>
      </g>
     </g>
    </g>
    <g id="xtick_16">
     <g id="line2d_55">
      <path d="M 738.006415 328.278594 
L 738.006415 14.038594 
" clip-path="url(#p4de06af24e)" style="fill: none; stroke: #b0b0b0; stroke-opacity: 0.4; stroke-width: 0.8; stroke-linecap: square"/>
     </g>
     <g id="line2d_56">
      <g>
       <use xlink:href="#mb97627bcac" x="738.006415" y="328.278594" style="stroke: #000000; stroke-width: 0.6"/>
      </g>
     </g>
    </g>
    <g id="xtick_17">
     <g id="line2d_57">
      <path d="M 842.291803 328.278594 
L 842.291803 14.038594 
" clip-path="url(#p4de06af24e)" style="fill: none; stroke: #b0b0b0; stroke-opacity: 0.4; stroke-width: 0.8; stroke-linecap: square"/>
     </g>
     <g id="line2d_58">
      <g>
       <use xlink:href="#mb97627bcac" x="842.291803" y="328.278594" style="stroke: #000000; stroke-width: 0.6"/>
      </g>
     </g>
    </g>
    <g id="xtick_18">
     <g id="line2d_59">
      <path d="M 946.577191 328.278594 
L 946.577191 14.038594 
" clip-path="url(#p4de06af24e)" style="fill: none; stroke: #b0b0b0; stroke-opacity: 0.4; stroke-width: 0.8; stroke-linecap: square"/>
     </g>
     <g id="line2d_60">
      <g>
       <use xlink:href="#mb97627bcac" x="946.577191" y="328.278594" style="stroke: #000000; stroke-width: 0.6"/>
      </g>
     </g>
    </g>
    <g id="text_29">
     <!-- Distancia interatómica ($\AA$) -->
     <g transform="translate(661.021562 381.663906) scale(0.22 -0.22)">
      <defs>
       <path id="DejaVuSans-Oblique-c5" d="M 3188 5081 
Q 3188 5278 3048 5417 
Q 2909 5556 2713 5556 
Q 2513 5556 2377 5420 
Q 2241 5284 2241 5081 
Q 2241 4884 2377 4746 
Q 2513 4609 2713 4609 
Q 2909 4609 3048 4746 
Q 3188 4884 3188 5081 
z
M 2203 4397 
Q 2034 4513 1945 4689 
Q 1856 4866 1856 5081 
Q 1856 5438 2106 5689 
Q 2356 5941 2713 5941 
Q 3069 5941 3320 5689 
Q 3572 5438 3572 5081 
Q 3572 4834 3458 4643 
Q 3344 4453 3128 4341 
L 3938 0 
L 3278 0 
L 3084 1197 
L 984 1197 
L 325 0 
L -341 0 
L 2203 4397 
z
M 2584 4044 
L 1275 1722 
L 2988 1722 
L 2584 4044 
z
" transform="scale(0.015625)"/>
      </defs>
      <use xlink:href="#DejaVuSans-44" transform="translate(0 0.171875)"/>
      <use xlink:href="#DejaVuSans-69" transform="translate(77.001953 0.171875)"/>
      <use xlink:href="#DejaVuSans-73" transform="translate(104.785156 0.171875)"/>
      <use xlink:href="#DejaVuSans-74" transform="translate(156.884766 0.171875)"/>
      <use xlink:href="#DejaVuSans-61" transform="translate(196.09375 0.171875)"/>
      <use xlink:href="#DejaVuSans-6e" transform="translate(257.373047 0.171875)"/>
      <use xlink:href="#DejaVuSans-63" transform="translate(320.751953 0.171875)"/>
      <use xlink:href="#DejaVuSans-69" transform="translate(375.732422 0.171875)"/>
      <use xlink:href="#DejaVuSans-61" transform="translate(403.515625 0.171875)"/>
      <use xlink:href="#DejaVuSans-20" transform="translate(464.794922 0.171875)"/>
      <use xlink:href="#DejaVuSans-69" transform="translate(496.582031 0.171875)"/>
      <use xlink:href="#DejaVuSans-6e" transform="translate(524.365234 0.171875)"/>
      <use xlink:href="#DejaVuSans-74" transform="translate(587.744141 0.171875)"/>
      <use xlink:href="#DejaVuSans-65" transform="translate(626.953125 0.171875)"/>
      <use xlink:href="#DejaVuSans-72" transform="translate(688.476562 0.171875)"/>
      <use xlink:href="#DejaVuSans-61" transform="translate(729.589844 0.171875)"/>
      <use xlink:href="#DejaVuSans-74" transform="translate(790.869141 0.171875)"/>
      <use xlink:href="#DejaVuSans-f3" transform="translate(830.078125 0.171875)"/>
      <use xlink:href="#DejaVuSans-6d" transform="translate(891.259766 0.171875)"/>
      <use xlink:href="#DejaVuSans-69" transform="translate(988.671875 0.171875)"/>
      <use xlink:href="#DejaVuSans-63" transform="translate(1016.455078 0.171875)"/>
      <use xlink:href="#DejaVuSans-61" transform="translate(1071.435547 0.171875)"/>
      <use xlink:href="#DejaVuSans-20" transform="translate(1132.714844 0.171875)"/>
      <use xlink:href="#DejaVuSans-28" transform="translate(1164.501953 0.171875)"/>
      <use xlink:href="#DejaVuSans-Oblique-c5" transform="translate(1203.515625 0.171875)"/>
      <use xlink:href="#DejaVuSans-29" transform="translate(1271.923828 0.171875)"/>
     </g>
    </g>
   </g>
   <g id="matplotlib.axis_4">
    <g id="ytick_10">
     <g id="line2d_61">
      <path d="M 576.364062 328.278594 
L 1034.099062 328.278594 
" clip-path="url(#p4de06af24e)" style="fill: none; stroke: #b0b0b0; stroke-opacity: 0.4; stroke-width: 0.8; stroke-linecap: square"/>
     </g>
     <g id="line2d_62">
      <g>
       <use xlink:href="#m97cc3a2f69" x="576.364062" y="328.278594" style="stroke: #000000; stroke-width: 0.8"/>
      </g>
     </g>
    </g>
    <g id="ytick_11">
     <g id="line2d_63">
      <path d="M 576.364062 288.998594 
L 1034.099062 288.998594 
" clip-path="url(#p4de06af24e)" style="fill: none; stroke: #b0b0b0; stroke-opacity: 0.4; stroke-width: 0.8; stroke-linecap: square"/>
     </g>
     <g id="line2d_64">
      <g>
       <use xlink:href="#m97cc3a2f69" x="576.364062" y="288.998594" style="stroke: #000000; stroke-width: 0.8"/>
      </g>
     </g>
    </g>
    <g id="ytick_12">
     <g id="line2d_65">
      <path d="M 576.364062 249.718594 
L 1034.099062 249.718594 
" clip-path="url(#p4de06af24e)" style="fill: none; stroke: #b0b0b0; stroke-opacity: 0.4; stroke-width: 0.8; stroke-linecap: square"/>
     </g>
     <g id="line2d_66">
      <g>
       <use xlink:href="#m97cc3a2f69" x="576.364062" y="249.718594" style="stroke: #000000; stroke-width: 0.8"/>
      </g>
     </g>
    </g>
    <g id="ytick_13">
     <g id="line2d_67">
      <path d="M 576.364062 210.438594 
L 1034.099062 210.438594 
" clip-path="url(#p4de06af24e)" style="fill: none; stroke: #b0b0b0; stroke-opacity: 0.4; stroke-width: 0.8; stroke-linecap: square"/>
     </g>
     <g id="line2d_68">
      <g>
       <use xlink:href="#m97cc3a2f69" x="576.364062" y="210.438594" style="stroke: #000000; stroke-width: 0.8"/>
      </g>
     </g>
    </g>
    <g id="ytick_14">
     <g id="line2d_69">
      <path d="M 576.364062 171.158594 
L 1034.099062 171.158594 
" clip-path="url(#p4de06af24e)" style="fill: none; stroke: #b0b0b0; stroke-opacity: 0.4; stroke-width: 0.8; stroke-linecap: square"/>
     </g>
     <g id="line2d_70">
      <g>
       <use xlink:href="#m97cc3a2f69" x="576.364062" y="171.158594" style="stroke: #000000; stroke-width: 0.8"/>
      </g>
     </g>
    </g>
    <g id="ytick_15">
     <g id="line2d_71">
      <path d="M 576.364062 131.878594 
L 1034.099062 131.878594 
" clip-path="url(#p4de06af24e)" style="fill: none; stroke: #b0b0b0; stroke-opacity: 0.4; stroke-width: 0.8; stroke-linecap: square"/>
     </g>
     <g id="line2d_72">
      <g>
       <use xlink:href="#m97cc3a2f69" x="576.364062" y="131.878594" style="stroke: #000000; stroke-width: 0.8"/>
      </g>
     </g>
    </g>
    <g id="ytick_16">
     <g id="line2d_73">
      <path d="M 576.364062 92.598594 
L 1034.099062 92.598594 
" clip-path="url(#p4de06af24e)" style="fill: none; stroke: #b0b0b0; stroke-opacity: 0.4; stroke-width: 0.8; stroke-linecap: square"/>
     </g>
     <g id="line2d_74">
      <g>
       <use xlink:href="#m97cc3a2f69" x="576.364062" y="92.598594" style="stroke: #000000; stroke-width: 0.8"/>
      </g>
     </g>
    </g>
    <g id="ytick_17">
     <g id="line2d_75">
      <path d="M 576.364062 53.318594 
L 1034.099062 53.318594 
" clip-path="url(#p4de06af24e)" style="fill: none; stroke: #b0b0b0; stroke-opacity: 0.4; stroke-width: 0.8; stroke-linecap: square"/>
     </g>
     <g id="line2d_76">
      <g>
       <use xlink:href="#m97cc3a2f69" x="576.364062" y="53.318594" style="stroke: #000000; stroke-width: 0.8"/>
      </g>
     </g>
    </g>
    <g id="ytick_18">
     <g id="line2d_77">
      <path d="M 576.364062 14.038594 
L 1034.099062 14.038594 
" clip-path="url(#p4de06af24e)" style="fill: none; stroke: #b0b0b0; stroke-opacity: 0.4; stroke-width: 0.8; stroke-linecap: square"/>
     </g>
     <g id="line2d_78">
      <g>
       <use xlink:href="#m97cc3a2f69" x="576.364062" y="14.038594" style="stroke: #000000; stroke-width: 0.8"/>
      </g>
     </g>
    </g>
   </g>
   <g id="line2d_79">
    <path d="M 600.136247 -1 
L 600.893241 23.190358 
L 603.652514 87.515136 
L 606.411787 135.896657 
L 609.171059 173.1132 
L 611.930332 202.229102 
L 614.689605 225.302424 
L 617.448878 243.7661 
L 620.20815 258.647789 
L 622.967423 270.701245 
L 625.726696 280.491389 
L 628.485969 288.448087 
L 631.245241 294.903935 
L 634.004514 300.120004 
L 636.763787 304.304024 
L 639.52306 307.623857 
L 642.282332 310.216464 
L 645.041605 312.194801 
L 647.800878 313.65359 
L 650.560151 314.672104 
L 653.319423 315.317652 
L 656.078696 315.647311 
L 658.837969 315.709818 
L 661.597242 315.546505 
L 664.356514 315.192982 
L 667.115787 314.679193 
L 672.634333 313.270515 
L 678.152878 311.484707 
L 683.671424 309.442764 
L 691.949242 306.093813 
L 716.782697 295.78514 
L 725.060515 292.680073 
L 733.338333 289.864422 
L 741.616151 287.370905 
L 749.89397 285.209651 
L 758.171788 283.372875 
L 766.449606 281.839367 
L 774.727424 280.579356 
L 783.005242 279.558466 
L 791.283061 278.741261 
L 802.320152 277.910085 
L 813.357243 277.309046 
L 827.153606 276.792758 
L 843.709243 276.405967 
L 865.783425 276.125822 
L 898.894698 275.952492 
L 965.117244 275.881191 
L 1042.299062 275.87538 
L 1042.299062 275.87538 
" clip-path="url(#p4de06af24e)" style="fill: none; stroke: #00ffff; stroke-width: 5; stroke-linecap: square"/>
   </g>
   <g id="line2d_80">
    <path d="M 600.136247 -1 
L 600.893241 23.190364 
L 603.652514 87.515142 
L 606.411787 135.896658 
L 609.171059 173.11321 
L 611.930332 202.229105 
L 614.689605 225.302426 
L 617.448878 243.766104 
L 620.20815 258.64779 
L 622.967423 270.701249 
L 625.726696 280.491392 
L 628.485969 288.448096 
L 631.245241 294.903939 
L 634.004514 300.120006 
L 636.763787 304.304027 
L 639.52306 307.623862 
L 642.282332 310.216466 
L 645.041605 312.194808 
L 647.800878 313.653592 
L 650.560151 314.672104 
L 653.319423 315.317654 
L 656.078696 315.647315 
L 658.837969 315.709821 
L 661.597242 315.546508 
L 664.356514 315.192983 
L 667.115787 314.679195 
L 672.634333 313.270517 
L 678.152878 311.484711 
L 683.671424 309.442766 
L 691.949242 306.093813 
L 716.782697 295.785142 
L 725.060515 292.680074 
L 733.338333 289.864424 
L 741.616151 287.37091 
L 749.89397 285.209651 
L 758.171788 283.37288 
L 766.449606 281.839382 
L 774.727424 280.579368 
L 783.005242 279.558485 
L 791.283061 278.741271 
L 802.320152 277.910085 
L 813.357243 277.309089 
L 827.153606 276.792799 
L 843.709243 276.405985 
L 865.783425 276.125827 
L 898.894698 275.952503 
L 965.117244 275.881193 
L 1042.299062 275.87538 
L 1042.299062 275.87538 
" clip-path="url(#p4de06af24e)" style="fill: none; stroke-dasharray: 5,8.25; stroke-dashoffset: 0; stroke: #800080; stroke-width: 5"/>
   </g>
   <g id="line2d_81">
    <g clip-path="url(#p4de06af24e)">
     <use xlink:href="#ma0af88878f" x="602.852551" y="54.496994" style="stroke: #000000"/>
     <use xlink:href="#ma0af88878f" x="612.759663" y="197.868994" style="stroke: #000000"/>
     <use xlink:href="#ma0af88878f" x="623.396773" y="259.145794" style="stroke: #000000"/>
     <use xlink:href="#ma0af88878f" x="643.210996" y="303.924994" style="stroke: #000000"/>
     <use xlink:href="#ma0af88878f" x="657.706665" y="310.406194" style="stroke: #000000"/>
     <use xlink:href="#ma0af88878f" x="684.29944" y="300.978994" style="stroke: #000000"/>
     <use xlink:href="#ma0af88878f" x="705.677944" y="296.658194" style="stroke: #000000"/>
     <use xlink:href="#ma0af88878f" x="726.222166" y="290.176994" style="stroke: #000000"/>
     <use xlink:href="#ma0af88878f" x="746.036389" y="284.874194" style="stroke: #000000"/>
     <use xlink:href="#ma0af88878f" x="768.040606" y="273.482994" style="stroke: #000000"/>
     <use xlink:href="#ma0af88878f" x="787.85483" y="276.428994" style="stroke: #000000"/>
     <use xlink:href="#ma0af88878f" x="892.870216" y="274.072194" style="stroke: #000000"/>
     <use xlink:href="#ma0af88878f" x="996.008465" y="274.661394" style="stroke: #000000"/>
    </g>
   </g>
   <g id="patch_9">
    <path d="M 576.364062 328.278594 
L 576.364062 14.038594 
" style="fill: none; stroke: #000000; stroke-width: 0.8; stroke-linejoin: miter; stroke-linecap: square"/>
   </g>
   <g id="patch_10">
    <path d="M 1034.099062 328.278594 
L 1034.099062 14.038594 
" style="fill: none; stroke: #000000; stroke-width: 0.8; stroke-linejoin: miter; stroke-linecap: square"/>
   </g>
   <g id="patch_11">
    <path d="M 576.364062 328.278594 
L 1034.099062 328.278594 
" style="fill: none; stroke: #000000; stroke-width: 0.8; stroke-linejoin: miter; stroke-linecap: square"/>
   </g>
   <g id="patch_12">
    <path d="M 576.364062 14.038594 
L 1034.099062 14.038594 
" style="fill: none; stroke: #000000; stroke-width: 0.8; stroke-linejoin: miter; stroke-linecap: square"/>
   </g>
   <g id="legend_2">
    <g id="patch_13">
     <path d="M 846.590312 128.514219 
L 1018.699062 128.514219 
Q 1023.099062 128.514219 1023.099062 124.114219 
L 1023.099062 29.438594 
Q 1023.099062 25.038594 1018.699062 25.038594 
L 846.590312 25.038594 
Q 842.190312 25.038594 842.190312 29.438594 
L 842.190312 124.114219 
Q 842.190312 128.514219 846.590312 128.514219 
z
" style="fill: #ffffff; opacity: 0.8; stroke: #cccccc; stroke-linejoin: miter"/>
    </g>
    <g id="line2d_82">
     <g>
      <use xlink:href="#ma0af88878f" x="879.590312" y="42.855156" style="stroke: #000000"/>
     </g>
    </g>
    <g id="text_30">
     <!-- Kandala -->
     <g transform="translate(925.790312 50.555156) scale(0.22 -0.22)">
      <use xlink:href="#DejaVuSans-4b"/>
      <use xlink:href="#DejaVuSans-61" transform="translate(63.826172 0)"/>
      <use xlink:href="#DejaVuSans-6e" transform="translate(125.105469 0)"/>
      <use xlink:href="#DejaVuSans-64" transform="translate(188.484375 0)"/>
      <use xlink:href="#DejaVuSans-61" transform="translate(251.960938 0)"/>
      <use xlink:href="#DejaVuSans-6c" transform="translate(313.240234 0)"/>
      <use xlink:href="#DejaVuSans-61" transform="translate(341.023438 0)"/>
     </g>
    </g>
    <g id="line2d_83">
     <path d="M 850.990312 75.147031 
L 879.590312 75.147031 
L 908.190312 75.147031 
" style="fill: none; stroke-dasharray: 5,8.25; stroke-dashoffset: 0; stroke: #800080; stroke-width: 5"/>
    </g>
    <g id="text_31">
     <!-- CI -->
     <g transform="translate(925.790312 82.847031) scale(0.22 -0.22)">
      <use xlink:href="#DejaVuSans-43"/>
      <use xlink:href="#DejaVuSans-49" transform="translate(69.824219 0)"/>
     </g>
    </g>
    <g id="line2d_84">
     <path d="M 850.990312 107.438906 
L 879.590312 107.438906 
L 908.190312 107.438906 
" style="fill: none; stroke: #00ffff; stroke-width: 5; stroke-linecap: square"/>
    </g>
    <g id="text_32">
     <!-- VQE -->
     <g transform="translate(925.790312 115.138906) scale(0.22 -0.22)">
      <use xlink:href="#DejaVuSans-56"/>
      <use xlink:href="#DejaVuSans-51" transform="translate(68.408203 0)"/>
      <use xlink:href="#DejaVuSans-45" transform="translate(147.119141 0)"/>
     </g>
    </g>
   </g>
  </g>
 </g>
 <defs>
  <clipPath id="p74a950790d">
   <rect x="90.129063" y="14.038594" width="457.735" height="314.24"/>
  </clipPath>
  <clipPath id="p4de06af24e">
   <rect x="576.364062" y="14.038594" width="457.735" height="314.24"/>
  </clipPath>
 </defs>
</svg>
