<?xml version="1.0" encoding="utf-8" standalone="no"?>
<!DOCTYPE svg PUBLIC "-//W3C//DTD SVG 1.1//EN"
  "http://www.w3.org/Graphics/SVG/1.1/DTD/svg11.dtd">
<svg xmlns:xlink="http://www.w3.org/1999/xlink" width="1080pt" height="360pt" viewBox="0 0 1080 360" xmlns="http://www.w3.org/2000/svg" version="1.1">
 <metadata>
  <rdf:RDF xmlns:dc="http://purl.org/dc/elements/1.1/" xmlns:cc="http://creativecommons.org/ns#" xmlns:rdf="http://www.w3.org/1999/02/22-rdf-syntax-ns#">
   <cc:Work>
    <dc:type rdf:resource="http://purl.org/dc/dcmitype/StillImage"/>
    <dc:date>2025-03-24T22:03:01.889086</dc:date>
    <dc:format>image/svg+xml</dc:format>
    <dc:creator>
     <cc:Agent>
      <dc:title>Matplotlib v3.10.1, https://matplotlib.org/</dc:title>
     </cc:Agent>
    </dc:creator>
   </cc:Work>
  </rdf:RDF>
 </metadata>
 <defs>
  <style type="text/css">*{stroke-linejoin: round; stroke-linecap: butt}</style>
 </defs>
 <g id="figure_1">
  <g id="patch_1">
   <path d="M 0 360 
L 1080 360 
L 1080 0 
L 0 0 
z
" style="fill: #ffffff"/>
  </g>
  <g id="axes_1">
   <g id="patch_2">
    <path d="M 135 320.4 
L 507 320.4 
L 507 43.2 
L 135 43.2 
z
" style="fill: #ffffff"/>
   </g>
   <g id="matplotlib.axis_1">
    <g id="xtick_1">
     <g id="line2d_1">
      <path d="M 151.909091 320.4 
L 151.909091 43.2 
" clip-path="url(#p1ab418aacf)" style="fill: none; stroke: #b0b0b0; stroke-width: 0.8; stroke-linecap: square"/>
     </g>
     <g id="line2d_2">
      <defs>
       <path id="m03bbd87909" d="M 0 0 
L 0 3.5 
" style="stroke: #000000; stroke-width: 0.8"/>
      </defs>
      <g>
       <use xlink:href="#m03bbd87909" x="151.909091" y="320.4" style="stroke: #000000; stroke-width: 0.8"/>
      </g>
     </g>
     <g id="text_1">
      <!-- 0.0 -->
      <g transform="translate(138.168791 340.5301) scale(0.1728 -0.1728)">
       <defs>
        <path id="DejaVuSans-30" d="M 2034 4250 
Q 1547 4250 1301 3770 
Q 1056 3291 1056 2328 
Q 1056 1369 1301 889 
Q 1547 409 2034 409 
Q 2525 409 2770 889 
Q 3016 1369 3016 2328 
Q 3016 3291 2770 3770 
Q 2525 4250 2034 4250 
z
M 2034 4750 
Q 2819 4750 3233 4129 
Q 3647 3509 3647 2328 
Q 3647 1150 3233 529 
Q 2819 -91 2034 -91 
Q 1250 -91 836 529 
Q 422 1150 422 2328 
Q 422 3509 836 4129 
Q 1250 4750 2034 4750 
z
" transform="scale(0.015625)"/>
        <path id="DejaVuSans-2e" d="M 684 794 
L 1344 794 
L 1344 0 
L 684 0 
L 684 794 
z
" transform="scale(0.015625)"/>
       </defs>
       <use xlink:href="#DejaVuSans-30"/>
       <use xlink:href="#DejaVuSans-2e" transform="translate(63.623047 0)"/>
       <use xlink:href="#DejaVuSans-30" transform="translate(95.410156 0)"/>
      </g>
     </g>
    </g>
    <g id="xtick_2">
     <g id="line2d_3">
      <path d="M 194.181818 320.4 
L 194.181818 43.2 
" clip-path="url(#p1ab418aacf)" style="fill: none; stroke: #b0b0b0; stroke-width: 0.8; stroke-linecap: square"/>
     </g>
     <g id="line2d_4">
      <g>
       <use xlink:href="#m03bbd87909" x="194.181818" y="320.4" style="stroke: #000000; stroke-width: 0.8"/>
      </g>
     </g>
     <g id="text_2">
      <!-- 0.5 -->
      <g transform="translate(180.441518 340.5301) scale(0.1728 -0.1728)">
       <defs>
        <path id="DejaVuSans-35" d="M 691 4666 
L 3169 4666 
L 3169 4134 
L 1269 4134 
L 1269 2991 
Q 1406 3038 1543 3061 
Q 1681 3084 1819 3084 
Q 2600 3084 3056 2656 
Q 3513 2228 3513 1497 
Q 3513 744 3044 326 
Q 2575 -91 1722 -91 
Q 1428 -91 1123 -41 
Q 819 9 494 109 
L 494 744 
Q 775 591 1075 516 
Q 1375 441 1709 441 
Q 2250 441 2565 725 
Q 2881 1009 2881 1497 
Q 2881 1984 2565 2268 
Q 2250 2553 1709 2553 
Q 1456 2553 1204 2497 
Q 953 2441 691 2322 
L 691 4666 
z
" transform="scale(0.015625)"/>
       </defs>
       <use xlink:href="#DejaVuSans-30"/>
       <use xlink:href="#DejaVuSans-2e" transform="translate(63.623047 0)"/>
       <use xlink:href="#DejaVuSans-35" transform="translate(95.410156 0)"/>
      </g>
     </g>
    </g>
    <g id="xtick_3">
     <g id="line2d_5">
      <path d="M 236.454545 320.4 
L 236.454545 43.2 
" clip-path="url(#p1ab418aacf)" style="fill: none; stroke: #b0b0b0; stroke-width: 0.8; stroke-linecap: square"/>
     </g>
     <g id="line2d_6">
      <g>
       <use xlink:href="#m03bbd87909" x="236.454545" y="320.4" style="stroke: #000000; stroke-width: 0.8"/>
      </g>
     </g>
     <g id="text_3">
      <!-- 1.0 -->
      <g transform="translate(222.714245 340.5301) scale(0.1728 -0.1728)">
       <defs>
        <path id="DejaVuSans-31" d="M 794 531 
L 1825 531 
L 1825 4091 
L 703 3866 
L 703 4441 
L 1819 4666 
L 2450 4666 
L 2450 531 
L 3481 531 
L 3481 0 
L 794 0 
L 794 531 
z
" transform="scale(0.015625)"/>
       </defs>
       <use xlink:href="#DejaVuSans-31"/>
       <use xlink:href="#DejaVuSans-2e" transform="translate(63.623047 0)"/>
       <use xlink:href="#DejaVuSans-30" transform="translate(95.410156 0)"/>
      </g>
     </g>
    </g>
    <g id="xtick_4">
     <g id="line2d_7">
      <path d="M 278.727273 320.4 
L 278.727273 43.2 
" clip-path="url(#p1ab418aacf)" style="fill: none; stroke: #b0b0b0; stroke-width: 0.8; stroke-linecap: square"/>
     </g>
     <g id="line2d_8">
      <g>
       <use xlink:href="#m03bbd87909" x="278.727273" y="320.4" style="stroke: #000000; stroke-width: 0.8"/>
      </g>
     </g>
     <g id="text_4">
      <!-- 1.5 -->
      <g transform="translate(264.986973 340.5301) scale(0.1728 -0.1728)">
       <use xlink:href="#DejaVuSans-31"/>
       <use xlink:href="#DejaVuSans-2e" transform="translate(63.623047 0)"/>
       <use xlink:href="#DejaVuSans-35" transform="translate(95.410156 0)"/>
      </g>
     </g>
    </g>
    <g id="xtick_5">
     <g id="line2d_9">
      <path d="M 321 320.4 
L 321 43.2 
" clip-path="url(#p1ab418aacf)" style="fill: none; stroke: #b0b0b0; stroke-width: 0.8; stroke-linecap: square"/>
     </g>
     <g id="line2d_10">
      <g>
       <use xlink:href="#m03bbd87909" x="321" y="320.4" style="stroke: #000000; stroke-width: 0.8"/>
      </g>
     </g>
     <g id="text_5">
      <!-- 2.0 -->
      <g transform="translate(307.2597 340.5301) scale(0.1728 -0.1728)">
       <defs>
        <path id="DejaVuSans-32" d="M 1228 531 
L 3431 531 
L 3431 0 
L 469 0 
L 469 531 
Q 828 903 1448 1529 
Q 2069 2156 2228 2338 
Q 2531 2678 2651 2914 
Q 2772 3150 2772 3378 
Q 2772 3750 2511 3984 
Q 2250 4219 1831 4219 
Q 1534 4219 1204 4116 
Q 875 4013 500 3803 
L 500 4441 
Q 881 4594 1212 4672 
Q 1544 4750 1819 4750 
Q 2544 4750 2975 4387 
Q 3406 4025 3406 3419 
Q 3406 3131 3298 2873 
Q 3191 2616 2906 2266 
Q 2828 2175 2409 1742 
Q 1991 1309 1228 531 
z
" transform="scale(0.015625)"/>
       </defs>
       <use xlink:href="#DejaVuSans-32"/>
       <use xlink:href="#DejaVuSans-2e" transform="translate(63.623047 0)"/>
       <use xlink:href="#DejaVuSans-30" transform="translate(95.410156 0)"/>
      </g>
     </g>
    </g>
    <g id="xtick_6">
     <g id="line2d_11">
      <path d="M 363.272727 320.4 
L 363.272727 43.2 
" clip-path="url(#p1ab418aacf)" style="fill: none; stroke: #b0b0b0; stroke-width: 0.8; stroke-linecap: square"/>
     </g>
     <g id="line2d_12">
      <g>
       <use xlink:href="#m03bbd87909" x="363.272727" y="320.4" style="stroke: #000000; stroke-width: 0.8"/>
      </g>
     </g>
     <g id="text_6">
      <!-- 2.5 -->
      <g transform="translate(349.532427 340.5301) scale(0.1728 -0.1728)">
       <use xlink:href="#DejaVuSans-32"/>
       <use xlink:href="#DejaVuSans-2e" transform="translate(63.623047 0)"/>
       <use xlink:href="#DejaVuSans-35" transform="translate(95.410156 0)"/>
      </g>
     </g>
    </g>
    <g id="xtick_7">
     <g id="line2d_13">
      <path d="M 405.545455 320.4 
L 405.545455 43.2 
" clip-path="url(#p1ab418aacf)" style="fill: none; stroke: #b0b0b0; stroke-width: 0.8; stroke-linecap: square"/>
     </g>
     <g id="line2d_14">
      <g>
       <use xlink:href="#m03bbd87909" x="405.545455" y="320.4" style="stroke: #000000; stroke-width: 0.8"/>
      </g>
     </g>
     <g id="text_7">
      <!-- 3.0 -->
      <g transform="translate(391.805155 340.5301) scale(0.1728 -0.1728)">
       <defs>
        <path id="DejaVuSans-33" d="M 2597 2516 
Q 3050 2419 3304 2112 
Q 3559 1806 3559 1356 
Q 3559 666 3084 287 
Q 2609 -91 1734 -91 
Q 1441 -91 1130 -33 
Q 819 25 488 141 
L 488 750 
Q 750 597 1062 519 
Q 1375 441 1716 441 
Q 2309 441 2620 675 
Q 2931 909 2931 1356 
Q 2931 1769 2642 2001 
Q 2353 2234 1838 2234 
L 1294 2234 
L 1294 2753 
L 1863 2753 
Q 2328 2753 2575 2939 
Q 2822 3125 2822 3475 
Q 2822 3834 2567 4026 
Q 2313 4219 1838 4219 
Q 1578 4219 1281 4162 
Q 984 4106 628 3988 
L 628 4550 
Q 988 4650 1302 4700 
Q 1616 4750 1894 4750 
Q 2613 4750 3031 4423 
Q 3450 4097 3450 3541 
Q 3450 3153 3228 2886 
Q 3006 2619 2597 2516 
z
" transform="scale(0.015625)"/>
       </defs>
       <use xlink:href="#DejaVuSans-33"/>
       <use xlink:href="#DejaVuSans-2e" transform="translate(63.623047 0)"/>
       <use xlink:href="#DejaVuSans-30" transform="translate(95.410156 0)"/>
      </g>
     </g>
    </g>
    <g id="xtick_8">
     <g id="line2d_15">
      <path d="M 447.818182 320.4 
L 447.818182 43.2 
" clip-path="url(#p1ab418aacf)" style="fill: none; stroke: #b0b0b0; stroke-width: 0.8; stroke-linecap: square"/>
     </g>
     <g id="line2d_16">
      <g>
       <use xlink:href="#m03bbd87909" x="447.818182" y="320.4" style="stroke: #000000; stroke-width: 0.8"/>
      </g>
     </g>
     <g id="text_8">
      <!-- 3.5 -->
      <g transform="translate(434.077882 340.5301) scale(0.1728 -0.1728)">
       <use xlink:href="#DejaVuSans-33"/>
       <use xlink:href="#DejaVuSans-2e" transform="translate(63.623047 0)"/>
       <use xlink:href="#DejaVuSans-35" transform="translate(95.410156 0)"/>
      </g>
     </g>
    </g>
    <g id="xtick_9">
     <g id="line2d_17">
      <path d="M 490.090909 320.4 
L 490.090909 43.2 
" clip-path="url(#p1ab418aacf)" style="fill: none; stroke: #b0b0b0; stroke-width: 0.8; stroke-linecap: square"/>
     </g>
     <g id="line2d_18">
      <g>
       <use xlink:href="#m03bbd87909" x="490.090909" y="320.4" style="stroke: #000000; stroke-width: 0.8"/>
      </g>
     </g>
     <g id="text_9">
      <!-- 4.0 -->
      <g transform="translate(476.350609 340.5301) scale(0.1728 -0.1728)">
       <defs>
        <path id="DejaVuSans-34" d="M 2419 4116 
L 825 1625 
L 2419 1625 
L 2419 4116 
z
M 2253 4666 
L 3047 4666 
L 3047 1625 
L 3713 1625 
L 3713 1100 
L 3047 1100 
L 3047 0 
L 2419 0 
L 2419 1100 
L 313 1100 
L 313 1709 
L 2253 4666 
z
" transform="scale(0.015625)"/>
       </defs>
       <use xlink:href="#DejaVuSans-34"/>
       <use xlink:href="#DejaVuSans-2e" transform="translate(63.623047 0)"/>
       <use xlink:href="#DejaVuSans-30" transform="translate(95.410156 0)"/>
      </g>
     </g>
    </g>
    <g id="text_10">
     <!-- Radio (u.a.) -->
     <g transform="translate(270.9744 367.2539) scale(0.1728 -0.1728)">
      <defs>
       <path id="DejaVuSans-52" d="M 2841 2188 
Q 3044 2119 3236 1894 
Q 3428 1669 3622 1275 
L 4263 0 
L 3584 0 
L 2988 1197 
Q 2756 1666 2539 1819 
Q 2322 1972 1947 1972 
L 1259 1972 
L 1259 0 
L 628 0 
L 628 4666 
L 2053 4666 
Q 2853 4666 3247 4331 
Q 3641 3997 3641 3322 
Q 3641 2881 3436 2590 
Q 3231 2300 2841 2188 
z
M 1259 4147 
L 1259 2491 
L 2053 2491 
Q 2509 2491 2742 2702 
Q 2975 2913 2975 3322 
Q 2975 3731 2742 3939 
Q 2509 4147 2053 4147 
L 1259 4147 
z
" transform="scale(0.015625)"/>
       <path id="DejaVuSans-61" d="M 2194 1759 
Q 1497 1759 1228 1600 
Q 959 1441 959 1056 
Q 959 750 1161 570 
Q 1363 391 1709 391 
Q 2188 391 2477 730 
Q 2766 1069 2766 1631 
L 2766 1759 
L 2194 1759 
z
M 3341 1997 
L 3341 0 
L 2766 0 
L 2766 531 
Q 2569 213 2275 61 
Q 1981 -91 1556 -91 
Q 1019 -91 701 211 
Q 384 513 384 1019 
Q 384 1609 779 1909 
Q 1175 2209 1959 2209 
L 2766 2209 
L 2766 2266 
Q 2766 2663 2505 2880 
Q 2244 3097 1772 3097 
Q 1472 3097 1187 3025 
Q 903 2953 641 2809 
L 641 3341 
Q 956 3463 1253 3523 
Q 1550 3584 1831 3584 
Q 2591 3584 2966 3190 
Q 3341 2797 3341 1997 
z
" transform="scale(0.015625)"/>
       <path id="DejaVuSans-64" d="M 2906 2969 
L 2906 4863 
L 3481 4863 
L 3481 0 
L 2906 0 
L 2906 525 
Q 2725 213 2448 61 
Q 2172 -91 1784 -91 
Q 1150 -91 751 415 
Q 353 922 353 1747 
Q 353 2572 751 3078 
Q 1150 3584 1784 3584 
Q 2172 3584 2448 3432 
Q 2725 3281 2906 2969 
z
M 947 1747 
Q 947 1113 1208 752 
Q 1469 391 1925 391 
Q 2381 391 2643 752 
Q 2906 1113 2906 1747 
Q 2906 2381 2643 2742 
Q 2381 3103 1925 3103 
Q 1469 3103 1208 2742 
Q 947 2381 947 1747 
z
" transform="scale(0.015625)"/>
       <path id="DejaVuSans-69" d="M 603 3500 
L 1178 3500 
L 1178 0 
L 603 0 
L 603 3500 
z
M 603 4863 
L 1178 4863 
L 1178 4134 
L 603 4134 
L 603 4863 
z
" transform="scale(0.015625)"/>
       <path id="DejaVuSans-6f" d="M 1959 3097 
Q 1497 3097 1228 2736 
Q 959 2375 959 1747 
Q 959 1119 1226 758 
Q 1494 397 1959 397 
Q 2419 397 2687 759 
Q 2956 1122 2956 1747 
Q 2956 2369 2687 2733 
Q 2419 3097 1959 3097 
z
M 1959 3584 
Q 2709 3584 3137 3096 
Q 3566 2609 3566 1747 
Q 3566 888 3137 398 
Q 2709 -91 1959 -91 
Q 1206 -91 779 398 
Q 353 888 353 1747 
Q 353 2609 779 3096 
Q 1206 3584 1959 3584 
z
" transform="scale(0.015625)"/>
       <path id="DejaVuSans-20" transform="scale(0.015625)"/>
       <path id="DejaVuSans-28" d="M 1984 4856 
Q 1566 4138 1362 3434 
Q 1159 2731 1159 2009 
Q 1159 1288 1364 580 
Q 1569 -128 1984 -844 
L 1484 -844 
Q 1016 -109 783 600 
Q 550 1309 550 2009 
Q 550 2706 781 3412 
Q 1013 4119 1484 4856 
L 1984 4856 
z
" transform="scale(0.015625)"/>
       <path id="DejaVuSans-75" d="M 544 1381 
L 544 3500 
L 1119 3500 
L 1119 1403 
Q 1119 906 1312 657 
Q 1506 409 1894 409 
Q 2359 409 2629 706 
Q 2900 1003 2900 1516 
L 2900 3500 
L 3475 3500 
L 3475 0 
L 2900 0 
L 2900 538 
Q 2691 219 2414 64 
Q 2138 -91 1772 -91 
Q 1169 -91 856 284 
Q 544 659 544 1381 
z
M 1991 3584 
L 1991 3584 
z
" transform="scale(0.015625)"/>
       <path id="DejaVuSans-29" d="M 513 4856 
L 1013 4856 
Q 1481 4119 1714 3412 
Q 1947 2706 1947 2009 
Q 1947 1309 1714 600 
Q 1481 -109 1013 -844 
L 513 -844 
Q 928 -128 1133 580 
Q 1338 1288 1338 2009 
Q 1338 2731 1133 3434 
Q 928 4138 513 4856 
z
" transform="scale(0.015625)"/>
      </defs>
      <use xlink:href="#DejaVuSans-52"/>
      <use xlink:href="#DejaVuSans-61" transform="translate(67.232422 0)"/>
      <use xlink:href="#DejaVuSans-64" transform="translate(128.511719 0)"/>
      <use xlink:href="#DejaVuSans-69" transform="translate(191.988281 0)"/>
      <use xlink:href="#DejaVuSans-6f" transform="translate(219.771484 0)"/>
      <use xlink:href="#DejaVuSans-20" transform="translate(280.953125 0)"/>
      <use xlink:href="#DejaVuSans-28" transform="translate(312.740234 0)"/>
      <use xlink:href="#DejaVuSans-75" transform="translate(351.753906 0)"/>
      <use xlink:href="#DejaVuSans-2e" transform="translate(415.132812 0)"/>
      <use xlink:href="#DejaVuSans-61" transform="translate(446.919922 0)"/>
      <use xlink:href="#DejaVuSans-2e" transform="translate(508.199219 0)"/>
      <use xlink:href="#DejaVuSans-29" transform="translate(539.986328 0)"/>
     </g>
    </g>
   </g>
   <g id="matplotlib.axis_2">
    <g id="ytick_1">
     <g id="line2d_19">
      <path d="M 135 312.501655 
L 507 312.501655 
" clip-path="url(#p1ab418aacf)" style="fill: none; stroke: #b0b0b0; stroke-width: 0.8; stroke-linecap: square"/>
     </g>
     <g id="line2d_20">
      <defs>
       <path id="m1931158d32" d="M 0 0 
L -3.5 0 
" style="stroke: #000000; stroke-width: 0.8"/>
      </defs>
      <g>
       <use xlink:href="#m1931158d32" x="135" y="312.501655" style="stroke: #000000; stroke-width: 0.8"/>
      </g>
     </g>
     <g id="text_11">
      <!-- 0.00 -->
      <g transform="translate(89.525 319.066705) scale(0.1728 -0.1728)">
       <use xlink:href="#DejaVuSans-30"/>
       <use xlink:href="#DejaVuSans-2e" transform="translate(63.623047 0)"/>
       <use xlink:href="#DejaVuSans-30" transform="translate(95.410156 0)"/>
       <use xlink:href="#DejaVuSans-30" transform="translate(159.033203 0)"/>
      </g>
     </g>
    </g>
    <g id="ytick_2">
     <g id="line2d_21">
      <path d="M 135 280.413948 
L 507 280.413948 
" clip-path="url(#p1ab418aacf)" style="fill: none; stroke: #b0b0b0; stroke-width: 0.8; stroke-linecap: square"/>
     </g>
     <g id="line2d_22">
      <g>
       <use xlink:href="#m1931158d32" x="135" y="280.413948" style="stroke: #000000; stroke-width: 0.8"/>
      </g>
     </g>
     <g id="text_12">
      <!-- 0.25 -->
      <g transform="translate(89.525 286.978998) scale(0.1728 -0.1728)">
       <use xlink:href="#DejaVuSans-30"/>
       <use xlink:href="#DejaVuSans-2e" transform="translate(63.623047 0)"/>
       <use xlink:href="#DejaVuSans-32" transform="translate(95.410156 0)"/>
       <use xlink:href="#DejaVuSans-35" transform="translate(159.033203 0)"/>
      </g>
     </g>
    </g>
    <g id="ytick_3">
     <g id="line2d_23">
      <path d="M 135 248.326241 
L 507 248.326241 
" clip-path="url(#p1ab418aacf)" style="fill: none; stroke: #b0b0b0; stroke-width: 0.8; stroke-linecap: square"/>
     </g>
     <g id="line2d_24">
      <g>
       <use xlink:href="#m1931158d32" x="135" y="248.326241" style="stroke: #000000; stroke-width: 0.8"/>
      </g>
     </g>
     <g id="text_13">
      <!-- 0.50 -->
      <g transform="translate(89.525 254.891291) scale(0.1728 -0.1728)">
       <use xlink:href="#DejaVuSans-30"/>
       <use xlink:href="#DejaVuSans-2e" transform="translate(63.623047 0)"/>
       <use xlink:href="#DejaVuSans-35" transform="translate(95.410156 0)"/>
       <use xlink:href="#DejaVuSans-30" transform="translate(159.033203 0)"/>
      </g>
     </g>
    </g>
    <g id="ytick_4">
     <g id="line2d_25">
      <path d="M 135 216.238534 
L 507 216.238534 
" clip-path="url(#p1ab418aacf)" style="fill: none; stroke: #b0b0b0; stroke-width: 0.8; stroke-linecap: square"/>
     </g>
     <g id="line2d_26">
      <g>
       <use xlink:href="#m1931158d32" x="135" y="216.238534" style="stroke: #000000; stroke-width: 0.8"/>
      </g>
     </g>
     <g id="text_14">
      <!-- 0.75 -->
      <g transform="translate(89.525 222.803584) scale(0.1728 -0.1728)">
       <defs>
        <path id="DejaVuSans-37" d="M 525 4666 
L 3525 4666 
L 3525 4397 
L 1831 0 
L 1172 0 
L 2766 4134 
L 525 4134 
L 525 4666 
z
" transform="scale(0.015625)"/>
       </defs>
       <use xlink:href="#DejaVuSans-30"/>
       <use xlink:href="#DejaVuSans-2e" transform="translate(63.623047 0)"/>
       <use xlink:href="#DejaVuSans-37" transform="translate(95.410156 0)"/>
       <use xlink:href="#DejaVuSans-35" transform="translate(159.033203 0)"/>
      </g>
     </g>
    </g>
    <g id="ytick_5">
     <g id="line2d_27">
      <path d="M 135 184.150827 
L 507 184.150827 
" clip-path="url(#p1ab418aacf)" style="fill: none; stroke: #b0b0b0; stroke-width: 0.8; stroke-linecap: square"/>
     </g>
     <g id="line2d_28">
      <g>
       <use xlink:href="#m1931158d32" x="135" y="184.150827" style="stroke: #000000; stroke-width: 0.8"/>
      </g>
     </g>
     <g id="text_15">
      <!-- 1.00 -->
      <g transform="translate(89.525 190.715877) scale(0.1728 -0.1728)">
       <use xlink:href="#DejaVuSans-31"/>
       <use xlink:href="#DejaVuSans-2e" transform="translate(63.623047 0)"/>
       <use xlink:href="#DejaVuSans-30" transform="translate(95.410156 0)"/>
       <use xlink:href="#DejaVuSans-30" transform="translate(159.033203 0)"/>
      </g>
     </g>
    </g>
    <g id="ytick_6">
     <g id="line2d_29">
      <path d="M 135 152.063121 
L 507 152.063121 
" clip-path="url(#p1ab418aacf)" style="fill: none; stroke: #b0b0b0; stroke-width: 0.8; stroke-linecap: square"/>
     </g>
     <g id="line2d_30">
      <g>
       <use xlink:href="#m1931158d32" x="135" y="152.063121" style="stroke: #000000; stroke-width: 0.8"/>
      </g>
     </g>
     <g id="text_16">
      <!-- 1.25 -->
      <g transform="translate(89.525 158.628171) scale(0.1728 -0.1728)">
       <use xlink:href="#DejaVuSans-31"/>
       <use xlink:href="#DejaVuSans-2e" transform="translate(63.623047 0)"/>
       <use xlink:href="#DejaVuSans-32" transform="translate(95.410156 0)"/>
       <use xlink:href="#DejaVuSans-35" transform="translate(159.033203 0)"/>
      </g>
     </g>
    </g>
    <g id="ytick_7">
     <g id="line2d_31">
      <path d="M 135 119.975414 
L 507 119.975414 
" clip-path="url(#p1ab418aacf)" style="fill: none; stroke: #b0b0b0; stroke-width: 0.8; stroke-linecap: square"/>
     </g>
     <g id="line2d_32">
      <g>
       <use xlink:href="#m1931158d32" x="135" y="119.975414" style="stroke: #000000; stroke-width: 0.8"/>
      </g>
     </g>
     <g id="text_17">
      <!-- 1.50 -->
      <g transform="translate(89.525 126.540464) scale(0.1728 -0.1728)">
       <use xlink:href="#DejaVuSans-31"/>
       <use xlink:href="#DejaVuSans-2e" transform="translate(63.623047 0)"/>
       <use xlink:href="#DejaVuSans-35" transform="translate(95.410156 0)"/>
       <use xlink:href="#DejaVuSans-30" transform="translate(159.033203 0)"/>
      </g>
     </g>
    </g>
    <g id="ytick_8">
     <g id="line2d_33">
      <path d="M 135 87.887707 
L 507 87.887707 
" clip-path="url(#p1ab418aacf)" style="fill: none; stroke: #b0b0b0; stroke-width: 0.8; stroke-linecap: square"/>
     </g>
     <g id="line2d_34">
      <g>
       <use xlink:href="#m1931158d32" x="135" y="87.887707" style="stroke: #000000; stroke-width: 0.8"/>
      </g>
     </g>
     <g id="text_18">
      <!-- 1.75 -->
      <g transform="translate(89.525 94.452757) scale(0.1728 -0.1728)">
       <use xlink:href="#DejaVuSans-31"/>
       <use xlink:href="#DejaVuSans-2e" transform="translate(63.623047 0)"/>
       <use xlink:href="#DejaVuSans-37" transform="translate(95.410156 0)"/>
       <use xlink:href="#DejaVuSans-35" transform="translate(159.033203 0)"/>
      </g>
     </g>
    </g>
    <g id="ytick_9">
     <g id="line2d_35">
      <path d="M 135 55.8 
L 507 55.8 
" clip-path="url(#p1ab418aacf)" style="fill: none; stroke: #b0b0b0; stroke-width: 0.8; stroke-linecap: square"/>
     </g>
     <g id="line2d_36">
      <g>
       <use xlink:href="#m1931158d32" x="135" y="55.8" style="stroke: #000000; stroke-width: 0.8"/>
      </g>
     </g>
     <g id="text_19">
      <!-- 2.00 -->
      <g transform="translate(89.525 62.36505) scale(0.1728 -0.1728)">
       <use xlink:href="#DejaVuSans-32"/>
       <use xlink:href="#DejaVuSans-2e" transform="translate(63.623047 0)"/>
       <use xlink:href="#DejaVuSans-30" transform="translate(95.410156 0)"/>
       <use xlink:href="#DejaVuSans-30" transform="translate(159.033203 0)"/>
      </g>
     </g>
    </g>
    <g id="text_20">
     <!-- $R_{1s}$ -->
     <g transform="translate(75.9313 195.1056) rotate(-90) scale(0.1728 -0.1728)">
      <defs>
       <path id="DejaVuSans-Oblique-52" d="M 1613 4147 
L 1294 2491 
L 2106 2491 
Q 2584 2491 2879 2755 
Q 3175 3019 3175 3444 
Q 3175 3784 2976 3965 
Q 2778 4147 2406 4147 
L 1613 4147 
z
M 2772 2241 
Q 2972 2194 3105 2009 
Q 3238 1825 3413 1275 
L 3809 0 
L 3144 0 
L 2778 1197 
Q 2638 1659 2453 1815 
Q 2269 1972 1888 1972 
L 1191 1972 
L 806 0 
L 172 0 
L 1081 4666 
L 2503 4666 
Q 3150 4666 3495 4373 
Q 3841 4081 3841 3531 
Q 3841 3044 3547 2687 
Q 3253 2331 2772 2241 
z
" transform="scale(0.015625)"/>
       <path id="DejaVuSans-Oblique-73" d="M 3200 3397 
L 3091 2853 
Q 2863 2978 2609 3040 
Q 2356 3103 2088 3103 
Q 1634 3103 1373 2948 
Q 1113 2794 1113 2528 
Q 1113 2219 1719 2053 
Q 1766 2041 1788 2034 
L 1972 1978 
Q 2547 1819 2739 1644 
Q 2931 1469 2931 1166 
Q 2931 609 2489 259 
Q 2047 -91 1331 -91 
Q 1053 -91 747 -37 
Q 441 16 72 128 
L 184 722 
Q 500 559 806 475 
Q 1113 391 1394 391 
Q 1816 391 2080 572 
Q 2344 753 2344 1031 
Q 2344 1331 1650 1516 
L 1591 1531 
L 1394 1581 
Q 956 1697 753 1886 
Q 550 2075 550 2369 
Q 550 2928 970 3256 
Q 1391 3584 2113 3584 
Q 2397 3584 2667 3537 
Q 2938 3491 3200 3397 
z
" transform="scale(0.015625)"/>
      </defs>
      <use xlink:href="#DejaVuSans-Oblique-52" transform="translate(0 0.09375)"/>
      <use xlink:href="#DejaVuSans-31" transform="translate(69.482422 -16.3125) scale(0.7)"/>
      <use xlink:href="#DejaVuSans-Oblique-73" transform="translate(114.018555 -16.3125) scale(0.7)"/>
     </g>
    </g>
   </g>
   <g id="line2d_37">
    <path d="M 151.909091 55.8 
L 155.325069 65.965047 
L 158.741047 75.727571 
L 162.157025 85.103512 
L 165.573003 94.108179 
L 168.988981 102.756272 
L 172.404959 111.061912 
L 175.820937 119.03866 
L 179.236915 126.69954 
L 182.652893 134.057058 
L 186.068871 141.123229 
L 189.484848 147.909588 
L 192.900826 154.427217 
L 196.316804 160.686756 
L 199.732782 166.698425 
L 203.14876 172.472041 
L 206.564738 178.017029 
L 209.980716 183.342442 
L 213.396694 188.456977 
L 216.812672 193.368982 
L 220.22865 198.086479 
L 223.644628 202.617169 
L 227.060606 206.96845 
L 230.476584 211.147425 
L 233.892562 215.160919 
L 237.30854 219.015484 
L 240.724518 222.717413 
L 244.140496 226.27275 
L 247.556474 229.687301 
L 250.972452 232.96664 
L 254.38843 236.116122 
L 257.804408 239.140888 
L 261.220386 242.045877 
L 264.636364 244.835833 
L 268.052342 247.51531 
L 271.46832 250.088684 
L 274.884298 252.560155 
L 278.300275 254.933759 
L 281.716253 257.213372 
L 285.132231 259.402715 
L 288.548209 261.505363 
L 291.964187 263.524749 
L 295.380165 265.46417 
L 298.796143 267.326792 
L 302.212121 269.115657 
L 305.628099 270.833685 
L 309.044077 272.483682 
L 312.460055 274.068341 
L 315.876033 275.590249 
L 319.292011 277.051892 
L 322.707989 278.455656 
L 326.123967 279.803833 
L 329.539945 281.098623 
L 332.955923 282.342142 
L 336.371901 283.536419 
L 339.787879 284.683404 
L 343.203857 285.78497 
L 346.619835 286.842915 
L 350.035813 287.858968 
L 353.451791 288.834786 
L 356.867769 289.771962 
L 360.283747 290.672028 
L 363.699725 291.536453 
L 367.115702 292.366647 
L 370.53168 293.163967 
L 373.947658 293.929714 
L 377.363636 294.665138 
L 380.779614 295.37144 
L 384.195592 296.049774 
L 387.61157 296.701247 
L 391.027548 297.326922 
L 394.443526 297.927822 
L 397.859504 298.504926 
L 401.275482 299.059178 
L 404.69146 299.591483 
L 408.107438 300.102708 
L 411.523416 300.59369 
L 414.939394 301.06523 
L 418.355372 301.518097 
L 421.77135 301.953032 
L 425.187328 302.370743 
L 428.603306 302.771914 
L 432.019284 303.157199 
L 435.435262 303.527227 
L 438.85124 303.882602 
L 442.267218 304.223906 
L 445.683196 304.551694 
L 449.099174 304.866501 
L 452.515152 305.168843 
L 455.931129 305.459213 
L 459.347107 305.738085 
L 462.763085 306.005913 
L 466.179063 306.263136 
L 469.595041 306.510173 
L 473.011019 306.747428 
L 476.426997 306.975287 
L 479.842975 307.194124 
L 483.258953 307.404296 
L 486.674931 307.606144 
L 490.090909 307.8 
" clip-path="url(#p1ab418aacf)" style="fill: none; stroke: #000000; stroke-width: 1.5; stroke-linecap: square"/>
   </g>
   <g id="line2d_38">
    <path d="M 151.909091 105.486772 
L 155.325069 105.881397 
L 158.741047 107.057835 
L 162.157025 108.994045 
L 165.573003 111.654148 
L 168.988981 114.989672 
L 172.404959 118.941205 
L 175.820937 123.440375 
L 179.236915 128.412073 
L 182.652893 133.776793 
L 186.068871 139.45302 
L 189.484848 145.359525 
L 192.900826 151.41751 
L 196.316804 157.552503 
L 199.732782 163.69595 
L 203.14876 169.786472 
L 206.564738 175.770745 
L 209.980716 181.604024 
L 213.396694 187.250315 
L 216.812672 192.682224 
L 220.22865 197.880537 
L 223.644628 202.833571 
L 227.060606 207.536358 
L 230.476584 211.989717 
L 233.892562 216.199266 
L 237.30854 220.174425 
L 240.724518 223.927447 
L 244.140496 227.472526 
L 247.556474 230.824983 
L 250.972452 234.000571 
L 254.38843 237.014895 
L 257.804408 239.882949 
L 261.220386 242.618774 
L 264.636364 245.235216 
L 268.052342 247.743787 
L 271.46832 250.154599 
L 274.884298 252.476374 
L 278.300275 254.716497 
L 281.716253 256.881112 
L 285.132231 258.975245 
L 288.548209 261.002933 
L 291.964187 262.967372 
L 295.380165 264.871054 
L 298.796143 266.715897 
L 302.212121 268.50337 
L 305.628099 270.234602 
L 309.044077 271.910479 
L 312.460055 273.531721 
L 315.876033 275.098953 
L 319.292011 276.612756 
L 322.707989 278.073712 
L 326.123967 279.482436 
L 329.539945 280.839596 
L 332.955923 282.14593 
L 336.371901 283.402257 
L 339.787879 284.609477 
L 343.203857 285.768575 
L 346.619835 286.880613 
L 350.035813 287.946731 
L 353.451791 288.968134 
L 356.867769 289.946087 
L 360.283747 290.881906 
L 363.699725 291.776948 
L 367.115702 292.632602 
L 370.53168 293.45028 
L 373.947658 294.231409 
L 377.363636 294.977423 
L 380.779614 295.689752 
L 384.195592 296.369819 
L 387.61157 297.019034 
L 391.027548 297.638782 
L 394.443526 298.230426 
L 397.859504 298.795294 
L 401.275482 299.334682 
L 404.69146 299.849847 
L 408.107438 300.342006 
L 411.523416 300.812331 
L 414.939394 301.261951 
L 418.355372 301.691946 
L 421.77135 302.103352 
L 425.187328 302.497155 
L 428.603306 302.874294 
L 432.019284 303.235662 
L 435.435262 303.582103 
L 438.85124 303.914416 
L 442.267218 304.233355 
L 445.683196 304.539631 
L 449.099174 304.83391 
L 452.515152 305.11682 
L 455.931129 305.388947 
L 459.347107 305.650843 
L 462.763085 305.903021 
L 466.179063 306.145961 
L 469.595041 306.380112 
L 473.011019 306.605891 
L 476.426997 306.823688 
L 479.842975 307.033864 
L 483.258953 307.236758 
L 486.674931 307.432684 
L 490.090909 307.621934 
" clip-path="url(#p1ab418aacf)" style="fill: none; stroke-dasharray: 9.25,4; stroke-dashoffset: 0; stroke: #0000ff; stroke-width: 2.5"/>
   </g>
   <g id="line2d_39">
    <defs>
     <path id="mbf46403d04" d="M 0 3.5 
C 0.928211 3.5 1.81853 3.131218 2.474874 2.474874 
C 3.131218 1.81853 3.5 0.928211 3.5 0 
C 3.5 -0.928211 3.131218 -1.81853 2.474874 -2.474874 
C 1.81853 -3.131218 0.928211 -3.5 0 -3.5 
C -0.928211 -3.5 -1.81853 -3.131218 -2.474874 -2.474874 
C -3.131218 -1.81853 -3.5 -0.928211 -3.5 0 
C -3.5 0.928211 -3.131218 1.81853 -2.474874 2.474874 
C -1.81853 3.131218 -0.928211 3.5 0 3.5 
z
" style="stroke: #ff0000"/>
    </defs>
    <g clip-path="url(#p1ab418aacf)">
     <use xlink:href="#mbf46403d04" x="151.909091" y="105.454689" style="fill: #ff0000; stroke: #ff0000"/>
     <use xlink:href="#mbf46403d04" x="168.988981" y="114.96033" style="fill: #ff0000; stroke: #ff0000"/>
     <use xlink:href="#mbf46403d04" x="186.068871" y="139.431459" style="fill: #ff0000; stroke: #ff0000"/>
     <use xlink:href="#mbf46403d04" x="203.14876" y="169.775794" style="fill: #ff0000; stroke: #ff0000"/>
     <use xlink:href="#mbf46403d04" x="220.22865" y="197.880218" style="fill: #ff0000; stroke: #ff0000"/>
     <use xlink:href="#mbf46403d04" x="237.30854" y="220.180523" style="fill: #ff0000; stroke: #ff0000"/>
     <use xlink:href="#mbf46403d04" x="254.38843" y="237.022451" style="fill: #ff0000; stroke: #ff0000"/>
     <use xlink:href="#mbf46403d04" x="271.46832" y="250.160125" style="fill: #ff0000; stroke: #ff0000"/>
     <use xlink:href="#mbf46403d04" x="288.548209" y="261.00525" style="fill: #ff0000; stroke: #ff0000"/>
     <use xlink:href="#mbf46403d04" x="305.628099" y="270.234212" style="fill: #ff0000; stroke: #ff0000"/>
     <use xlink:href="#mbf46403d04" x="322.707989" y="278.071779" style="fill: #ff0000; stroke: #ff0000"/>
     <use xlink:href="#mbf46403d04" x="339.787879" y="284.607119" style="fill: #ff0000; stroke: #ff0000"/>
     <use xlink:href="#mbf46403d04" x="356.867769" y="289.944073" style="fill: #ff0000; stroke: #ff0000"/>
     <use xlink:href="#mbf46403d04" x="373.947658" y="294.230115" style="fill: #ff0000; stroke: #ff0000"/>
     <use xlink:href="#mbf46403d04" x="391.027548" y="297.638271" style="fill: #ff0000; stroke: #ff0000"/>
     <use xlink:href="#mbf46403d04" x="408.107438" y="300.342146" style="fill: #ff0000; stroke: #ff0000"/>
     <use xlink:href="#mbf46403d04" x="425.187328" y="302.497722" style="fill: #ff0000; stroke: #ff0000"/>
     <use xlink:href="#mbf46403d04" x="442.267218" y="304.234117" style="fill: #ff0000; stroke: #ff0000"/>
     <use xlink:href="#mbf46403d04" x="459.347107" y="305.651606" style="fill: #ff0000; stroke: #ff0000"/>
     <use xlink:href="#mbf46403d04" x="476.426997" y="306.82432" style="fill: #ff0000; stroke: #ff0000"/>
    </g>
   </g>
   <g id="patch_3">
    <path d="M 135 320.4 
L 135 43.2 
" style="fill: none; stroke: #000000; stroke-width: 0.8; stroke-linejoin: miter; stroke-linecap: square"/>
   </g>
   <g id="patch_4">
    <path d="M 507 320.4 
L 507 43.2 
" style="fill: none; stroke: #000000; stroke-width: 0.8; stroke-linejoin: miter; stroke-linecap: square"/>
   </g>
   <g id="patch_5">
    <path d="M 135 320.4 
L 507 320.4 
" style="fill: none; stroke: #000000; stroke-width: 0.8; stroke-linejoin: miter; stroke-linecap: square"/>
   </g>
   <g id="patch_6">
    <path d="M 135 43.2 
L 507 43.2 
" style="fill: none; stroke: #000000; stroke-width: 0.8; stroke-linejoin: miter; stroke-linecap: square"/>
   </g>
   <g id="legend_1">
    <g id="patch_7">
     <path d="M 335.388 133.1154 
L 494.904 133.1154 
Q 498.36 133.1154 498.36 129.6594 
L 498.36 55.296 
Q 498.36 51.84 494.904 51.84 
L 335.388 51.84 
Q 331.932 51.84 331.932 55.296 
L 331.932 129.6594 
Q 331.932 133.1154 335.388 133.1154 
z
" style="fill: #ffffff; opacity: 0.8; stroke: #cccccc; stroke-linejoin: miter"/>
    </g>
    <g id="line2d_40">
     <path d="M 338.844 65.8341 
L 356.124 65.8341 
L 373.404 65.8341 
" style="fill: none; stroke: #000000; stroke-width: 1.5; stroke-linecap: square"/>
    </g>
    <g id="text_21">
     <!-- Slater -->
     <g transform="translate(387.228 71.8821) scale(0.1728 -0.1728)">
      <defs>
       <path id="DejaVuSans-53" d="M 3425 4513 
L 3425 3897 
Q 3066 4069 2747 4153 
Q 2428 4238 2131 4238 
Q 1616 4238 1336 4038 
Q 1056 3838 1056 3469 
Q 1056 3159 1242 3001 
Q 1428 2844 1947 2747 
L 2328 2669 
Q 3034 2534 3370 2195 
Q 3706 1856 3706 1288 
Q 3706 609 3251 259 
Q 2797 -91 1919 -91 
Q 1588 -91 1214 -16 
Q 841 59 441 206 
L 441 856 
Q 825 641 1194 531 
Q 1563 422 1919 422 
Q 2459 422 2753 634 
Q 3047 847 3047 1241 
Q 3047 1584 2836 1778 
Q 2625 1972 2144 2069 
L 1759 2144 
Q 1053 2284 737 2584 
Q 422 2884 422 3419 
Q 422 4038 858 4394 
Q 1294 4750 2059 4750 
Q 2388 4750 2728 4690 
Q 3069 4631 3425 4513 
z
" transform="scale(0.015625)"/>
       <path id="DejaVuSans-6c" d="M 603 4863 
L 1178 4863 
L 1178 0 
L 603 0 
L 603 4863 
z
" transform="scale(0.015625)"/>
       <path id="DejaVuSans-74" d="M 1172 4494 
L 1172 3500 
L 2356 3500 
L 2356 3053 
L 1172 3053 
L 1172 1153 
Q 1172 725 1289 603 
Q 1406 481 1766 481 
L 2356 481 
L 2356 0 
L 1766 0 
Q 1100 0 847 248 
Q 594 497 594 1153 
L 594 3053 
L 172 3053 
L 172 3500 
L 594 3500 
L 594 4494 
L 1172 4494 
z
" transform="scale(0.015625)"/>
       <path id="DejaVuSans-65" d="M 3597 1894 
L 3597 1613 
L 953 1613 
Q 991 1019 1311 708 
Q 1631 397 2203 397 
Q 2534 397 2845 478 
Q 3156 559 3463 722 
L 3463 178 
Q 3153 47 2828 -22 
Q 2503 -91 2169 -91 
Q 1331 -91 842 396 
Q 353 884 353 1716 
Q 353 2575 817 3079 
Q 1281 3584 2069 3584 
Q 2775 3584 3186 3129 
Q 3597 2675 3597 1894 
z
M 3022 2063 
Q 3016 2534 2758 2815 
Q 2500 3097 2075 3097 
Q 1594 3097 1305 2825 
Q 1016 2553 972 2059 
L 3022 2063 
z
" transform="scale(0.015625)"/>
       <path id="DejaVuSans-72" d="M 2631 2963 
Q 2534 3019 2420 3045 
Q 2306 3072 2169 3072 
Q 1681 3072 1420 2755 
Q 1159 2438 1159 1844 
L 1159 0 
L 581 0 
L 581 3500 
L 1159 3500 
L 1159 2956 
Q 1341 3275 1631 3429 
Q 1922 3584 2338 3584 
Q 2397 3584 2469 3576 
Q 2541 3569 2628 3553 
L 2631 2963 
z
" transform="scale(0.015625)"/>
      </defs>
      <use xlink:href="#DejaVuSans-53"/>
      <use xlink:href="#DejaVuSans-6c" transform="translate(63.476562 0)"/>
      <use xlink:href="#DejaVuSans-61" transform="translate(91.259766 0)"/>
      <use xlink:href="#DejaVuSans-74" transform="translate(152.539062 0)"/>
      <use xlink:href="#DejaVuSans-65" transform="translate(191.748047 0)"/>
      <use xlink:href="#DejaVuSans-72" transform="translate(253.271484 0)"/>
     </g>
    </g>
    <g id="line2d_41">
     <path d="M 338.844 91.1979 
L 356.124 91.1979 
L 373.404 91.1979 
" style="fill: none; stroke-dasharray: 9.25,4; stroke-dashoffset: 0; stroke: #0000ff; stroke-width: 2.5"/>
    </g>
    <g id="text_22">
     <!-- Stewart -->
     <g transform="translate(387.228 97.2459) scale(0.1728 -0.1728)">
      <defs>
       <path id="DejaVuSans-77" d="M 269 3500 
L 844 3500 
L 1563 769 
L 2278 3500 
L 2956 3500 
L 3675 769 
L 4391 3500 
L 4966 3500 
L 4050 0 
L 3372 0 
L 2619 2869 
L 1863 0 
L 1184 0 
L 269 3500 
z
" transform="scale(0.015625)"/>
      </defs>
      <use xlink:href="#DejaVuSans-53"/>
      <use xlink:href="#DejaVuSans-74" transform="translate(63.476562 0)"/>
      <use xlink:href="#DejaVuSans-65" transform="translate(102.685547 0)"/>
      <use xlink:href="#DejaVuSans-77" transform="translate(164.208984 0)"/>
      <use xlink:href="#DejaVuSans-61" transform="translate(245.996094 0)"/>
      <use xlink:href="#DejaVuSans-72" transform="translate(307.275391 0)"/>
      <use xlink:href="#DejaVuSans-74" transform="translate(348.388672 0)"/>
     </g>
    </g>
    <g id="line2d_42">
     <g>
      <use xlink:href="#mbf46403d04" x="356.124" y="116.5617" style="fill: #ff0000; stroke: #ff0000"/>
     </g>
    </g>
    <g id="text_23">
     <!-- Este trabajo -->
     <g transform="translate(387.228 122.6097) scale(0.1728 -0.1728)">
      <defs>
       <path id="DejaVuSans-45" d="M 628 4666 
L 3578 4666 
L 3578 4134 
L 1259 4134 
L 1259 2753 
L 3481 2753 
L 3481 2222 
L 1259 2222 
L 1259 531 
L 3634 531 
L 3634 0 
L 628 0 
L 628 4666 
z
" transform="scale(0.015625)"/>
       <path id="DejaVuSans-73" d="M 2834 3397 
L 2834 2853 
Q 2591 2978 2328 3040 
Q 2066 3103 1784 3103 
Q 1356 3103 1142 2972 
Q 928 2841 928 2578 
Q 928 2378 1081 2264 
Q 1234 2150 1697 2047 
L 1894 2003 
Q 2506 1872 2764 1633 
Q 3022 1394 3022 966 
Q 3022 478 2636 193 
Q 2250 -91 1575 -91 
Q 1294 -91 989 -36 
Q 684 19 347 128 
L 347 722 
Q 666 556 975 473 
Q 1284 391 1588 391 
Q 1994 391 2212 530 
Q 2431 669 2431 922 
Q 2431 1156 2273 1281 
Q 2116 1406 1581 1522 
L 1381 1569 
Q 847 1681 609 1914 
Q 372 2147 372 2553 
Q 372 3047 722 3315 
Q 1072 3584 1716 3584 
Q 2034 3584 2315 3537 
Q 2597 3491 2834 3397 
z
" transform="scale(0.015625)"/>
       <path id="DejaVuSans-62" d="M 3116 1747 
Q 3116 2381 2855 2742 
Q 2594 3103 2138 3103 
Q 1681 3103 1420 2742 
Q 1159 2381 1159 1747 
Q 1159 1113 1420 752 
Q 1681 391 2138 391 
Q 2594 391 2855 752 
Q 3116 1113 3116 1747 
z
M 1159 2969 
Q 1341 3281 1617 3432 
Q 1894 3584 2278 3584 
Q 2916 3584 3314 3078 
Q 3713 2572 3713 1747 
Q 3713 922 3314 415 
Q 2916 -91 2278 -91 
Q 1894 -91 1617 61 
Q 1341 213 1159 525 
L 1159 0 
L 581 0 
L 581 4863 
L 1159 4863 
L 1159 2969 
z
" transform="scale(0.015625)"/>
       <path id="DejaVuSans-6a" d="M 603 3500 
L 1178 3500 
L 1178 -63 
Q 1178 -731 923 -1031 
Q 669 -1331 103 -1331 
L -116 -1331 
L -116 -844 
L 38 -844 
Q 366 -844 484 -692 
Q 603 -541 603 -63 
L 603 3500 
z
M 603 4863 
L 1178 4863 
L 1178 4134 
L 603 4134 
L 603 4863 
z
" transform="scale(0.015625)"/>
      </defs>
      <use xlink:href="#DejaVuSans-45"/>
      <use xlink:href="#DejaVuSans-73" transform="translate(63.183594 0)"/>
      <use xlink:href="#DejaVuSans-74" transform="translate(115.283203 0)"/>
      <use xlink:href="#DejaVuSans-65" transform="translate(154.492188 0)"/>
      <use xlink:href="#DejaVuSans-20" transform="translate(216.015625 0)"/>
      <use xlink:href="#DejaVuSans-74" transform="translate(247.802734 0)"/>
      <use xlink:href="#DejaVuSans-72" transform="translate(287.011719 0)"/>
      <use xlink:href="#DejaVuSans-61" transform="translate(328.125 0)"/>
      <use xlink:href="#DejaVuSans-62" transform="translate(389.404297 0)"/>
      <use xlink:href="#DejaVuSans-61" transform="translate(452.880859 0)"/>
      <use xlink:href="#DejaVuSans-6a" transform="translate(514.160156 0)"/>
      <use xlink:href="#DejaVuSans-6f" transform="translate(541.943359 0)"/>
     </g>
    </g>
   </g>
  </g>
  <g id="axes_2">
   <g id="patch_8">
    <path d="M 600 320.4 
L 972 320.4 
L 972 43.2 
L 600 43.2 
z
" style="fill: #ffffff"/>
   </g>
   <g id="matplotlib.axis_3">
    <g id="xtick_10">
     <g id="line2d_43">
      <path d="M 616.909091 320.4 
L 616.909091 43.2 
" clip-path="url(#p5ce7a1968e)" style="fill: none; stroke: #b0b0b0; stroke-width: 0.8; stroke-linecap: square"/>
     </g>
     <g id="line2d_44">
      <g>
       <use xlink:href="#m03bbd87909" x="616.909091" y="320.4" style="stroke: #000000; stroke-width: 0.8"/>
      </g>
     </g>
     <g id="text_24">
      <!-- 0.0 -->
      <g transform="translate(603.168791 340.5301) scale(0.1728 -0.1728)">
       <use xlink:href="#DejaVuSans-30"/>
       <use xlink:href="#DejaVuSans-2e" transform="translate(63.623047 0)"/>
       <use xlink:href="#DejaVuSans-30" transform="translate(95.410156 0)"/>
      </g>
     </g>
    </g>
    <g id="xtick_11">
     <g id="line2d_45">
      <path d="M 659.181818 320.4 
L 659.181818 43.2 
" clip-path="url(#p5ce7a1968e)" style="fill: none; stroke: #b0b0b0; stroke-width: 0.8; stroke-linecap: square"/>
     </g>
     <g id="line2d_46">
      <g>
       <use xlink:href="#m03bbd87909" x="659.181818" y="320.4" style="stroke: #000000; stroke-width: 0.8"/>
      </g>
     </g>
     <g id="text_25">
      <!-- 0.5 -->
      <g transform="translate(645.441518 340.5301) scale(0.1728 -0.1728)">
       <use xlink:href="#DejaVuSans-30"/>
       <use xlink:href="#DejaVuSans-2e" transform="translate(63.623047 0)"/>
       <use xlink:href="#DejaVuSans-35" transform="translate(95.410156 0)"/>
      </g>
     </g>
    </g>
    <g id="xtick_12">
     <g id="line2d_47">
      <path d="M 701.454545 320.4 
L 701.454545 43.2 
" clip-path="url(#p5ce7a1968e)" style="fill: none; stroke: #b0b0b0; stroke-width: 0.8; stroke-linecap: square"/>
     </g>
     <g id="line2d_48">
      <g>
       <use xlink:href="#m03bbd87909" x="701.454545" y="320.4" style="stroke: #000000; stroke-width: 0.8"/>
      </g>
     </g>
     <g id="text_26">
      <!-- 1.0 -->
      <g transform="translate(687.714245 340.5301) scale(0.1728 -0.1728)">
       <use xlink:href="#DejaVuSans-31"/>
       <use xlink:href="#DejaVuSans-2e" transform="translate(63.623047 0)"/>
       <use xlink:href="#DejaVuSans-30" transform="translate(95.410156 0)"/>
      </g>
     </g>
    </g>
    <g id="xtick_13">
     <g id="line2d_49">
      <path d="M 743.727273 320.4 
L 743.727273 43.2 
" clip-path="url(#p5ce7a1968e)" style="fill: none; stroke: #b0b0b0; stroke-width: 0.8; stroke-linecap: square"/>
     </g>
     <g id="line2d_50">
      <g>
       <use xlink:href="#m03bbd87909" x="743.727273" y="320.4" style="stroke: #000000; stroke-width: 0.8"/>
      </g>
     </g>
     <g id="text_27">
      <!-- 1.5 -->
      <g transform="translate(729.986973 340.5301) scale(0.1728 -0.1728)">
       <use xlink:href="#DejaVuSans-31"/>
       <use xlink:href="#DejaVuSans-2e" transform="translate(63.623047 0)"/>
       <use xlink:href="#DejaVuSans-35" transform="translate(95.410156 0)"/>
      </g>
     </g>
    </g>
    <g id="xtick_14">
     <g id="line2d_51">
      <path d="M 786 320.4 
L 786 43.2 
" clip-path="url(#p5ce7a1968e)" style="fill: none; stroke: #b0b0b0; stroke-width: 0.8; stroke-linecap: square"/>
     </g>
     <g id="line2d_52">
      <g>
       <use xlink:href="#m03bbd87909" x="786" y="320.4" style="stroke: #000000; stroke-width: 0.8"/>
      </g>
     </g>
     <g id="text_28">
      <!-- 2.0 -->
      <g transform="translate(772.2597 340.5301) scale(0.1728 -0.1728)">
       <use xlink:href="#DejaVuSans-32"/>
       <use xlink:href="#DejaVuSans-2e" transform="translate(63.623047 0)"/>
       <use xlink:href="#DejaVuSans-30" transform="translate(95.410156 0)"/>
      </g>
     </g>
    </g>
    <g id="xtick_15">
     <g id="line2d_53">
      <path d="M 828.272727 320.4 
L 828.272727 43.2 
" clip-path="url(#p5ce7a1968e)" style="fill: none; stroke: #b0b0b0; stroke-width: 0.8; stroke-linecap: square"/>
     </g>
     <g id="line2d_54">
      <g>
       <use xlink:href="#m03bbd87909" x="828.272727" y="320.4" style="stroke: #000000; stroke-width: 0.8"/>
      </g>
     </g>
     <g id="text_29">
      <!-- 2.5 -->
      <g transform="translate(814.532427 340.5301) scale(0.1728 -0.1728)">
       <use xlink:href="#DejaVuSans-32"/>
       <use xlink:href="#DejaVuSans-2e" transform="translate(63.623047 0)"/>
       <use xlink:href="#DejaVuSans-35" transform="translate(95.410156 0)"/>
      </g>
     </g>
    </g>
    <g id="xtick_16">
     <g id="line2d_55">
      <path d="M 870.545455 320.4 
L 870.545455 43.2 
" clip-path="url(#p5ce7a1968e)" style="fill: none; stroke: #b0b0b0; stroke-width: 0.8; stroke-linecap: square"/>
     </g>
     <g id="line2d_56">
      <g>
       <use xlink:href="#m03bbd87909" x="870.545455" y="320.4" style="stroke: #000000; stroke-width: 0.8"/>
      </g>
     </g>
     <g id="text_30">
      <!-- 3.0 -->
      <g transform="translate(856.805155 340.5301) scale(0.1728 -0.1728)">
       <use xlink:href="#DejaVuSans-33"/>
       <use xlink:href="#DejaVuSans-2e" transform="translate(63.623047 0)"/>
       <use xlink:href="#DejaVuSans-30" transform="translate(95.410156 0)"/>
      </g>
     </g>
    </g>
    <g id="xtick_17">
     <g id="line2d_57">
      <path d="M 912.818182 320.4 
L 912.818182 43.2 
" clip-path="url(#p5ce7a1968e)" style="fill: none; stroke: #b0b0b0; stroke-width: 0.8; stroke-linecap: square"/>
     </g>
     <g id="line2d_58">
      <g>
       <use xlink:href="#m03bbd87909" x="912.818182" y="320.4" style="stroke: #000000; stroke-width: 0.8"/>
      </g>
     </g>
     <g id="text_31">
      <!-- 3.5 -->
      <g transform="translate(899.077882 340.5301) scale(0.1728 -0.1728)">
       <use xlink:href="#DejaVuSans-33"/>
       <use xlink:href="#DejaVuSans-2e" transform="translate(63.623047 0)"/>
       <use xlink:href="#DejaVuSans-35" transform="translate(95.410156 0)"/>
      </g>
     </g>
    </g>
    <g id="xtick_18">
     <g id="line2d_59">
      <path d="M 955.090909 320.4 
L 955.090909 43.2 
" clip-path="url(#p5ce7a1968e)" style="fill: none; stroke: #b0b0b0; stroke-width: 0.8; stroke-linecap: square"/>
     </g>
     <g id="line2d_60">
      <g>
       <use xlink:href="#m03bbd87909" x="955.090909" y="320.4" style="stroke: #000000; stroke-width: 0.8"/>
      </g>
     </g>
     <g id="text_32">
      <!-- 4.0 -->
      <g transform="translate(941.350609 340.5301) scale(0.1728 -0.1728)">
       <use xlink:href="#DejaVuSans-34"/>
       <use xlink:href="#DejaVuSans-2e" transform="translate(63.623047 0)"/>
       <use xlink:href="#DejaVuSans-30" transform="translate(95.410156 0)"/>
      </g>
     </g>
    </g>
    <g id="text_33">
     <!-- Radio (u.a.) -->
     <g transform="translate(735.9744 367.2539) scale(0.1728 -0.1728)">
      <use xlink:href="#DejaVuSans-52"/>
      <use xlink:href="#DejaVuSans-61" transform="translate(67.232422 0)"/>
      <use xlink:href="#DejaVuSans-64" transform="translate(128.511719 0)"/>
      <use xlink:href="#DejaVuSans-69" transform="translate(191.988281 0)"/>
      <use xlink:href="#DejaVuSans-6f" transform="translate(219.771484 0)"/>
      <use xlink:href="#DejaVuSans-20" transform="translate(280.953125 0)"/>
      <use xlink:href="#DejaVuSans-28" transform="translate(312.740234 0)"/>
      <use xlink:href="#DejaVuSans-75" transform="translate(351.753906 0)"/>
      <use xlink:href="#DejaVuSans-2e" transform="translate(415.132812 0)"/>
      <use xlink:href="#DejaVuSans-61" transform="translate(446.919922 0)"/>
      <use xlink:href="#DejaVuSans-2e" transform="translate(508.199219 0)"/>
      <use xlink:href="#DejaVuSans-29" transform="translate(539.986328 0)"/>
     </g>
    </g>
   </g>
   <g id="matplotlib.axis_4">
    <g id="ytick_10">
     <g id="line2d_61">
      <path d="M 600 307.8 
L 972 307.8 
" clip-path="url(#p5ce7a1968e)" style="fill: none; stroke: #b0b0b0; stroke-width: 0.8; stroke-linecap: square"/>
     </g>
     <g id="line2d_62">
      <g>
       <use xlink:href="#m1931158d32" x="600" y="307.8" style="stroke: #000000; stroke-width: 0.8"/>
      </g>
     </g>
     <g id="text_34">
      <!-- 0 -->
      <g transform="translate(582.0056 314.36505) scale(0.1728 -0.1728)">
       <use xlink:href="#DejaVuSans-30"/>
      </g>
     </g>
    </g>
    <g id="ytick_11">
     <g id="line2d_63">
      <path d="M 600 270.752094 
L 972 270.752094 
" clip-path="url(#p5ce7a1968e)" style="fill: none; stroke: #b0b0b0; stroke-width: 0.8; stroke-linecap: square"/>
     </g>
     <g id="line2d_64">
      <g>
       <use xlink:href="#m1931158d32" x="600" y="270.752094" style="stroke: #000000; stroke-width: 0.8"/>
      </g>
     </g>
     <g id="text_35">
      <!-- 1 -->
      <g transform="translate(582.0056 277.317144) scale(0.1728 -0.1728)">
       <use xlink:href="#DejaVuSans-31"/>
      </g>
     </g>
    </g>
    <g id="ytick_12">
     <g id="line2d_65">
      <path d="M 600 233.704188 
L 972 233.704188 
" clip-path="url(#p5ce7a1968e)" style="fill: none; stroke: #b0b0b0; stroke-width: 0.8; stroke-linecap: square"/>
     </g>
     <g id="line2d_66">
      <g>
       <use xlink:href="#m1931158d32" x="600" y="233.704188" style="stroke: #000000; stroke-width: 0.8"/>
      </g>
     </g>
     <g id="text_36">
      <!-- 2 -->
      <g transform="translate(582.0056 240.269238) scale(0.1728 -0.1728)">
       <use xlink:href="#DejaVuSans-32"/>
      </g>
     </g>
    </g>
    <g id="ytick_13">
     <g id="line2d_67">
      <path d="M 600 196.656282 
L 972 196.656282 
" clip-path="url(#p5ce7a1968e)" style="fill: none; stroke: #b0b0b0; stroke-width: 0.8; stroke-linecap: square"/>
     </g>
     <g id="line2d_68">
      <g>
       <use xlink:href="#m1931158d32" x="600" y="196.656282" style="stroke: #000000; stroke-width: 0.8"/>
      </g>
     </g>
     <g id="text_37">
      <!-- 3 -->
      <g transform="translate(582.0056 203.221332) scale(0.1728 -0.1728)">
       <use xlink:href="#DejaVuSans-33"/>
      </g>
     </g>
    </g>
    <g id="ytick_14">
     <g id="line2d_69">
      <path d="M 600 159.608377 
L 972 159.608377 
" clip-path="url(#p5ce7a1968e)" style="fill: none; stroke: #b0b0b0; stroke-width: 0.8; stroke-linecap: square"/>
     </g>
     <g id="line2d_70">
      <g>
       <use xlink:href="#m1931158d32" x="600" y="159.608377" style="stroke: #000000; stroke-width: 0.8"/>
      </g>
     </g>
     <g id="text_38">
      <!-- 4 -->
      <g transform="translate(582.0056 166.173427) scale(0.1728 -0.1728)">
       <use xlink:href="#DejaVuSans-34"/>
      </g>
     </g>
    </g>
    <g id="ytick_15">
     <g id="line2d_71">
      <path d="M 600 122.560471 
L 972 122.560471 
" clip-path="url(#p5ce7a1968e)" style="fill: none; stroke: #b0b0b0; stroke-width: 0.8; stroke-linecap: square"/>
     </g>
     <g id="line2d_72">
      <g>
       <use xlink:href="#m1931158d32" x="600" y="122.560471" style="stroke: #000000; stroke-width: 0.8"/>
      </g>
     </g>
     <g id="text_39">
      <!-- 5 -->
      <g transform="translate(582.0056 129.125521) scale(0.1728 -0.1728)">
       <use xlink:href="#DejaVuSans-35"/>
      </g>
     </g>
    </g>
    <g id="ytick_16">
     <g id="line2d_73">
      <path d="M 600 85.512565 
L 972 85.512565 
" clip-path="url(#p5ce7a1968e)" style="fill: none; stroke: #b0b0b0; stroke-width: 0.8; stroke-linecap: square"/>
     </g>
     <g id="line2d_74">
      <g>
       <use xlink:href="#m1931158d32" x="600" y="85.512565" style="stroke: #000000; stroke-width: 0.8"/>
      </g>
     </g>
     <g id="text_40">
      <!-- 6 -->
      <g transform="translate(582.0056 92.077615) scale(0.1728 -0.1728)">
       <defs>
        <path id="DejaVuSans-36" d="M 2113 2584 
Q 1688 2584 1439 2293 
Q 1191 2003 1191 1497 
Q 1191 994 1439 701 
Q 1688 409 2113 409 
Q 2538 409 2786 701 
Q 3034 994 3034 1497 
Q 3034 2003 2786 2293 
Q 2538 2584 2113 2584 
z
M 3366 4563 
L 3366 3988 
Q 3128 4100 2886 4159 
Q 2644 4219 2406 4219 
Q 1781 4219 1451 3797 
Q 1122 3375 1075 2522 
Q 1259 2794 1537 2939 
Q 1816 3084 2150 3084 
Q 2853 3084 3261 2657 
Q 3669 2231 3669 1497 
Q 3669 778 3244 343 
Q 2819 -91 2113 -91 
Q 1303 -91 875 529 
Q 447 1150 447 2328 
Q 447 3434 972 4092 
Q 1497 4750 2381 4750 
Q 2619 4750 2861 4703 
Q 3103 4656 3366 4563 
z
" transform="scale(0.015625)"/>
       </defs>
       <use xlink:href="#DejaVuSans-36"/>
      </g>
     </g>
    </g>
    <g id="ytick_17">
     <g id="line2d_75">
      <path d="M 600 48.464659 
L 972 48.464659 
" clip-path="url(#p5ce7a1968e)" style="fill: none; stroke: #b0b0b0; stroke-width: 0.8; stroke-linecap: square"/>
     </g>
     <g id="line2d_76">
      <g>
       <use xlink:href="#m1931158d32" x="600" y="48.464659" style="stroke: #000000; stroke-width: 0.8"/>
      </g>
     </g>
     <g id="text_41">
      <!-- 7 -->
      <g transform="translate(582.0056 55.029709) scale(0.1728 -0.1728)">
       <use xlink:href="#DejaVuSans-37"/>
      </g>
     </g>
    </g>
    <g id="text_42">
     <!-- $4\pi r^2 |R_{1s}|^2$ -->
     <g transform="translate(567.8584 223.7904) rotate(-90) scale(0.1728 -0.1728)">
      <defs>
       <path id="DejaVuSans-Oblique-3c0" d="M 584 3500 
L 3938 3500 
L 3825 2925 
L 3384 2925 
L 2966 775 
Q 2922 550 2981 450 
Q 3038 353 3209 353 
Q 3256 353 3325 363 
Q 3397 369 3419 372 
L 3338 -44 
Q 3222 -84 3103 -103 
Q 2981 -122 2866 -122 
Q 2491 -122 2388 81 
Q 2284 288 2391 838 
L 2797 2925 
L 1506 2925 
L 938 0 
L 350 0 
L 919 2925 
L 472 2925 
L 584 3500 
z
" transform="scale(0.015625)"/>
       <path id="DejaVuSans-Oblique-72" d="M 2853 2969 
Q 2766 3016 2653 3041 
Q 2541 3066 2413 3066 
Q 1953 3066 1609 2717 
Q 1266 2369 1153 1784 
L 800 0 
L 225 0 
L 909 3500 
L 1484 3500 
L 1375 2956 
Q 1603 3259 1920 3421 
Q 2238 3584 2597 3584 
Q 2691 3584 2781 3573 
Q 2872 3563 2963 3538 
L 2853 2969 
z
" transform="scale(0.015625)"/>
       <path id="DejaVuSans-7c" d="M 1344 4891 
L 1344 -1509 
L 813 -1509 
L 813 4891 
L 1344 4891 
z
" transform="scale(0.015625)"/>
      </defs>
      <use xlink:href="#DejaVuSans-34" transform="translate(0 0.765625)"/>
      <use xlink:href="#DejaVuSans-Oblique-3c0" transform="translate(63.623047 0.765625)"/>
      <use xlink:href="#DejaVuSans-Oblique-72" transform="translate(123.828125 0.765625)"/>
      <use xlink:href="#DejaVuSans-32" transform="translate(169.591302 39.046875) scale(0.7)"/>
      <use xlink:href="#DejaVuSans-7c" transform="translate(216.86181 0.765625)"/>
      <use xlink:href="#DejaVuSans-Oblique-52" transform="translate(250.553216 0.765625)"/>
      <use xlink:href="#DejaVuSans-31" transform="translate(320.035638 -15.640625) scale(0.7)"/>
      <use xlink:href="#DejaVuSans-Oblique-73" transform="translate(364.571771 -15.640625) scale(0.7)"/>
      <use xlink:href="#DejaVuSans-7c" transform="translate(403.775872 0.765625)"/>
      <use xlink:href="#DejaVuSans-32" transform="translate(438.42431 39.046875) scale(0.7)"/>
     </g>
    </g>
   </g>
   <g id="line2d_77">
    <path d="M 616.909091 307.8 
L 620.325069 304.995932 
L 623.741047 297.454438 
L 627.157025 286.329502 
L 630.573003 272.593319 
L 633.988981 257.059984 
L 637.404959 240.40641 
L 640.820937 223.190785 
L 644.236915 205.868818 
L 647.652893 188.808045 
L 651.068871 172.30038 
L 654.484848 156.573137 
L 657.900826 141.798672 
L 661.316804 128.102816 
L 664.732782 115.572227 
L 668.14876 104.260793 
L 671.564738 94.195193 
L 674.980716 85.379714 
L 678.396694 77.800412 
L 681.812672 71.428698 
L 685.22865 66.224419 
L 688.644628 62.138484 
L 692.060606 59.115112 
L 695.476584 57.093726 
L 698.892562 56.010561 
L 702.30854 55.8 
L 705.724518 56.395692 
L 709.140496 57.731468 
L 712.556474 59.742093 
L 715.972452 62.363864 
L 719.38843 65.53509 
L 722.804408 69.196456 
L 726.220386 73.291302 
L 729.636364 77.765818 
L 733.052342 82.569176 
L 736.46832 87.653606 
L 739.884298 92.974424 
L 743.300275 98.490024 
L 746.716253 104.161837 
L 750.132231 109.954267 
L 753.548209 115.834603 
L 756.964187 121.772916 
L 760.380165 127.74195 
L 763.796143 133.716997 
L 767.212121 139.67577 
L 770.628099 145.598271 
L 774.044077 151.466658 
L 777.460055 157.265113 
L 780.876033 162.979709 
L 784.292011 168.598281 
L 787.707989 174.110302 
L 791.123967 179.506757 
L 794.539945 184.780031 
L 797.955923 189.92379 
L 801.371901 194.932881 
L 804.787879 199.803223 
L 808.203857 204.531715 
L 811.619835 209.116142 
L 815.035813 213.555093 
L 818.451791 217.847876 
L 821.867769 221.994446 
L 825.283747 225.995336 
L 828.699725 229.851588 
L 832.115702 233.564697 
L 835.53168 237.136551 
L 838.947658 240.569384 
L 842.363636 243.865725 
L 845.779614 247.028357 
L 849.195592 250.060277 
L 852.61157 252.964659 
L 856.027548 255.744821 
L 859.443526 258.404196 
L 862.859504 260.946305 
L 866.275482 263.37473 
L 869.69146 265.693098 
L 873.107438 267.905055 
L 876.523416 270.014252 
L 879.939394 272.024329 
L 883.355372 273.938902 
L 886.77135 275.761549 
L 890.187328 277.495802 
L 893.603306 279.145135 
L 897.019284 280.712962 
L 900.435262 282.202621 
L 903.85124 283.617378 
L 907.267218 284.960418 
L 910.683196 286.234839 
L 914.099174 287.443655 
L 917.515152 288.589789 
L 920.931129 289.676073 
L 924.347107 290.705248 
L 927.763085 291.679962 
L 931.179063 292.60277 
L 934.595041 293.476136 
L 938.011019 294.302433 
L 941.426997 295.083943 
L 944.842975 295.822857 
L 948.258953 296.521282 
L 951.674931 297.181237 
L 955.090909 297.804658 
" clip-path="url(#p5ce7a1968e)" style="fill: none; stroke: #000000; stroke-width: 1.5; stroke-linecap: square"/>
   </g>
   <g id="line2d_78">
    <path d="M 616.909091 307.8 
L 620.325069 305.830429 
L 623.741047 300.011175 
L 627.157025 290.603915 
L 630.573003 278.023157 
L 633.988981 262.806199 
L 637.404959 245.575484 
L 640.820937 226.997083 
L 644.236915 207.739153 
L 647.652893 188.433974 
L 651.068871 169.646424 
L 654.484848 151.850851 
L 657.900826 135.417229 
L 661.316804 120.606447 
L 664.732782 107.573752 
L 668.14876 96.378742 
L 671.564738 86.999958 
L 674.980716 79.352089 
L 678.396694 73.303942 
L 681.812672 68.695648 
L 685.22865 65.353988 
L 688.644628 63.105123 
L 692.060606 61.784417 
L 695.476584 61.243338 
L 698.892562 61.353657 
L 702.30854 62.009322 
L 705.724518 63.12645 
L 709.140496 64.641888 
L 712.556474 66.510787 
L 715.972452 68.703576 
L 719.38843 71.202659 
L 722.804408 73.999102 
L 726.220386 77.089513 
L 729.636364 80.473258 
L 733.052342 84.150105 
L 736.46832 88.118358 
L 739.884298 92.373474 
L 743.300275 96.907162 
L 746.716253 101.70692 
L 750.132231 106.755949 
L 753.548209 112.033371 
L 756.964187 117.514699 
L 760.380165 123.172463 
L 763.796143 128.976945 
L 767.212121 134.896959 
L 770.628099 140.900616 
L 774.044077 146.95606 
L 777.460055 153.032123 
L 780.876033 159.098891 
L 784.292011 165.128179 
L 787.707989 171.093892 
L 791.123967 176.972299 
L 794.539945 182.742206 
L 797.955923 188.385046 
L 801.371901 193.884901 
L 804.787879 199.22846 
L 808.203857 204.404929 
L 811.619835 209.405899 
L 815.035813 214.22519 
L 818.451791 218.85867 
L 821.867769 223.304068 
L 825.283747 227.560776 
L 828.699725 231.629653 
L 832.115702 235.512835 
L 835.53168 239.213546 
L 838.947658 242.735927 
L 842.363636 246.084871 
L 845.779614 249.265874 
L 849.195592 252.284895 
L 852.61157 255.148238 
L 856.027548 257.862436 
L 859.443526 260.434161 
L 862.859504 262.870136 
L 866.275482 265.177062 
L 869.69146 267.361562 
L 873.107438 269.430128 
L 876.523416 271.389075 
L 879.939394 273.244517 
L 883.355372 275.002333 
L 886.77135 276.668154 
L 890.187328 278.247344 
L 893.603306 279.745 
L 897.019284 281.165939 
L 900.435262 282.514706 
L 903.85124 283.79557 
L 907.267218 285.012535 
L 910.683196 286.169346 
L 914.099174 287.269497 
L 917.515152 288.316241 
L 920.931129 289.312606 
L 924.347107 290.261402 
L 927.763085 291.165237 
L 931.179063 292.026527 
L 934.595041 292.847513 
L 938.011019 293.630269 
L 941.426997 294.376718 
L 944.842975 295.088641 
L 948.258953 295.767692 
L 951.674931 296.415406 
L 955.090909 297.033213 
" clip-path="url(#p5ce7a1968e)" style="fill: none; stroke-dasharray: 9.25,4; stroke-dashoffset: 0; stroke: #0000ff; stroke-width: 2.5"/>
   </g>
   <g id="line2d_79">
    <g clip-path="url(#p5ce7a1968e)">
     <use xlink:href="#mbf46403d04" x="616.909091" y="307.8" style="fill: #ff0000; stroke: #ff0000"/>
     <use xlink:href="#mbf46403d04" x="633.988981" y="262.79283" style="fill: #ff0000; stroke: #ff0000"/>
     <use xlink:href="#mbf46403d04" x="651.068871" y="169.611996" style="fill: #ff0000; stroke: #ff0000"/>
     <use xlink:href="#mbf46403d04" x="668.14876" y="96.347105" style="fill: #ff0000; stroke: #ff0000"/>
     <use xlink:href="#mbf46403d04" x="685.22865" y="65.352639" style="fill: #ff0000; stroke: #ff0000"/>
     <use xlink:href="#mbf46403d04" x="702.30854" y="62.041791" style="fill: #ff0000; stroke: #ff0000"/>
     <use xlink:href="#mbf46403d04" x="719.38843" y="71.250026" style="fill: #ff0000; stroke: #ff0000"/>
     <use xlink:href="#mbf46403d04" x="736.46832" y="88.157302" style="fill: #ff0000; stroke: #ff0000"/>
     <use xlink:href="#mbf46403d04" x="753.548209" y="112.050988" style="fill: #ff0000; stroke: #ff0000"/>
     <use xlink:href="#mbf46403d04" x="770.628099" y="140.897532" style="fill: #ff0000; stroke: #ff0000"/>
     <use xlink:href="#mbf46403d04" x="787.707989" y="171.078538" style="fill: #ff0000; stroke: #ff0000"/>
     <use xlink:href="#mbf46403d04" x="804.787879" y="199.210104" style="fill: #ff0000; stroke: #ff0000"/>
     <use xlink:href="#mbf46403d04" x="821.867769" y="223.288974" style="fill: #ff0000; stroke: #ff0000"/>
     <use xlink:href="#mbf46403d04" x="838.947658" y="242.726705" style="fill: #ff0000; stroke: #ff0000"/>
     <use xlink:href="#mbf46403d04" x="856.027548" y="257.859002" style="fill: #ff0000; stroke: #ff0000"/>
     <use xlink:href="#mbf46403d04" x="873.107438" y="269.431008" style="fill: #ff0000; stroke: #ff0000"/>
     <use xlink:href="#mbf46403d04" x="890.187328" y="278.250691" style="fill: #ff0000; stroke: #ff0000"/>
     <use xlink:href="#mbf46403d04" x="907.267218" y="285.016731" style="fill: #ff0000; stroke: #ff0000"/>
     <use xlink:href="#mbf46403d04" x="924.347107" y="290.265308" style="fill: #ff0000; stroke: #ff0000"/>
     <use xlink:href="#mbf46403d04" x="941.426997" y="294.379706" style="fill: #ff0000; stroke: #ff0000"/>
    </g>
   </g>
   <g id="patch_9">
    <path d="M 600 320.4 
L 600 43.2 
" style="fill: none; stroke: #000000; stroke-width: 0.8; stroke-linejoin: miter; stroke-linecap: square"/>
   </g>
   <g id="patch_10">
    <path d="M 972 320.4 
L 972 43.2 
" style="fill: none; stroke: #000000; stroke-width: 0.8; stroke-linejoin: miter; stroke-linecap: square"/>
   </g>
   <g id="patch_11">
    <path d="M 600 320.4 
L 972 320.4 
" style="fill: none; stroke: #000000; stroke-width: 0.8; stroke-linejoin: miter; stroke-linecap: square"/>
   </g>
   <g id="patch_12">
    <path d="M 600 43.2 
L 972 43.2 
" style="fill: none; stroke: #000000; stroke-width: 0.8; stroke-linejoin: miter; stroke-linecap: square"/>
   </g>
   <g id="legend_2">
    <g id="patch_13">
     <path d="M 800.388 133.1154 
L 959.904 133.1154 
Q 963.36 133.1154 963.36 129.6594 
L 963.36 55.296 
Q 963.36 51.84 959.904 51.84 
L 800.388 51.84 
Q 796.932 51.84 796.932 55.296 
L 796.932 129.6594 
Q 796.932 133.1154 800.388 133.1154 
z
" style="fill: #ffffff; opacity: 0.8; stroke: #cccccc; stroke-linejoin: miter"/>
    </g>
    <g id="line2d_80">
     <path d="M 803.844 65.8341 
L 821.124 65.8341 
L 838.404 65.8341 
" style="fill: none; stroke: #000000; stroke-width: 1.5; stroke-linecap: square"/>
    </g>
    <g id="text_43">
     <!-- Slater -->
     <g transform="translate(852.228 71.8821) scale(0.1728 -0.1728)">
      <use xlink:href="#DejaVuSans-53"/>
      <use xlink:href="#DejaVuSans-6c" transform="translate(63.476562 0)"/>
      <use xlink:href="#DejaVuSans-61" transform="translate(91.259766 0)"/>
      <use xlink:href="#DejaVuSans-74" transform="translate(152.539062 0)"/>
      <use xlink:href="#DejaVuSans-65" transform="translate(191.748047 0)"/>
      <use xlink:href="#DejaVuSans-72" transform="translate(253.271484 0)"/>
     </g>
    </g>
    <g id="line2d_81">
     <path d="M 803.844 91.1979 
L 821.124 91.1979 
L 838.404 91.1979 
" style="fill: none; stroke-dasharray: 9.25,4; stroke-dashoffset: 0; stroke: #0000ff; stroke-width: 2.5"/>
    </g>
    <g id="text_44">
     <!-- Stewart -->
     <g transform="translate(852.228 97.2459) scale(0.1728 -0.1728)">
      <use xlink:href="#DejaVuSans-53"/>
      <use xlink:href="#DejaVuSans-74" transform="translate(63.476562 0)"/>
      <use xlink:href="#DejaVuSans-65" transform="translate(102.685547 0)"/>
      <use xlink:href="#DejaVuSans-77" transform="translate(164.208984 0)"/>
      <use xlink:href="#DejaVuSans-61" transform="translate(245.996094 0)"/>
      <use xlink:href="#DejaVuSans-72" transform="translate(307.275391 0)"/>
      <use xlink:href="#DejaVuSans-74" transform="translate(348.388672 0)"/>
     </g>
    </g>
    <g id="line2d_82">
     <g>
      <use xlink:href="#mbf46403d04" x="821.124" y="116.5617" style="fill: #ff0000; stroke: #ff0000"/>
     </g>
    </g>
    <g id="text_45">
     <!-- Este trabajo -->
     <g transform="translate(852.228 122.6097) scale(0.1728 -0.1728)">
      <use xlink:href="#DejaVuSans-45"/>
      <use xlink:href="#DejaVuSans-73" transform="translate(63.183594 0)"/>
      <use xlink:href="#DejaVuSans-74" transform="translate(115.283203 0)"/>
      <use xlink:href="#DejaVuSans-65" transform="translate(154.492188 0)"/>
      <use xlink:href="#DejaVuSans-20" transform="translate(216.015625 0)"/>
      <use xlink:href="#DejaVuSans-74" transform="translate(247.802734 0)"/>
      <use xlink:href="#DejaVuSans-72" transform="translate(287.011719 0)"/>
      <use xlink:href="#DejaVuSans-61" transform="translate(328.125 0)"/>
      <use xlink:href="#DejaVuSans-62" transform="translate(389.404297 0)"/>
      <use xlink:href="#DejaVuSans-61" transform="translate(452.880859 0)"/>
      <use xlink:href="#DejaVuSans-6a" transform="translate(514.160156 0)"/>
      <use xlink:href="#DejaVuSans-6f" transform="translate(541.943359 0)"/>
     </g>
    </g>
   </g>
  </g>
 </g>
 <defs>
  <clipPath id="p1ab418aacf">
   <rect x="135" y="43.2" width="372" height="277.2"/>
  </clipPath>
  <clipPath id="p5ce7a1968e">
   <rect x="600" y="43.2" width="372" height="277.2"/>
  </clipPath>
 </defs>
</svg>
