<?xml version="1.0" encoding="utf-8" standalone="no"?>
<!DOCTYPE svg PUBLIC "-//W3C//DTD SVG 1.1//EN"
  "http://www.w3.org/Graphics/SVG/1.1/DTD/svg11.dtd">
<svg xmlns:xlink="http://www.w3.org/1999/xlink" width="1080pt" height="360pt" viewBox="0 0 1080 360" xmlns="http://www.w3.org/2000/svg" version="1.1">
 <metadata>
  <rdf:RDF xmlns:dc="http://purl.org/dc/elements/1.1/" xmlns:cc="http://creativecommons.org/ns#" xmlns:rdf="http://www.w3.org/1999/02/22-rdf-syntax-ns#">
   <cc:Work>
    <dc:type rdf:resource="http://purl.org/dc/dcmitype/StillImage"/>
    <dc:date>2025-03-24T22:09:11.669500</dc:date>
    <dc:format>image/svg+xml</dc:format>
    <dc:creator>
     <cc:Agent>
      <dc:title>Matplotlib v3.10.1, https://matplotlib.org/</dc:title>
     </cc:Agent>
    </dc:creator>
   </cc:Work>
  </rdf:RDF>
 </metadata>
 <defs>
  <style type="text/css">*{stroke-linejoin: round; stroke-linecap: butt}</style>
 </defs>
 <g id="figure_1">
  <g id="patch_1">
   <path d="M 0 360 
L 1080 360 
L 1080 0 
L 0 0 
z
" style="fill: #ffffff"/>
  </g>
  <g id="axes_1">
   <g id="patch_2">
    <path d="M 135 320.4 
L 507 320.4 
L 507 43.2 
L 135 43.2 
z
" style="fill: #ffffff"/>
   </g>
   <g id="matplotlib.axis_1">
    <g id="xtick_1">
     <g id="line2d_1">
      <path d="M 151.909091 320.4 
L 151.909091 43.2 
" clip-path="url(#pfacfa23d8d)" style="fill: none; stroke: #b0b0b0; stroke-width: 0.8; stroke-linecap: square"/>
     </g>
     <g id="line2d_2">
      <defs>
       <path id="medf7ae5242" d="M 0 0 
L 0 3.5 
" style="stroke: #000000; stroke-width: 0.8"/>
      </defs>
      <g>
       <use xlink:href="#medf7ae5242" x="151.909091" y="320.4" style="stroke: #000000; stroke-width: 0.8"/>
      </g>
     </g>
     <g id="text_1">
      <!-- 0.0 -->
      <g transform="translate(138.168791 340.5301) scale(0.1728 -0.1728)">
       <defs>
        <path id="DejaVuSans-30" d="M 2034 4250 
Q 1547 4250 1301 3770 
Q 1056 3291 1056 2328 
Q 1056 1369 1301 889 
Q 1547 409 2034 409 
Q 2525 409 2770 889 
Q 3016 1369 3016 2328 
Q 3016 3291 2770 3770 
Q 2525 4250 2034 4250 
z
M 2034 4750 
Q 2819 4750 3233 4129 
Q 3647 3509 3647 2328 
Q 3647 1150 3233 529 
Q 2819 -91 2034 -91 
Q 1250 -91 836 529 
Q 422 1150 422 2328 
Q 422 3509 836 4129 
Q 1250 4750 2034 4750 
z
" transform="scale(0.015625)"/>
        <path id="DejaVuSans-2e" d="M 684 794 
L 1344 794 
L 1344 0 
L 684 0 
L 684 794 
z
" transform="scale(0.015625)"/>
       </defs>
       <use xlink:href="#DejaVuSans-30"/>
       <use xlink:href="#DejaVuSans-2e" transform="translate(63.623047 0)"/>
       <use xlink:href="#DejaVuSans-30" transform="translate(95.410156 0)"/>
      </g>
     </g>
    </g>
    <g id="xtick_2">
     <g id="line2d_3">
      <path d="M 194.181818 320.4 
L 194.181818 43.2 
" clip-path="url(#pfacfa23d8d)" style="fill: none; stroke: #b0b0b0; stroke-width: 0.8; stroke-linecap: square"/>
     </g>
     <g id="line2d_4">
      <g>
       <use xlink:href="#medf7ae5242" x="194.181818" y="320.4" style="stroke: #000000; stroke-width: 0.8"/>
      </g>
     </g>
     <g id="text_2">
      <!-- 0.5 -->
      <g transform="translate(180.441518 340.5301) scale(0.1728 -0.1728)">
       <defs>
        <path id="DejaVuSans-35" d="M 691 4666 
L 3169 4666 
L 3169 4134 
L 1269 4134 
L 1269 2991 
Q 1406 3038 1543 3061 
Q 1681 3084 1819 3084 
Q 2600 3084 3056 2656 
Q 3513 2228 3513 1497 
Q 3513 744 3044 326 
Q 2575 -91 1722 -91 
Q 1428 -91 1123 -41 
Q 819 9 494 109 
L 494 744 
Q 775 591 1075 516 
Q 1375 441 1709 441 
Q 2250 441 2565 725 
Q 2881 1009 2881 1497 
Q 2881 1984 2565 2268 
Q 2250 2553 1709 2553 
Q 1456 2553 1204 2497 
Q 953 2441 691 2322 
L 691 4666 
z
" transform="scale(0.015625)"/>
       </defs>
       <use xlink:href="#DejaVuSans-30"/>
       <use xlink:href="#DejaVuSans-2e" transform="translate(63.623047 0)"/>
       <use xlink:href="#DejaVuSans-35" transform="translate(95.410156 0)"/>
      </g>
     </g>
    </g>
    <g id="xtick_3">
     <g id="line2d_5">
      <path d="M 236.454545 320.4 
L 236.454545 43.2 
" clip-path="url(#pfacfa23d8d)" style="fill: none; stroke: #b0b0b0; stroke-width: 0.8; stroke-linecap: square"/>
     </g>
     <g id="line2d_6">
      <g>
       <use xlink:href="#medf7ae5242" x="236.454545" y="320.4" style="stroke: #000000; stroke-width: 0.8"/>
      </g>
     </g>
     <g id="text_3">
      <!-- 1.0 -->
      <g transform="translate(222.714245 340.5301) scale(0.1728 -0.1728)">
       <defs>
        <path id="DejaVuSans-31" d="M 794 531 
L 1825 531 
L 1825 4091 
L 703 3866 
L 703 4441 
L 1819 4666 
L 2450 4666 
L 2450 531 
L 3481 531 
L 3481 0 
L 794 0 
L 794 531 
z
" transform="scale(0.015625)"/>
       </defs>
       <use xlink:href="#DejaVuSans-31"/>
       <use xlink:href="#DejaVuSans-2e" transform="translate(63.623047 0)"/>
       <use xlink:href="#DejaVuSans-30" transform="translate(95.410156 0)"/>
      </g>
     </g>
    </g>
    <g id="xtick_4">
     <g id="line2d_7">
      <path d="M 278.727273 320.4 
L 278.727273 43.2 
" clip-path="url(#pfacfa23d8d)" style="fill: none; stroke: #b0b0b0; stroke-width: 0.8; stroke-linecap: square"/>
     </g>
     <g id="line2d_8">
      <g>
       <use xlink:href="#medf7ae5242" x="278.727273" y="320.4" style="stroke: #000000; stroke-width: 0.8"/>
      </g>
     </g>
     <g id="text_4">
      <!-- 1.5 -->
      <g transform="translate(264.986973 340.5301) scale(0.1728 -0.1728)">
       <use xlink:href="#DejaVuSans-31"/>
       <use xlink:href="#DejaVuSans-2e" transform="translate(63.623047 0)"/>
       <use xlink:href="#DejaVuSans-35" transform="translate(95.410156 0)"/>
      </g>
     </g>
    </g>
    <g id="xtick_5">
     <g id="line2d_9">
      <path d="M 321 320.4 
L 321 43.2 
" clip-path="url(#pfacfa23d8d)" style="fill: none; stroke: #b0b0b0; stroke-width: 0.8; stroke-linecap: square"/>
     </g>
     <g id="line2d_10">
      <g>
       <use xlink:href="#medf7ae5242" x="321" y="320.4" style="stroke: #000000; stroke-width: 0.8"/>
      </g>
     </g>
     <g id="text_5">
      <!-- 2.0 -->
      <g transform="translate(307.2597 340.5301) scale(0.1728 -0.1728)">
       <defs>
        <path id="DejaVuSans-32" d="M 1228 531 
L 3431 531 
L 3431 0 
L 469 0 
L 469 531 
Q 828 903 1448 1529 
Q 2069 2156 2228 2338 
Q 2531 2678 2651 2914 
Q 2772 3150 2772 3378 
Q 2772 3750 2511 3984 
Q 2250 4219 1831 4219 
Q 1534 4219 1204 4116 
Q 875 4013 500 3803 
L 500 4441 
Q 881 4594 1212 4672 
Q 1544 4750 1819 4750 
Q 2544 4750 2975 4387 
Q 3406 4025 3406 3419 
Q 3406 3131 3298 2873 
Q 3191 2616 2906 2266 
Q 2828 2175 2409 1742 
Q 1991 1309 1228 531 
z
" transform="scale(0.015625)"/>
       </defs>
       <use xlink:href="#DejaVuSans-32"/>
       <use xlink:href="#DejaVuSans-2e" transform="translate(63.623047 0)"/>
       <use xlink:href="#DejaVuSans-30" transform="translate(95.410156 0)"/>
      </g>
     </g>
    </g>
    <g id="xtick_6">
     <g id="line2d_11">
      <path d="M 363.272727 320.4 
L 363.272727 43.2 
" clip-path="url(#pfacfa23d8d)" style="fill: none; stroke: #b0b0b0; stroke-width: 0.8; stroke-linecap: square"/>
     </g>
     <g id="line2d_12">
      <g>
       <use xlink:href="#medf7ae5242" x="363.272727" y="320.4" style="stroke: #000000; stroke-width: 0.8"/>
      </g>
     </g>
     <g id="text_6">
      <!-- 2.5 -->
      <g transform="translate(349.532427 340.5301) scale(0.1728 -0.1728)">
       <use xlink:href="#DejaVuSans-32"/>
       <use xlink:href="#DejaVuSans-2e" transform="translate(63.623047 0)"/>
       <use xlink:href="#DejaVuSans-35" transform="translate(95.410156 0)"/>
      </g>
     </g>
    </g>
    <g id="xtick_7">
     <g id="line2d_13">
      <path d="M 405.545455 320.4 
L 405.545455 43.2 
" clip-path="url(#pfacfa23d8d)" style="fill: none; stroke: #b0b0b0; stroke-width: 0.8; stroke-linecap: square"/>
     </g>
     <g id="line2d_14">
      <g>
       <use xlink:href="#medf7ae5242" x="405.545455" y="320.4" style="stroke: #000000; stroke-width: 0.8"/>
      </g>
     </g>
     <g id="text_7">
      <!-- 3.0 -->
      <g transform="translate(391.805155 340.5301) scale(0.1728 -0.1728)">
       <defs>
        <path id="DejaVuSans-33" d="M 2597 2516 
Q 3050 2419 3304 2112 
Q 3559 1806 3559 1356 
Q 3559 666 3084 287 
Q 2609 -91 1734 -91 
Q 1441 -91 1130 -33 
Q 819 25 488 141 
L 488 750 
Q 750 597 1062 519 
Q 1375 441 1716 441 
Q 2309 441 2620 675 
Q 2931 909 2931 1356 
Q 2931 1769 2642 2001 
Q 2353 2234 1838 2234 
L 1294 2234 
L 1294 2753 
L 1863 2753 
Q 2328 2753 2575 2939 
Q 2822 3125 2822 3475 
Q 2822 3834 2567 4026 
Q 2313 4219 1838 4219 
Q 1578 4219 1281 4162 
Q 984 4106 628 3988 
L 628 4550 
Q 988 4650 1302 4700 
Q 1616 4750 1894 4750 
Q 2613 4750 3031 4423 
Q 3450 4097 3450 3541 
Q 3450 3153 3228 2886 
Q 3006 2619 2597 2516 
z
" transform="scale(0.015625)"/>
       </defs>
       <use xlink:href="#DejaVuSans-33"/>
       <use xlink:href="#DejaVuSans-2e" transform="translate(63.623047 0)"/>
       <use xlink:href="#DejaVuSans-30" transform="translate(95.410156 0)"/>
      </g>
     </g>
    </g>
    <g id="xtick_8">
     <g id="line2d_15">
      <path d="M 447.818182 320.4 
L 447.818182 43.2 
" clip-path="url(#pfacfa23d8d)" style="fill: none; stroke: #b0b0b0; stroke-width: 0.8; stroke-linecap: square"/>
     </g>
     <g id="line2d_16">
      <g>
       <use xlink:href="#medf7ae5242" x="447.818182" y="320.4" style="stroke: #000000; stroke-width: 0.8"/>
      </g>
     </g>
     <g id="text_8">
      <!-- 3.5 -->
      <g transform="translate(434.077882 340.5301) scale(0.1728 -0.1728)">
       <use xlink:href="#DejaVuSans-33"/>
       <use xlink:href="#DejaVuSans-2e" transform="translate(63.623047 0)"/>
       <use xlink:href="#DejaVuSans-35" transform="translate(95.410156 0)"/>
      </g>
     </g>
    </g>
    <g id="xtick_9">
     <g id="line2d_17">
      <path d="M 490.090909 320.4 
L 490.090909 43.2 
" clip-path="url(#pfacfa23d8d)" style="fill: none; stroke: #b0b0b0; stroke-width: 0.8; stroke-linecap: square"/>
     </g>
     <g id="line2d_18">
      <g>
       <use xlink:href="#medf7ae5242" x="490.090909" y="320.4" style="stroke: #000000; stroke-width: 0.8"/>
      </g>
     </g>
     <g id="text_9">
      <!-- 4.0 -->
      <g transform="translate(476.350609 340.5301) scale(0.1728 -0.1728)">
       <defs>
        <path id="DejaVuSans-34" d="M 2419 4116 
L 825 1625 
L 2419 1625 
L 2419 4116 
z
M 2253 4666 
L 3047 4666 
L 3047 1625 
L 3713 1625 
L 3713 1100 
L 3047 1100 
L 3047 0 
L 2419 0 
L 2419 1100 
L 313 1100 
L 313 1709 
L 2253 4666 
z
" transform="scale(0.015625)"/>
       </defs>
       <use xlink:href="#DejaVuSans-34"/>
       <use xlink:href="#DejaVuSans-2e" transform="translate(63.623047 0)"/>
       <use xlink:href="#DejaVuSans-30" transform="translate(95.410156 0)"/>
      </g>
     </g>
    </g>
    <g id="text_10">
     <!-- Radio (u.a.) -->
     <g transform="translate(270.9744 367.2539) scale(0.1728 -0.1728)">
      <defs>
       <path id="DejaVuSans-52" d="M 2841 2188 
Q 3044 2119 3236 1894 
Q 3428 1669 3622 1275 
L 4263 0 
L 3584 0 
L 2988 1197 
Q 2756 1666 2539 1819 
Q 2322 1972 1947 1972 
L 1259 1972 
L 1259 0 
L 628 0 
L 628 4666 
L 2053 4666 
Q 2853 4666 3247 4331 
Q 3641 3997 3641 3322 
Q 3641 2881 3436 2590 
Q 3231 2300 2841 2188 
z
M 1259 4147 
L 1259 2491 
L 2053 2491 
Q 2509 2491 2742 2702 
Q 2975 2913 2975 3322 
Q 2975 3731 2742 3939 
Q 2509 4147 2053 4147 
L 1259 4147 
z
" transform="scale(0.015625)"/>
       <path id="DejaVuSans-61" d="M 2194 1759 
Q 1497 1759 1228 1600 
Q 959 1441 959 1056 
Q 959 750 1161 570 
Q 1363 391 1709 391 
Q 2188 391 2477 730 
Q 2766 1069 2766 1631 
L 2766 1759 
L 2194 1759 
z
M 3341 1997 
L 3341 0 
L 2766 0 
L 2766 531 
Q 2569 213 2275 61 
Q 1981 -91 1556 -91 
Q 1019 -91 701 211 
Q 384 513 384 1019 
Q 384 1609 779 1909 
Q 1175 2209 1959 2209 
L 2766 2209 
L 2766 2266 
Q 2766 2663 2505 2880 
Q 2244 3097 1772 3097 
Q 1472 3097 1187 3025 
Q 903 2953 641 2809 
L 641 3341 
Q 956 3463 1253 3523 
Q 1550 3584 1831 3584 
Q 2591 3584 2966 3190 
Q 3341 2797 3341 1997 
z
" transform="scale(0.015625)"/>
       <path id="DejaVuSans-64" d="M 2906 2969 
L 2906 4863 
L 3481 4863 
L 3481 0 
L 2906 0 
L 2906 525 
Q 2725 213 2448 61 
Q 2172 -91 1784 -91 
Q 1150 -91 751 415 
Q 353 922 353 1747 
Q 353 2572 751 3078 
Q 1150 3584 1784 3584 
Q 2172 3584 2448 3432 
Q 2725 3281 2906 2969 
z
M 947 1747 
Q 947 1113 1208 752 
Q 1469 391 1925 391 
Q 2381 391 2643 752 
Q 2906 1113 2906 1747 
Q 2906 2381 2643 2742 
Q 2381 3103 1925 3103 
Q 1469 3103 1208 2742 
Q 947 2381 947 1747 
z
" transform="scale(0.015625)"/>
       <path id="DejaVuSans-69" d="M 603 3500 
L 1178 3500 
L 1178 0 
L 603 0 
L 603 3500 
z
M 603 4863 
L 1178 4863 
L 1178 4134 
L 603 4134 
L 603 4863 
z
" transform="scale(0.015625)"/>
       <path id="DejaVuSans-6f" d="M 1959 3097 
Q 1497 3097 1228 2736 
Q 959 2375 959 1747 
Q 959 1119 1226 758 
Q 1494 397 1959 397 
Q 2419 397 2687 759 
Q 2956 1122 2956 1747 
Q 2956 2369 2687 2733 
Q 2419 3097 1959 3097 
z
M 1959 3584 
Q 2709 3584 3137 3096 
Q 3566 2609 3566 1747 
Q 3566 888 3137 398 
Q 2709 -91 1959 -91 
Q 1206 -91 779 398 
Q 353 888 353 1747 
Q 353 2609 779 3096 
Q 1206 3584 1959 3584 
z
" transform="scale(0.015625)"/>
       <path id="DejaVuSans-20" transform="scale(0.015625)"/>
       <path id="DejaVuSans-28" d="M 1984 4856 
Q 1566 4138 1362 3434 
Q 1159 2731 1159 2009 
Q 1159 1288 1364 580 
Q 1569 -128 1984 -844 
L 1484 -844 
Q 1016 -109 783 600 
Q 550 1309 550 2009 
Q 550 2706 781 3412 
Q 1013 4119 1484 4856 
L 1984 4856 
z
" transform="scale(0.015625)"/>
       <path id="DejaVuSans-75" d="M 544 1381 
L 544 3500 
L 1119 3500 
L 1119 1403 
Q 1119 906 1312 657 
Q 1506 409 1894 409 
Q 2359 409 2629 706 
Q 2900 1003 2900 1516 
L 2900 3500 
L 3475 3500 
L 3475 0 
L 2900 0 
L 2900 538 
Q 2691 219 2414 64 
Q 2138 -91 1772 -91 
Q 1169 -91 856 284 
Q 544 659 544 1381 
z
M 1991 3584 
L 1991 3584 
z
" transform="scale(0.015625)"/>
       <path id="DejaVuSans-29" d="M 513 4856 
L 1013 4856 
Q 1481 4119 1714 3412 
Q 1947 2706 1947 2009 
Q 1947 1309 1714 600 
Q 1481 -109 1013 -844 
L 513 -844 
Q 928 -128 1133 580 
Q 1338 1288 1338 2009 
Q 1338 2731 1133 3434 
Q 928 4138 513 4856 
z
" transform="scale(0.015625)"/>
      </defs>
      <use xlink:href="#DejaVuSans-52"/>
      <use xlink:href="#DejaVuSans-61" transform="translate(67.232422 0)"/>
      <use xlink:href="#DejaVuSans-64" transform="translate(128.511719 0)"/>
      <use xlink:href="#DejaVuSans-69" transform="translate(191.988281 0)"/>
      <use xlink:href="#DejaVuSans-6f" transform="translate(219.771484 0)"/>
      <use xlink:href="#DejaVuSans-20" transform="translate(280.953125 0)"/>
      <use xlink:href="#DejaVuSans-28" transform="translate(312.740234 0)"/>
      <use xlink:href="#DejaVuSans-75" transform="translate(351.753906 0)"/>
      <use xlink:href="#DejaVuSans-2e" transform="translate(415.132812 0)"/>
      <use xlink:href="#DejaVuSans-61" transform="translate(446.919922 0)"/>
      <use xlink:href="#DejaVuSans-2e" transform="translate(508.199219 0)"/>
      <use xlink:href="#DejaVuSans-29" transform="translate(539.986328 0)"/>
     </g>
    </g>
   </g>
   <g id="matplotlib.axis_2">
    <g id="ytick_1">
     <g id="line2d_19">
      <path d="M 135 309.579739 
L 507 309.579739 
" clip-path="url(#pfacfa23d8d)" style="fill: none; stroke: #b0b0b0; stroke-width: 0.8; stroke-linecap: square"/>
     </g>
     <g id="line2d_20">
      <defs>
       <path id="m2c5cb67085" d="M 0 0 
L -3.5 0 
" style="stroke: #000000; stroke-width: 0.8"/>
      </defs>
      <g>
       <use xlink:href="#m2c5cb67085" x="135" y="309.579739" style="stroke: #000000; stroke-width: 0.8"/>
      </g>
     </g>
     <g id="text_11">
      <!-- 0.0 -->
      <g transform="translate(100.5194 316.144789) scale(0.1728 -0.1728)">
       <use xlink:href="#DejaVuSans-30"/>
       <use xlink:href="#DejaVuSans-2e" transform="translate(63.623047 0)"/>
       <use xlink:href="#DejaVuSans-30" transform="translate(95.410156 0)"/>
      </g>
     </g>
    </g>
    <g id="ytick_2">
     <g id="line2d_21">
      <path d="M 135 263.63197 
L 507 263.63197 
" clip-path="url(#pfacfa23d8d)" style="fill: none; stroke: #b0b0b0; stroke-width: 0.8; stroke-linecap: square"/>
     </g>
     <g id="line2d_22">
      <g>
       <use xlink:href="#m2c5cb67085" x="135" y="263.63197" style="stroke: #000000; stroke-width: 0.8"/>
      </g>
     </g>
     <g id="text_12">
      <!-- 0.5 -->
      <g transform="translate(100.5194 270.19702) scale(0.1728 -0.1728)">
       <use xlink:href="#DejaVuSans-30"/>
       <use xlink:href="#DejaVuSans-2e" transform="translate(63.623047 0)"/>
       <use xlink:href="#DejaVuSans-35" transform="translate(95.410156 0)"/>
      </g>
     </g>
    </g>
    <g id="ytick_3">
     <g id="line2d_23">
      <path d="M 135 217.684201 
L 507 217.684201 
" clip-path="url(#pfacfa23d8d)" style="fill: none; stroke: #b0b0b0; stroke-width: 0.8; stroke-linecap: square"/>
     </g>
     <g id="line2d_24">
      <g>
       <use xlink:href="#m2c5cb67085" x="135" y="217.684201" style="stroke: #000000; stroke-width: 0.8"/>
      </g>
     </g>
     <g id="text_13">
      <!-- 1.0 -->
      <g transform="translate(100.5194 224.249251) scale(0.1728 -0.1728)">
       <use xlink:href="#DejaVuSans-31"/>
       <use xlink:href="#DejaVuSans-2e" transform="translate(63.623047 0)"/>
       <use xlink:href="#DejaVuSans-30" transform="translate(95.410156 0)"/>
      </g>
     </g>
    </g>
    <g id="ytick_4">
     <g id="line2d_25">
      <path d="M 135 171.736433 
L 507 171.736433 
" clip-path="url(#pfacfa23d8d)" style="fill: none; stroke: #b0b0b0; stroke-width: 0.8; stroke-linecap: square"/>
     </g>
     <g id="line2d_26">
      <g>
       <use xlink:href="#m2c5cb67085" x="135" y="171.736433" style="stroke: #000000; stroke-width: 0.8"/>
      </g>
     </g>
     <g id="text_14">
      <!-- 1.5 -->
      <g transform="translate(100.5194 178.301483) scale(0.1728 -0.1728)">
       <use xlink:href="#DejaVuSans-31"/>
       <use xlink:href="#DejaVuSans-2e" transform="translate(63.623047 0)"/>
       <use xlink:href="#DejaVuSans-35" transform="translate(95.410156 0)"/>
      </g>
     </g>
    </g>
    <g id="ytick_5">
     <g id="line2d_27">
      <path d="M 135 125.788664 
L 507 125.788664 
" clip-path="url(#pfacfa23d8d)" style="fill: none; stroke: #b0b0b0; stroke-width: 0.8; stroke-linecap: square"/>
     </g>
     <g id="line2d_28">
      <g>
       <use xlink:href="#m2c5cb67085" x="135" y="125.788664" style="stroke: #000000; stroke-width: 0.8"/>
      </g>
     </g>
     <g id="text_15">
      <!-- 2.0 -->
      <g transform="translate(100.5194 132.353714) scale(0.1728 -0.1728)">
       <use xlink:href="#DejaVuSans-32"/>
       <use xlink:href="#DejaVuSans-2e" transform="translate(63.623047 0)"/>
       <use xlink:href="#DejaVuSans-30" transform="translate(95.410156 0)"/>
      </g>
     </g>
    </g>
    <g id="ytick_6">
     <g id="line2d_29">
      <path d="M 135 79.840895 
L 507 79.840895 
" clip-path="url(#pfacfa23d8d)" style="fill: none; stroke: #b0b0b0; stroke-width: 0.8; stroke-linecap: square"/>
     </g>
     <g id="line2d_30">
      <g>
       <use xlink:href="#m2c5cb67085" x="135" y="79.840895" style="stroke: #000000; stroke-width: 0.8"/>
      </g>
     </g>
     <g id="text_16">
      <!-- 2.5 -->
      <g transform="translate(100.5194 86.405945) scale(0.1728 -0.1728)">
       <use xlink:href="#DejaVuSans-32"/>
       <use xlink:href="#DejaVuSans-2e" transform="translate(63.623047 0)"/>
       <use xlink:href="#DejaVuSans-35" transform="translate(95.410156 0)"/>
      </g>
     </g>
    </g>
    <g id="text_17">
     <!-- $R_{1s}$ -->
     <g transform="translate(86.9257 195.1056) rotate(-90) scale(0.1728 -0.1728)">
      <defs>
       <path id="DejaVuSans-Oblique-52" d="M 1613 4147 
L 1294 2491 
L 2106 2491 
Q 2584 2491 2879 2755 
Q 3175 3019 3175 3444 
Q 3175 3784 2976 3965 
Q 2778 4147 2406 4147 
L 1613 4147 
z
M 2772 2241 
Q 2972 2194 3105 2009 
Q 3238 1825 3413 1275 
L 3809 0 
L 3144 0 
L 2778 1197 
Q 2638 1659 2453 1815 
Q 2269 1972 1888 1972 
L 1191 1972 
L 806 0 
L 172 0 
L 1081 4666 
L 2503 4666 
Q 3150 4666 3495 4373 
Q 3841 4081 3841 3531 
Q 3841 3044 3547 2687 
Q 3253 2331 2772 2241 
z
" transform="scale(0.015625)"/>
       <path id="DejaVuSans-Oblique-73" d="M 3200 3397 
L 3091 2853 
Q 2863 2978 2609 3040 
Q 2356 3103 2088 3103 
Q 1634 3103 1373 2948 
Q 1113 2794 1113 2528 
Q 1113 2219 1719 2053 
Q 1766 2041 1788 2034 
L 1972 1978 
Q 2547 1819 2739 1644 
Q 2931 1469 2931 1166 
Q 2931 609 2489 259 
Q 2047 -91 1331 -91 
Q 1053 -91 747 -37 
Q 441 16 72 128 
L 184 722 
Q 500 559 806 475 
Q 1113 391 1394 391 
Q 1816 391 2080 572 
Q 2344 753 2344 1031 
Q 2344 1331 1650 1516 
L 1591 1531 
L 1394 1581 
Q 956 1697 753 1886 
Q 550 2075 550 2369 
Q 550 2928 970 3256 
Q 1391 3584 2113 3584 
Q 2397 3584 2667 3537 
Q 2938 3491 3200 3397 
z
" transform="scale(0.015625)"/>
      </defs>
      <use xlink:href="#DejaVuSans-Oblique-52" transform="translate(0 0.09375)"/>
      <use xlink:href="#DejaVuSans-31" transform="translate(69.482422 -16.3125) scale(0.7)"/>
      <use xlink:href="#DejaVuSans-Oblique-73" transform="translate(114.018555 -16.3125) scale(0.7)"/>
     </g>
    </g>
   </g>
   <g id="line2d_31">
    <path d="M 151.909091 55.8 
L 155.325069 68.201367 
L 158.741047 79.99672 
L 162.157025 91.215674 
L 165.573003 101.886396 
L 168.988981 112.035674 
L 172.404959 121.688992 
L 175.820937 130.870584 
L 179.236915 139.603503 
L 182.652893 147.909673 
L 186.068871 155.809948 
L 189.484848 163.324163 
L 192.900826 170.471184 
L 196.316804 177.268954 
L 199.732782 183.734539 
L 203.14876 189.884173 
L 206.564738 195.733295 
L 209.980716 201.29659 
L 213.396694 206.588025 
L 216.812672 211.620885 
L 220.22865 216.407807 
L 223.644628 220.960807 
L 227.060606 225.291318 
L 230.476584 229.410211 
L 233.892562 233.327828 
L 237.30854 237.054004 
L 240.724518 240.598094 
L 244.140496 243.968996 
L 247.556474 247.175173 
L 250.972452 250.224676 
L 254.38843 253.125159 
L 257.804408 255.883906 
L 261.220386 258.507841 
L 264.636364 261.003554 
L 268.052342 263.37731 
L 271.46832 265.635068 
L 274.884298 267.782497 
L 278.300275 269.824988 
L 281.716253 271.76767 
L 285.132231 273.615419 
L 288.548209 275.372875 
L 291.964187 277.04445 
L 295.380165 278.634341 
L 298.796143 280.146539 
L 302.212121 281.584841 
L 305.628099 282.952858 
L 309.044077 284.254025 
L 312.460055 285.491608 
L 315.876033 286.668714 
L 319.292011 287.788299 
L 322.707989 288.853174 
L 326.123967 289.866012 
L 329.539945 290.829356 
L 332.955923 291.745624 
L 336.371901 292.617118 
L 339.787879 293.446024 
L 343.203857 294.234425 
L 346.619835 294.984299 
L 350.035813 295.697529 
L 353.451791 296.375907 
L 356.867769 297.021134 
L 360.283747 297.634831 
L 363.699725 298.218538 
L 367.115702 298.773722 
L 370.53168 299.301776 
L 373.947658 299.804026 
L 377.363636 300.281732 
L 380.779614 300.736095 
L 384.195592 301.168254 
L 387.61157 301.579295 
L 391.027548 301.97025 
L 394.443526 302.3421 
L 397.859504 302.69578 
L 401.275482 303.032176 
L 404.69146 303.352133 
L 408.107438 303.656455 
L 411.523416 303.945906 
L 414.939394 304.221213 
L 418.355372 304.483066 
L 421.77135 304.732124 
L 425.187328 304.96901 
L 428.603306 305.194321 
L 432.019284 305.408622 
L 435.435262 305.61245 
L 438.85124 305.806319 
L 442.267218 305.990713 
L 445.683196 306.166097 
L 449.099174 306.33291 
L 452.515152 306.491572 
L 455.931129 306.64248 
L 459.347107 306.786014 
L 462.763085 306.922534 
L 466.179063 307.052383 
L 469.595041 307.175886 
L 473.011019 307.293354 
L 476.426997 307.405082 
L 479.842975 307.511351 
L 483.258953 307.612426 
L 486.674931 307.708562 
L 490.090909 307.8 
" clip-path="url(#pfacfa23d8d)" style="fill: none; stroke: #000000; stroke-width: 1.5; stroke-linecap: square"/>
   </g>
   <g id="line2d_32">
    <path d="M 151.909091 104.921281 
L 155.325069 105.520641 
L 158.741047 107.301399 
L 162.157025 110.212521 
L 165.573003 114.171994 
L 168.988981 119.071139 
L 172.404959 124.780191 
L 175.820937 131.154734 
L 179.236915 138.042538 
L 182.652893 145.290325 
L 186.068871 152.750068 
L 189.484848 160.284431 
L 192.900826 167.77111 
L 196.316804 175.105913 
L 199.732782 182.20452 
L 203.14876 189.002993 
L 206.564738 195.457158 
L 209.980716 201.541063 
L 213.396694 207.244752 
L 216.812672 212.571604 
L 220.22865 217.535464 
L 223.644628 222.157796 
L 227.060606 226.465013 
L 230.476584 230.486123 
L 233.892562 234.250758 
L 237.30854 237.787634 
L 240.724518 241.123427 
L 244.140496 244.282043 
L 247.556474 247.284235 
L 250.972452 250.147486 
L 254.38843 252.886121 
L 257.804408 255.511561 
L 261.220386 258.032669 
L 264.636364 260.456155 
L 268.052342 262.786976 
L 271.46832 265.028724 
L 274.884298 267.183985 
L 278.300275 269.254638 
L 281.716253 271.242111 
L 285.132231 273.14759 
L 288.548209 274.972168 
L 291.964187 276.716969 
L 295.380165 278.383223 
L 298.796143 279.972318 
L 302.212121 281.485827 
L 305.628099 282.925516 
L 309.044077 284.293344 
L 312.460055 285.591444 
L 315.876033 286.822107 
L 319.292011 287.987757 
L 322.707989 289.090923 
L 326.123967 290.134218 
L 329.539945 291.120305 
L 332.955923 292.05188 
L 336.371901 292.931642 
L 339.787879 293.762277 
L 343.203857 294.546436 
L 346.619835 295.286716 
L 350.035813 295.985652 
L 353.451791 296.645698 
L 356.867769 297.26922 
L 360.283747 297.858488 
L 363.699725 298.415669 
L 367.115702 298.942823 
L 370.53168 299.441899 
L 373.947658 299.914737 
L 377.363636 300.363063 
L 380.779614 300.788494 
L 384.195592 301.192542 
L 387.61157 301.576609 
L 391.027548 301.941999 
L 394.443526 302.289918 
L 397.859504 302.62148 
L 401.275482 302.937709 
L 404.69146 303.239551 
L 408.107438 303.52787 
L 411.523416 303.803461 
L 414.939394 304.067052 
L 418.355372 304.319309 
L 421.77135 304.560841 
L 425.187328 304.792208 
L 428.603306 305.01392 
L 432.019284 305.226446 
L 435.435262 305.430216 
L 438.85124 305.625625 
L 442.267218 305.813039 
L 445.683196 305.992795 
L 449.099174 306.165204 
L 452.515152 306.330558 
L 455.931129 306.489127 
L 459.347107 306.641165 
L 462.763085 306.786912 
L 466.179063 306.926592 
L 469.595041 307.06042 
L 473.011019 307.188599 
L 476.426997 307.311325 
L 479.842975 307.428783 
L 483.258953 307.541152 
L 486.674931 307.648607 
L 490.090909 307.751314 
" clip-path="url(#pfacfa23d8d)" style="fill: none; stroke-dasharray: 9.25,4; stroke-dashoffset: 0; stroke: #800080; stroke-width: 2.5"/>
   </g>
   <g id="line2d_33">
    <defs>
     <path id="m4a418c5649" d="M 0 3.5 
C 0.928211 3.5 1.81853 3.131218 2.474874 2.474874 
C 3.131218 1.81853 3.5 0.928211 3.5 0 
C 3.5 -0.928211 3.131218 -1.81853 2.474874 -2.474874 
C 1.81853 -3.131218 0.928211 -3.5 0 -3.5 
C -0.928211 -3.5 -1.81853 -3.131218 -2.474874 -2.474874 
C -3.131218 -1.81853 -3.5 -0.928211 -3.5 0 
C -3.5 0.928211 -3.131218 1.81853 -2.474874 2.474874 
C -1.81853 3.131218 -0.928211 3.5 0 3.5 
z
" style="stroke: #008b8b"/>
    </defs>
    <g clip-path="url(#pfacfa23d8d)">
     <use xlink:href="#m4a418c5649" x="151.909091" y="104.889493" style="fill: #008b8b; stroke: #008b8b"/>
     <use xlink:href="#m4a418c5649" x="168.988981" y="119.043496" style="fill: #008b8b; stroke: #008b8b"/>
     <use xlink:href="#m4a418c5649" x="186.068871" y="152.733671" style="fill: #008b8b; stroke: #008b8b"/>
     <use xlink:href="#m4a418c5649" x="203.14876" y="189.000044" style="fill: #008b8b; stroke: #008b8b"/>
     <use xlink:href="#m4a418c5649" x="220.22865" y="217.541306" style="fill: #008b8b; stroke: #008b8b"/>
     <use xlink:href="#m4a418c5649" x="237.30854" y="237.79489" style="fill: #008b8b; stroke: #008b8b"/>
     <use xlink:href="#m4a418c5649" x="254.38843" y="252.890205" style="fill: #008b8b; stroke: #008b8b"/>
     <use xlink:href="#m4a418c5649" x="271.46832" y="265.029085" style="fill: #008b8b; stroke: #008b8b"/>
     <use xlink:href="#m4a418c5649" x="288.548209" y="274.970341" style="fill: #008b8b; stroke: #008b8b"/>
     <use xlink:href="#m4a418c5649" x="305.628099" y="282.923208" style="fill: #008b8b; stroke: #008b8b"/>
     <use xlink:href="#m4a418c5649" x="322.707989" y="289.0892" style="fill: #008b8b; stroke: #008b8b"/>
     <use xlink:href="#m4a418c5649" x="339.787879" y="293.761509" style="fill: #008b8b; stroke: #008b8b"/>
     <use xlink:href="#m4a418c5649" x="356.867769" y="297.269299" style="fill: #008b8b; stroke: #008b8b"/>
     <use xlink:href="#m4a418c5649" x="373.947658" y="299.915338" style="fill: #008b8b; stroke: #008b8b"/>
     <use xlink:href="#m4a418c5649" x="391.027548" y="301.942777" style="fill: #008b8b; stroke: #008b8b"/>
     <use xlink:href="#m4a418c5649" x="408.107438" y="303.528563" style="fill: #008b8b; stroke: #008b8b"/>
     <use xlink:href="#m4a418c5649" x="425.187328" y="304.792673" style="fill: #008b8b; stroke: #008b8b"/>
     <use xlink:href="#m4a418c5649" x="442.267218" y="305.813231" style="fill: #008b8b; stroke: #008b8b"/>
     <use xlink:href="#m4a418c5649" x="459.347107" y="306.641109" style="fill: #008b8b; stroke: #008b8b"/>
     <use xlink:href="#m4a418c5649" x="476.426997" y="307.31108" style="fill: #008b8b; stroke: #008b8b"/>
    </g>
   </g>
   <g id="patch_3">
    <path d="M 135 320.4 
L 135 43.2 
" style="fill: none; stroke: #000000; stroke-width: 0.8; stroke-linejoin: miter; stroke-linecap: square"/>
   </g>
   <g id="patch_4">
    <path d="M 507 320.4 
L 507 43.2 
" style="fill: none; stroke: #000000; stroke-width: 0.8; stroke-linejoin: miter; stroke-linecap: square"/>
   </g>
   <g id="patch_5">
    <path d="M 135 320.4 
L 507 320.4 
" style="fill: none; stroke: #000000; stroke-width: 0.8; stroke-linejoin: miter; stroke-linecap: square"/>
   </g>
   <g id="patch_6">
    <path d="M 135 43.2 
L 507 43.2 
" style="fill: none; stroke: #000000; stroke-width: 0.8; stroke-linejoin: miter; stroke-linecap: square"/>
   </g>
   <g id="legend_1">
    <g id="patch_7">
     <path d="M 299.1729 133.1154 
L 494.904 133.1154 
Q 498.36 133.1154 498.36 129.6594 
L 498.36 55.296 
Q 498.36 51.84 494.904 51.84 
L 299.1729 51.84 
Q 295.7169 51.84 295.7169 55.296 
L 295.7169 129.6594 
Q 295.7169 133.1154 299.1729 133.1154 
z
" style="fill: #ffffff; opacity: 0.8; stroke: #cccccc; stroke-linejoin: miter"/>
    </g>
    <g id="line2d_34">
     <path d="M 302.6289 65.8341 
L 319.9089 65.8341 
L 337.1889 65.8341 
" style="fill: none; stroke: #000000; stroke-width: 1.5; stroke-linecap: square"/>
    </g>
    <g id="text_18">
     <!-- Slater -->
     <g transform="translate(351.0129 71.8821) scale(0.1728 -0.1728)">
      <defs>
       <path id="DejaVuSans-53" d="M 3425 4513 
L 3425 3897 
Q 3066 4069 2747 4153 
Q 2428 4238 2131 4238 
Q 1616 4238 1336 4038 
Q 1056 3838 1056 3469 
Q 1056 3159 1242 3001 
Q 1428 2844 1947 2747 
L 2328 2669 
Q 3034 2534 3370 2195 
Q 3706 1856 3706 1288 
Q 3706 609 3251 259 
Q 2797 -91 1919 -91 
Q 1588 -91 1214 -16 
Q 841 59 441 206 
L 441 856 
Q 825 641 1194 531 
Q 1563 422 1919 422 
Q 2459 422 2753 634 
Q 3047 847 3047 1241 
Q 3047 1584 2836 1778 
Q 2625 1972 2144 2069 
L 1759 2144 
Q 1053 2284 737 2584 
Q 422 2884 422 3419 
Q 422 4038 858 4394 
Q 1294 4750 2059 4750 
Q 2388 4750 2728 4690 
Q 3069 4631 3425 4513 
z
" transform="scale(0.015625)"/>
       <path id="DejaVuSans-6c" d="M 603 4863 
L 1178 4863 
L 1178 0 
L 603 0 
L 603 4863 
z
" transform="scale(0.015625)"/>
       <path id="DejaVuSans-74" d="M 1172 4494 
L 1172 3500 
L 2356 3500 
L 2356 3053 
L 1172 3053 
L 1172 1153 
Q 1172 725 1289 603 
Q 1406 481 1766 481 
L 2356 481 
L 2356 0 
L 1766 0 
Q 1100 0 847 248 
Q 594 497 594 1153 
L 594 3053 
L 172 3053 
L 172 3500 
L 594 3500 
L 594 4494 
L 1172 4494 
z
" transform="scale(0.015625)"/>
       <path id="DejaVuSans-65" d="M 3597 1894 
L 3597 1613 
L 953 1613 
Q 991 1019 1311 708 
Q 1631 397 2203 397 
Q 2534 397 2845 478 
Q 3156 559 3463 722 
L 3463 178 
Q 3153 47 2828 -22 
Q 2503 -91 2169 -91 
Q 1331 -91 842 396 
Q 353 884 353 1716 
Q 353 2575 817 3079 
Q 1281 3584 2069 3584 
Q 2775 3584 3186 3129 
Q 3597 2675 3597 1894 
z
M 3022 2063 
Q 3016 2534 2758 2815 
Q 2500 3097 2075 3097 
Q 1594 3097 1305 2825 
Q 1016 2553 972 2059 
L 3022 2063 
z
" transform="scale(0.015625)"/>
       <path id="DejaVuSans-72" d="M 2631 2963 
Q 2534 3019 2420 3045 
Q 2306 3072 2169 3072 
Q 1681 3072 1420 2755 
Q 1159 2438 1159 1844 
L 1159 0 
L 581 0 
L 581 3500 
L 1159 3500 
L 1159 2956 
Q 1341 3275 1631 3429 
Q 1922 3584 2338 3584 
Q 2397 3584 2469 3576 
Q 2541 3569 2628 3553 
L 2631 2963 
z
" transform="scale(0.015625)"/>
      </defs>
      <use xlink:href="#DejaVuSans-53"/>
      <use xlink:href="#DejaVuSans-6c" transform="translate(63.476562 0)"/>
      <use xlink:href="#DejaVuSans-61" transform="translate(91.259766 0)"/>
      <use xlink:href="#DejaVuSans-74" transform="translate(152.539062 0)"/>
      <use xlink:href="#DejaVuSans-65" transform="translate(191.748047 0)"/>
      <use xlink:href="#DejaVuSans-72" transform="translate(253.271484 0)"/>
     </g>
    </g>
    <g id="line2d_35">
     <path d="M 302.6289 91.1979 
L 319.9089 91.1979 
L 337.1889 91.1979 
" style="fill: none; stroke-dasharray: 9.25,4; stroke-dashoffset: 0; stroke: #800080; stroke-width: 2.5"/>
    </g>
    <g id="text_19">
     <!-- Szabo y Ostlund -->
     <g transform="translate(351.0129 97.2459) scale(0.1728 -0.1728)">
      <defs>
       <path id="DejaVuSans-7a" d="M 353 3500 
L 3084 3500 
L 3084 2975 
L 922 459 
L 3084 459 
L 3084 0 
L 275 0 
L 275 525 
L 2438 3041 
L 353 3041 
L 353 3500 
z
" transform="scale(0.015625)"/>
       <path id="DejaVuSans-62" d="M 3116 1747 
Q 3116 2381 2855 2742 
Q 2594 3103 2138 3103 
Q 1681 3103 1420 2742 
Q 1159 2381 1159 1747 
Q 1159 1113 1420 752 
Q 1681 391 2138 391 
Q 2594 391 2855 752 
Q 3116 1113 3116 1747 
z
M 1159 2969 
Q 1341 3281 1617 3432 
Q 1894 3584 2278 3584 
Q 2916 3584 3314 3078 
Q 3713 2572 3713 1747 
Q 3713 922 3314 415 
Q 2916 -91 2278 -91 
Q 1894 -91 1617 61 
Q 1341 213 1159 525 
L 1159 0 
L 581 0 
L 581 4863 
L 1159 4863 
L 1159 2969 
z
" transform="scale(0.015625)"/>
       <path id="DejaVuSans-79" d="M 2059 -325 
Q 1816 -950 1584 -1140 
Q 1353 -1331 966 -1331 
L 506 -1331 
L 506 -850 
L 844 -850 
Q 1081 -850 1212 -737 
Q 1344 -625 1503 -206 
L 1606 56 
L 191 3500 
L 800 3500 
L 1894 763 
L 2988 3500 
L 3597 3500 
L 2059 -325 
z
" transform="scale(0.015625)"/>
       <path id="DejaVuSans-4f" d="M 2522 4238 
Q 1834 4238 1429 3725 
Q 1025 3213 1025 2328 
Q 1025 1447 1429 934 
Q 1834 422 2522 422 
Q 3209 422 3611 934 
Q 4013 1447 4013 2328 
Q 4013 3213 3611 3725 
Q 3209 4238 2522 4238 
z
M 2522 4750 
Q 3503 4750 4090 4092 
Q 4678 3434 4678 2328 
Q 4678 1225 4090 567 
Q 3503 -91 2522 -91 
Q 1538 -91 948 565 
Q 359 1222 359 2328 
Q 359 3434 948 4092 
Q 1538 4750 2522 4750 
z
" transform="scale(0.015625)"/>
       <path id="DejaVuSans-73" d="M 2834 3397 
L 2834 2853 
Q 2591 2978 2328 3040 
Q 2066 3103 1784 3103 
Q 1356 3103 1142 2972 
Q 928 2841 928 2578 
Q 928 2378 1081 2264 
Q 1234 2150 1697 2047 
L 1894 2003 
Q 2506 1872 2764 1633 
Q 3022 1394 3022 966 
Q 3022 478 2636 193 
Q 2250 -91 1575 -91 
Q 1294 -91 989 -36 
Q 684 19 347 128 
L 347 722 
Q 666 556 975 473 
Q 1284 391 1588 391 
Q 1994 391 2212 530 
Q 2431 669 2431 922 
Q 2431 1156 2273 1281 
Q 2116 1406 1581 1522 
L 1381 1569 
Q 847 1681 609 1914 
Q 372 2147 372 2553 
Q 372 3047 722 3315 
Q 1072 3584 1716 3584 
Q 2034 3584 2315 3537 
Q 2597 3491 2834 3397 
z
" transform="scale(0.015625)"/>
       <path id="DejaVuSans-6e" d="M 3513 2113 
L 3513 0 
L 2938 0 
L 2938 2094 
Q 2938 2591 2744 2837 
Q 2550 3084 2163 3084 
Q 1697 3084 1428 2787 
Q 1159 2491 1159 1978 
L 1159 0 
L 581 0 
L 581 3500 
L 1159 3500 
L 1159 2956 
Q 1366 3272 1645 3428 
Q 1925 3584 2291 3584 
Q 2894 3584 3203 3211 
Q 3513 2838 3513 2113 
z
" transform="scale(0.015625)"/>
      </defs>
      <use xlink:href="#DejaVuSans-53"/>
      <use xlink:href="#DejaVuSans-7a" transform="translate(63.476562 0)"/>
      <use xlink:href="#DejaVuSans-61" transform="translate(115.966797 0)"/>
      <use xlink:href="#DejaVuSans-62" transform="translate(177.246094 0)"/>
      <use xlink:href="#DejaVuSans-6f" transform="translate(240.722656 0)"/>
      <use xlink:href="#DejaVuSans-20" transform="translate(301.904297 0)"/>
      <use xlink:href="#DejaVuSans-79" transform="translate(333.691406 0)"/>
      <use xlink:href="#DejaVuSans-20" transform="translate(392.871094 0)"/>
      <use xlink:href="#DejaVuSans-4f" transform="translate(424.658203 0)"/>
      <use xlink:href="#DejaVuSans-73" transform="translate(503.369141 0)"/>
      <use xlink:href="#DejaVuSans-74" transform="translate(555.46875 0)"/>
      <use xlink:href="#DejaVuSans-6c" transform="translate(594.677734 0)"/>
      <use xlink:href="#DejaVuSans-75" transform="translate(622.460938 0)"/>
      <use xlink:href="#DejaVuSans-6e" transform="translate(685.839844 0)"/>
      <use xlink:href="#DejaVuSans-64" transform="translate(749.21875 0)"/>
     </g>
    </g>
    <g id="line2d_36">
     <g>
      <use xlink:href="#m4a418c5649" x="319.9089" y="116.5617" style="fill: #008b8b; stroke: #008b8b"/>
     </g>
    </g>
    <g id="text_20">
     <!-- Este trabajo -->
     <g transform="translate(351.0129 122.6097) scale(0.1728 -0.1728)">
      <defs>
       <path id="DejaVuSans-45" d="M 628 4666 
L 3578 4666 
L 3578 4134 
L 1259 4134 
L 1259 2753 
L 3481 2753 
L 3481 2222 
L 1259 2222 
L 1259 531 
L 3634 531 
L 3634 0 
L 628 0 
L 628 4666 
z
" transform="scale(0.015625)"/>
       <path id="DejaVuSans-6a" d="M 603 3500 
L 1178 3500 
L 1178 -63 
Q 1178 -731 923 -1031 
Q 669 -1331 103 -1331 
L -116 -1331 
L -116 -844 
L 38 -844 
Q 366 -844 484 -692 
Q 603 -541 603 -63 
L 603 3500 
z
M 603 4863 
L 1178 4863 
L 1178 4134 
L 603 4134 
L 603 4863 
z
" transform="scale(0.015625)"/>
      </defs>
      <use xlink:href="#DejaVuSans-45"/>
      <use xlink:href="#DejaVuSans-73" transform="translate(63.183594 0)"/>
      <use xlink:href="#DejaVuSans-74" transform="translate(115.283203 0)"/>
      <use xlink:href="#DejaVuSans-65" transform="translate(154.492188 0)"/>
      <use xlink:href="#DejaVuSans-20" transform="translate(216.015625 0)"/>
      <use xlink:href="#DejaVuSans-74" transform="translate(247.802734 0)"/>
      <use xlink:href="#DejaVuSans-72" transform="translate(287.011719 0)"/>
      <use xlink:href="#DejaVuSans-61" transform="translate(328.125 0)"/>
      <use xlink:href="#DejaVuSans-62" transform="translate(389.404297 0)"/>
      <use xlink:href="#DejaVuSans-61" transform="translate(452.880859 0)"/>
      <use xlink:href="#DejaVuSans-6a" transform="translate(514.160156 0)"/>
      <use xlink:href="#DejaVuSans-6f" transform="translate(541.943359 0)"/>
     </g>
    </g>
   </g>
  </g>
  <g id="axes_2">
   <g id="patch_8">
    <path d="M 600 320.4 
L 972 320.4 
L 972 43.2 
L 600 43.2 
z
" style="fill: #ffffff"/>
   </g>
   <g id="matplotlib.axis_3">
    <g id="xtick_10">
     <g id="line2d_37">
      <path d="M 616.909091 320.4 
L 616.909091 43.2 
" clip-path="url(#pdd5eb021cb)" style="fill: none; stroke: #b0b0b0; stroke-width: 0.8; stroke-linecap: square"/>
     </g>
     <g id="line2d_38">
      <g>
       <use xlink:href="#medf7ae5242" x="616.909091" y="320.4" style="stroke: #000000; stroke-width: 0.8"/>
      </g>
     </g>
     <g id="text_21">
      <!-- 0.0 -->
      <g transform="translate(603.168791 340.5301) scale(0.1728 -0.1728)">
       <use xlink:href="#DejaVuSans-30"/>
       <use xlink:href="#DejaVuSans-2e" transform="translate(63.623047 0)"/>
       <use xlink:href="#DejaVuSans-30" transform="translate(95.410156 0)"/>
      </g>
     </g>
    </g>
    <g id="xtick_11">
     <g id="line2d_39">
      <path d="M 659.181818 320.4 
L 659.181818 43.2 
" clip-path="url(#pdd5eb021cb)" style="fill: none; stroke: #b0b0b0; stroke-width: 0.8; stroke-linecap: square"/>
     </g>
     <g id="line2d_40">
      <g>
       <use xlink:href="#medf7ae5242" x="659.181818" y="320.4" style="stroke: #000000; stroke-width: 0.8"/>
      </g>
     </g>
     <g id="text_22">
      <!-- 0.5 -->
      <g transform="translate(645.441518 340.5301) scale(0.1728 -0.1728)">
       <use xlink:href="#DejaVuSans-30"/>
       <use xlink:href="#DejaVuSans-2e" transform="translate(63.623047 0)"/>
       <use xlink:href="#DejaVuSans-35" transform="translate(95.410156 0)"/>
      </g>
     </g>
    </g>
    <g id="xtick_12">
     <g id="line2d_41">
      <path d="M 701.454545 320.4 
L 701.454545 43.2 
" clip-path="url(#pdd5eb021cb)" style="fill: none; stroke: #b0b0b0; stroke-width: 0.8; stroke-linecap: square"/>
     </g>
     <g id="line2d_42">
      <g>
       <use xlink:href="#medf7ae5242" x="701.454545" y="320.4" style="stroke: #000000; stroke-width: 0.8"/>
      </g>
     </g>
     <g id="text_23">
      <!-- 1.0 -->
      <g transform="translate(687.714245 340.5301) scale(0.1728 -0.1728)">
       <use xlink:href="#DejaVuSans-31"/>
       <use xlink:href="#DejaVuSans-2e" transform="translate(63.623047 0)"/>
       <use xlink:href="#DejaVuSans-30" transform="translate(95.410156 0)"/>
      </g>
     </g>
    </g>
    <g id="xtick_13">
     <g id="line2d_43">
      <path d="M 743.727273 320.4 
L 743.727273 43.2 
" clip-path="url(#pdd5eb021cb)" style="fill: none; stroke: #b0b0b0; stroke-width: 0.8; stroke-linecap: square"/>
     </g>
     <g id="line2d_44">
      <g>
       <use xlink:href="#medf7ae5242" x="743.727273" y="320.4" style="stroke: #000000; stroke-width: 0.8"/>
      </g>
     </g>
     <g id="text_24">
      <!-- 1.5 -->
      <g transform="translate(729.986973 340.5301) scale(0.1728 -0.1728)">
       <use xlink:href="#DejaVuSans-31"/>
       <use xlink:href="#DejaVuSans-2e" transform="translate(63.623047 0)"/>
       <use xlink:href="#DejaVuSans-35" transform="translate(95.410156 0)"/>
      </g>
     </g>
    </g>
    <g id="xtick_14">
     <g id="line2d_45">
      <path d="M 786 320.4 
L 786 43.2 
" clip-path="url(#pdd5eb021cb)" style="fill: none; stroke: #b0b0b0; stroke-width: 0.8; stroke-linecap: square"/>
     </g>
     <g id="line2d_46">
      <g>
       <use xlink:href="#medf7ae5242" x="786" y="320.4" style="stroke: #000000; stroke-width: 0.8"/>
      </g>
     </g>
     <g id="text_25">
      <!-- 2.0 -->
      <g transform="translate(772.2597 340.5301) scale(0.1728 -0.1728)">
       <use xlink:href="#DejaVuSans-32"/>
       <use xlink:href="#DejaVuSans-2e" transform="translate(63.623047 0)"/>
       <use xlink:href="#DejaVuSans-30" transform="translate(95.410156 0)"/>
      </g>
     </g>
    </g>
    <g id="xtick_15">
     <g id="line2d_47">
      <path d="M 828.272727 320.4 
L 828.272727 43.2 
" clip-path="url(#pdd5eb021cb)" style="fill: none; stroke: #b0b0b0; stroke-width: 0.8; stroke-linecap: square"/>
     </g>
     <g id="line2d_48">
      <g>
       <use xlink:href="#medf7ae5242" x="828.272727" y="320.4" style="stroke: #000000; stroke-width: 0.8"/>
      </g>
     </g>
     <g id="text_26">
      <!-- 2.5 -->
      <g transform="translate(814.532427 340.5301) scale(0.1728 -0.1728)">
       <use xlink:href="#DejaVuSans-32"/>
       <use xlink:href="#DejaVuSans-2e" transform="translate(63.623047 0)"/>
       <use xlink:href="#DejaVuSans-35" transform="translate(95.410156 0)"/>
      </g>
     </g>
    </g>
    <g id="xtick_16">
     <g id="line2d_49">
      <path d="M 870.545455 320.4 
L 870.545455 43.2 
" clip-path="url(#pdd5eb021cb)" style="fill: none; stroke: #b0b0b0; stroke-width: 0.8; stroke-linecap: square"/>
     </g>
     <g id="line2d_50">
      <g>
       <use xlink:href="#medf7ae5242" x="870.545455" y="320.4" style="stroke: #000000; stroke-width: 0.8"/>
      </g>
     </g>
     <g id="text_27">
      <!-- 3.0 -->
      <g transform="translate(856.805155 340.5301) scale(0.1728 -0.1728)">
       <use xlink:href="#DejaVuSans-33"/>
       <use xlink:href="#DejaVuSans-2e" transform="translate(63.623047 0)"/>
       <use xlink:href="#DejaVuSans-30" transform="translate(95.410156 0)"/>
      </g>
     </g>
    </g>
    <g id="xtick_17">
     <g id="line2d_51">
      <path d="M 912.818182 320.4 
L 912.818182 43.2 
" clip-path="url(#pdd5eb021cb)" style="fill: none; stroke: #b0b0b0; stroke-width: 0.8; stroke-linecap: square"/>
     </g>
     <g id="line2d_52">
      <g>
       <use xlink:href="#medf7ae5242" x="912.818182" y="320.4" style="stroke: #000000; stroke-width: 0.8"/>
      </g>
     </g>
     <g id="text_28">
      <!-- 3.5 -->
      <g transform="translate(899.077882 340.5301) scale(0.1728 -0.1728)">
       <use xlink:href="#DejaVuSans-33"/>
       <use xlink:href="#DejaVuSans-2e" transform="translate(63.623047 0)"/>
       <use xlink:href="#DejaVuSans-35" transform="translate(95.410156 0)"/>
      </g>
     </g>
    </g>
    <g id="xtick_18">
     <g id="line2d_53">
      <path d="M 955.090909 320.4 
L 955.090909 43.2 
" clip-path="url(#pdd5eb021cb)" style="fill: none; stroke: #b0b0b0; stroke-width: 0.8; stroke-linecap: square"/>
     </g>
     <g id="line2d_54">
      <g>
       <use xlink:href="#medf7ae5242" x="955.090909" y="320.4" style="stroke: #000000; stroke-width: 0.8"/>
      </g>
     </g>
     <g id="text_29">
      <!-- 4.0 -->
      <g transform="translate(941.350609 340.5301) scale(0.1728 -0.1728)">
       <use xlink:href="#DejaVuSans-34"/>
       <use xlink:href="#DejaVuSans-2e" transform="translate(63.623047 0)"/>
       <use xlink:href="#DejaVuSans-30" transform="translate(95.410156 0)"/>
      </g>
     </g>
    </g>
    <g id="text_30">
     <!-- Radio (u.a.) -->
     <g transform="translate(735.9744 367.2539) scale(0.1728 -0.1728)">
      <use xlink:href="#DejaVuSans-52"/>
      <use xlink:href="#DejaVuSans-61" transform="translate(67.232422 0)"/>
      <use xlink:href="#DejaVuSans-64" transform="translate(128.511719 0)"/>
      <use xlink:href="#DejaVuSans-69" transform="translate(191.988281 0)"/>
      <use xlink:href="#DejaVuSans-6f" transform="translate(219.771484 0)"/>
      <use xlink:href="#DejaVuSans-20" transform="translate(280.953125 0)"/>
      <use xlink:href="#DejaVuSans-28" transform="translate(312.740234 0)"/>
      <use xlink:href="#DejaVuSans-75" transform="translate(351.753906 0)"/>
      <use xlink:href="#DejaVuSans-2e" transform="translate(415.132812 0)"/>
      <use xlink:href="#DejaVuSans-61" transform="translate(446.919922 0)"/>
      <use xlink:href="#DejaVuSans-2e" transform="translate(508.199219 0)"/>
      <use xlink:href="#DejaVuSans-29" transform="translate(539.986328 0)"/>
     </g>
    </g>
   </g>
   <g id="matplotlib.axis_4">
    <g id="ytick_7">
     <g id="line2d_55">
      <path d="M 600 307.8 
L 972 307.8 
" clip-path="url(#pdd5eb021cb)" style="fill: none; stroke: #b0b0b0; stroke-width: 0.8; stroke-linecap: square"/>
     </g>
     <g id="line2d_56">
      <g>
       <use xlink:href="#m2c5cb67085" x="600" y="307.8" style="stroke: #000000; stroke-width: 0.8"/>
      </g>
     </g>
     <g id="text_31">
      <!-- 0 -->
      <g transform="translate(582.0056 314.36505) scale(0.1728 -0.1728)">
       <use xlink:href="#DejaVuSans-30"/>
      </g>
     </g>
    </g>
    <g id="ytick_8">
     <g id="line2d_57">
      <path d="M 600 248.051125 
L 972 248.051125 
" clip-path="url(#pdd5eb021cb)" style="fill: none; stroke: #b0b0b0; stroke-width: 0.8; stroke-linecap: square"/>
     </g>
     <g id="line2d_58">
      <g>
       <use xlink:href="#m2c5cb67085" x="600" y="248.051125" style="stroke: #000000; stroke-width: 0.8"/>
      </g>
     </g>
     <g id="text_32">
      <!-- 2 -->
      <g transform="translate(582.0056 254.616175) scale(0.1728 -0.1728)">
       <use xlink:href="#DejaVuSans-32"/>
      </g>
     </g>
    </g>
    <g id="ytick_9">
     <g id="line2d_59">
      <path d="M 600 188.302251 
L 972 188.302251 
" clip-path="url(#pdd5eb021cb)" style="fill: none; stroke: #b0b0b0; stroke-width: 0.8; stroke-linecap: square"/>
     </g>
     <g id="line2d_60">
      <g>
       <use xlink:href="#m2c5cb67085" x="600" y="188.302251" style="stroke: #000000; stroke-width: 0.8"/>
      </g>
     </g>
     <g id="text_33">
      <!-- 4 -->
      <g transform="translate(582.0056 194.867301) scale(0.1728 -0.1728)">
       <use xlink:href="#DejaVuSans-34"/>
      </g>
     </g>
    </g>
    <g id="ytick_10">
     <g id="line2d_61">
      <path d="M 600 128.553376 
L 972 128.553376 
" clip-path="url(#pdd5eb021cb)" style="fill: none; stroke: #b0b0b0; stroke-width: 0.8; stroke-linecap: square"/>
     </g>
     <g id="line2d_62">
      <g>
       <use xlink:href="#m2c5cb67085" x="600" y="128.553376" style="stroke: #000000; stroke-width: 0.8"/>
      </g>
     </g>
     <g id="text_34">
      <!-- 6 -->
      <g transform="translate(582.0056 135.118426) scale(0.1728 -0.1728)">
       <defs>
        <path id="DejaVuSans-36" d="M 2113 2584 
Q 1688 2584 1439 2293 
Q 1191 2003 1191 1497 
Q 1191 994 1439 701 
Q 1688 409 2113 409 
Q 2538 409 2786 701 
Q 3034 994 3034 1497 
Q 3034 2003 2786 2293 
Q 2538 2584 2113 2584 
z
M 3366 4563 
L 3366 3988 
Q 3128 4100 2886 4159 
Q 2644 4219 2406 4219 
Q 1781 4219 1451 3797 
Q 1122 3375 1075 2522 
Q 1259 2794 1537 2939 
Q 1816 3084 2150 3084 
Q 2853 3084 3261 2657 
Q 3669 2231 3669 1497 
Q 3669 778 3244 343 
Q 2819 -91 2113 -91 
Q 1303 -91 875 529 
Q 447 1150 447 2328 
Q 447 3434 972 4092 
Q 1497 4750 2381 4750 
Q 2619 4750 2861 4703 
Q 3103 4656 3366 4563 
z
" transform="scale(0.015625)"/>
       </defs>
       <use xlink:href="#DejaVuSans-36"/>
      </g>
     </g>
    </g>
    <g id="ytick_11">
     <g id="line2d_63">
      <path d="M 600 68.804501 
L 972 68.804501 
" clip-path="url(#pdd5eb021cb)" style="fill: none; stroke: #b0b0b0; stroke-width: 0.8; stroke-linecap: square"/>
     </g>
     <g id="line2d_64">
      <g>
       <use xlink:href="#m2c5cb67085" x="600" y="68.804501" style="stroke: #000000; stroke-width: 0.8"/>
      </g>
     </g>
     <g id="text_35">
      <!-- 8 -->
      <g transform="translate(582.0056 75.369551) scale(0.1728 -0.1728)">
       <defs>
        <path id="DejaVuSans-38" d="M 2034 2216 
Q 1584 2216 1326 1975 
Q 1069 1734 1069 1313 
Q 1069 891 1326 650 
Q 1584 409 2034 409 
Q 2484 409 2743 651 
Q 3003 894 3003 1313 
Q 3003 1734 2745 1975 
Q 2488 2216 2034 2216 
z
M 1403 2484 
Q 997 2584 770 2862 
Q 544 3141 544 3541 
Q 544 4100 942 4425 
Q 1341 4750 2034 4750 
Q 2731 4750 3128 4425 
Q 3525 4100 3525 3541 
Q 3525 3141 3298 2862 
Q 3072 2584 2669 2484 
Q 3125 2378 3379 2068 
Q 3634 1759 3634 1313 
Q 3634 634 3220 271 
Q 2806 -91 2034 -91 
Q 1263 -91 848 271 
Q 434 634 434 1313 
Q 434 1759 690 2068 
Q 947 2378 1403 2484 
z
M 1172 3481 
Q 1172 3119 1398 2916 
Q 1625 2713 2034 2713 
Q 2441 2713 2670 2916 
Q 2900 3119 2900 3481 
Q 2900 3844 2670 4047 
Q 2441 4250 2034 4250 
Q 1625 4250 1398 4047 
Q 1172 3844 1172 3481 
z
" transform="scale(0.015625)"/>
       </defs>
       <use xlink:href="#DejaVuSans-38"/>
      </g>
     </g>
    </g>
    <g id="text_36">
     <!-- $4\pi r^2 |R_{1s}|^2$ -->
     <g transform="translate(567.8584 223.7904) rotate(-90) scale(0.1728 -0.1728)">
      <defs>
       <path id="DejaVuSans-Oblique-3c0" d="M 584 3500 
L 3938 3500 
L 3825 2925 
L 3384 2925 
L 2966 775 
Q 2922 550 2981 450 
Q 3038 353 3209 353 
Q 3256 353 3325 363 
Q 3397 369 3419 372 
L 3338 -44 
Q 3222 -84 3103 -103 
Q 2981 -122 2866 -122 
Q 2491 -122 2388 81 
Q 2284 288 2391 838 
L 2797 2925 
L 1506 2925 
L 938 0 
L 350 0 
L 919 2925 
L 472 2925 
L 584 3500 
z
" transform="scale(0.015625)"/>
       <path id="DejaVuSans-Oblique-72" d="M 2853 2969 
Q 2766 3016 2653 3041 
Q 2541 3066 2413 3066 
Q 1953 3066 1609 2717 
Q 1266 2369 1153 1784 
L 800 0 
L 225 0 
L 909 3500 
L 1484 3500 
L 1375 2956 
Q 1603 3259 1920 3421 
Q 2238 3584 2597 3584 
Q 2691 3584 2781 3573 
Q 2872 3563 2963 3538 
L 2853 2969 
z
" transform="scale(0.015625)"/>
       <path id="DejaVuSans-7c" d="M 1344 4891 
L 1344 -1509 
L 813 -1509 
L 813 4891 
L 1344 4891 
z
" transform="scale(0.015625)"/>
      </defs>
      <use xlink:href="#DejaVuSans-34" transform="translate(0 0.765625)"/>
      <use xlink:href="#DejaVuSans-Oblique-3c0" transform="translate(63.623047 0.765625)"/>
      <use xlink:href="#DejaVuSans-Oblique-72" transform="translate(123.828125 0.765625)"/>
      <use xlink:href="#DejaVuSans-32" transform="translate(169.591302 39.046875) scale(0.7)"/>
      <use xlink:href="#DejaVuSans-7c" transform="translate(216.86181 0.765625)"/>
      <use xlink:href="#DejaVuSans-Oblique-52" transform="translate(250.553216 0.765625)"/>
      <use xlink:href="#DejaVuSans-31" transform="translate(320.035638 -15.640625) scale(0.7)"/>
      <use xlink:href="#DejaVuSans-Oblique-73" transform="translate(364.571771 -15.640625) scale(0.7)"/>
      <use xlink:href="#DejaVuSans-7c" transform="translate(403.775872 0.765625)"/>
      <use xlink:href="#DejaVuSans-32" transform="translate(438.42431 39.046875) scale(0.7)"/>
     </g>
    </g>
   </g>
   <g id="line2d_65">
    <path d="M 616.909091 307.8 
L 620.325069 303.571688 
L 623.741047 292.499351 
L 627.157025 276.655942 
L 630.573003 257.711793 
L 633.988981 236.999174 
L 637.404959 215.567574 
L 640.820937 194.230941 
L 644.236915 173.607966 
L 647.652893 154.156357 
L 651.068871 136.201932 
L 654.484848 119.963244 
L 657.900826 105.572358 
L 661.316804 93.092337 
L 664.732782 82.531884 
L 668.14876 73.857574 
L 671.564738 67.004009 
L 674.980716 61.882211 
L 678.396694 58.386516 
L 681.812672 56.400195 
L 685.22865 55.8 
L 688.644628 56.459801 
L 692.060606 58.253466 
L 695.476584 61.057098 
L 698.892562 64.750745 
L 702.30854 69.219665 
L 705.724518 74.355235 
L 709.140496 80.055558 
L 712.556474 86.225827 
L 715.972452 92.778501 
L 719.38843 99.633321 
L 722.804408 106.717207 
L 726.220386 113.964065 
L 729.636364 121.314516 
L 733.052342 128.715581 
L 736.46832 136.120329 
L 739.884298 143.487501 
L 743.300275 150.781125 
L 746.716253 157.970123 
L 750.132231 165.027929 
L 753.548209 171.932106 
L 756.964187 178.663982 
L 760.380165 185.208299 
L 763.796143 191.552876 
L 767.212121 197.688298 
L 770.628099 203.607618 
L 774.044077 209.306081 
L 777.460055 214.780867 
L 780.876033 220.030857 
L 784.292011 225.05641 
L 787.707989 229.85917 
L 791.123967 234.441882 
L 794.539945 238.808222 
L 797.955923 242.962658 
L 801.371901 246.910305 
L 804.787879 250.656811 
L 808.203857 254.208247 
L 811.619835 257.571011 
L 815.035813 260.751744 
L 818.451791 263.757255 
L 821.867769 266.594454 
L 825.283747 269.270297 
L 828.699725 271.791736 
L 832.115702 274.165675 
L 835.53168 276.398935 
L 838.947658 278.498223 
L 842.363636 280.470107 
L 845.779614 282.320994 
L 849.195592 284.057113 
L 852.61157 285.684504 
L 856.027548 287.209001 
L 859.443526 288.636235 
L 862.859504 289.971617 
L 866.275482 291.220345 
L 869.69146 292.387396 
L 873.107438 293.47753 
L 876.523416 294.49529 
L 879.939394 295.445007 
L 883.355372 296.330802 
L 886.77135 297.156589 
L 890.187328 297.926083 
L 893.603306 298.642808 
L 897.019284 299.310095 
L 900.435262 299.931098 
L 903.85124 300.508795 
L 907.267218 301.045994 
L 910.683196 301.545346 
L 914.099174 302.009345 
L 917.515152 302.440339 
L 920.931129 302.840535 
L 924.347107 303.212008 
L 927.763085 303.556705 
L 931.179063 303.876452 
L 934.595041 304.172963 
L 938.011019 304.447841 
L 941.426997 304.702588 
L 944.842975 304.93861 
L 948.258953 305.157221 
L 951.674931 305.359649 
L 955.090909 305.547041 
" clip-path="url(#pdd5eb021cb)" style="fill: none; stroke: #000000; stroke-width: 1.5; stroke-linecap: square"/>
   </g>
   <g id="line2d_66">
    <path d="M 616.909091 307.8 
L 620.325069 304.778085 
L 623.741047 295.922389 
L 627.157025 281.839064 
L 630.573003 263.462227 
L 633.988981 241.952464 
L 637.404959 218.577445 
L 640.820937 194.591807 
L 644.236915 171.131962 
L 647.652893 149.137415 
L 651.068871 129.304691 
L 654.484848 112.07422 
L 657.900826 97.645762 
L 661.316804 86.014793 
L 664.732782 77.02099 
L 668.14876 70.400401 
L 671.564738 65.834482 
L 674.980716 62.991385 
L 678.396694 61.557148 
L 681.812672 61.256329 
L 685.22865 61.862983 
L 688.644628 63.20372 
L 692.060606 65.154823 
L 695.476584 67.635463 
L 698.892562 70.598731 
L 702.30854 74.02195 
L 705.724518 77.897317 
L 709.140496 82.22364 
L 712.556474 86.999618 
L 715.972452 92.218876 
L 719.38843 97.866765 
L 722.804408 103.918787 
L 726.220386 110.340395 
L 729.636364 117.087874 
L 733.052342 124.109977 
L 736.46832 131.350011 
L 739.884298 138.748095 
L 743.300275 146.243394 
L 746.716253 153.776139 
L 750.132231 161.289366 
L 753.548209 168.730283 
L 756.964187 176.051283 
L 760.380165 183.210594 
L 763.796143 190.172623 
L 767.212121 196.908019 
L 770.628099 203.393528 
L 774.044077 209.611676 
L 777.460055 215.55033 
L 780.876033 221.202181 
L 784.292011 226.564186 
L 787.707989 231.636996 
L 791.123967 236.424384 
L 794.539945 240.932701 
L 797.955923 245.170373 
L 801.371901 249.147431 
L 804.787879 252.875097 
L 808.203857 256.365415 
L 811.619835 259.630933 
L 815.035813 262.684432 
L 818.451791 265.5387 
L 821.867769 268.206347 
L 825.283747 270.699656 
L 828.699725 273.030471 
L 832.115702 275.210109 
L 835.53168 277.249302 
L 838.947658 279.158155 
L 842.363636 280.946129 
L 845.779614 282.622032 
L 849.195592 284.194028 
L 852.61157 285.66965 
L 856.027548 287.055826 
L 859.443526 288.358904 
L 862.859504 289.58469 
L 866.275482 290.738481 
L 869.69146 291.825101 
L 873.107438 292.848941 
L 876.523416 293.813994 
L 879.939394 294.723892 
L 883.355372 295.581945 
L 886.77135 296.391168 
L 890.187328 297.154318 
L 893.603306 297.87392 
L 897.019284 298.552296 
L 900.435262 299.191589 
L 903.85124 299.793785 
L 907.267218 300.360732 
L 910.683196 300.89416 
L 914.099174 301.395696 
L 917.515152 301.866874 
L 920.931129 302.309152 
L 924.347107 302.723918 
L 927.763085 303.112499 
L 931.179063 303.47617 
L 934.595041 303.816154 
L 938.011019 304.133633 
L 941.426997 304.429749 
L 944.842975 304.705603 
L 948.258953 304.962262 
L 951.674931 305.200759 
L 955.090909 305.422091 
" clip-path="url(#pdd5eb021cb)" style="fill: none; stroke-dasharray: 9.25,4; stroke-dashoffset: 0; stroke: #800080; stroke-width: 2.5"/>
   </g>
   <g id="line2d_67">
    <g clip-path="url(#pdd5eb021cb)">
     <use xlink:href="#m4a418c5649" x="616.909091" y="307.8" style="fill: #008b8b; stroke: #008b8b"/>
     <use xlink:href="#m4a418c5649" x="633.988981" y="241.933354" style="fill: #008b8b; stroke: #008b8b"/>
     <use xlink:href="#m4a418c5649" x="651.068871" y="129.267365" style="fill: #008b8b; stroke: #008b8b"/>
     <use xlink:href="#m4a418c5649" x="668.14876" y="70.38879" style="fill: #008b8b; stroke: #008b8b"/>
     <use xlink:href="#m4a418c5649" x="685.22865" y="61.894203" style="fill: #008b8b; stroke: #008b8b"/>
     <use xlink:href="#m4a418c5649" x="702.30854" y="74.069201" style="fill: #008b8b; stroke: #008b8b"/>
     <use xlink:href="#m4a418c5649" x="719.38843" y="97.897009" style="fill: #008b8b; stroke: #008b8b"/>
     <use xlink:href="#m4a418c5649" x="736.46832" y="131.352868" style="fill: #008b8b; stroke: #008b8b"/>
     <use xlink:href="#m4a418c5649" x="753.548209" y="168.715603" style="fill: #008b8b; stroke: #008b8b"/>
     <use xlink:href="#m4a418c5649" x="770.628099" y="203.375442" style="fill: #008b8b; stroke: #008b8b"/>
     <use xlink:href="#m4a418c5649" x="787.707989" y="231.624186" style="fill: #008b8b; stroke: #008b8b"/>
     <use xlink:href="#m4a418c5649" x="804.787879" y="252.869761" style="fill: #008b8b; stroke: #008b8b"/>
     <use xlink:href="#m4a418c5649" x="821.867769" y="268.206854" style="fill: #008b8b; stroke: #008b8b"/>
     <use xlink:href="#m4a418c5649" x="838.947658" y="279.161719" style="fill: #008b8b; stroke: #008b8b"/>
     <use xlink:href="#m4a418c5649" x="856.027548" y="287.060052" style="fill: #008b8b; stroke: #008b8b"/>
     <use xlink:href="#m4a418c5649" x="873.107438" y="292.852368" style="fill: #008b8b; stroke: #008b8b"/>
     <use xlink:href="#m4a418c5649" x="890.187328" y="297.156384" style="fill: #008b8b; stroke: #008b8b"/>
     <use xlink:href="#m4a418c5649" x="907.267218" y="300.361491" style="fill: #008b8b; stroke: #008b8b"/>
     <use xlink:href="#m4a418c5649" x="924.347107" y="302.723725" style="fill: #008b8b; stroke: #008b8b"/>
     <use xlink:href="#m4a418c5649" x="941.426997" y="304.42902" style="fill: #008b8b; stroke: #008b8b"/>
    </g>
   </g>
   <g id="patch_9">
    <path d="M 600 320.4 
L 600 43.2 
" style="fill: none; stroke: #000000; stroke-width: 0.8; stroke-linejoin: miter; stroke-linecap: square"/>
   </g>
   <g id="patch_10">
    <path d="M 972 320.4 
L 972 43.2 
" style="fill: none; stroke: #000000; stroke-width: 0.8; stroke-linejoin: miter; stroke-linecap: square"/>
   </g>
   <g id="patch_11">
    <path d="M 600 320.4 
L 972 320.4 
" style="fill: none; stroke: #000000; stroke-width: 0.8; stroke-linejoin: miter; stroke-linecap: square"/>
   </g>
   <g id="patch_12">
    <path d="M 600 43.2 
L 972 43.2 
" style="fill: none; stroke: #000000; stroke-width: 0.8; stroke-linejoin: miter; stroke-linecap: square"/>
   </g>
   <g id="legend_2">
    <g id="patch_13">
     <path d="M 764.1729 133.1154 
L 959.904 133.1154 
Q 963.36 133.1154 963.36 129.6594 
L 963.36 55.296 
Q 963.36 51.84 959.904 51.84 
L 764.1729 51.84 
Q 760.7169 51.84 760.7169 55.296 
L 760.7169 129.6594 
Q 760.7169 133.1154 764.1729 133.1154 
z
" style="fill: #ffffff; opacity: 0.8; stroke: #cccccc; stroke-linejoin: miter"/>
    </g>
    <g id="line2d_68">
     <path d="M 767.6289 65.8341 
L 784.9089 65.8341 
L 802.1889 65.8341 
" style="fill: none; stroke: #000000; stroke-width: 1.5; stroke-linecap: square"/>
    </g>
    <g id="text_37">
     <!-- Slater -->
     <g transform="translate(816.0129 71.8821) scale(0.1728 -0.1728)">
      <use xlink:href="#DejaVuSans-53"/>
      <use xlink:href="#DejaVuSans-6c" transform="translate(63.476562 0)"/>
      <use xlink:href="#DejaVuSans-61" transform="translate(91.259766 0)"/>
      <use xlink:href="#DejaVuSans-74" transform="translate(152.539062 0)"/>
      <use xlink:href="#DejaVuSans-65" transform="translate(191.748047 0)"/>
      <use xlink:href="#DejaVuSans-72" transform="translate(253.271484 0)"/>
     </g>
    </g>
    <g id="line2d_69">
     <path d="M 767.6289 91.1979 
L 784.9089 91.1979 
L 802.1889 91.1979 
" style="fill: none; stroke-dasharray: 9.25,4; stroke-dashoffset: 0; stroke: #800080; stroke-width: 2.5"/>
    </g>
    <g id="text_38">
     <!-- Szabo y Ostlund -->
     <g transform="translate(816.0129 97.2459) scale(0.1728 -0.1728)">
      <use xlink:href="#DejaVuSans-53"/>
      <use xlink:href="#DejaVuSans-7a" transform="translate(63.476562 0)"/>
      <use xlink:href="#DejaVuSans-61" transform="translate(115.966797 0)"/>
      <use xlink:href="#DejaVuSans-62" transform="translate(177.246094 0)"/>
      <use xlink:href="#DejaVuSans-6f" transform="translate(240.722656 0)"/>
      <use xlink:href="#DejaVuSans-20" transform="translate(301.904297 0)"/>
      <use xlink:href="#DejaVuSans-79" transform="translate(333.691406 0)"/>
      <use xlink:href="#DejaVuSans-20" transform="translate(392.871094 0)"/>
      <use xlink:href="#DejaVuSans-4f" transform="translate(424.658203 0)"/>
      <use xlink:href="#DejaVuSans-73" transform="translate(503.369141 0)"/>
      <use xlink:href="#DejaVuSans-74" transform="translate(555.46875 0)"/>
      <use xlink:href="#DejaVuSans-6c" transform="translate(594.677734 0)"/>
      <use xlink:href="#DejaVuSans-75" transform="translate(622.460938 0)"/>
      <use xlink:href="#DejaVuSans-6e" transform="translate(685.839844 0)"/>
      <use xlink:href="#DejaVuSans-64" transform="translate(749.21875 0)"/>
     </g>
    </g>
    <g id="line2d_70">
     <g>
      <use xlink:href="#m4a418c5649" x="784.9089" y="116.5617" style="fill: #008b8b; stroke: #008b8b"/>
     </g>
    </g>
    <g id="text_39">
     <!-- Este trabajo -->
     <g transform="translate(816.0129 122.6097) scale(0.1728 -0.1728)">
      <use xlink:href="#DejaVuSans-45"/>
      <use xlink:href="#DejaVuSans-73" transform="translate(63.183594 0)"/>
      <use xlink:href="#DejaVuSans-74" transform="translate(115.283203 0)"/>
      <use xlink:href="#DejaVuSans-65" transform="translate(154.492188 0)"/>
      <use xlink:href="#DejaVuSans-20" transform="translate(216.015625 0)"/>
      <use xlink:href="#DejaVuSans-74" transform="translate(247.802734 0)"/>
      <use xlink:href="#DejaVuSans-72" transform="translate(287.011719 0)"/>
      <use xlink:href="#DejaVuSans-61" transform="translate(328.125 0)"/>
      <use xlink:href="#DejaVuSans-62" transform="translate(389.404297 0)"/>
      <use xlink:href="#DejaVuSans-61" transform="translate(452.880859 0)"/>
      <use xlink:href="#DejaVuSans-6a" transform="translate(514.160156 0)"/>
      <use xlink:href="#DejaVuSans-6f" transform="translate(541.943359 0)"/>
     </g>
    </g>
   </g>
  </g>
 </g>
 <defs>
  <clipPath id="pfacfa23d8d">
   <rect x="135" y="43.2" width="372" height="277.2"/>
  </clipPath>
  <clipPath id="pdd5eb021cb">
   <rect x="600" y="43.2" width="372" height="277.2"/>
  </clipPath>
 </defs>
</svg>
