<?xml version="1.0" encoding="UTF-8" standalone="no"?>
<svg
   width="460.8pt"
   height="345.6pt"
   viewBox="0 0 460.8 345.6"
   version="1.1"
   id="svg106"
   sodipodi:docname="X1s.svg"
   inkscape:version="1.4 (86a8ad7, 2024-10-11)"
   xmlns:inkscape="http://www.inkscape.org/namespaces/inkscape"
   xmlns:sodipodi="http://sodipodi.sourceforge.net/DTD/sodipodi-0.dtd"
   xmlns:xlink="http://www.w3.org/1999/xlink"
   xmlns="http://www.w3.org/2000/svg"
   xmlns:svg="http://www.w3.org/2000/svg"
   xmlns:rdf="http://www.w3.org/1999/02/22-rdf-syntax-ns#"
   xmlns:cc="http://creativecommons.org/ns#"
   xmlns:dc="http://purl.org/dc/elements/1.1/">
  <sodipodi:namedview
     id="namedview106"
     pagecolor="#ffffff"
     bordercolor="#000000"
     borderopacity="0.25"
     inkscape:showpageshadow="2"
     inkscape:pageopacity="0.0"
     inkscape:pagecheckerboard="0"
     inkscape:deskcolor="#d1d1d1"
     inkscape:document-units="pt"
     inkscape:zoom="0.8485895"
     inkscape:cx="113.1289"
     inkscape:cy="281.05462"
     inkscape:window-width="1366"
     inkscape:window-height="715"
     inkscape:window-x="-8"
     inkscape:window-y="-8"
     inkscape:window-maximized="1"
     inkscape:current-layer="xtick_1" />
  <metadata
     id="metadata1">
    <rdf:RDF>
      <cc:Work>
        <dc:type
           rdf:resource="http://purl.org/dc/dcmitype/StillImage" />
        <dc:date>2025-02-21T14:09:44.653401</dc:date>
        <dc:format>image/svg+xml</dc:format>
        <dc:creator>
          <cc:Agent>
            <dc:title>Matplotlib v3.10.0, https://matplotlib.org/</dc:title>
          </cc:Agent>
        </dc:creator>
      </cc:Work>
    </rdf:RDF>
  </metadata>
  <defs
     id="defs1">
    <style
       type="text/css"
       id="style1">*{stroke-linejoin: round; stroke-linecap: butt}</style>
  </defs>
  <g
     id="figure_1">
    <g
       id="patch_1"
       style="display:none">
      <path
         d="M 0,345.6 H 460.8 V 0 H 0 Z"
         style="fill:#ffffff"
         id="path1"
         sodipodi:nodetypes="ccccc" />
    </g>
    <g
       id="axes_1">
      <g
         id="patch_2"
         transform="translate(10.5,-18)">
        <path
           d="M 57.6,307.584 H 414.72 V 41.472 H 57.6 Z"
           style="fill:#ffffff"
           id="path2" />
      </g>
      <g
         id="matplotlib.axis_1"
         transform="translate(9,-12)">
        <g
           id="xtick_1"
           transform="translate(1.5,-6)">
          <g
             id="line2d_1">
            <path
               d="M 73.832727,307.584 V 41.472"
               clip-path="url(#peff9a1d1de)"
               style="fill:none;stroke:#b0b0b0;stroke-width:0.8;stroke-linecap:square"
               id="path3" />
          </g>
          <g
             id="line2d_2"
             style="stroke-width:1.3;stroke-dasharray:none">
            <defs
               id="defs3">
              <path
                 id="m2f9ad328a8"
                 d="M 0,0 V 3.5"
                 style="stroke:#000000;stroke-width:0.8" />
            </defs>
            <g
               id="g3"
               style="stroke-width:1.3;stroke-dasharray:none">
              <use
                 xlink:href="#m2f9ad328a8"
                 x="73.832726"
                 y="307.58401"
                 style="stroke:#000000;stroke-width:1.3;stroke-dasharray:none"
                 id="use3" />
            </g>
          </g>
          <g
             id="text_1"
             style="stroke-width:1.3;stroke-dasharray:none"
             transform="translate(-2.1873418,-0.1562387)">
            <!-- 0.0 -->
            <g
               transform="matrix(0.13000453,0,0,-0.13000453,65.683323,324.40934)"
               id="g6"
               style="stroke-width:10;stroke-dasharray:none">
              <defs
                 id="defs4">
                <path
                   id="DejaVuSans-30"
                   d="m 2034,4250 q -487,0 -733,-480 -245,-479 -245,-1442 0,-959 245,-1439 246,-480 733,-480 491,0 736,480 246,480 246,1439 0,963 -246,1442 -245,480 -736,480 z m 0,500 q 785,0 1199,-621 414,-620 414,-1801 0,-1178 -414,-1799 -414,-620 -1199,-620 -784,0 -1198,620 -414,621 -414,1799 0,1181 414,1801 414,621 1198,621 z"
                   transform="scale(0.015625)" />
                <path
                   id="DejaVuSans-2e"
                   d="m 684,794 h 660 V 0 H 684 Z"
                   transform="scale(0.015625)" />
              </defs>
              <use
                 xlink:href="#DejaVuSans-30"
                 id="use4"
                 style="stroke-width:10;stroke-dasharray:none"
                 transform="matrix(0.97104886,0,0,0.97104886,0.19089659,2.1487176)" />
              <use
                 xlink:href="#DejaVuSans-2e"
                 transform="matrix(0.97104886,0,0,0.97104886,61.971984,2.1487176)"
                 id="use5"
                 style="stroke-width:10;stroke-dasharray:none" />
              <use
                 xlink:href="#DejaVuSans-30"
                 transform="matrix(0.97104886,0,0,0.97104886,92.83882,2.1487176)"
                 id="use6"
                 style="stroke-width:10;stroke-dasharray:none" />
            </g>
          </g>
        </g>
        <g
           id="xtick_2"
           transform="translate(1.5,-6)">
          <g
             id="line2d_3">
            <path
               d="M 114.41455,307.584 V 41.472"
               clip-path="url(#peff9a1d1de)"
               style="fill:none;stroke:#b0b0b0;stroke-width:0.8;stroke-linecap:square"
               id="path6" />
          </g>
          <g
             id="line2d_4">
            <g
               id="g7">
              <use
                 xlink:href="#m2f9ad328a8"
                 x="114.41454"
                 y="307.58401"
                 style="stroke:#000000;stroke-width:0.8"
                 id="use7" />
            </g>
          </g>
          <g
             id="text_2"
             transform="matrix(1.2808002,0,0,1.2808002,-30.079983,-88.384843)">
            <!-- 0.5 -->
            <g
               transform="matrix(0.1,0,0,-0.1,104.51122,322.18244)"
               id="g10">
              <defs
                 id="defs7">
                <path
                   id="DejaVuSans-35"
                   d="M 691,4666 H 3169 V 4134 H 1269 V 2991 q 137,47 274,70 138,23 276,23 781,0 1237,-428 457,-428 457,-1159 Q 3513,744 3044,326 2575,-91 1722,-91 1428,-91 1123,-41 819,9 494,109 v 635 q 281,-153 581,-228 300,-75 634,-75 541,0 856,284 316,284 316,772 0,487 -316,771 -315,285 -856,285 -253,0 -505,-56 -251,-56 -513,-175 z"
                   transform="scale(0.015625)" />
              </defs>
              <use
                 xlink:href="#DejaVuSans-30"
                 id="use8" />
              <use
                 xlink:href="#DejaVuSans-2e"
                 transform="translate(63.623047)"
                 id="use9" />
              <use
                 xlink:href="#DejaVuSans-35"
                 transform="translate(95.410156)"
                 id="use10" />
            </g>
          </g>
        </g>
        <g
           id="xtick_3"
           transform="translate(1.5,-6)">
          <g
             id="line2d_5">
            <path
               d="M 154.99636,307.584 V 41.472"
               clip-path="url(#peff9a1d1de)"
               style="fill:none;stroke:#b0b0b0;stroke-width:0.8;stroke-linecap:square"
               id="path10" />
          </g>
          <g
             id="line2d_6">
            <g
               id="g11">
              <use
                 xlink:href="#m2f9ad328a8"
                 x="154.99637"
                 y="307.58401"
                 style="stroke:#000000;stroke-width:0.8"
                 id="use11" />
            </g>
          </g>
          <g
             id="text_3"
             transform="matrix(1.3016038,0,0,1.3016038,-46.919251,-94.93299)">
            <!-- 1.0 -->
            <g
               transform="matrix(0.1,0,0,-0.1,147.0448,322.18244)"
               id="g14">
              <defs
                 id="defs11">
                <path
                   id="DejaVuSans-31"
                   d="M 794,531 H 1825 V 4091 L 703,3866 v 575 l 1116,225 h 631 V 531 H 3481 V 0 H 794 Z"
                   transform="scale(0.015625)" />
              </defs>
              <use
                 xlink:href="#DejaVuSans-31"
                 id="use12" />
              <use
                 xlink:href="#DejaVuSans-2e"
                 transform="translate(63.623047)"
                 id="use13" />
              <use
                 xlink:href="#DejaVuSans-30"
                 transform="translate(95.410156)"
                 id="use14" />
            </g>
          </g>
        </g>
        <g
           id="xtick_4"
           transform="translate(1.5,-6)">
          <g
             id="line2d_7">
            <path
               d="M 195.57818,307.584 V 41.472"
               clip-path="url(#peff9a1d1de)"
               style="fill:none;stroke:#b0b0b0;stroke-width:0.8;stroke-linecap:square"
               id="path14" />
          </g>
          <g
             id="line2d_8">
            <g
               id="g15">
              <use
                 xlink:href="#m2f9ad328a8"
                 x="195.57819"
                 y="307.58401"
                 style="stroke:#000000;stroke-width:0.8"
                 id="use15" />
            </g>
          </g>
          <g
             id="text_4">
            <!-- 1.5 -->
            <g
               transform="matrix(0.1,0,0,-0.1,187.62662,322.18244)"
               id="g18">
              <use
                 xlink:href="#DejaVuSans-31"
                 id="use16"
                 transform="matrix(1.3211653,0,0,1.3211653,-25.899597,-23.414957)" />
              <use
                 xlink:href="#DejaVuSans-2e"
                 transform="matrix(1.3211653,0,0,1.3211653,58.156964,-23.414957)"
                 id="use17" />
              <use
                 xlink:href="#DejaVuSans-35"
                 transform="matrix(1.3211653,0,0,1.3211653,100.15299,-23.414957)"
                 id="use18" />
            </g>
          </g>
        </g>
        <g
           id="xtick_5"
           transform="translate(1.5,-6)">
          <g
             id="line2d_9">
            <path
               d="M 236.16,307.584 V 41.472"
               clip-path="url(#peff9a1d1de)"
               style="fill:none;stroke:#b0b0b0;stroke-width:0.8;stroke-linecap:square"
               id="path18" />
          </g>
          <g
             id="line2d_10">
            <g
               id="g19">
              <use
                 xlink:href="#m2f9ad328a8"
                 x="236.16"
                 y="307.58401"
                 style="stroke:#000000;stroke-width:0.8"
                 id="use19" />
            </g>
          </g>
          <g
             id="text_5">
            <!-- 2.0 -->
            <g
               transform="matrix(0.1,0,0,-0.1,228.20844,322.18244)"
               id="g22">
              <defs
                 id="defs19">
                <path
                   id="DejaVuSans-32"
                   d="M 1228,531 H 3431 V 0 H 469 v 531 q 359,372 979,998 621,627 780,809 303,340 423,576 121,236 121,464 0,372 -261,606 -261,235 -680,235 -297,0 -627,-103 -329,-103 -704,-313 v 638 q 381,153 712,231 332,78 607,78 725,0 1156,-363 431,-362 431,-968 0,-288 -108,-546 -107,-257 -392,-607 -78,-91 -497,-524 Q 1991,1309 1228,531 Z"
                   transform="scale(0.015625)" />
              </defs>
              <use
                 xlink:href="#DejaVuSans-32"
                 id="use20"
                 transform="matrix(1.2687982,0,0,1.2687982,-21.466584,-19.949869)" />
              <use
                 xlink:href="#DejaVuSans-2e"
                 transform="matrix(1.2687982,0,0,1.2687982,59.258226,-19.949869)"
                 id="use21" />
              <use
                 xlink:href="#DejaVuSans-30"
                 transform="matrix(1.2687982,0,0,1.2687982,99.589654,-19.949869)"
                 id="use22" />
            </g>
          </g>
        </g>
        <g
           id="xtick_6"
           transform="translate(1.5,-6)">
          <g
             id="line2d_11">
            <path
               d="M 276.74182,307.584 V 41.472"
               clip-path="url(#peff9a1d1de)"
               style="fill:none;stroke:#b0b0b0;stroke-width:0.8;stroke-linecap:square"
               id="path22" />
          </g>
          <g
             id="line2d_12">
            <g
               id="g23">
              <use
                 xlink:href="#m2f9ad328a8"
                 x="276.74182"
                 y="307.58401"
                 style="stroke:#000000;stroke-width:0.8"
                 id="use23" />
            </g>
          </g>
          <g
             id="text_6"
             transform="matrix(1.287379,0,0,1.287379,-79.509648,-90.455184)">
            <!-- 2.5 -->
            <g
               transform="matrix(0.1,0,0,-0.1,268.79026,322.18244)"
               id="g26">
              <use
                 xlink:href="#DejaVuSans-32"
                 id="use24" />
              <use
                 xlink:href="#DejaVuSans-2e"
                 transform="translate(63.623047)"
                 id="use25" />
              <use
                 xlink:href="#DejaVuSans-35"
                 transform="translate(95.410156)"
                 id="use26" />
            </g>
          </g>
        </g>
        <g
           id="xtick_7"
           transform="translate(1.5,-6)">
          <g
             id="line2d_13">
            <path
               d="M 317.32364,307.584 V 41.472"
               clip-path="url(#peff9a1d1de)"
               style="fill:none;stroke:#b0b0b0;stroke-width:0.8;stroke-linecap:square"
               id="path26" />
          </g>
          <g
             id="line2d_14">
            <g
               id="g27">
              <use
                 xlink:href="#m2f9ad328a8"
                 x="317.32364"
                 y="307.58401"
                 style="stroke:#000000;stroke-width:0.8"
                 id="use27" />
            </g>
          </g>
          <g
             id="text_7">
            <!-- 3.0 -->
            <g
               transform="matrix(0.12714001,0,0,-0.12714001,307.2006,324.19674)"
               id="g30">
              <defs
                 id="defs27">
                <path
                   id="DejaVuSans-33"
                   d="m 2597,2516 q 453,-97 707,-404 255,-306 255,-756 0,-690 -475,-1069 -475,-378 -1350,-378 -293,0 -604,58 -311,58 -642,174 v 609 q 262,-153 574,-231 313,-78 654,-78 593,0 904,234 311,234 311,681 0,413 -289,645 -289,233 -804,233 h -544 v 519 h 569 q 465,0 712,186 247,186 247,536 0,359 -255,551 -254,193 -729,193 -260,0 -557,-57 -297,-56 -653,-174 v 562 q 360,100 674,150 314,50 592,50 719,0 1137,-327 419,-326 419,-882 0,-388 -222,-655 -222,-267 -631,-370 z"
                   transform="scale(0.015625)" />
              </defs>
              <use
                 xlink:href="#DejaVuSans-33"
                 id="use28" />
              <use
                 xlink:href="#DejaVuSans-2e"
                 transform="translate(63.623047)"
                 id="use29" />
              <use
                 xlink:href="#DejaVuSans-30"
                 transform="translate(95.410156)"
                 id="use30" />
            </g>
          </g>
        </g>
        <g
           id="xtick_8"
           transform="translate(1.5,-6)">
          <g
             id="line2d_15">
            <path
               d="M 357.90546,307.584 V 41.472"
               clip-path="url(#peff9a1d1de)"
               style="fill:none;stroke:#b0b0b0;stroke-width:0.8;stroke-linecap:square"
               id="path30" />
          </g>
          <g
             id="line2d_16">
            <g
               id="g31">
              <use
                 xlink:href="#m2f9ad328a8"
                 x="357.90546"
                 y="307.58401"
                 style="stroke:#000000;stroke-width:0.8"
                 id="use31" />
            </g>
          </g>
          <g
             id="text_8"
             transform="matrix(1.2900578,0,0,1.2900578,-103.79723,-91.298748)">
            <!-- 3.5 -->
            <g
               transform="matrix(0.1,0,0,-0.1,349.95389,322.18244)"
               id="g34">
              <use
                 xlink:href="#DejaVuSans-33"
                 id="use32" />
              <use
                 xlink:href="#DejaVuSans-2e"
                 transform="translate(63.623047)"
                 id="use33" />
              <use
                 xlink:href="#DejaVuSans-35"
                 transform="translate(95.410156)"
                 id="use34" />
            </g>
          </g>
        </g>
        <g
           id="xtick_9">
          <g
             id="line2d_17"
             transform="translate(1.5,-6)">
            <path
               d="M 398.48727,307.584 V 41.472"
               clip-path="url(#peff9a1d1de)"
               style="fill:none;stroke:#b0b0b0;stroke-width:0.8;stroke-linecap:square"
               id="path34" />
          </g>
          <g
             id="line2d_18"
             transform="translate(1.5,-6)">
            <g
               id="g35">
              <use
                 xlink:href="#m2f9ad328a8"
                 x="398.48727"
                 y="307.58401"
                 style="stroke:#000000;stroke-width:0.8"
                 id="use35" />
            </g>
          </g>
          <g
             id="text_9"
             transform="matrix(1.2478647,0,0,1.2478647,-97.92107,-84.018047)">
            <!-- 4.0 -->
            <g
               transform="matrix(0.1,0,0,-0.1,390.53571,322.18244)"
               id="g38"
               style="stroke-width:1;stroke-dasharray:none">
              <defs
                 id="defs35">
                <path
                   id="DejaVuSans-34"
                   d="M 2419,4116 825,1625 h 1594 z m -166,550 h 794 V 1625 h 666 V 1100 H 3047 V 0 H 2419 V 1100 H 313 v 609 z"
                   transform="scale(0.015625)" />
              </defs>
              <use
                 xlink:href="#DejaVuSans-34"
                 id="use36"
                 style="stroke-width:1;stroke-dasharray:none"
                 transform="translate(4.5082436)" />
              <use
                 xlink:href="#DejaVuSans-2e"
                 transform="translate(68.131291)"
                 id="use37"
                 style="stroke-width:1;stroke-dasharray:none" />
              <use
                 xlink:href="#DejaVuSans-30"
                 transform="translate(99.9184)"
                 id="use38"
                 style="stroke-width:1;stroke-dasharray:none" />
            </g>
          </g>
        </g>
        <g
           id="text_10"
           transform="translate(1.5,-1.5)">
          <!-- Radio (u.a.) -->
          <g
             transform="matrix(0.15351063,0,0,-0.15351063,207.30988,343.67626)"
             id="g50">
            <defs
               id="defs38">
              <path
                 id="DejaVuSans-52"
                 d="m 2841,2188 q 203,-69 395,-294 192,-225 386,-619 L 4263,0 h -679 l -596,1197 q -232,469 -449,622 -217,153 -592,153 H 1259 V 0 H 628 v 4666 h 1425 q 800,0 1194,-335 394,-334 394,-1009 0,-441 -205,-732 -205,-290 -595,-402 z M 1259,4147 V 2491 h 794 q 456,0 689,211 233,211 233,620 0,409 -233,617 -233,208 -689,208 z"
                 transform="scale(0.015625)" />
              <path
                 id="DejaVuSans-61"
                 d="m 2194,1759 q -697,0 -966,-159 -269,-159 -269,-544 0,-306 202,-486 202,-179 548,-179 479,0 768,339 289,339 289,901 v 128 z m 1147,238 V 0 H 2766 V 531 Q 2569,213 2275,61 1981,-91 1556,-91 q -537,0 -855,302 -317,302 -317,808 0,590 395,890 396,300 1180,300 h 807 v 57 q 0,397 -261,614 -261,217 -733,217 -300,0 -585,-72 -284,-72 -546,-216 v 532 q 315,122 612,182 297,61 578,61 760,0 1135,-394 375,-393 375,-1193 z"
                 transform="scale(0.015625)" />
              <path
                 id="DejaVuSans-64"
                 d="m 2906,2969 v 1894 h 575 V 0 H 2906 V 525 Q 2725,213 2448,61 2172,-91 1784,-91 1150,-91 751,415 353,922 353,1747 q 0,825 398,1331 399,506 1033,506 388,0 664,-152 277,-151 458,-463 z M 947,1747 q 0,-634 261,-995 261,-361 717,-361 456,0 718,361 263,361 263,995 0,634 -263,995 -262,361 -718,361 -456,0 -717,-361 -261,-361 -261,-995 z"
                 transform="scale(0.015625)" />
              <path
                 id="DejaVuSans-69"
                 d="m 603,3500 h 575 V 0 H 603 Z m 0,1363 h 575 V 4134 H 603 Z"
                 transform="scale(0.015625)" />
              <path
                 id="DejaVuSans-6f"
                 d="m 1959,3097 q -462,0 -731,-361 -269,-361 -269,-989 0,-628 267,-989 268,-361 733,-361 460,0 728,362 269,363 269,988 0,622 -269,986 -268,364 -728,364 z m 0,487 q 750,0 1178,-488 429,-487 429,-1349 Q 3566,888 3137,398 2709,-91 1959,-91 1206,-91 779,398 353,888 353,1747 q 0,862 426,1349 427,488 1180,488 z"
                 transform="scale(0.015625)" />
              <path
                 id="DejaVuSans-20"
                 transform="scale(0.015625)"
                 d="" />
              <path
                 id="DejaVuSans-28"
                 d="m 1984,4856 q -418,-718 -622,-1422 -203,-703 -203,-1425 0,-721 205,-1429 205,-708 620,-1424 h -500 q -468,735 -701,1444 -233,709 -233,1409 0,697 231,1403 232,707 703,1444 z"
                 transform="scale(0.015625)" />
              <path
                 id="DejaVuSans-75"
                 d="m 544,1381 v 2119 h 575 V 1403 q 0,-497 193,-746 194,-248 582,-248 465,0 735,297 271,297 271,810 v 1984 h 575 V 0 H 2900 V 538 Q 2691,219 2414,64 2138,-91 1772,-91 1169,-91 856,284 544,659 544,1381 Z m 1447,2203 z"
                 transform="scale(0.015625)" />
              <path
                 id="DejaVuSans-29"
                 d="m 513,4856 h 500 q 468,-737 701,-1444 233,-706 233,-1403 0,-700 -233,-1409 -233,-709 -701,-1444 H 513 q 415,716 620,1424 205,708 205,1429 0,722 -205,1425 -205,704 -620,1422 z"
                 transform="scale(0.015625)" />
            </defs>
            <use
               xlink:href="#DejaVuSans-52"
               id="use39" />
            <use
               xlink:href="#DejaVuSans-61"
               transform="translate(67.232422)"
               id="use40" />
            <use
               xlink:href="#DejaVuSans-64"
               transform="translate(128.51172)"
               id="use41" />
            <use
               xlink:href="#DejaVuSans-69"
               transform="translate(191.98828)"
               id="use42"
               style="display:inline;stroke-width:5;stroke-dasharray:none" />
            <use
               xlink:href="#DejaVuSans-6f"
               transform="translate(219.77148)"
               id="use43" />
            <use
               xlink:href="#DejaVuSans-20"
               transform="translate(280.95312)"
               id="use44" />
            <use
               xlink:href="#DejaVuSans-28"
               transform="translate(312.74023)"
               id="use45" />
            <use
               xlink:href="#DejaVuSans-75"
               transform="translate(351.75391)"
               id="use46" />
            <use
               xlink:href="#DejaVuSans-2e"
               transform="translate(415.13281)"
               id="use47" />
            <use
               xlink:href="#DejaVuSans-61"
               transform="translate(446.91992)"
               id="use48" />
            <use
               xlink:href="#DejaVuSans-2e"
               transform="translate(508.19922)"
               id="use49" />
            <use
               xlink:href="#DejaVuSans-29"
               transform="translate(539.98633)"
               id="use50" />
          </g>
        </g>
      </g>
      <g
         id="matplotlib.axis_2"
         style="display:inline"
         transform="translate(10.5,-18)">
        <g
           id="ytick_1">
          <g
             id="line2d_19">
            <path
               d="M 57.6,295.48803 H 414.72"
               clip-path="url(#peff9a1d1de)"
               style="fill:none;stroke:#b0b0b0;stroke-width:0.8;stroke-linecap:square"
               id="path50" />
          </g>
          <g
             id="line2d_20">
            <defs
               id="defs50">
              <path
                 id="m8f94c31b90"
                 d="M 0,0 H -3.5"
                 style="stroke:#000000;stroke-width:0.8" />
            </defs>
            <g
               id="g51">
              <use
                 xlink:href="#m8f94c31b90"
                 x="57.599998"
                 y="295.48804"
                 style="stroke:#000000;stroke-width:0.8"
                 id="use51" />
            </g>
          </g>
          <g
             id="text_11">
            <!-- 0.0 -->
            <g
               transform="matrix(0.1,0,0,-0.1,34.696875,299.28725)"
               id="g54">
              <use
                 xlink:href="#DejaVuSans-30"
                 id="use52" />
              <use
                 xlink:href="#DejaVuSans-2e"
                 transform="translate(63.623047)"
                 id="use53" />
              <use
                 xlink:href="#DejaVuSans-30"
                 transform="translate(95.410156)"
                 id="use54" />
            </g>
          </g>
        </g>
        <g
           id="ytick_2">
          <g
             id="line2d_21">
            <path
               d="M 57.6,261.54413 H 414.72"
               clip-path="url(#peff9a1d1de)"
               style="fill:none;stroke:#b0b0b0;stroke-width:0.8;stroke-linecap:square"
               id="path54" />
          </g>
          <g
             id="line2d_22">
            <g
               id="g55">
              <use
                 xlink:href="#m8f94c31b90"
                 x="57.599998"
                 y="261.54413"
                 style="stroke:#000000;stroke-width:0.8"
                 id="use55" />
            </g>
          </g>
          <g
             id="text_12">
            <!-- 0.1 -->
            <g
               transform="matrix(0.1,0,0,-0.1,34.696875,265.34335)"
               id="g58">
              <use
                 xlink:href="#DejaVuSans-30"
                 id="use56" />
              <use
                 xlink:href="#DejaVuSans-2e"
                 transform="translate(63.623047)"
                 id="use57" />
              <use
                 xlink:href="#DejaVuSans-31"
                 transform="translate(95.410156)"
                 id="use58" />
            </g>
          </g>
        </g>
        <g
           id="ytick_3">
          <g
             id="line2d_23">
            <path
               d="M 57.6,227.60023 H 414.72"
               clip-path="url(#peff9a1d1de)"
               style="fill:none;stroke:#b0b0b0;stroke-width:0.8;stroke-linecap:square"
               id="path58" />
          </g>
          <g
             id="line2d_24">
            <g
               id="g59">
              <use
                 xlink:href="#m8f94c31b90"
                 x="57.599998"
                 y="227.60023"
                 style="stroke:#000000;stroke-width:0.8"
                 id="use59" />
            </g>
          </g>
          <g
             id="text_13">
            <!-- 0.2 -->
            <g
               transform="matrix(0.1,0,0,-0.1,34.696875,231.39945)"
               id="g62">
              <use
                 xlink:href="#DejaVuSans-30"
                 id="use60" />
              <use
                 xlink:href="#DejaVuSans-2e"
                 transform="translate(63.623047)"
                 id="use61" />
              <use
                 xlink:href="#DejaVuSans-32"
                 transform="translate(95.410156)"
                 id="use62" />
            </g>
          </g>
        </g>
        <g
           id="ytick_4">
          <g
             id="line2d_25">
            <path
               d="M 57.6,193.65633 H 414.72"
               clip-path="url(#peff9a1d1de)"
               style="fill:none;stroke:#b0b0b0;stroke-width:0.8;stroke-linecap:square"
               id="path62" />
          </g>
          <g
             id="line2d_26">
            <g
               id="g63">
              <use
                 xlink:href="#m8f94c31b90"
                 x="57.599998"
                 y="193.65633"
                 style="stroke:#000000;stroke-width:0.8"
                 id="use63" />
            </g>
          </g>
          <g
             id="text_14">
            <!-- 0.3 -->
            <g
               transform="matrix(0.1,0,0,-0.1,34.696875,197.45555)"
               id="g66">
              <use
                 xlink:href="#DejaVuSans-30"
                 id="use64" />
              <use
                 xlink:href="#DejaVuSans-2e"
                 transform="translate(63.623047)"
                 id="use65" />
              <use
                 xlink:href="#DejaVuSans-33"
                 transform="translate(95.410156)"
                 id="use66" />
            </g>
          </g>
        </g>
        <g
           id="ytick_5">
          <g
             id="line2d_27">
            <path
               d="M 57.6,159.71243 H 414.72"
               clip-path="url(#peff9a1d1de)"
               style="fill:none;stroke:#b0b0b0;stroke-width:0.8;stroke-linecap:square"
               id="path66" />
          </g>
          <g
             id="line2d_28">
            <g
               id="g67">
              <use
                 xlink:href="#m8f94c31b90"
                 x="57.599998"
                 y="159.71243"
                 style="stroke:#000000;stroke-width:0.8"
                 id="use67" />
            </g>
          </g>
          <g
             id="text_15">
            <!-- 0.4 -->
            <g
               transform="matrix(0.1,0,0,-0.1,34.696875,163.51165)"
               id="g70">
              <use
                 xlink:href="#DejaVuSans-30"
                 id="use68" />
              <use
                 xlink:href="#DejaVuSans-2e"
                 transform="translate(63.623047)"
                 id="use69" />
              <use
                 xlink:href="#DejaVuSans-34"
                 transform="translate(95.410156)"
                 id="use70" />
            </g>
          </g>
        </g>
        <g
           id="ytick_6">
          <g
             id="line2d_29">
            <path
               d="M 57.6,125.76853 H 414.72"
               clip-path="url(#peff9a1d1de)"
               style="fill:none;stroke:#b0b0b0;stroke-width:0.8;stroke-linecap:square"
               id="path70" />
          </g>
          <g
             id="line2d_30">
            <g
               id="g71">
              <use
                 xlink:href="#m8f94c31b90"
                 x="57.599998"
                 y="125.76853"
                 style="stroke:#000000;stroke-width:0.8"
                 id="use71" />
            </g>
          </g>
          <g
             id="text_16">
            <!-- 0.5 -->
            <g
               transform="matrix(0.1,0,0,-0.1,34.696875,129.56775)"
               id="g74">
              <use
                 xlink:href="#DejaVuSans-30"
                 id="use72" />
              <use
                 xlink:href="#DejaVuSans-2e"
                 transform="translate(63.623047)"
                 id="use73" />
              <use
                 xlink:href="#DejaVuSans-35"
                 transform="translate(95.410156)"
                 id="use74" />
            </g>
          </g>
        </g>
        <g
           id="ytick_7">
          <g
             id="line2d_31">
            <path
               d="M 57.6,91.824631 H 414.72"
               clip-path="url(#peff9a1d1de)"
               style="fill:none;stroke:#b0b0b0;stroke-width:0.8;stroke-linecap:square"
               id="path74" />
          </g>
          <g
             id="line2d_32">
            <g
               id="g75">
              <use
                 xlink:href="#m8f94c31b90"
                 x="57.599998"
                 y="91.824631"
                 style="stroke:#000000;stroke-width:0.8"
                 id="use75" />
            </g>
          </g>
          <g
             id="text_17">
            <!-- 0.6 -->
            <g
               transform="matrix(0.1,0,0,-0.1,34.696875,95.62385)"
               id="g78">
              <defs
                 id="defs75">
                <path
                   id="DejaVuSans-36"
                   d="m 2113,2584 q -425,0 -674,-291 -248,-290 -248,-796 0,-503 248,-796 249,-292 674,-292 425,0 673,292 248,293 248,796 0,506 -248,796 -248,291 -673,291 z m 1253,1979 v -575 q -238,112 -480,171 -242,60 -480,60 -625,0 -955,-422 -329,-422 -376,-1275 184,272 462,417 279,145 613,145 703,0 1111,-427 408,-426 408,-1160 0,-719 -425,-1154 -425,-434 -1131,-434 -810,0 -1238,620 -428,621 -428,1799 0,1106 525,1764 525,658 1409,658 238,0 480,-47 242,-47 505,-140 z"
                   transform="scale(0.015625)" />
              </defs>
              <use
                 xlink:href="#DejaVuSans-30"
                 id="use76" />
              <use
                 xlink:href="#DejaVuSans-2e"
                 transform="translate(63.623047)"
                 id="use77" />
              <use
                 xlink:href="#DejaVuSans-36"
                 transform="translate(95.410156)"
                 id="use78" />
            </g>
          </g>
        </g>
        <g
           id="ytick_8"
           style="display:inline">
          <g
             id="line2d_33">
            <path
               d="M 57.6,57.880732 H 414.72"
               clip-path="url(#peff9a1d1de)"
               style="fill:none;stroke:#b0b0b0;stroke-width:0.8;stroke-linecap:square"
               id="path78" />
          </g>
          <g
             id="line2d_34">
            <g
               id="g79">
              <use
                 xlink:href="#m8f94c31b90"
                 x="57.599998"
                 y="57.880733"
                 style="stroke:#000000;stroke-width:0.8"
                 id="use79" />
            </g>
          </g>
          <g
             id="text_18">
            <!-- 0.7 -->
            <g
               transform="matrix(0.1,0,0,-0.1,34.696875,61.679951)"
               id="g82">
              <defs
                 id="defs79">
                <path
                   id="DejaVuSans-37"
                   d="M 525,4666 H 3525 V 4397 L 1831,0 H 1172 L 2766,4134 H 525 Z"
                   transform="scale(0.015625)" />
              </defs>
              <use
                 xlink:href="#DejaVuSans-30"
                 id="use80" />
              <use
                 xlink:href="#DejaVuSans-2e"
                 transform="translate(63.623047)"
                 id="use81" />
              <use
                 xlink:href="#DejaVuSans-37"
                 transform="translate(95.410156)"
                 id="use82" />
            </g>
          </g>
        </g>
        <g
           id="text_19"
           style="display:inline"
           transform="matrix(1.6335318,0,0,1.6335318,-30.303528,-103.88659)">
          <!-- $\chi_{1\mathrm{s}}(r)$ -->
          <g
             transform="matrix(0,-0.1,-0.1,0,28.596875,187.678)"
             id="g88"
             style="display:inline">
            <defs
               id="defs82">
              <path
                 id="DejaVuSans-Oblique-3c7"
                 d="M 1922,-781 1691,416 394,-1334 h -678 l 1837,2475 -284,1472 q -75,393 -556,393 H 559 l 94,494 219,-6 q 803,-22 903,-544 l 231,-1197 1297,1750 h 678 L 2144,1028 2428,-444 q 75,-394 556,-394 h 154 l -94,-493 -219,6 q -803,22 -903,544 z"
                 transform="scale(0.015625)" />
              <path
                 id="DejaVuSans-73"
                 d="m 2834,3397 v -544 q -243,125 -506,187 -262,63 -544,63 -428,0 -642,-131 -214,-131 -214,-394 0,-200 153,-314 153,-114 616,-217 l 197,-44 q 612,-131 870,-370 258,-239 258,-667 0,-488 -386,-773 Q 2250,-91 1575,-91 1294,-91 989,-36 684,19 347,128 v 594 q 319,-166 628,-249 309,-82 613,-82 406,0 624,139 219,139 219,392 0,234 -158,359 -157,125 -692,241 l -200,47 q -534,112 -772,345 -237,233 -237,639 0,494 350,762 350,269 994,269 318,0 599,-47 282,-46 519,-140 z"
                 transform="scale(0.015625)" />
              <path
                 id="DejaVuSans-Oblique-72"
                 d="m 2853,2969 q -87,47 -200,72 -112,25 -240,25 -460,0 -804,-349 -343,-348 -456,-933 L 800,0 H 225 l 684,3500 h 575 l -109,-544 q 228,303 545,465 318,163 677,163 94,0 184,-11 91,-10 182,-35 z"
                 transform="scale(0.015625)" />
            </defs>
            <use
               xlink:href="#DejaVuSans-Oblique-3c7"
               transform="translate(0,0.125)"
               id="use83" />
            <use
               xlink:href="#DejaVuSans-31"
               transform="matrix(0.7,0,0,0.7,59.179688,-16.28125)"
               id="use84"
               style="stroke-width:1.00501;stroke-dasharray:none" />
            <use
               xlink:href="#DejaVuSans-73"
               transform="matrix(0.7,0,0,0.7,103.71582,-16.28125)"
               id="use85"
               style="stroke-width:1.00501;stroke-dasharray:none" />
            <use
               xlink:href="#DejaVuSans-28"
               transform="translate(142.91992,0.125)"
               id="use86"
               style="stroke-width:1.00501;stroke-dasharray:none" />
            <use
               xlink:href="#DejaVuSans-Oblique-72"
               transform="translate(181.93359,0.125)"
               id="use87"
               style="stroke-width:1.00501;stroke-dasharray:none" />
            <use
               xlink:href="#DejaVuSans-29"
               transform="translate(223.04687,0.125)"
               id="use88"
               style="stroke-width:1.00501;stroke-dasharray:none" />
          </g>
        </g>
      </g>
      <g
         id="line2d_35"
         transform="translate(10.5,-18)">
        <path
           d="m 73.832727,103.98008 3.279339,7.58347 3.279339,7.28316 3.279339,6.99477 3.279339,6.71777 3.279338,6.45177 3.279339,6.19628 3.279339,5.95092 3.279341,5.71527 3.27934,5.48895 3.27934,5.2716 3.27934,5.06285 3.27933,4.86237 3.27934,4.66982 3.27934,4.4849 3.27934,4.30731 3.27934,4.13675 3.27934,3.97293 3.27934,3.81561 3.27933,3.66452 3.27934,3.51941 3.27934,3.38005 3.27934,3.2462 3.27934,3.11765 3.27934,2.9942 3.27934,2.87563 3.27934,2.76177 3.27934,2.6524 3.27933,2.54736 3.27934,2.4465 3.27934,2.34962 3.27934,2.25657 3.27934,2.16722 3.27934,2.0814 3.27934,1.99898 3.27934,1.91982 3.27934,1.8438 3.27933,1.77079 3.27934,1.70067 3.27934,1.63332 3.27934,1.56864 3.27934,1.50653 3.27934,1.44687 3.27934,1.38958 3.27934,1.33455 3.27933,1.28171 3.27934,1.23095 3.27934,1.18221 3.27934,1.13539 3.27934,1.09044 3.27934,1.04725 3.27934,1.00579 3.27934,0.96595 3.27934,0.92771 3.27933,0.89097 3.27934,0.85569 3.27934,0.8218 3.27934,0.78927 3.27934,0.75801 3.27934,0.72799 3.27934,0.69916 3.27934,0.67148 3.27934,0.64489 3.27933,0.61935 3.27934,0.59483 3.27934,0.57127 3.27934,0.54865 3.27934,0.52693 3.27934,0.50606 3.27934,0.48602 3.27934,0.46677 3.27934,0.44829 3.27933,0.43054 3.27934,0.41349 3.27934,0.39712 3.27934,0.38139 3.27934,0.36629 3.27934,0.35178 3.27934,0.33786 3.27934,0.32447 3.27934,0.31163 3.27933,0.29929 3.27934,0.28743 3.27934,0.27606 3.27934,0.26512 3.27934,0.25462 3.27934,0.24454 3.27934,0.23486 3.27933,0.22556 3.27934,0.21662 3.27934,0.20805 3.27934,0.19981 3.27934,0.19189 3.27934,0.1843 3.27934,0.177 3.27934,0.16999 3.27934,0.16326 3.27933,0.1568 3.27934,0.15058 3.27934,0.14463"
           clip-path="url(#peff9a1d1de)"
           style="fill:none;stroke:#000000;stroke-width:2;stroke-linecap:square;stroke-dasharray:none"
           id="path88" />
      </g>
      <g
         id="line2d_36"
         transform="translate(10.5,-18)">
        <path
           d="m 73.832727,53.568 3.279339,0.394609 3.279339,1.179969 3.279339,1.953819 3.279339,2.708691 3.279338,3.43743 3.279339,4.133291 3.279339,4.790064 3.279341,5.402144 3.27934,5.964626 3.27934,6.47336 3.27934,6.924999 3.27933,7.317028 3.27934,7.6478 3.27934,7.91647 3.27934,8.12306 3.27934,8.26837 3.27934,8.35393 3.27934,8.38197 3.27933,8.35533 3.27934,8.27737 3.27934,8.15193 3.27934,7.98318 3.27934,7.77558 3.27934,7.53381 3.27934,7.26258 3.27934,6.96667 3.27934,6.65081 3.27933,6.31956 3.27934,5.97732 3.27934,5.62827 3.27934,5.27624 3.27934,4.92483 3.27934,4.57721 3.27934,4.23626 3.27934,3.90445 3.27934,3.58388 3.27933,3.27632 3.27934,2.98314 3.27934,2.70542 3.27934,2.44392 3.27934,2.19908 3.27934,1.97112 3.27934,1.76002 3.27934,1.56553 3.27933,1.38726 3.27934,1.22467 3.27934,1.07709 3.27934,0.94377 3.27934,0.8239 3.27934,0.71659 3.27934,0.62099 3.27934,0.53617 3.27934,0.46125 3.27933,0.39537 3.27934,0.33767 3.27934,0.28736 3.27934,0.24367 3.27934,0.20588 3.27934,0.17333 3.27934,0.14542 3.27934,0.12156 3.27934,0.10126 3.27933,0.084 3.27934,0.0695 3.27934,0.0573 3.27934,0.0471 3.27934,0.0385 3.27934,0.0314 3.27934,0.0256 3.27934,0.0207 3.27934,0.0167 3.27933,0.0134 3.27934,0.0108 3.27934,0.009 3.27934,0.007 3.27934,0.005 3.27934,0.004 3.27934,0.003 3.27934,0.003 3.27934,0.002 3.27933,0.002 3.27934,0.001 3.27934,9.8e-4 3.27934,7.5e-4 3.27934,5.8e-4 3.27934,4.5e-4 3.27934,3.4e-4 3.27933,2.5e-4 3.27934,2e-4 3.27934,1.5e-4 3.27934,1.1e-4 3.27934,9e-5 3.27934,6e-5 3.27934,5e-5 3.27934,3e-5 3.27934,3e-5 3.27933,2e-5 3.27934,1e-5 3.27934,10e-6"
           clip-path="url(#peff9a1d1de)"
           style="fill:none;stroke:#1f77b4;stroke-width:2;stroke-dasharray:7.4, 3.2;stroke-dashoffset:0"
           id="path89" />
      </g>
      <g
         id="patch_3"
         transform="translate(10.5,-18)">
        <path
           d="M 57.6,307.584 V 41.472"
           style="fill:none;stroke:#000000;stroke-width:0.8;stroke-linecap:square;stroke-linejoin:miter"
           id="path90" />
      </g>
      <g
         id="patch_4"
         transform="translate(10.5,-18)">
        <path
           d="M 414.72,307.584 V 41.472"
           style="fill:none;stroke:#000000;stroke-width:0.8;stroke-linecap:square;stroke-linejoin:miter"
           id="path91" />
      </g>
      <g
         id="patch_5"
         transform="translate(10.5,-18)">
        <path
           d="M 57.6,307.584 H 414.72"
           style="fill:none;stroke:#000000;stroke-width:0.8;stroke-linecap:square;stroke-linejoin:miter"
           id="path92" />
      </g>
      <g
         id="patch_6"
         transform="translate(10.5,-18)">
        <path
           d="M 57.6,41.472 H 414.72"
           style="fill:none;stroke:#000000;stroke-width:0.8;stroke-linecap:square;stroke-linejoin:miter"
           id="path93" />
      </g>
      <g
         id="legend_1"
         style="display:inline"
         transform="matrix(1.4891412,0,0,1.4891412,-190.15551,-40.486799)">
        <g
           id="patch_7"
           transform="matrix(1.0071252,0,0,1.0071252,-2.9229021,-0.32755998)">
          <path
             d="m 353.82,83.472 h 53.9 q 2,0 2,-2 v -33 q 0,-2 -2,-2 h -53.9 q -2,0 -2,2 v 33 q 0,2 2,2 z"
             style="opacity:0.8;fill:#ffffff;stroke:#cccccc;stroke-linejoin:miter"
             id="path94" />
        </g>
        <g
           id="line2d_37">
          <path
             d="m 355.82,56.072 h 10 10"
             style="fill:none;stroke:#000000;stroke-width:1.5;stroke-linecap:square"
             id="path95" />
        </g>
        <g
           id="text_20">
          <!-- $\chi_{1\mathrm{s}}^{\mathrm{STO}}$ -->
          <g
             transform="matrix(0.1,0,0,-0.1,383.82,59.572)"
             id="g100">
            <defs
               id="defs95">
              <path
                 id="DejaVuSans-53"
                 d="m 3425,4513 v -616 q -359,172 -678,256 -319,85 -616,85 -515,0 -795,-200 -280,-200 -280,-569 0,-310 186,-468 186,-157 705,-254 l 381,-78 q 706,-135 1042,-474 336,-339 336,-907 0,-679 -455,-1029 -454,-350 -1332,-350 -331,0 -705,75 -373,75 -773,222 v 650 q 384,-215 753,-325 369,-109 725,-109 540,0 834,212 294,213 294,607 0,343 -211,537 -211,194 -692,291 l -385,75 q -706,140 -1022,440 -315,300 -315,835 0,619 436,975 436,356 1201,356 329,0 669,-60 341,-59 697,-177 z"
                 transform="scale(0.015625)" />
              <path
                 id="DejaVuSans-54"
                 d="M -19,4666 H 3928 V 4134 H 2272 V 0 H 1638 V 4134 H -19 Z"
                 transform="scale(0.015625)" />
              <path
                 id="DejaVuSans-4f"
                 d="m 2522,4238 q -688,0 -1093,-513 -404,-512 -404,-1397 0,-881 404,-1394 405,-512 1093,-512 687,0 1089,512 402,513 402,1394 0,885 -402,1397 -402,513 -1089,513 z m 0,512 q 981,0 1568,-658 588,-658 588,-1764 0,-1103 -588,-1761 -587,-658 -1568,-658 -984,0 -1574,656 -589,657 -589,1763 0,1106 589,1764 590,658 1574,658 z"
                 transform="scale(0.015625)" />
            </defs>
            <use
               xlink:href="#DejaVuSans-Oblique-3c7"
               transform="translate(0,0.765625)"
               id="use95" />
            <use
               xlink:href="#DejaVuSans-53"
               transform="matrix(0.7,0,0,0.7,63.652396,39.046875)"
               id="use96" />
            <use
               xlink:href="#DejaVuSans-54"
               transform="matrix(0.7,0,0,0.7,108.08599,39.046875)"
               id="use97" />
            <use
               xlink:href="#DejaVuSans-4f"
               transform="matrix(0.7,0,0,0.7,150.84478,39.046875)"
               id="use98" />
            <use
               xlink:href="#DejaVuSans-31"
               transform="matrix(0.7,0,0,0.7,59.179688,-26.578125)"
               id="use99" />
            <use
               xlink:href="#DejaVuSans-73"
               transform="matrix(0.7,0,0,0.7,103.71582,-26.578125)"
               id="use100" />
          </g>
        </g>
        <g
           id="line2d_38">
          <path
             d="m 355.82,73.072 h 10 10"
             style="fill:none;stroke:#1f77b4;stroke-width:1.5;stroke-dasharray:5.55, 2.4;stroke-dashoffset:0"
             id="path100" />
        </g>
        <g
           id="text_21">
          <!-- $\chi_{1\mathrm{s}}^{\mathrm{GTO}}$ -->
          <g
             transform="matrix(0.1,0,0,-0.1,383.82,76.572)"
             id="g106">
            <defs
               id="defs100">
              <path
                 id="DejaVuSans-47"
                 d="M 3809,666 V 1919 H 2778 v 519 H 4434 V 434 Q 4069,175 3628,42 3188,-91 2688,-91 1594,-91 976,548 359,1188 359,2328 q 0,1144 617,1783 618,639 1712,639 456,0 867,-113 411,-112 758,-331 v -672 q -350,297 -744,447 -394,150 -828,150 -857,0 -1287,-478 -429,-478 -429,-1425 0,-944 429,-1422 430,-478 1287,-478 334,0 596,58 263,58 472,180 z"
                 transform="scale(0.015625)" />
            </defs>
            <use
               xlink:href="#DejaVuSans-Oblique-3c7"
               transform="translate(0,0.765625)"
               id="use101" />
            <use
               xlink:href="#DejaVuSans-47"
               transform="matrix(0.7,0,0,0.7,63.652396,39.046875)"
               id="use102" />
            <use
               xlink:href="#DejaVuSans-54"
               transform="matrix(0.7,0,0,0.7,117.89556,39.046875)"
               id="use103" />
            <use
               xlink:href="#DejaVuSans-4f"
               transform="matrix(0.7,0,0,0.7,160.65435,39.046875)"
               id="use104" />
            <use
               xlink:href="#DejaVuSans-31"
               transform="matrix(0.7,0,0,0.7,59.179688,-26.578125)"
               id="use105" />
            <use
               xlink:href="#DejaVuSans-73"
               transform="matrix(0.7,0,0,0.7,103.71582,-26.578125)"
               id="use106" />
          </g>
        </g>
      </g>
    </g>
  </g>
  <defs
     id="defs106">
    <clipPath
       id="peff9a1d1de">
      <rect
         x="57.6"
         y="41.472"
         width="357.12"
         height="266.112"
         id="rect106" />
    </clipPath>
  </defs>
</svg>
